<?xml version="1.0" encoding="UTF-8"?>
<svg xmlns="http://www.w3.org/2000/svg" version="1.1" viewBox="0 0 100 100">
  <!-- Generator: Adobe Illustrator 30.0.0, SVG Export Plug-In . SVG Version: 2.1.1 Build 123)  -->
  <defs>
    <style>
      .st0 {
        fill: #94271e;
      }

      .st1 {
        fill: #ffeaaa;
      }
    </style>
  </defs>
  <g id="_图层_2" data-name="图层_2">
    <path class="st0" d="M87.72,91.35l-.85-3.94-.05,2.3-.26.7-.39.77-.23,1.13s-4.41-.14-6.59-.08c-3.68.09-7.54-.67-10.97-.53-3.1.13-4.52,1.01-6.23.89-2.68-.2-2.22-1.71-4.6-1.55-4.54.3-3.52,1.53-7.81.68-3.51-.69-4,1.58-5.71,1.36-4.33-.56-6.69-.32-7.8.05-1.91.63-2.95-1.09-4.05-1.08-1.43.01-2.12.16-3.37.16-2,0-2.9-1.03-4.37-1.02-2.88.02-2.63.49-2.75.49-1.17.03-.72-.58-1.74-.54-1.57.06-1.76.62-2.53.62-.08,0-.91.03-.99.04l-3.15.33-.8-.35-1.38.27c-.61.12-1.25,0-1.77-.35-.29-.19-.56-.4-.81-.53-.62-.32-1.64-1.55-1.66-2.25-.03-1.47.82-6.66.82-6.66l2.92-.85-1.57-.42-.34-.98s.31-3.26.2-3.53c-2.06-5.35-2.12-6.64-1.94-9.65.13-2.15.72-4.23,1.06-5.42.99-3.47-.43-5.24-.55-5.85-.73-3.79.51-4.16.74-5.51.46-2.67-.39-4.72-.81-5.86-.45-1.22.43-3.32.27-3.56-.72-1.09.11-4.29.11-4.29.04-.6.38-1.02.78-1.4.88-.85.99-2.22.25-3.18l.48-.37c-.43-.57-.52-1.48-.52-1.48l1.28-1.12,3.55,1.32-1.25-1.93s-3.38-1.17-3.55-1.83c-.11-.43-.03-2.12.1-2.54l-.46-2.91c.08-.53.12-.9.04-1.43-.1-.76-.52-1.63-.65-2.36l-.67-4.57c-.14-.83-.03-1.49.3-2.27.74-1.74,2.12-2.64,3.71-2.44l1.41.12c.14.01.29.02.43,0,.7-.06,1.38-.24,2.02-.52.3-.13.92-.32,1.44-.44.33-.07.67-.08,1-.01l1.43.29c1.63.23,2.19,1.21,2.35.6l.26.28.15,2.58.43-.72.31-.23.3-.86.44-.17s.24-.68.25-.68c.41.07,1.97.49,1.97.49l.11,1.25.77-1.07s1.87.19,2.4.17c1.85-.04,2.7-1.51,4-1.14,7.51,2.09,8.31.63,12.67-.92,1.26-.45,1.55,1.19,2.02,1.09,4.83-.95,8.25-.56,11,.02,8.19,1.73,16.49.3,19.1-.12,2.75-.44,11.96.59,11.96.59.81,0,1.06.65,1.06.65l.56-.09.52-.08.47.23s.14,1.57.33,1.68c0,0,.41,4.46.24,7.36-.07,1.29-.79,2.86-1.66,4.04-.61.83-.1,1.88-.1,1.88l.42.68-.95.78h1.33s-1.02.87-1.02.87c0,0,2.01,1.89,2.11,4.82s-.13,4.96.15,6.08c.67,2.75-.97,5.45-.83,6.73.1.9.63,1.37.77,2.02.18.88-.61,3.89-1.49,5.65-.49.99-1.39,1.77-1.39,1.77l.44.58-1.4,1.01,2.28-.59.54,1.12s1.7,4.05,1.67,6.12c-.05,3.63-.46,4.8-.69,5.46-.69,1.93.52,2.06.49,2.97-.06,2.07-1,3.18-1.09,4.72-.07,1.12-.52,4.37-.52,4.37,0,.4.09.8.28,1.15v.83c.28.52.22.9.06,1.47-.05.18.1.71.1.71l-.13.7c-.04.23-.05.47-.03.7l.41,3.78c0,.34-1.59,2.77-1.59,2.77l-.86.34-.86-.71s-.49.39-1.31.31Z"/>
  </g>
  <g id="_图层_4" data-name="图层_4">
    <path class="st1" d="M25.93,61.01s.31-.09.88-.22l1.72-.33c.62-.18,1.29-.52,2.02-1.01.73-.49,1.47-1.23,2.23-2.21.76-.98,1.19-1.78,1.3-2.38s.14-.93.08-1c-.05-.06-.41,0-1.07.18l-1.26.25-1.29.96-1.7.08-.71.38c-.58.16-1.11-.23-1.59-1.18-.11-.18-.24-.55-.4-1.09-.16-.55-.13-1,.07-1.37.09-.18.33-.43.71-.74.38-.31.8-.48,1.26-.52l.77.03,1.94-.19h1.01c.24,0,.56-.04.96-.12.4-.08.79-.14,1.16-.18.37-.04.7-.12.98-.26.28-.14.44-.39.46-.75.03-.36-.15-.69-.53-.98-.29-.2-.91-.33-1.85-.4-.94-.06-1.89-.23-2.84-.51s-1.5-.56-1.64-.86-.19-.8-.15-1.49c.02-.71.09-1.13.22-1.26s.54-.3,1.23-.52l.85-.3c.22-.05.44-.09.66-.11.13,0,.25,0,.38.03l1.39.49.6.03c.35.02.76.14,1.24.36.48.22.82.27,1,.16.2-.11.41-.52.63-1.24.22-.72.2-1.22-.05-1.49-.16-.15-.78-.28-1.86-.4-1.08-.12-1.76-.29-2.05-.52-.29-.23-.46-.53-.52-.92l.05-1.97c-.07-.22-.1-.36-.08-.41,0-.18.15-.38.46-.59.31-.21.76-.36,1.34-.45.58-.09.93-.16,1.04-.22l1.01-.71,1.64.08,1.01-.27.88-.03,1.72-.41,1.5-.19,2.19-.6c1.55-.27,2.42-.46,2.6-.56.18-.1.59-.63,1.23-1.6.64-.97,1.28-1.52,1.91-1.65.64-.14,1.17-.05,1.59.26.24.2.47.62.71,1.24.24.63.41,1.04.53,1.24.12.2.36.39.72.57.36.18.86.26,1.48.22l1.72-.16,2.32.16h2l2.95.74,2.27.33c.11.05.22.1.33.14l.85.49c.51.16.77.25.78.26,0,0,.03.21.07.62l.55,1.86-.96.57c-.16.24-.56.38-1.18.44l-1.37.19c-.26.02-.76-.06-1.5-.23-.75-.17-1.37-.25-1.86-.23l-2.05.19-1.89-.38c-1.57-.02-2.36-.05-2.38-.08l-.33-.3c-.2-.13-.59-.18-1.18-.16l-1.7.05-2,.14c-.62.05-1.08.19-1.39.4-.31.21-.45.73-.42,1.56.03.83.24,1.41.64,1.74.4.33,1.05.43,1.95.3.9-.13,1.44-.19,1.6-.19h1.91l1.15.19c.14.02.78-.03,1.9-.15,1.12-.12,1.75-.18,1.9-.18l1.91.08,1.26-.14,2.65.19,1.12-.16c.11,0,.2.01.26.04.06.03.16.18.29.45l1.12,1.7c.13.42.11.8-.05,1.15-.11.2-.53.56-1.27,1.08s-1.18.81-1.33.86c-.15.05-.34.08-.57.08-.31.04-.95,0-1.91-.1-.97-.1-1.8-.22-2.49-.36-.69-.14-1.11-.21-1.26-.23l-.85.05c-.6.04-1.01.14-1.22.31-.21.17-.29.46-.23.88s.16.67.33.78.44.15.82.11l.88-.08,2.65.36,2.08.11,2.3.14,1.15-.05c1.46.02,2.23.4,2.31,1.13s0,1.36-.23,1.87c-.6,1.26-1.7,1.88-3.28,1.86-.66,0-1.43-.08-2.31-.23-.88-.15-1.49-.22-1.82-.21l-1.15.14-1.45-.03c-.66.11-1.04.3-1.13.56-.1.26.19.77.86,1.52.53.62.84.96.93,1.01l1.29.79.52.55c.73.78,1.95,1.57,3.65,2.37,1.7.79,3.07,1.24,4.09,1.33,1.02.09,2.22.13,3.61.12,1.38,0,2.15.07,2.28.23s.06.57-.23,1.23c-.26.53-.7,1.24-1.34,2.15-.64.9-1.41,1.64-2.32,2.23l-1.94,1.12c-.47.27-.83.45-1.07.52-.24.07-.71.1-1.42.08-.62,0-1.11-.05-1.46-.14-.36-.09-.82-.37-1.38-.82l-2.65-2.43c-.38-.33-.65-.57-.79-.74-.15-.16-.46-.67-.96-1.5l-2.24-3.34c-.11-.18-.41-.77-.9-1.75s-.87-1.45-1.12-1.39c-.11.04-.33.26-.66.68l-1.31,1.29-1.64,2.11c-.31.38-.86.93-1.64,1.65-.78.72-2,1.64-3.64,2.75-1.64,1.11-3.07,1.62-4.29,1.53-.29-.02-.77-.12-1.45-.3-.67-.18-1.17-.43-1.48-.74l-1.59-.66c-.16-.09-.37-.35-.63-.77-.26-.42-.4-.69-.42-.81-.03-.12.19-.36.64-.72.31-.25.53-.42.66-.49l.71-.36.79-.44c.13-.05.61-.16,1.44-.33.83-.16,1.93-.55,3.31-1.16,1.38-.61,2.48-1.2,3.31-1.78.83-.57,1.66-1.29,2.5-2.13.84-.85,1.39-1.51,1.64-2,.25-.48.3-.88.14-1.19-.16-.31-.9-.15-2.22.46-.46.22-.85.37-1.18.44l-2.3.36c-.33.09-.78.25-1.37.46-.58.22-1.02.33-1.31.33-.26.02-.48-.03-.68-.14l-1.5-1.29c-.07-.02-.13-.04-.16-.08l-.49-.19c-.27-.2-.28-.61-.03-1.23.18-.47.64-.95,1.38-1.42.74-.47,1.36-.77,1.87-.88l1.64-.22.96-.25.93-.05c.33-.07.51-.11.55-.11l.44.14c.25.09.74-.01,1.46-.31.72-.3,1.32-.45,1.81-.44.48,0,.86-.04,1.12-.14.26-.1.47-.45.63-1.05.15-.6.05-.95-.31-1.04l-.44.03-.55-.08c-.11,0-.37.03-.77.08l-2.24.16c-.36.07-.83.04-1.38-.11-.56-.15-1.16,0-1.82.41-.71.46-1.11.68-1.2.68h-.74l-.79.27c-.29.02-.65-.27-1.07-.88-.46-.62-.65-1.18-.57-1.7.04-.35.23-.72.57-1.12l1.45-1.31c.2-.2.39-.42.56-.67.17-.25.39-.64.64-1.18.25-.54.38-.89.38-1.05-.02-.24-.16-.47-.42-.71-.26-.24-.46-.39-.59-.46-.2-.07-.83,0-1.9.25-1.07.24-1.66.42-1.78.55-.12.13-.3.46-.53,1.01l-.55,1.18c-.13.31-.3,1-.52,2.08-.22,1.08-.35,2.09-.38,3.04-.04.95-.08,1.5-.14,1.64l-.3.57c-.11.24-.19.78-.25,1.61-.05.84-.2,1.78-.44,2.83-.24,1.05-.42,1.95-.56,2.71-.14.76-.21,1.19-.23,1.3l-.68,1.61c-.04.09-.22.63-.56,1.63-.34.99-.93,2.01-1.76,3.04-.84,1.03-1.79,1.93-2.84,2.71-1.06.77-1.8,1.15-2.24,1.13-.04,0-.28-.03-.74-.1-.46-.06-.73-.11-.82-.15-.09-.04-.35-.21-.77-.52-.42-.31-.75-.62-1-.92s-.38-.8-.4-1.5c-.02-.7-.02-1.3,0-1.79.02-.38.06-.78.12-1.2.06-.42.11-.65.15-.68Z"/>
  </g>
</svg>