<?xml version="1.0" encoding="UTF-8"?>
<svg xmlns="http://www.w3.org/2000/svg" version="1.1" viewBox="0 0 100 100">
  <!-- Generator: Adobe Illustrator 30.0.0, SVG Export Plug-In . SVG Version: 2.1.1 Build 123)  -->
  <defs>
    <style>
      .st0 {
        fill: #94271e;
      }

      .st1 {
        fill: #ffeaaa;
      }
    </style>
  </defs>
  <g id="_图层_2" data-name="图层_2">
    <path class="st0" d="M87.72,91.35l-.85-3.94-.05,2.3-.26.7-.39.77-.23,1.13s-4.41-.14-6.59-.08c-3.68.09-7.54-.67-10.97-.53-3.1.13-4.52,1.01-6.23.89-2.68-.2-2.22-1.71-4.6-1.55-4.54.3-3.52,1.53-7.81.68-3.51-.69-4,1.58-5.71,1.36-4.33-.56-6.69-.32-7.8.05-1.91.63-2.95-1.09-4.05-1.08-1.43.01-2.12.16-3.37.16-2,0-2.9-1.03-4.37-1.02-2.88.02-2.63.49-2.75.49-1.17.03-.72-.58-1.74-.54-1.57.06-1.76.62-2.53.62-.08,0-.91.03-.99.04l-3.15.33-.8-.35-1.38.27c-.61.12-1.25,0-1.77-.35-.29-.19-.56-.4-.81-.53-.62-.32-1.64-1.55-1.66-2.25-.03-1.47.82-6.66.82-6.66l2.92-.85-1.57-.42-.34-.98s.31-3.26.2-3.53c-2.06-5.35-2.12-6.64-1.94-9.65.13-2.15.72-4.23,1.06-5.42.99-3.47-.43-5.24-.55-5.85-.73-3.79.51-4.16.74-5.51.46-2.67-.39-4.72-.81-5.86-.45-1.22.43-3.32.27-3.56-.72-1.09.11-4.29.11-4.29.04-.6.38-1.02.78-1.4.88-.85.99-2.22.25-3.18l.48-.37c-.43-.57-.52-1.48-.52-1.48l1.28-1.12,3.55,1.32-1.25-1.93s-3.38-1.17-3.55-1.83c-.11-.43-.03-2.12.1-2.54l-.46-2.91c.08-.53.12-.9.04-1.43-.1-.76-.52-1.63-.65-2.36l-.67-4.57c-.14-.83-.03-1.49.3-2.27.74-1.74,2.12-2.64,3.71-2.44l1.41.12c.14.01.29.02.43,0,.7-.06,1.38-.24,2.02-.52.3-.13.92-.32,1.44-.44.33-.07.67-.08,1-.01l1.43.29c1.63.23,2.19,1.21,2.35.6l.26.28.15,2.58.43-.72.31-.23.3-.86.44-.17s.24-.68.25-.68c.41.07,1.97.49,1.97.49l.11,1.25.77-1.07s1.87.19,2.4.17c1.85-.04,2.7-1.51,4-1.14,7.51,2.09,8.31.63,12.67-.92,1.26-.45,1.55,1.19,2.02,1.09,4.83-.95,8.25-.56,11,.02,8.19,1.73,16.49.3,19.1-.12,2.75-.44,11.96.59,11.96.59.81,0,1.06.65,1.06.65l.56-.09.52-.08.47.23s.14,1.57.33,1.68c0,0,.41,4.46.24,7.36-.07,1.29-.79,2.86-1.66,4.04-.61.83-.1,1.88-.1,1.88l.42.68-.95.78h1.33s-1.02.87-1.02.87c0,0,2.01,1.89,2.11,4.82s-.13,4.96.15,6.08c.67,2.75-.97,5.45-.83,6.73.1.9.63,1.37.77,2.02.18.88-.61,3.89-1.49,5.65-.49.99-1.39,1.77-1.39,1.77l.44.58-1.4,1.01,2.28-.59.54,1.12s1.7,4.05,1.67,6.12c-.05,3.63-.46,4.8-.69,5.46-.69,1.93.52,2.06.49,2.97-.06,2.07-1,3.18-1.09,4.72-.07,1.12-.52,4.37-.52,4.37,0,.4.09.8.28,1.15v.83c.28.52.22.9.06,1.47-.05.18.1.71.1.71l-.13.7c-.04.23-.05.47-.03.7l.41,3.78c0,.34-1.59,2.77-1.59,2.77l-.86.34-.86-.71s-.49.39-1.31.31Z"/>
  </g>
  <g id="_图层_4" data-name="图层_4">
    <path class="st1" d="M27.62,55.72c.55-.04.95-.11,1.2-.22l1.61-1.23.68-.33.88-.52,1.07-.52.88-.85,1.09-.68c.75-.47,1.31-1.07,1.68-1.79.37-.72.58-1.17.62-1.35l.11-.63c-.33-.18-.55-.29-.67-.31-.12-.03-.86.1-2.23.37l-1.78.22-1.61.71c-1.15.49-2.21.54-3.2.14-.29-.27-.63-.53-1.01-.77-.13-.29-.2-.51-.21-.66,0-.15.05-.51.16-1.09.12-.58.23-.96.34-1.12l.38-.66c1.33-.77,2.23-1.48,2.71-2.13.47-.66.66-1.38.55-2.16-.18-1.09-.63-1.69-1.34-1.78h-.93c-.38-.09-.64-.35-.77-.77l.05-1.59v-.77c.02-.16.15-.41.41-.74.25-.33.52-.75.79-1.26.4,0,.71-.02.93-.07.22-.05.64-.19,1.26-.44.62-.25,1.08-.41,1.39-.48l2.35-.22c.18-.02.78-.14,1.8-.36,1.02-.22,1.95-.3,2.79-.25l1.07.08,2.16-.19c.24.04.7.2,1.39.48.69.28,1.15.53,1.38.75.23.22.36.52.41.89.05.37.05.64.01.81-.15.49-.75,1.12-1.8,1.89-1.06.77-1.73,1.43-2.02,2-.29.57-.22,1.2.22,1.91.15.26.32.44.53.56.21.12.49.19.85.21.36.02.81.12,1.35.31s.87.46.96.79c.09.34.05.81-.14,1.41-.16.53-.31.96-.44,1.3-.13.34-.32.6-.57.79-.26.19-.49.31-.71.37l-1.26.33c-.26.15-.53.47-.83.97s-.5.91-.6,1.23c-.1.32-.16.67-.18,1.05l-.03.85-.14,1.34c-.02.22-.03.43-.04.64,0,.21,0,.42.04.62l.05.52c.04.44.05.83.03,1.18l-.16,1.72.08,1.12v2.49c0,.97,0,1.53-.01,1.68,0,.16-.03.31-.07.48l-.16.52s-.04.26-.05.72c-.02.46-.12,1.14-.3,2.02-.18.88-.31,1.38-.38,1.49l-.41.66c-.15.31-.34.66-.57,1.04-.84.07-1.37.03-1.59-.14s-.37-.31-.45-.44c-.08-.13-.18-.4-.3-.81-.12-.41-.18-.91-.19-1.5,0-.59.03-1.19.12-1.79.09-.6.15-1,.16-1.2v-1.12l.16-.85.11-1.29.49-1.29c.42-1.38.31-2.17-.33-2.37-.64-.19-.94-.1-.9.29v.14c-.82.47-1.36.88-1.61,1.23l-.63.85c-.53.49-.97.85-1.31,1.07l-.85.46-.66.41c-.55.33-1.15.57-1.82.72-.67.16-1.13.23-1.41.23-.36.02-.82-.07-1.37-.26s-.89-.51-1.03-.94-.21-.95-.21-1.53c0-.86.06-1.39.19-1.61l.41-.77c.36-.02.81-.1,1.34-.25ZM34.65,41.91c.69-.13,1.23-.24,1.61-.33.38-.09.77-.24,1.15-.45.38-.21.88-.82,1.49-1.83.61-1.01.58-1.71-.08-2.09-.67-.38-1.17-.52-1.52-.41l-.88.55-1.04.44c-.18.09-.48.3-.89.63s-.61.74-.59,1.23l.14.79.08.77c.02.11.12.26.3.44.18.18.25.27.22.27ZM67.11,34.63l-.22,1.39-.22.11c-.22.58-.55,1.14-1,1.68-.45.54-.62.93-.52,1.19.1.26.31.36.64.33l3.12.27c.49,0,.96.05,1.39.16s.82.41,1.15.89c.33.48.48.77.46.86l-.14.74c-.42.64-.77.99-1.04,1.07l-1.42-.11-1.94.33-.74-.05-2.54-.11-.9.38c-.27.82-.33,1.31-.18,1.48.15.16.45.31.88.45.43.14.82.2,1.19.18l1.61-.08.79.25c.58.04,1.02.04,1.31.01.29-.03.48-.03.57-.01.09.04.36.19.79.46s.68.52.74.72c.05.21-.1.69-.46,1.44-.35.69-.66,1.18-.93,1.46-.27.28-.8.35-1.59.21l-1.42-.41c-.13,0-.35.01-.67.04-.32.03-.79.04-1.42.03-.63,0-1.04.06-1.22.21l-.74.49c.02.82.12,1.26.3,1.31l.85.49c.96-.02,1.85-.05,2.65-.1.8-.04,1.93-.08,3.39-.1.18.27.42.62.71,1.03.29.41.4.72.33.92l-.25.96-.3.27c-.35.35-.6.56-.77.64s-.65.19-1.45.31l-1.64.38c-.37.07-.93.08-1.68.01-.76-.06-1.24-.02-1.46.12l-.74.44c-.35.4-.56.85-.63,1.34-.07.49.39.92,1.39,1.29.22.09.46.13.74.11l1.61-.22.85.22c.09.02.34,0,.75-.07.41-.06.95-.05,1.63.04.67.09,1.08.12,1.23.08l.38-.08,1.75.11c.18,0,.74-.15,1.68-.46.94-.31,1.49-.39,1.65-.23.16.16.21.61.14,1.35-.09.69-.16,1.11-.21,1.26-.05.15-.2.49-.45,1.04l-.27.57-.98,1.61c-.13.22-.29.43-.48.64-.19.21-.49.34-.89.38-.4.04-1.12.06-2.16.04-1.15,0-2.09-.11-2.82-.33l-1.45-.38c-.68-.15-1.76-.2-3.25-.16-.27.02-.5.02-.68,0l-2.35-.11-1.67.27c-.29.04-.82.03-1.59-.03-.77-.04-1.29-.03-1.59.03-.29.05-.88.32-1.75.79l-1.72.9c-.4.24-.8.54-1.2.92-.4.37-.88.4-1.45.07-.42-.22-.71-.57-.88-1.04-.16-.47-.26-.78-.29-.92s0-.69.07-1.65l.08-2.24.22-.93c.11-.49.16-1.08.16-1.78-.02-.25-.03-.48-.03-.68l-.14-1.18.25-2.32v-1.07l.08-.82-.14-1.34.11-1.01c0-.18-.01-.51-.04-.98-.03-.47-.02-.85.01-1.12,0-.07.11-.6.33-1.57.22-.98.32-1.83.3-2.56-.02-.27-.13-.97-.33-2.08-.2-1.11-.38-1.73-.53-1.86-.16-.13-.53-.28-1.12-.45-.59-.17-1.12-.5-1.57-.98-.46-.48-.67-1.01-.66-1.57,0-.11.07-.44.21-.98s.54-.84,1.22-.88l.55.05s.21,0,.63-.05l1.39-.05c.31-.05.68-.24,1.12-.55.44-.31.74-.51.9-.6l1.09-.52,1.15-.66c1-.56,1.57-.9,1.7-1,.13-.1.61-.59,1.44-1.46.83-.88,1.65-1.28,2.47-1.2.4.05,1.03.4,1.89,1.03.86.63,1.55,1.04,2.08,1.24l3.23.9,1.23.44c.22.42.32.66.3.71ZM51.22,59.87c.33.91.76,1.35,1.29,1.31l.63-.03c.36-.02,1.15-.23,2.35-.63l.79-.19c.88-.22,1.47-.83,1.78-1.83.31-1-.22-1.47-1.59-1.39-.88.05-1.54.14-2.01.25s-.83.23-1.11.37-.42.21-.44.21l-1.12.33-.22.19-.33.22-.03,1.2ZM56.61,52.9l.55-.08,1.26-.11c.13-.69.1-1.24-.1-1.64-.19-.4-.58-.63-1.16-.68l-1.18.16h-.55l-.98.16-.63-.11-1.23.49-.58.74c.35,1,.59,1.47.74,1.39l2.87-.38c.44.07.77.09.98.05ZM52.97,46.83l.16.16c.77-.13,1.33-.21,1.71-.23.37-.03.98-.13,1.82-.3.84-.17,1.42-.37,1.75-.59.2-.75.3-1.26.3-1.53v-.52l.08-.44c-.73.07-1.31.1-1.75.08-.38.22-.74.31-1.07.27-.33-.02-1.43.32-3.31,1.01-.26.31-.16,1,.3,2.08ZM59.18,34.33c-.57-.07-1.09.07-1.59.44l-1.42,1.2c-.09.05-.37.16-.82.3-.46.15-.71.26-.77.33l-.98,1.07-.19.46c-.26.11-.42.21-.48.31-.06.1-.11.37-.12.81-.02.44.42.69,1.31.77.16.02.43-.04.81-.16.37-.13,1.08-.31,2.12-.53,1.04-.23,1.83-.34,2.38-.33.55,0,.99-.06,1.34-.21.35-.15.6-.5.77-1.07.09-.36.06-.84-.08-1.42l-.19-.71c-.82-.77-1.51-1.18-2.08-1.26Z"/>
  </g>
</svg>