<?xml version="1.0" encoding="UTF-8"?>
<svg xmlns="http://www.w3.org/2000/svg" version="1.1" viewBox="0 0 100 100">
  <!-- Generator: Adobe Illustrator 30.0.0, SVG Export Plug-In . SVG Version: 2.1.1 Build 123)  -->
  <defs>
    <style>
      .st0 {
        fill: #94271e;
      }

      .st1 {
        fill: #ffeaaa;
      }
    </style>
  </defs>
  <g id="_图层_2" data-name="图层_2">
    <path class="st0" d="M87.72,91.35l-.85-3.94-.05,2.3-.26.7-.39.77-.23,1.13s-4.41-.14-6.59-.08c-3.68.09-7.54-.67-10.97-.53-3.1.13-4.52,1.01-6.23.89-2.68-.2-2.22-1.71-4.6-1.55-4.54.3-3.52,1.53-7.81.68-3.51-.69-4,1.58-5.71,1.36-4.33-.56-6.69-.32-7.8.05-1.91.63-2.95-1.09-4.05-1.08-1.43.01-2.12.16-3.37.16-2,0-2.9-1.03-4.37-1.02-2.88.02-2.63.49-2.75.49-1.17.03-.72-.58-1.74-.54-1.57.06-1.76.62-2.53.62-.08,0-.91.03-.99.04l-3.15.33-.8-.35-1.38.27c-.61.12-1.25,0-1.77-.35-.29-.19-.56-.4-.81-.53-.62-.32-1.64-1.55-1.66-2.25-.03-1.47.82-6.66.82-6.66l2.92-.85-1.57-.42-.34-.98s.31-3.26.2-3.53c-2.06-5.35-2.12-6.64-1.94-9.65.13-2.15.72-4.23,1.06-5.42.99-3.47-.43-5.24-.55-5.85-.73-3.79.51-4.16.74-5.51.46-2.67-.39-4.72-.81-5.86-.45-1.22.43-3.32.27-3.56-.72-1.09.11-4.29.11-4.29.04-.6.38-1.02.78-1.4.88-.85.99-2.22.25-3.18l.48-.37c-.43-.57-.52-1.48-.52-1.48l1.28-1.12,3.55,1.32-1.25-1.93s-3.38-1.17-3.55-1.83c-.11-.43-.03-2.12.1-2.54l-.46-2.91c.08-.53.12-.9.04-1.43-.1-.76-.52-1.63-.65-2.36l-.67-4.57c-.14-.83-.03-1.49.3-2.27.74-1.74,2.12-2.64,3.71-2.44l1.41.12c.14.01.29.02.43,0,.7-.06,1.38-.24,2.02-.52.3-.13.92-.32,1.44-.44.33-.07.67-.08,1-.01l1.43.29c1.63.23,2.19,1.21,2.35.6l.26.28.15,2.58.43-.72.31-.23.3-.86.44-.17s.24-.68.25-.68c.41.07,1.97.49,1.97.49l.11,1.25.77-1.07s1.87.19,2.4.17c1.85-.04,2.7-1.51,4-1.14,7.51,2.09,8.31.63,12.67-.92,1.26-.45,1.55,1.19,2.02,1.09,4.83-.95,8.25-.56,11,.02,8.19,1.73,16.49.3,19.1-.12,2.75-.44,11.96.59,11.96.59.81,0,1.06.65,1.06.65l.56-.09.52-.08.47.23s.14,1.57.33,1.68c0,0,.41,4.46.24,7.36-.07,1.29-.79,2.86-1.66,4.04-.61.83-.1,1.88-.1,1.88l.42.68-.95.78h1.33s-1.02.87-1.02.87c0,0,2.01,1.89,2.11,4.82s-.13,4.96.15,6.08c.67,2.75-.97,5.45-.83,6.73.1.9.63,1.37.77,2.02.18.88-.61,3.89-1.49,5.65-.49.99-1.39,1.77-1.39,1.77l.44.58-1.4,1.01,2.28-.59.54,1.12s1.7,4.05,1.67,6.12c-.05,3.63-.46,4.8-.69,5.46-.69,1.93.52,2.06.49,2.97-.06,2.07-1,3.18-1.09,4.72-.07,1.12-.52,4.37-.52,4.37,0,.4.09.8.28,1.15v.83c.28.52.22.9.06,1.47-.05.18.1.71.1.71l-.13.7c-.04.23-.05.47-.03.7l.41,3.78c0,.34-1.59,2.77-1.59,2.77l-.86.34-.86-.71s-.49.39-1.31.31Z"/>
  </g>
  <g id="_图层_4" data-name="图层_4">
    <path class="st1" d="M25.72,47.28c.11-.47.73-1.17,1.87-2.08,1.14-.91,1.81-1.42,2.01-1.53l1.18-.44.79-.6c.15-.09.53-.24,1.16-.44.63-.2,1.43-.55,2.41-1.04.98-.49,1.53-.78,1.65-.88l.52-.38,1.5-.63,1.07-.88,1.7-1.07c.02-.07-.89,0-2.73.22-1.24.16-1.98.28-2.21.34-.24.06-1.05.41-2.45,1.03-1.39.62-2.5.96-3.32,1.01s-1.48-.25-1.97-.93c-.02,0-.18-.31-.49-.93-.31-.62-.5-1.01-.56-1.18-.06-.16-.1-.33-.11-.51,0-.17,0-.33.04-.48,0-.05.08-.31.25-.78s.29-.75.37-.85c.08-.1.25-.26.51-.48.25-.22.49-.36.7-.42.21-.06.62-.1,1.24-.12l.9-.03c.25.02.41.02.46,0l.96-.14s.15.04.38.05c.42.07.9.05,1.45-.08l1.64-.44c.11-.02.43-.05.96-.08.53-.04,1.4-.15,2.62-.33,1.22-.18,2.52-.29,3.91-.33,1.6-.02,2.8,0,3.58.08l3.8.52c.53.05,1,.04,1.42-.04s.77-.08,1.07,0c.29.08.45.33.48.75.03.42,0,.77-.1,1.04-.46,1.28-1.25,1.97-2.38,2.08l-1.94-.14-1.91.3-1.75.03c-.64.16-1,.37-1.09.63l2.24,1.12c.2.15.47.53.81,1.15.34.62.71,1.02,1.11,1.2l1.23.36c.35.11.59.25.72.41s.27.44.41.82.21.78.22,1.2c0,.42-.12.84-.4,1.26l-1.12,1.18-1.83,2.08-2.11,1.01-1.83,1.34c-.31.09-.48.15-.51.16-.03.02-.15.11-.37.27l-1.83,1.07-.55.66c-.13.13-.66.35-1.6.67-.94.32-1.86.81-2.78,1.46-.91.66-1.61,1.04-2.09,1.16-.48.12-1.07.44-1.75.97-.68.53-1.34.86-1.98,1-.64.14-.98.24-1.04.3-.05.06-.1.11-.15.14-.05.03-.21-.02-.51-.15-.11-.04-.32-.1-.63-.19-.31-.09-.52-.18-.62-.26-.1-.08-.21-.21-.34-.4l-.44-.49c-.2-.2-.36-.43-.49-.68-.13-.25-.2-.78-.21-1.59,0-.8.12-1.29.38-1.45.26-.16.47-.25.62-.25l.82.38c.15.04.53-.15,1.15-.55.22-.13.65-.28,1.3-.46.65-.18,1.1-.32,1.37-.41.26-.09.6-.25,1.01-.48.41-.23.68-.36.81-.4l1.31-.36.74-.63,1.18-.6c.44-.4.67-.78.7-1.13s.02-.8-.03-1.33c-.05-.53-.94-.73-2.69-.6-.42.04-.69.07-.82.11-.13.04-.25.07-.36.11l-3.25,1.42c-.29.05-.46.09-.52.11l-.9.57c-.26.15-.66.21-1.2.19-.46,0-.77-.04-.96-.11l-.82-.44c-.55-.22-.85-.39-.9-.51-.05-.12-.08-.21-.08-.29ZM37.43,57.15c.11,0,.34.1.68.29.35.19.43.91.25,2.15l-.41,1.94c-.24,1.24-.47,2.01-.71,2.32l-.63.79s-.07.26-.16.74c-.09.47-.3.92-.63,1.34s-.55.75-.67.98c-.12.24-.38.54-.79.9-.41.36-1.35.52-2.83.46-1.17-.04-1.94-.19-2.32-.46s-.81-.83-1.27-1.65-.63-1.45-.51-1.87c0-.02.37-.35,1.11-.98.74-.64,1.17-1.03,1.29-1.16.12-.14.28-.41.49-.82.21-.41.42-.75.64-1.03s1.23-.99,3.04-2.16c1.8-1.17,2.95-1.76,3.45-1.78ZM42.4,45.61l.38-.05,1.31-.11c.64-.18,1.11-.63,1.42-1.34.31-.71.45-1.26.41-1.64-.05-.35-.23-.72-.52-1.12-.29-.4-.66-.62-1.09-.66-.07,0-.26.04-.55.11l-1.31.16c-.11.04-.4.13-.88.29-.47.16-.71.4-.7.72,0,.33,0,.5,0,.51,0,0-.12.11-.33.31-.21.2-.07.7.42,1.49s.97,1.24,1.42,1.33ZM43.06,59.12c-.02-.11.12-.62.41-1.53.11-.4.26-.72.45-.96.19-.24.64-.36,1.35-.36.49.02.99.56,1.5,1.63.51,1.07.77,1.8.79,2.21.02.41-.04.88-.16,1.41l-.55,1.91c-.05.26-.11.46-.16.62-.05.16-.3.5-.72,1.04-.43.54-.86.82-1.3.83-.75.05-1.18-.17-1.29-.68-.11-.51-.16-.95-.16-1.31l-.16-2.11.14-2-.14-.71ZM54.24,56.42l.38.41,1.5.93c.07.09.26.31.56.67s.48.65.53.89c.05.24.08.46.08.66l-.19,2.13c.02.6,0,.97-.08,1.09l-.63.57c-.13.13-.22.26-.27.38l-.16.41c-.09.2-.27.4-.55.6-.27.2-.68.08-1.2-.36-.29-.22-.5-.45-.63-.68l-.25-.55-.74-.82c-.07-.13-.1-.36-.1-.7,0-.34,0-.61-.01-.81l-.05-.44-.08-1.31-.19-1.01c-.02-.11-.03-.26-.04-.45s.03-.41.12-.64c.18-.51.49-.83.93-.97.44-.14.79-.14,1.07-.01ZM66.88,45.2c-.05-1.29-.22-2.04-.51-2.23-.28-.19-.72-.26-1.3-.21l-1.8.41-2.68.49c-.86.36-1.36.67-1.5.9l-.33.9c-.16.33-.34.49-.52.49-.05.02-.21-.03-.46-.14l-1.23-.3c-.29-.13-.53-.34-.7-.64-.17-.3-.29-.55-.36-.74-.06-.19-.13-.73-.19-1.63-.06-.89-.09-1.59-.07-2.11,0-1.35.17-2.29.52-2.82.35-.53.7-.82,1.07-.88.27-.02.49.02.66.11.16.09.42.39.77.9.35.51.64.82.89.92.25.1.71.21,1.38.31l1.56.33,1.09-.03c1.68.07,2.77-.31,3.28-1.15l.68-1.86.08-.14.25-2.57c.16-.47.52-.93,1.08-1.37.55-.44.97-.69,1.24-.77.25-.05.81,0,1.68.15.87.16,1.44.37,1.72.66.28.28.47.65.57,1.09.1.45.15.73.16.85,0,.12-.01.26-.07.42-.09.27-.24.55-.44.82-.2.27-.31.42-.33.44-.02.02-.12,1.09-.3,3.23l-.22,1.42.16,1.86c0,.35-.09.99-.26,1.94-.17.95-.3,1.85-.37,2.72-.07.87-.08,1.43-.03,1.68l.14.82c0,.13-.07.51-.22,1.15-.07.31-.13.51-.16.6-.04.09-.16.31-.37.64-.21.34-.35.54-.42.62l-1.04.96-.57.66c-.44.44-1.5.8-3.17,1.09-1.68.29-3.44.42-5.28.38-.66,0-1.68-.12-3.08-.36-1.39-.24-2.3-.34-2.72-.31-.42.03-.77,0-1.04-.1-.27-.09-.47-.31-.59-.66-.12-.35.1-.7.64-1.07.07-.04.25-.12.55-.25l1.53-.68,1.34-.3c.58-.13.88-.2.9-.22l1.04-.08c.11-.02.48-.15,1.12-.38.64-.24,1.48-.45,2.54-.63,1.06-.18,1.76-.33,2.11-.45.35-.12.71-.44,1.09-.96s.54-1.85.46-3.98ZM62.04,59.09c-.22-.91-.23-1.5-.03-1.76.2-.26.37-.41.52-.45.05,0,.16.02.31.05.15.04.52.07,1.11.11.58.04,1.23.19,1.96.46.72.27,1.32.58,1.79.93l1.09.93c.16.13.79.46,1.89.98l2.41,1.26c1.6.73,2.46,1.35,2.56,1.87.1.52-.12,1.05-.67,1.6l-.88.68-.52.44c-.2.16-.84.53-1.91,1.09-1.08.56-1.81.91-2.2,1.03-.39.12-.85.12-1.38.01-.91-.16-1.76-.7-2.54-1.61l-1.26-1.67c-.24-.27-.38-.46-.41-.56-.04-.1-.07-.36-.11-.79-.04-.43-.26-1.02-.66-1.78-.4-.76-.65-1.29-.75-1.59-.1-.3-.21-.71-.31-1.24Z"/>
  </g>
</svg>