<?xml version="1.0" encoding="UTF-8"?>
<svg xmlns="http://www.w3.org/2000/svg" version="1.1" viewBox="0 0 100 100">
  <!-- Generator: Adobe Illustrator 30.0.0, SVG Export Plug-In . SVG Version: 2.1.1 Build 123)  -->
  <defs>
    <style>
      .st0 {
        fill: #94271e;
      }

      .st1 {
        fill: #ffeaaa;
      }
    </style>
  </defs>
  <g id="_图层_2" data-name="图层_2">
    <path class="st0" d="M87.72,91.35l-.85-3.94-.05,2.3-.26.7-.39.77-.23,1.13s-4.41-.14-6.59-.08c-3.68.09-7.54-.67-10.97-.53-3.1.13-4.52,1.01-6.23.89-2.68-.2-2.22-1.71-4.6-1.55-4.54.3-3.52,1.53-7.81.68-3.51-.69-4,1.58-5.71,1.36-4.33-.56-6.69-.32-7.8.05-1.91.63-2.95-1.09-4.05-1.08-1.43.01-2.12.16-3.37.16-2,0-2.9-1.03-4.37-1.02-2.88.02-2.63.49-2.75.49-1.17.03-.72-.58-1.74-.54-1.57.06-1.76.62-2.53.62-.08,0-.91.03-.99.04l-3.15.33-.8-.35-1.38.27c-.61.12-1.25,0-1.77-.35-.29-.19-.56-.4-.81-.53-.62-.32-1.64-1.55-1.66-2.25-.03-1.47.82-6.66.82-6.66l2.92-.85-1.57-.42-.34-.98s.31-3.26.2-3.53c-2.06-5.35-2.12-6.64-1.94-9.65.13-2.15.72-4.23,1.06-5.42.99-3.47-.43-5.24-.55-5.85-.73-3.79.51-4.16.74-5.51.46-2.67-.39-4.72-.81-5.86-.45-1.22.43-3.32.27-3.56-.72-1.09.11-4.29.11-4.29.04-.6.38-1.02.78-1.4.88-.85.99-2.22.25-3.18l.48-.37c-.43-.57-.52-1.48-.52-1.48l1.28-1.12,3.55,1.32-1.25-1.93s-3.38-1.17-3.55-1.83c-.11-.43-.03-2.12.1-2.54l-.46-2.91c.08-.53.12-.9.04-1.43-.1-.76-.52-1.63-.65-2.36l-.67-4.57c-.14-.83-.03-1.49.3-2.27.74-1.74,2.12-2.64,3.71-2.44l1.41.12c.14.01.29.02.43,0,.7-.06,1.38-.24,2.02-.52.3-.13.92-.32,1.44-.44.33-.07.67-.08,1-.01l1.43.29c1.63.23,2.19,1.21,2.35.6l.26.28.15,2.58.43-.72.31-.23.3-.86.44-.17s.24-.68.25-.68c.41.07,1.97.49,1.97.49l.11,1.25.77-1.07s1.87.19,2.4.17c1.85-.04,2.7-1.51,4-1.14,7.51,2.09,8.31.63,12.67-.92,1.26-.45,1.55,1.19,2.02,1.09,4.83-.95,8.25-.56,11,.02,8.19,1.73,16.49.3,19.1-.12,2.75-.44,11.96.59,11.96.59.81,0,1.06.65,1.06.65l.56-.09.52-.08.47.23s.14,1.57.33,1.68c0,0,.41,4.46.24,7.36-.07,1.29-.79,2.86-1.66,4.04-.61.83-.1,1.88-.1,1.88l.42.68-.95.78h1.33s-1.02.87-1.02.87c0,0,2.01,1.89,2.11,4.82s-.13,4.96.15,6.08c.67,2.75-.97,5.45-.83,6.73.1.9.63,1.37.77,2.02.18.88-.61,3.89-1.49,5.65-.49.99-1.39,1.77-1.39,1.77l.44.58-1.4,1.01,2.28-.59.54,1.12s1.7,4.05,1.67,6.12c-.05,3.63-.46,4.8-.69,5.46-.69,1.93.52,2.06.49,2.97-.06,2.07-1,3.18-1.09,4.72-.07,1.12-.52,4.37-.52,4.37,0,.4.09.8.28,1.15v.83c.28.52.22.9.06,1.47-.05.18.1.71.1.71l-.13.7c-.04.23-.05.47-.03.7l.41,3.78c0,.34-1.59,2.77-1.59,2.77l-.86.34-.86-.71s-.49.39-1.31.31Z"/>
  </g>
  <g id="_图层_4" data-name="图层_4">
    <path class="st1" d="M30.41,62.95c4.14-.86,7.02-1.65,8.64-2.38,1.62-.73,3.04-1.79,4.25-3.17,1.21-1.38,2.15-2.99,2.82-4.81.67-1.82,1.02-3.02,1.05-3.58.04-.57.1-.87.21-.92.1-.05.22-.08.37-.1.09,0,.41.05.94.16.54.11.91.27,1.11.49.2.22.24.87.11,1.94-.02.04-.08.52-.19,1.46-.11.94-.42,2.23-.93,3.87-.51,1.64-1.11,2.86-1.8,3.65-.69.79-1.07,1.23-1.12,1.3l-1.23,1.83c-.09.07-.27.18-.55.33l-3.36,2.27c-.75.47-1.7.94-2.86,1.39-1.16.46-2.32.74-3.49.85-1.19.13-2.35.06-3.5-.21-1.15-.26-1.88-.57-2.19-.92-.31-.35-.53-.71-.67-1.09s-.21-.7-.21-.96c0-.29.06-.5.19-.62.13-.12.39-.28.79-.48.4-.2.75-.3,1.04-.29.29,0,.48,0,.57-.04ZM33.8,43.51c-.16-1.48.02-2.28.56-2.41.54-.13.89-.08,1.05.14l.16.49c.09.2.68.16,1.78-.14.2-.05.54-.1,1.01-.14.47-.04,1.33-.16,2.57-.37,1.24-.21,1.98-.45,2.21-.71.24-.26.39-.67.46-1.22l.14-.79c.02-.22.03-.55.04-1,0-.45-.02-.92-.1-1.44l-.25-1.45-.14-1.72c-.15-1.48-.08-2.34.19-2.58s.51-.41.71-.48c.24-.05.64-.02,1.22.11.57.13.92.22,1.05.27.13.05.48.32,1.05.81.57.48,1.16.85,1.75,1.11.59.26,1.91.3,3.97.14,2.05-.16,3.66-.24,4.83-.22,3.17.09,5.89.28,8.15.56,2.26.28,3.92.37,4.98.27,1.06-.1,1.69-.02,1.89.25.2.26.3.46.3.59-.02.11-.14.27-.36.49l-1.78,2.65c-.91,1.24-2.09,1.96-3.53,2.16l-7.25-1.94c-.68-.16-1.71-.29-3.12-.38-1.4-.09-2.34-.13-2.82-.11-.49.04-1.5.2-3.04.49-1.53.29-2.24.78-2.13,1.48.04.29.3.5.78.63.48.13,2.91.29,7.29.49h1.67c2.26.02,3.69.3,4.28.85.59.55.94.92,1.04,1.12.1.2.16.88.18,2.02l-1.31,3.8-.05.6-.6,2.38-.3,4.13c-.13.46-.35.88-.66,1.26-.31.38-.78.52-1.41.4-.63-.12-1.09-.51-1.39-1.18-.3-.67-.41-1.37-.31-2.12l.6-2.49c.18-.77.28-1.37.29-1.82,0-.45.01-.77.01-.97-.02-.66-.15-1.11-.4-1.35s-1.14-.47-2.68-.67c-1.54-.2-2.67-.31-3.38-.33-1.15-.02-2.67.07-4.57.27-1.9.2-3.14.38-3.75.55l-2.08.68-1.09.27c-.6.16-1.05.38-1.35.66s-.57.72-.79,1.34c-.23.62-.37,1.15-.42,1.59l-.19,2.68c-.09.67-.31,1.57-.67,2.68-.36,1.11-.67,1.87-.96,2.28-.28.41-.79.6-1.52.57-.73-.03-1.19-.28-1.37-.75-.18-.47-.26-.88-.25-1.23,0-.44.06-.95.19-1.53l.93-3.58c.31-1.4.33-2.56.05-3.47l-.57-1.56-.14-.66c-.44-1.31-.67-2.13-.68-2.46ZM52.62,58.25c-.07-.25-.03-.5.12-.74.15-.24.51-.18,1.08.16l.44.3c.35.24,2.03.8,5.04,1.68,3.02.88,5.13,1.58,6.36,2.08,1.22.5,1.88.75,1.97.75l.52.03,2.38.68c.36-.04.58-.03.66.01.07.05.2.23.38.55.18.32-.23,1.08-1.23,2.28-1.26,1.48-2.21,2.37-2.84,2.69-.64.32-1.57.47-2.79.45-1.15,0-2.01-.12-2.58-.36-.57-.24-1.6-.86-3.08-1.86s-2.66-2.02-3.55-3.06c-.89-1.04-1.57-2.13-2.04-3.28s-.74-1.94-.83-2.38Z"/>
  </g>
</svg>