<?xml version="1.0" encoding="UTF-8"?>
<svg xmlns="http://www.w3.org/2000/svg" version="1.1" viewBox="0 0 100 100">
  <!-- Generator: Adobe Illustrator 30.0.0, SVG Export Plug-In . SVG Version: 2.1.1 Build 123)  -->
  <defs>
    <style>
      .st0 {
        fill: #94271e;
      }

      .st1 {
        fill: #ffeaaa;
      }
    </style>
  </defs>
  <g id="_图层_2" data-name="图层_2">
    <path class="st0" d="M87.72,91.35l-.85-3.94-.05,2.3-.26.7-.39.77-.23,1.13s-4.41-.14-6.59-.08c-3.68.09-7.54-.67-10.97-.53-3.1.13-4.52,1.01-6.23.89-2.68-.2-2.22-1.71-4.6-1.55-4.54.3-3.52,1.53-7.81.68-3.51-.69-4,1.58-5.71,1.36-4.33-.56-6.69-.32-7.8.05-1.91.63-2.95-1.09-4.05-1.08-1.43.01-2.12.16-3.37.16-2,0-2.9-1.03-4.37-1.02-2.88.02-2.63.49-2.75.49-1.17.03-.72-.58-1.74-.54-1.57.06-1.76.62-2.53.62-.08,0-.91.03-.99.04l-3.15.33-.8-.35-1.38.27c-.61.12-1.25,0-1.77-.35-.29-.19-.56-.4-.81-.53-.62-.32-1.64-1.55-1.66-2.25-.03-1.47.82-6.66.82-6.66l2.92-.85-1.57-.42-.34-.98s.31-3.26.2-3.53c-2.06-5.35-2.12-6.64-1.94-9.65.13-2.15.72-4.23,1.06-5.42.99-3.47-.43-5.24-.55-5.85-.73-3.79.51-4.16.74-5.51.46-2.67-.39-4.72-.81-5.86-.45-1.22.43-3.32.27-3.56-.72-1.09.11-4.29.11-4.29.04-.6.38-1.02.78-1.4.88-.85.99-2.22.25-3.18l.48-.37c-.43-.57-.52-1.48-.52-1.48l1.28-1.12,3.55,1.32-1.25-1.93s-3.38-1.17-3.55-1.83c-.11-.43-.03-2.12.1-2.54l-.46-2.91c.08-.53.12-.9.04-1.43-.1-.76-.52-1.63-.65-2.36l-.67-4.57c-.14-.83-.03-1.49.3-2.27.74-1.74,2.12-2.64,3.71-2.44l1.41.12c.14.01.29.02.43,0,.7-.06,1.38-.24,2.02-.52.3-.13.92-.32,1.44-.44.33-.07.67-.08,1-.01l1.43.29c1.63.23,2.19,1.21,2.35.6l.26.28.15,2.58.43-.72.31-.23.3-.86.44-.17s.24-.68.25-.68c.41.07,1.97.49,1.97.49l.11,1.25.77-1.07s1.87.19,2.4.17c1.85-.04,2.7-1.51,4-1.14,7.51,2.09,8.31.63,12.67-.92,1.26-.45,1.55,1.19,2.02,1.09,4.83-.95,8.25-.56,11,.02,8.19,1.73,16.49.3,19.1-.12,2.75-.44,11.96.59,11.96.59.81,0,1.06.65,1.06.65l.56-.09.52-.08.47.23s.14,1.57.33,1.68c0,0,.41,4.46.24,7.36-.07,1.29-.79,2.86-1.66,4.04-.61.83-.1,1.88-.1,1.88l.42.68-.95.78h1.33s-1.02.87-1.02.87c0,0,2.01,1.89,2.11,4.82s-.13,4.96.15,6.08c.67,2.75-.97,5.45-.83,6.73.1.9.63,1.37.77,2.02.18.88-.61,3.89-1.49,5.65-.49.99-1.39,1.77-1.39,1.77l.44.58-1.4,1.01,2.28-.59.54,1.12s1.7,4.05,1.67,6.12c-.05,3.63-.46,4.8-.69,5.46-.69,1.93.52,2.06.49,2.97-.06,2.07-1,3.18-1.09,4.72-.07,1.12-.52,4.37-.52,4.37,0,.4.09.8.28,1.15v.83c.28.52.22.9.06,1.47-.05.18.1.71.1.71l-.13.7c-.04.23-.05.47-.03.7l.41,3.78c0,.34-1.59,2.77-1.59,2.77l-.86.34-.86-.71s-.49.39-1.31.31Z"/>
  </g>
  <g id="_图层_4" data-name="图层_4">
    <path class="st1" d="M27.13,55.34l1.5.22c.22-.02.69-.15,1.41-.41.72-.25,1.71-.84,2.97-1.75l4.59-3.5c2.59-1.75,4.03-2.9,4.32-3.46.29-.56.52-.87.68-.94.16-.07.21-.16.14-.27-.07-.11-.13-.19-.16-.25l-5.06.93-.88.05c-.11.02-.49.1-1.13.23-.65.14-1.25.19-1.82.15-.91-.04-1.44-.09-1.59-.16-.15-.07-.31-.28-.51-.62-.19-.34-.32-.6-.38-.78-.06-.18-.1-.36-.11-.53,0-.17.02-.37.1-.59.07-.27.22-.62.44-1.03s.4-.63.55-.67c.04,0,.16,0,.38.03.22.02.79,0,1.71-.08.92-.07,1.68-.15,2.28-.22.6-.07,1.55-.25,2.86-.52,1.3-.27,2.07-.39,2.3-.34.23.05.36.06.4.04.15,0,.36-.23.64-.7.28-.46.36-.8.25-1-.12-.2-.32-.34-.62-.41-.42-.07-1.39-.02-2.93.15-1.53.17-2.54.36-3.04.55s-.91.28-1.26.26c-1.08-.02-1.7-.15-1.89-.41l-.27-.49-.68-.96c-.05-.11-.07-.25-.05-.44,0-.27.05-.53.16-.77l.93-1.61c.04-.16.07-.26.11-.3s.14-.04.31,0c.17.04,1.31-.07,3.4-.31,2.1-.25,3.23-.43,3.4-.55.17-.12.31-.19.4-.21l.55-.03c.11-.02.33-.55.66-1.59s.89-1.56,1.68-1.57c.79,0,1.38.21,1.76.64l.63,1.12c.6,1.02,1.3,1.45,2.1,1.29l.49-.14c.09-.02.35-.04.77-.05l1.12-.05c.16.02.64.11,1.42.27s1.37.15,1.75-.05c.37-.18.71-.66,1.04-1.42s.63-1.28.92-1.54c.28-.26.78-.38,1.49-.36s1.22.25,1.53.67c.18.27.23.86.14,1.76s-.03,1.49.19,1.76c.29.42,1.03.6,2.21.55l3.5-.14c.15.04.56.13,1.26.27.69.15,1.18.29,1.45.42s.38.52.33,1.13c-.02.18-.08.39-.18.63-.1.24-.2.42-.29.53-.09.12-.41.32-.97.6-.56.28-.86.43-.92.45-.05.02-.88-.05-2.49-.22h-1.59s-.49-.05-1.37-.14c-.46-.04-.78,0-.98.12-.2.12-.34.35-.42.68-.08.34.07.72.45,1.13.46.55,1.33.88,2.61,1,1.29.12,2.23.26,2.84.44.61.17,1.04.27,1.3.29.26.02.5.17.74.46.24.29.36.56.37.79,0,.24-.21.54-.67.9-.42.35-.75.55-1,.6s-.69.1-1.33.14l-1.34.08-3.5-.27c-.56.27.89,1.79,4.38,4.54,2.88,2.3,4.89,3.79,6.04,4.47s2.85,1.28,5.11,1.79c.93.24,1.61.28,2.04.14.43-.15.67-.2.71-.16.04.04.07.23.08.57,0,.35-.28.87-.86,1.56-1.42,1.71-2.56,2.86-3.42,3.45-.86.58-1.97.88-3.34.9-.98.04-1.86-.1-2.62-.42-.77-.32-1.4-.68-1.91-1.09s-1.01-1.09-1.5-2.04l-.98-1.94c-.51-.93-2.02-3.17-4.53-6.73-2.51-3.55-4-5.4-4.47-5.55-.47-.15-1.18-.14-2.11.03-.4.07-.66.11-.77.11h-.79l-.9.16-1.2.14c-.29.07-.78.32-1.48.75-.69.43-1.68,1.5-2.97,3.21-1.29,1.71-2.41,3.29-3.38,4.72-.97,1.43-1.69,2.38-2.16,2.84-.47.46-1.13,1.04-1.97,1.71-.84.67-1.75,1.41-2.72,2.2-.98.79-2.11,1.06-3.4.81-1.15-.22-2-.76-2.54-1.63-.55-.87-.86-1.61-.93-2.23-.07-.62-.06-1.07.03-1.34.09-.27.24-.44.44-.49ZM35.64,61.93c-.09-.24.18-.44.82-.6.64-.16,1.14-.46,1.5-.9l.9-1.15.49-.41c.11-.11.3-.36.57-.77l2.71-4.1c.09-.24.15-.38.19-.44l.68-1.07c.13-.29.36-.45.68-.46.36,0,.66.17.88.52.22.35.36.71.44,1.08.07.37-.17,1.57-.74,3.6-.09.27-.32,1.33-.7,3.17-.37,1.84-1.08,3.12-2.13,3.84-1.05.72-2.05.95-2.99.7-.67-.16-1.39-.7-2.16-1.61-.77-.91-1.15-1.38-1.15-1.39ZM47.01,66.03c0-.49.07-1.21.22-2.16l.38-2.24c.04-.31.13-1.48.27-3.5.15-2.02.23-3.28.25-3.77v-2.98c.02-1.02.1-1.9.23-2.65.14-.75.33-1.28.57-1.59.25-.31.71-.48,1.38-.52.58-.02.96.24,1.12.78.16.54.25,1.05.25,1.54-.02.67-.07,1.34-.16,2l-.27,1.64c-.18,1.2-.21,2.49-.1,3.86s.18,2.19.18,2.46l-.19,2.05c-.02.24.02.96.12,2.16s.08,2.36-.07,3.47c-.11.66-.3,1.32-.57,2-.27.67-.65,1.13-1.13,1.38s-.94.19-1.38-.18c-.55-.42-.87-1.08-.97-2-.1-.91-.14-1.49-.12-1.75ZM48.51,40.3l3.25-.19c1.31,0,2.04-.13,2.19-.4.15-.26.21-.66.19-1.19-.02-.36-.09-.63-.22-.81-.13-.17-.43-.27-.9-.29l-1.18.11h-1.72l-1.39.16c-.6-.02-.94.06-1.02.25-.08.18-.08.43.01.74l.25,1.64s.18,0,.55-.03ZM53.63,60.04c-.02-.33.06-.6.23-.82s.68-.12,1.52.3l1.83,1.31,1.12.71,1.64,1.42,2.02,1.04c.16.22.25.41.26.57s-.13.48-.42.96l-.55.96c-.38.53-.98.89-1.8,1.08s-1.56.12-2.21-.21c-.55-.24-1-.63-1.37-1.18l-1.48-3.39-.25-.41c-.26-.42-.41-.9-.46-1.45s-.08-.85-.08-.9ZM53.68,52.58s.06-.06.18-.14c.12-.07.28-.1.48-.08.13.04.3.11.52.22l2.38,1.53c.86.53,1.46.93,1.8,1.19.35.26.59.54.74.83.15.29.27.7.37,1.22s.11.83.04.94c-.04.05-.32.24-.86.56-.54.32-1.06.49-1.57.51-1.2.07-1.96-.2-2.28-.81-.32-.61-.68-1.44-1.08-2.49-.4-1.05-.64-1.85-.71-2.42-.07-.56-.07-.92,0-1.07Z"/>
  </g>
</svg>