<?xml version="1.0" encoding="UTF-8"?>
<svg xmlns="http://www.w3.org/2000/svg" version="1.1" viewBox="0 0 100 100">
  <!-- Generator: Adobe Illustrator 30.0.0, SVG Export Plug-In . SVG Version: 2.1.1 Build 123)  -->
  <defs>
    <style>
      .st0 {
        fill: #94271e;
      }

      .st1 {
        fill: #ffeaaa;
      }
    </style>
  </defs>
  <g id="_图层_2" data-name="图层_2">
    <path class="st0" d="M87.72,91.35l-.85-3.94-.05,2.3-.26.7-.39.77-.23,1.13s-4.41-.14-6.59-.08c-3.68.09-7.54-.67-10.97-.53-3.1.13-4.52,1.01-6.23.89-2.68-.2-2.22-1.71-4.6-1.55-4.54.3-3.52,1.53-7.81.68-3.51-.69-4,1.58-5.71,1.36-4.33-.56-6.69-.32-7.8.05-1.91.63-2.95-1.09-4.05-1.08-1.43.01-2.12.16-3.37.16-2,0-2.9-1.03-4.37-1.02-2.88.02-2.63.49-2.75.49-1.17.03-.72-.58-1.74-.54-1.57.06-1.76.62-2.53.62-.08,0-.91.03-.99.04l-3.15.33-.8-.35-1.38.27c-.61.12-1.25,0-1.77-.35-.29-.19-.56-.4-.81-.53-.62-.32-1.64-1.55-1.66-2.25-.03-1.47.82-6.66.82-6.66l2.92-.85-1.57-.42-.34-.98s.31-3.26.2-3.53c-2.06-5.35-2.12-6.64-1.94-9.65.13-2.15.72-4.23,1.06-5.42.99-3.47-.43-5.24-.55-5.85-.73-3.79.51-4.16.74-5.51.46-2.67-.39-4.72-.81-5.86-.45-1.22.43-3.32.27-3.56-.72-1.09.11-4.29.11-4.29.04-.6.38-1.02.78-1.4.88-.85.99-2.22.25-3.18l.48-.37c-.43-.57-.52-1.48-.52-1.48l1.28-1.12,3.55,1.32-1.25-1.93s-3.38-1.17-3.55-1.83c-.11-.43-.03-2.12.1-2.54l-.46-2.91c.08-.53.12-.9.04-1.43-.1-.76-.52-1.63-.65-2.36l-.67-4.57c-.14-.83-.03-1.49.3-2.27.74-1.74,2.12-2.64,3.71-2.44l1.41.12c.14.01.29.02.43,0,.7-.06,1.38-.24,2.02-.52.3-.13.92-.32,1.44-.44.33-.07.67-.08,1-.01l1.43.29c1.63.23,2.19,1.21,2.35.6l.26.28.15,2.58.43-.72.31-.23.3-.86.44-.17s.24-.68.25-.68c.41.07,1.97.49,1.97.49l.11,1.25.77-1.07s1.87.19,2.4.17c1.85-.04,2.7-1.51,4-1.14,7.51,2.09,8.31.63,12.67-.92,1.26-.45,1.55,1.19,2.02,1.09,4.83-.95,8.25-.56,11,.02,8.19,1.73,16.49.3,19.1-.12,2.75-.44,11.96.59,11.96.59.81,0,1.06.65,1.06.65l.56-.09.52-.08.47.23s.14,1.57.33,1.68c0,0,.41,4.46.24,7.36-.07,1.29-.79,2.86-1.66,4.04-.61.83-.1,1.88-.1,1.88l.42.68-.95.78h1.33s-1.02.87-1.02.87c0,0,2.01,1.89,2.11,4.82s-.13,4.96.15,6.08c.67,2.75-.97,5.45-.83,6.73.1.9.63,1.37.77,2.02.18.88-.61,3.89-1.49,5.65-.49.99-1.39,1.77-1.39,1.77l.44.58-1.4,1.01,2.28-.59.54,1.12s1.7,4.05,1.67,6.12c-.05,3.63-.46,4.8-.69,5.46-.69,1.93.52,2.06.49,2.97-.06,2.07-1,3.18-1.09,4.72-.07,1.12-.52,4.37-.52,4.37,0,.4.09.8.28,1.15v.83c.28.52.22.9.06,1.47-.05.18.1.71.1.71l-.13.7c-.04.23-.05.47-.03.7l.41,3.78c0,.34-1.59,2.77-1.59,2.77l-.86.34-.86-.71s-.49.39-1.31.31Z"/>
  </g>
  <g id="_图层_4" data-name="图层_4">
    <path class="st1" d="M46.79,44.45c-.02-.05-.1-.17-.23-.34-.14-.17-.38-.28-.72-.31-.02,0-.43.09-1.24.27-.81.18-1.34.39-1.57.63s-1.35.43-3.34.59c-1.99.16-3.06.17-3.23.04-.18-.13-.35-.43-.49-.9-.15-.47-.21-.9-.19-1.29,0-.13.05-.65.15-1.57.1-.92.19-1.9.27-2.93.08-1.03.08-1.75-.01-2.17-.05-.22-.14-.46-.25-.71l-.88-1.67c-.33-.66-.44-1.14-.33-1.45.15-.42.6-.68,1.37-.78.77-.1,1.6-.15,2.5-.16.9,0,2.21-.07,3.91-.18,1.7-.11,3.04-.28,4.01-.52.22-.05.97-.06,2.26-.03,1.29.04,2.67-.03,4.14-.19,1.31-.13,2.49-.07,3.53.16,1.04.24,2.39.34,4.06.3,1.67-.04,2.68,0,3.04.08.36.09.72.35,1.09.78.37.43.09,1.61-.86,3.54-.62,1.22-.99,2.14-1.12,2.76l-.71,3.69c-.26.64-.61,1.1-1.05,1.38-.45.28-1.56.4-3.35.34-.91-.02-1.8-.1-2.67-.26-.87-.15-1.46-.17-1.76-.04-.27.13-.56.4-.86.81-.3.41-.4.79-.29,1.13.09.4.81.49,2.16.27,1.35-.22,2.39-.33,3.12-.33.47.02,1.28.08,2.41.19,1.13.11,2.09.22,2.87.33.78.11,1.29.16,1.5.16.42.04,1.33.02,2.72-.04,1.39-.06,2.55-.08,3.46-.05.91.03,1.95-.03,3.1-.16,1.16-.14,1.79-.1,1.91.12.12.22-.05.87-.51,1.94-.35.8-.66,1.43-.93,1.89-.27.46-.78.98-1.5,1.56-.73.58-1.63.9-2.71.96-.4.04-.97-.04-1.7-.25-.73-.2-1.23-.36-1.5-.46l-2.9-1.12c-3.3-1.26-6.75-1.82-10.36-1.7-.05.02-1.66.14-4.81.36-3.15.22-5.2.41-6.14.57-.94.16-1.68.31-2.23.42-.55.12-1.34.42-2.37.92-1.03.49-1.86.82-2.5.97-.64.16-1.09.33-1.37.53l-1.64.41-.52.22-.74.05c-.05.02-.51.17-1.37.46-.86.29-1.74.05-2.65-.74-.35-.27-.57-.55-.66-.83-.09-.28-.14-.59-.15-.92,0-.33,0-.55.01-.66.04-.16.26-.47.67-.93.41-.46.89-.82,1.44-1.08.55-.26,1.68-.47,3.39-.62,1.71-.15,2.73-.25,3.04-.3l2.93-.71,2.54-.3,1.94-.41,2.9-.36c1.02-.16,1.62-.36,1.8-.57.18-.22.24-.49.16-.82ZM36.43,63.21c.09-.04.86-.25,2.31-.66,1.45-.4,2.48-.58,3.1-.55,1.06.09,1.82.22,2.3.4.47.17.66.57.55,1.19-.04.11-.17.35-.41.71l-.6,1.09c-.07.13-.16.24-.25.33-.09.09-.65.47-1.67,1.15l-1.07.71c-.78.4-1.37.67-1.75.79l-2.08.33c-.29.05-.56.09-.81.1-.25,0-.68-.26-1.3-.81-.67-.57-1.08-1.06-1.22-1.49-.14-.43-.2-.74-.18-.94,0-.22.04-.38.11-.49.07-.11.25-.28.55-.52.29-.24.54-.4.74-.49l.63-.14,1.04-.71ZM53.13,50.16l1.04-.11c.05,0,.64.01,1.75.04,1.11.03,1.98,0,2.6-.1.62-.09,1.12-.02,1.49.21.37.23.54.73.51,1.52-.04.33-.28.94-.74,1.85-.46.9-.7,1.54-.74,1.9v1.72c-.11,1.15-.45,1.87-1.03,2.17s-1.11.47-1.6.51l-3.17-.05c-1.17.02-1.81.17-1.93.45-.12.28-.23.91-.33,1.89-.1.98-.14,2.19-.11,3.64s-.09,2.4-.34,2.86c-.22.36-.54.67-.96.93-.42.25-.83.23-1.23-.08-.36-.26-.6-.57-.71-.93-.11-.37-.17-.57-.18-.63,0-.05.02-.25.08-.57.06-.33.1-.93.11-1.79,0-.87.01-1.41.01-1.63-.02-.86-.08-1.56-.18-2.12-.1-.56-.28-.95-.55-1.18-.26-.23-.97-.31-2.12-.26l-1.72.05c-.18.02-.34.04-.46.05l-.79.14-.96.05c-1.5.18-2.37.21-2.61.1-.25-.12-.46-.5-.64-1.13-.2-.6-.18-1.35.07-2.24.25-.89.36-1.5.34-1.83l-.49-2.57c.11-.47.4-.84.86-1.09.46-.25,2.12-.57,4.96-.96l1.37-.19,5.82-.57.85-.14,1.72.11ZM40.34,41.61c.13.16.43.33.9.49,0,.02.27-.03.81-.15.54-.12,1.01-.19,1.42-.21.41-.02.96-.08,1.65-.19l2.32-.38c.8-.13,1.94-.25,3.42-.37,1.48-.12,2.51-.18,3.09-.18.14.02.47.05.97.08.5.04.85.05,1.05.03,1.11,0,1.87-.24,2.28-.71.41-.47.51-.88.3-1.22-.21-.34-.8-.47-1.76-.4-.44.04-.97.07-1.6.1s-1.08.04-1.35.04l-1.56.11-2.82.11-1.59.27-1.89.05-1.04.36-1.83.25c-.44.07-1.05.28-1.83.63-.78.35-1.14.65-1.08.9.06.26.1.38.12.38ZM57.43,36.14c1.15,0,1.87-.15,2.16-.46.29-.31.32-.61.08-.9-.2-.22-1.19-.43-2.97-.63-1.78-.2-3.11-.31-4.01-.33h-1.94c-.62-.02-.97-.03-1.04-.03l-1.72.16-1.59.08-1.53.38-.71-.03c-.33.02-.71.11-1.13.29-.43.17-.9.31-1.42.41-.52.1-.92.32-1.19.67-.27.35-.21.66.19.93.4.27.76.4,1.07.38.09,0,.28-.02.57-.05l2.82-.22,3.2-.46c1.59-.22,3.17-.33,4.76-.33.27.02.98.05,2.12.1,1.14.05,1.9.06,2.28.04ZM43.48,56.45l6.32-.14c.67.04,1.24,0,1.71-.1.46-.1,1.01-.15,1.63-.15l1.5.05c1.13-.33,1.46-.96.98-1.89-.18-.33-1.24-.46-3.17-.38l-1.45.22-2.79.03-.68.08c-.09.02-.62,0-1.59-.03-.97-.04-1.72.05-2.26.27-.54.22-.85.56-.93,1.01-.08.46.16.79.72,1.01ZM55.38,62.72c.11-.36.35-.62.72-.77.37-.15,1.12-.24,2.23-.27l1.09.05,2.3.05c.36.05,1.01.24,1.93.55.92.31,1.66.48,2.21.52.55.04.88.13.96.29.08.16.12.35.12.59-.04.53-.32,1.23-.85,2.09-.53.87-.92,1.43-1.16,1.68-.25.25-.9.39-1.96.41-.37.02-.74-.05-1.12-.19l-3.04-1.04c-.29-.15-1.09-.88-2.41-2.21l-1.09-1.01c-.07-.13-.05-.37.05-.74Z"/>
  </g>
</svg>