<?xml version="1.0" encoding="UTF-8"?>
<svg xmlns="http://www.w3.org/2000/svg" version="1.1" viewBox="0 0 100 100">
  <!-- Generator: Adobe Illustrator 30.0.0, SVG Export Plug-In . SVG Version: 2.1.1 Build 123)  -->
  <defs>
    <style>
      .st0 {
        fill: #94271e;
      }

      .st1 {
        fill: #ffeaaa;
      }
    </style>
  </defs>
  <g id="_图层_2" data-name="图层_2">
    <path class="st0" d="M87.72,91.35l-.85-3.94-.05,2.3-.26.7-.39.77-.23,1.13s-4.41-.14-6.59-.08c-3.68.09-7.54-.67-10.97-.53-3.1.13-4.52,1.01-6.23.89-2.68-.2-2.22-1.71-4.6-1.55-4.54.3-3.52,1.53-7.81.68-3.51-.69-4,1.58-5.71,1.36-4.33-.56-6.69-.32-7.8.05-1.91.63-2.95-1.09-4.05-1.08-1.43.01-2.12.16-3.37.16-2,0-2.9-1.03-4.37-1.02-2.88.02-2.63.49-2.75.49-1.17.03-.72-.58-1.74-.54-1.57.06-1.76.62-2.53.62-.08,0-.91.03-.99.04l-3.15.33-.8-.35-1.38.27c-.61.12-1.25,0-1.77-.35-.29-.19-.56-.4-.81-.53-.62-.32-1.64-1.55-1.66-2.25-.03-1.47.82-6.66.82-6.66l2.92-.85-1.57-.42-.34-.98s.31-3.26.2-3.53c-2.06-5.35-2.12-6.64-1.94-9.65.13-2.15.72-4.23,1.06-5.42.99-3.47-.43-5.24-.55-5.85-.73-3.79.51-4.16.74-5.51.46-2.67-.39-4.72-.81-5.86-.45-1.22.43-3.32.27-3.56-.72-1.09.11-4.29.11-4.29.04-.6.38-1.02.78-1.4.88-.85.99-2.22.25-3.18l.48-.37c-.43-.57-.52-1.48-.52-1.48l1.28-1.12,3.55,1.32-1.25-1.93s-3.38-1.17-3.55-1.83c-.11-.43-.03-2.12.1-2.54l-.46-2.91c.08-.53.12-.9.04-1.43-.1-.76-.52-1.63-.65-2.36l-.67-4.57c-.14-.83-.03-1.49.3-2.27.74-1.74,2.12-2.64,3.71-2.44l1.41.12c.14.01.29.02.43,0,.7-.06,1.38-.24,2.02-.52.3-.13.92-.32,1.44-.44.33-.07.67-.08,1-.01l1.43.29c1.63.23,2.19,1.21,2.35.6l.26.28.15,2.58.43-.72.31-.23.3-.86.44-.17s.24-.68.25-.68c.41.07,1.97.49,1.97.49l.11,1.25.77-1.07s1.87.19,2.4.17c1.85-.04,2.7-1.51,4-1.14,7.51,2.09,8.31.63,12.67-.92,1.26-.45,1.55,1.19,2.02,1.09,4.83-.95,8.25-.56,11,.02,8.19,1.73,16.49.3,19.1-.12,2.75-.44,11.96.59,11.96.59.81,0,1.06.65,1.06.65l.56-.09.52-.08.47.23s.14,1.57.33,1.68c0,0,.41,4.46.24,7.36-.07,1.29-.79,2.86-1.66,4.04-.61.83-.1,1.88-.1,1.88l.42.68-.95.78h1.33s-1.02.87-1.02.87c0,0,2.01,1.89,2.11,4.82s-.13,4.96.15,6.08c.67,2.75-.97,5.45-.83,6.73.1.9.63,1.37.77,2.02.18.88-.61,3.89-1.49,5.65-.49.99-1.39,1.77-1.39,1.77l.44.58-1.4,1.01,2.28-.59.54,1.12s1.7,4.05,1.67,6.12c-.05,3.63-.46,4.8-.69,5.46-.69,1.93.52,2.06.49,2.97-.06,2.07-1,3.18-1.09,4.72-.07,1.12-.52,4.37-.52,4.37,0,.4.09.8.28,1.15v.83c.28.52.22.9.06,1.47-.05.18.1.71.1.71l-.13.7c-.04.23-.05.47-.03.7l.41,3.78c0,.34-1.59,2.77-1.59,2.77l-.86.34-.86-.71s-.49.39-1.31.31Z"/>
  </g>
  <g id="_图层_4" data-name="图层_4">
    <path class="st1" d="M35.63,53.05c-.09-.55-.24-.89-.44-1.04-.2-.15-.5-.25-.89-.31-.39-.06-.76-.14-1.11-.23-.35-.09-.64-.16-.89-.21-.25-.04-.41-.1-.49-.16-.08-.06-.26-.31-.53-.74-.27-.43-.39-.81-.36-1.13,0-.13.09-.46.26-1,.17-.54.51-.95,1.03-1.24l.85-.33c.44-.18.69-.28.77-.3l.71.19c.25.05.65-.04,1.19-.27.54-.24,1.24-.48,2.12-.74.88-.25,1.53-.42,1.97-.49l2.76-.36c.51-.13.95-.36,1.33-.71.37-.35.64-.96.81-1.83s.18-1.75.05-2.62c-.13-.75-.27-1.26-.42-1.54-.16-.28-.59-.62-1.3-1.01-.71-.39-1.69-.46-2.93-.21-.2.05-.52.09-.96.1-.44,0-1.26.14-2.46.4l-3.34.63c-1.39.38-2.3.59-2.75.62-.45.03-.91.01-1.38-.04-.89-.07-1.48-.31-1.75-.71-.27-.4-.44-.69-.49-.86-.05-.17,0-.82.16-1.96.02-.15.04-.47.07-.97.03-.5.16-.93.41-1.29s.62-.52,1.13-.51c.2.02.41.06.63.14l.88.52c.05.04.36-.02.93-.18.56-.15,1.08-.25,1.56-.29l2.13-.22,3.12-.19,1.94-.36c.82-.05,1.48-.12,1.97-.21s2.28-.16,5.36-.23c1.73-.02,3.09-.01,4.07.01.99.03,1.6.03,1.86.01l2.43-.08,4.18.46,1.59.05,3.36.14,2.84-.33,4.46-.3,1.2-.3c.66-.13,1.1-.08,1.34.14.18.2.25.46.22.79-.02.13-.13.49-.33,1.09l-.41,1.37c-.27.69-.87,1.54-1.78,2.53-.91.99-1.79,1.5-2.62,1.52-.35.02-.79-.05-1.31-.22l-2.19-.71-2.6-.6c-1.04-.25-1.71-.39-2-.41-.29-.02-.91-.03-1.86-.03-.55.02-1.02.09-1.42.21-.4.12-.7.36-.89.72-.19.36-.35.91-.48,1.64-.13.73-.37,1.49-.72,2.27-.36.78-.5,1.33-.42,1.64.05.33.21.61.46.85.25.24.52.36.79.38.05.02.21.02.45,0,.25-.02.85,0,1.82.05l2.19.08,2.57.33c.53.07,1.27.1,2.21.1.95,0,1.75.1,2.41.31s1.19.63,1.6,1.23.61,1.09.59,1.48c-.02.2-.16.68-.44,1.44-.27.76-1.41,1.05-3.42.89l-2.43-.49-3.06-.36c-.91-.13-1.45-.19-1.61-.18-.16,0-.58.04-1.26.1-.86.09-2.18.08-3.98-.03-1.8-.11-3.18-.15-4.14-.14l-7.27.6c-.55.04-.94.11-1.18.21-.24.1-.42.22-.53.36-.12.14-.29.5-.51,1.08l-.49,1.07c-.07.16-.14.37-.19.63l-1.2,5.93c-.27,1.02-.68,2.21-1.23,3.57-.55,1.36-1.08,2.5-1.59,3.43-.51.93-1.15,1.68-1.91,2.26s-1.22.89-1.35.96c-.14.06-.54.16-1.2.3-.67.14-1.02.2-1.05.18-1.59-.02-2.69-.75-3.32-2.2s-1.03-2.5-1.19-3.16-.08-1.12.25-1.39c.15-.11.73-.19,1.75-.25,1.02-.05,2.07-.31,3.16-.78,1.08-.46,2.02-1.57,2.8-3.32.78-1.75,1.23-2.9,1.33-3.45.1-.55.1-1.14.01-1.78ZM33.04,39.95c.05-.05.32-.1.81-.15.48-.05,1.1-.15,1.85-.31.75-.16,1.43-.24,2.05-.22,2.04.11,3.12.17,3.23.19.11.02.35.12.72.3.37.18.52.43.45.74-.04.11-.23.31-.57.6l-1.04,1.34c-.38.38-.99.75-1.83,1.09-.84.35-1.68.64-2.52.89-.84.25-1.27.37-1.29.37-.27.02-.61-.12-1.01-.41l-.85-.49c-.11-.05-.2-.13-.27-.22-.07-.09-.13-.21-.18-.36-.05-.15-.07-.33-.08-.56,0-.23.02-.7.1-1.41.07-.71.22-1.18.44-1.39ZM48.84,43.15c.11.13.41.22.89.27.48.05.92,0,1.33-.14.4-.15.75-.47,1.04-.97.29-.5.47-.92.55-1.27.07-.35.14-.98.22-1.89.07-.91.04-1.57-.11-1.98-.15-.41-.31-.65-.51-.72-.19-.07-.48-.09-.86-.05-1.2.16-1.96.36-2.28.6-.32.24-.52.56-.6.96-.08.4-.1.9-.04,1.5.02.38.03.91.04,1.57,0,.67.05,1.18.14,1.53s.15.55.21.59ZM59.4,38.81l.6.16c.98.24,2.01.22,3.09-.05l1.83-.52c.73-.15,1.36-.11,1.89.1.53.21.85.36.97.44.12.08.2.16.23.23.04.07,0,.24-.08.49-.42,1.11-.68,1.75-.78,1.91-.1.16-.33.46-.68.9s-.79.71-1.29.82c-.5.11-.81.16-.92.14-.15,0-.43-.1-.86-.29-.43-.19-1.17-.38-2.23-.56-1.06-.18-1.69-.41-1.89-.68-.2-.27-.35-.56-.44-.85-.09-.29-.14-.51-.15-.67,0-.15.09-.45.3-.88.21-.43.34-.66.4-.7Z"/>
  </g>
</svg>