<?xml version="1.0" encoding="UTF-8"?>
<svg xmlns="http://www.w3.org/2000/svg" version="1.1" viewBox="0 0 100 100">
  <!-- Generator: Adobe Illustrator 30.0.0, SVG Export Plug-In . SVG Version: 2.1.1 Build 123)  -->
  <defs>
    <style>
      .st0 {
        fill: #94271e;
      }

      .st1 {
        fill: #ffeaaa;
      }
    </style>
  </defs>
  <g id="_图层_2" data-name="图层_2">
    <path class="st0" d="M87.72,91.35l-.85-3.94-.05,2.3-.26.7-.39.77-.23,1.13s-4.41-.14-6.59-.08c-3.68.09-7.54-.67-10.97-.53-3.1.13-4.52,1.01-6.23.89-2.68-.2-2.22-1.71-4.6-1.55-4.54.3-3.52,1.53-7.81.68-3.51-.69-4,1.58-5.71,1.36-4.33-.56-6.69-.32-7.8.05-1.91.63-2.95-1.09-4.05-1.08-1.43.01-2.12.16-3.37.16-2,0-2.9-1.03-4.37-1.02-2.88.02-2.63.49-2.75.49-1.17.03-.72-.58-1.74-.54-1.57.06-1.76.62-2.53.62-.08,0-.91.03-.99.04l-3.15.33-.8-.35-1.38.27c-.61.12-1.25,0-1.77-.35-.29-.19-.56-.4-.81-.53-.62-.32-1.64-1.55-1.66-2.25-.03-1.47.82-6.66.82-6.66l2.92-.85-1.57-.42-.34-.98s.31-3.26.2-3.53c-2.06-5.35-2.12-6.64-1.94-9.65.13-2.15.72-4.23,1.06-5.42.99-3.47-.43-5.24-.55-5.85-.73-3.79.51-4.16.74-5.51.46-2.67-.39-4.72-.81-5.86-.45-1.22.43-3.32.27-3.56-.72-1.09.11-4.29.11-4.29.04-.6.38-1.02.78-1.4.88-.85.99-2.22.25-3.18l.48-.37c-.43-.57-.52-1.48-.52-1.48l1.28-1.12,3.55,1.32-1.25-1.93s-3.38-1.17-3.55-1.83c-.11-.43-.03-2.12.1-2.54l-.46-2.91c.08-.53.12-.9.04-1.43-.1-.76-.52-1.63-.65-2.36l-.67-4.57c-.14-.83-.03-1.49.3-2.27.74-1.74,2.12-2.64,3.71-2.44l1.41.12c.14.01.29.02.43,0,.7-.06,1.38-.24,2.02-.52.3-.13.92-.32,1.44-.44.33-.07.67-.08,1-.01l1.43.29c1.63.23,2.19,1.21,2.35.6l.26.28.15,2.58.43-.72.31-.23.3-.86.44-.17s.24-.68.25-.68c.41.07,1.97.49,1.97.49l.11,1.25.77-1.07s1.87.19,2.4.17c1.85-.04,2.7-1.51,4-1.14,7.51,2.09,8.31.63,12.67-.92,1.26-.45,1.55,1.19,2.02,1.09,4.83-.95,8.25-.56,11,.02,8.19,1.73,16.49.3,19.1-.12,2.75-.44,11.96.59,11.96.59.81,0,1.06.65,1.06.65l.56-.09.52-.08.47.23s.14,1.57.33,1.68c0,0,.41,4.46.24,7.36-.07,1.29-.79,2.86-1.66,4.04-.61.83-.1,1.88-.1,1.88l.42.68-.95.78h1.33s-1.02.87-1.02.87c0,0,2.01,1.89,2.11,4.82s-.13,4.96.15,6.08c.67,2.75-.97,5.45-.83,6.73.1.9.63,1.37.77,2.02.18.88-.61,3.89-1.49,5.65-.49.99-1.39,1.77-1.39,1.77l.44.58-1.4,1.01,2.28-.59.54,1.12s1.7,4.05,1.67,6.12c-.05,3.63-.46,4.8-.69,5.46-.69,1.93.52,2.06.49,2.97-.06,2.07-1,3.18-1.09,4.72-.07,1.12-.52,4.37-.52,4.37,0,.4.09.8.28,1.15v.83c.28.52.22.9.06,1.47-.05.18.1.71.1.71l-.13.7c-.04.23-.05.47-.03.7l.41,3.78c0,.34-1.59,2.77-1.59,2.77l-.86.34-.86-.71s-.49.39-1.31.31Z"/>
  </g>
  <g id="_图层_4" data-name="图层_4">
    <path class="st1" d="M36.07,52.98c.53.05.88.43,1.04,1.16l.08,3.34.11,2.79-.08.88.05,2.08c-.05.66-.24,1.3-.55,1.94l-.46.88c-.36.71-.6,1.13-.71,1.26-.11.13-.47.44-1.08.94-.61.5-1.37.88-2.28,1.15-.91.26-1.61.39-2.11.37-.27,0-1.02-.19-2.23-.57-1.21-.38-1.84-.64-1.87-.78-.04-.14-.05-.23-.05-.27v-.21c0-.11,0-.2.03-.26.02-.06.13-.25.33-.55.2-.3.44-.59.72-.88.28-.28.72-.6,1.3-.94l2-1.12c1.29-.77,2.07-1.37,2.34-1.82.26-.45.41-.71.44-.78.03-.07.1-.34.21-.79l.52-1.59c.04-.18.07-.35.11-.49l.08-1.29.27-.85.05-1.45c0-.05.11-.34.33-.85l.3-.96c.22-.27.59-.39,1.12-.34ZM26.64,41.51c.24-.4.67-.65,1.29-.74.27-.04.63-.03,1.07.03l2.21.3c.82.05,1.75-.05,2.8-.31,1.05-.26,2.33-.53,3.84-.81l4.7-1.01,3.2-.19c1.08-.07,1.71-.17,1.91-.3.2-.13.24-.48.11-1.07-.13-.58-.29-.89-.49-.93-.07,0-.2.03-.38.08-.18.05-.92.08-2.21.08l-2.9.57-1.34.11-2.38.36-1.34.11-3.99.88c-.89.09-1.58,0-2.05-.29-.47-.28-.84-.71-1.09-1.29-.26-.57-.36-1.01-.33-1.3.04-.36.26-.73.68-1.09.42-.36.81-.56,1.18-.6l1.45.14c.15,0,.51-.1,1.09-.31.58-.21,1.54-.36,2.88-.46,1.34-.1,2.61-.23,3.8-.38,1.19-.15,2.38-.26,3.57-.31,1.18-.05,1.93-.1,2.23-.15.3-.05.51-.13.63-.26.12-.13.33-.65.64-1.56.31-.91.91-1.37,1.8-1.38.89,0,1.57.29,2.02.89l.6,1.01c.16.24.33.39.51.46.17.07,1.03.12,2.58.14,3.12.05,5.5.16,7.14.33s2.51.24,2.6.22c.25-.02.89-.13,1.91-.34,1.02-.21,1.86-.22,2.52-.04.66.18,1.01.55,1.07,1.11.05.56-.17,1.14-.68,1.76l-1.5,1.72c-.31.4-.56.84-.74,1.33-.18.48-.21.85-.07,1.11.14.26.71.35,1.74.27,1.84-.09,2.98-.17,3.42-.23.44-.06,1.16-.28,2.16-.66,1-.37,1.57-.49,1.71-.36s.23.37.27.71c.04.34-.2.95-.72,1.85-1.11,1.86-1.79,2.94-2.04,3.24s-.62.64-1.13,1.03c-.51.38-.96.62-1.34.72-.38.1-.88.12-1.5.07-.79-.05-1.43-.19-1.94-.41l-1.31-.6c-.31-.11-.54-.15-.68-.11-.2.07-.44.38-.71.92-.27.54-.49,1.21-.66,2.02-.16.81-.38,1.49-.63,2.04-.26.55-1.09.79-2.52.74h-1.72c-.49,0-.91-.04-1.26-.11l-1.59-.36c-.31-.04-.78-.06-1.41-.07-.63,0-1.2-.04-1.72-.08-.52-.04-.87,0-1.05.15-.29.24-.47.91-.52,2.02v4.35c-.11,1.19-.16,1.85-.14,2l.05.55.03.9.14.77v.6l.05,1.2v.55l.11,1.31-.03.96.08.71-.16,1.23-.05.93c-.06.2-.25.54-.58,1.01-.33.47-.81.72-1.45.74-.2.02-.6-.06-1.19-.25-.59-.18-.97-.77-1.13-1.75-.02-.02,0-.46.04-1.34.05-.88.05-1.64.01-2.3-.04-.66-.05-1.19-.03-1.61l.11-2.87-.03-2.73c0-.09,0-.41.03-.96.02-.86,0-1.67-.07-2.45-.06-.77-.06-1.32,0-1.63.06-.31.07-.73.01-1.26-.05-.53-.95-.52-2.68.03-.58.2-1.97.36-4.17.48-2.2.12-4.15.46-5.87,1.04-1.71.57-2.71.84-2.98.81-.78-.07-1.27-.34-1.45-.79-.18-.46-.28-.78-.29-.97,0-.19.03-.43.12-.72.33-1.28.65-1.98.97-2.12.32-.14.7-.23,1.13-.29s1.01-.2,1.71-.44c.7-.24,1.37-.4,2.01-.49.64-.09,1.3-.17,2-.25.69-.07,1.17-.13,1.42-.16l4.1-.71c1.93-.05,3.03-.15,3.28-.27.25-.13.42-.24.51-.34.08-.1.12-.42.11-.97,0-.55-.06-.87-.15-.97-.09-.1-.41-.12-.96-.07-1.13.15-2.02.25-2.68.3s-1.33.15-2.02.27l-1.59.19-1.07.22-2.21.33c-.78.13-1.5.3-2.13.52l-1.67.57c-.24.07-1.03.22-2.39.45-1.36.23-2.28.27-2.78.12-.64-.16-1.1-.42-1.39-.78-.29-.36-.45-.57-.46-.66-.02-.08-.04-.29-.07-.63-.03-.34-.03-.59-.01-.75,0-.35.07-.76.22-1.24.15-.48.23-.73.25-.75ZM44.77,54.25l-.08.68-.08,1.23-.16,1.31c-.02.13-.05.72-.1,1.76-.05,1.05-.16,2-.33,2.84-.17.85-.57,1.65-1.19,2.41-.62.76-1.12.68-1.5-.22s-.54-1.76-.46-2.58c0-.05.05-.51.14-1.35.09-.85.14-1.58.15-2.2,0-.62-.03-1.11-.12-1.48l-.33-.93c-.07-.2-.13-.39-.16-.57-.04-.18-.06-.37-.07-.56,0-.19.03-.41.12-.64.11-.36.35-.68.71-.96.36-.27.81-.4,1.34-.38.8.05,1.35.32,1.65.81.3.48.46.76.48.83ZM52.15,45.48l3.53-.14,3.47.49c.31.04.75.05,1.31.03.55,0,.97-.24,1.29-.71.31-.47.34-.88.08-1.23-.13-.15-.47-.23-1.03-.25-.56-.02-1.13-.07-1.72-.16-.59-.09-1.57-.21-2.93-.34-1.36-.14-2.33-.22-2.91-.25-.58-.03-.97.07-1.15.3-.18.23-.22.66-.12,1.3.1.64.16.96.18.96ZM52.21,38.26l3.58.08,2.62.25c3.06.09,4.61.12,4.65.08l.16-1.2c.07-.6.07-.94,0-1.01-.18-.13-.77-.23-1.75-.3-.98-.07-1.8-.15-2.43-.22-.64-.07-.98-.12-1.01-.14-.16,0-.54.01-1.12.04-.58.03-1.49.1-2.71.21-1.22.11-1.9.23-2.04.36-.14.13-.19.46-.17.98.03.53.1.82.21.88ZM55.02,53.13c0-.07.04-.24.14-.49.09-.25.42-.33.98-.22.11.04.28.1.52.18.24.08.6.42,1.09,1,.49.58.85,1.04,1.08,1.38.23.34.41.98.55,1.91.14.94.22,1.93.26,2.97l.03,1.15c.04,1.39-.11,2.23-.42,2.54-.32.31-.79.52-1.41.62-.62.1-1.13-.03-1.54-.4-.41-.36-.65-.78-.72-1.26-.04-.09-.03-.52.03-1.29s-.04-2.05-.29-3.84c-.25-1.79-.34-3.21-.29-4.25ZM65.55,48.87c.29-.05.63.05,1.03.31.39.26.62.47.7.62.07.15.14.6.22,1.35.07.76.12,1.14.14,1.14l-.41,2.02.03.19-.16,2.84c0,.09.04.3.14.63l.52,4.7.85,4.87c-.02.64-.12,1.14-.29,1.52-.17.37-.49.81-.94,1.31-.46.5-.98.82-1.59.96s-1.09.06-1.48-.23c-.38-.29-.62-.62-.71-.98-.07-.26-.04-.8.1-1.64.14-.84.19-1.65.15-2.43l-.25-2.41c-.02-.16-.01-.75.01-1.75.03-1,.04-1.59.04-1.75l-.08-1.48.08-.82c.05-.62,0-1.57-.16-2.86s-.21-2.24-.14-2.86c.09-.84.37-1.57.83-2.19.46-.62.92-.97,1.38-1.07Z"/>
  </g>
</svg>