<?xml version="1.0" encoding="UTF-8"?>
<svg xmlns="http://www.w3.org/2000/svg" version="1.1" viewBox="0 0 100 100">
  <!-- Generator: Adobe Illustrator 30.0.0, SVG Export Plug-In . SVG Version: 2.1.1 Build 123)  -->
  <defs>
    <style>
      .st0 {
        fill: #94271e;
      }

      .st1 {
        fill: #ffeaaa;
      }
    </style>
  </defs>
  <g id="_图层_2" data-name="图层_2">
    <path class="st0" d="M87.72,91.35l-.85-3.94-.05,2.3-.26.7-.39.77-.23,1.13s-4.41-.14-6.59-.08c-3.68.09-7.54-.67-10.97-.53-3.1.13-4.52,1.01-6.23.89-2.68-.2-2.22-1.71-4.6-1.55-4.54.3-3.52,1.53-7.81.68-3.51-.69-4,1.58-5.71,1.36-4.33-.56-6.69-.32-7.8.05-1.91.63-2.95-1.09-4.05-1.08-1.43.01-2.12.16-3.37.16-2,0-2.9-1.03-4.37-1.02-2.88.02-2.63.49-2.75.49-1.17.03-.72-.58-1.74-.54-1.57.06-1.76.62-2.53.62-.08,0-.91.03-.99.04l-3.15.33-.8-.35-1.38.27c-.61.12-1.25,0-1.77-.35-.29-.19-.56-.4-.81-.53-.62-.32-1.64-1.55-1.66-2.25-.03-1.47.82-6.66.82-6.66l2.92-.85-1.57-.42-.34-.98s.31-3.26.2-3.53c-2.06-5.35-2.12-6.64-1.94-9.65.13-2.15.72-4.23,1.06-5.42.99-3.47-.43-5.24-.55-5.85-.73-3.79.51-4.16.74-5.51.46-2.67-.39-4.72-.81-5.86-.45-1.22.43-3.32.27-3.56-.72-1.09.11-4.29.11-4.29.04-.6.38-1.02.78-1.4.88-.85.99-2.22.25-3.18l.48-.37c-.43-.57-.52-1.48-.52-1.48l1.28-1.12,3.55,1.32-1.25-1.93s-3.38-1.17-3.55-1.83c-.11-.43-.03-2.12.1-2.54l-.46-2.91c.08-.53.12-.9.04-1.43-.1-.76-.52-1.63-.65-2.36l-.67-4.57c-.14-.83-.03-1.49.3-2.27.74-1.74,2.12-2.64,3.71-2.44l1.41.12c.14.01.29.02.43,0,.7-.06,1.38-.24,2.02-.52.3-.13.92-.32,1.44-.44.33-.07.67-.08,1-.01l1.43.29c1.63.23,2.19,1.21,2.35.6l.26.28.15,2.58.43-.72.31-.23.3-.86.44-.17s.24-.68.25-.68c.41.07,1.97.49,1.97.49l.11,1.25.77-1.07s1.87.19,2.4.17c1.85-.04,2.7-1.51,4-1.14,7.51,2.09,8.31.63,12.67-.92,1.26-.45,1.55,1.19,2.02,1.09,4.83-.95,8.25-.56,11,.02,8.19,1.73,16.49.3,19.1-.12,2.75-.44,11.96.59,11.96.59.81,0,1.06.65,1.06.65l.56-.09.52-.08.47.23s.14,1.57.33,1.68c0,0,.41,4.46.24,7.36-.07,1.29-.79,2.86-1.66,4.04-.61.83-.1,1.88-.1,1.88l.42.68-.95.78h1.33s-1.02.87-1.02.87c0,0,2.01,1.89,2.11,4.82s-.13,4.96.15,6.08c.67,2.75-.97,5.45-.83,6.73.1.9.63,1.37.77,2.02.18.88-.61,3.89-1.49,5.65-.49.99-1.39,1.77-1.39,1.77l.44.58-1.4,1.01,2.28-.59.54,1.12s1.7,4.05,1.67,6.12c-.05,3.63-.46,4.8-.69,5.46-.69,1.93.52,2.06.49,2.97-.06,2.07-1,3.18-1.09,4.72-.07,1.12-.52,4.37-.52,4.37,0,.4.09.8.28,1.15v.83c.28.52.22.9.06,1.47-.05.18.1.71.1.71l-.13.7c-.04.23-.05.47-.03.7l.41,3.78c0,.34-1.59,2.77-1.59,2.77l-.86.34-.86-.71s-.49.39-1.31.31Z"/>
  </g>
  <g id="_图层_4" data-name="图层_4">
    <path class="st1" d="M27.08,35.4c.16-.04.42-.02.78.04.36.06,1.04-.02,2.06-.25,1.02-.23,1.64-.39,1.85-.49.21-.1.45-.31.71-.64.26-.33.51-.81.75-1.44.24-.63.43-1.02.57-1.16s.42-.34.83-.57c.41-.24.71-.36.89-.36.16.02.3.07.4.16.1.09.25.48.46,1.16.21.68.65,1.23,1.31,1.64.67.41,1.29.65,1.87.72l2.27.16c.91.26,1.42.75,1.53,1.48.11.73.03,1.32-.25,1.78l-.38.57-.63,1.97-.27.55c-.36.73-.58,1.95-.64,3.66-.06,1.71-.1,3.12-.1,4.21v.33c-.02,1.57-.14,3.06-.36,4.48s-.3,2.34-.25,2.76l.27,2.35c-.05.4-.18.69-.38.88-.16.15-.54.22-1.12.22-.09.02-.31.12-.66.31-.35.19-1.42.38-3.21.56-1.8.18-2.97.51-3.51.98l-.79.88c-.38.42-.7.83-.94,1.22-.25.39-.43.59-.56.59-.16.02-.33-.03-.49-.14l-.6-.46-.68-.41c-.07-.07-.12-.22-.14-.44l.14-2.9-.03-.49c-.02-.42.05-.9.19-1.45.31-1.24.47-1.9.49-2,.02-.09.05-.66.08-1.7.04-1.04.07-1.72.11-2.05l.08-.85.16-3.42c.02-.67.04-1.33.07-1.96s-.1-1.97-.4-4.03c-.07-.4-.14-.7-.19-.9l-.66-1.67c-.02-.2-.04-.33-.05-.38-.02-.05-.14-.23-.37-.52-.23-.29-.37-.57-.44-.83-.06-.26-.1-.63-.1-1.11s.1-.83.3-1.07ZM31.81,55.28c-.04.64.37.93,1.23.88.05,0,.68-.12,1.87-.37,1.19-.25,1.88-.45,2.05-.6.17-.15.35-.4.53-.74.18-.34.29-.65.33-.94l-.03-1.29.19-1.23c-.11-.47-.39-.7-.85-.68l-1.97.03c-.51.05-1.08.17-1.71.36-.63.18-1.06.39-1.3.63-.24.24-.33.67-.27,1.29l.08.77c0,.11-.03.35-.08.72-.05.37-.08.77-.08,1.19ZM32.65,45.02c.09.07.32.08.68.03l1.2-.41c.2-.05.46-.1.77-.14l.82-.05c.49-.05.86-.08,1.09-.07.24,0,.38,0,.44-.01.46-.13.71-.58.77-1.37l.03-1.8c.04-.31.02-.65-.05-1.01-.07-.36-.53-.56-1.37-.57-.27,0-.64.11-1.11.33s-.82.35-1.07.4c-.25.05-.65.09-1.2.14-.56.05-.89.11-1.01.19-.12.08-.22.21-.3.38-.08.17-.1.71-.07,1.6l-.03.96c-.02.33.02.64.12.93.1.29.2.46.29.49ZM39.11,60.15s.15-.06.4-.12c.25-.06.78.05,1.6.34.82.29,1.47.45,1.94.46.95.07,2.06-.13,3.34-.62,1.28-.48,2.51-1.18,3.69-2.08,1.18-.9,1.94-1.62,2.27-2.16.33-.54.41-.98.25-1.33-.05-.07-.16-.21-.33-.41l-.66-.74c-.16-.15-.34-.3-.52-.46l-2.05-1.37c-.78-.62-1.25-1.01-1.39-1.18-.15-.16-.2-.44-.16-.82,0-.07.04-.25.11-.52l.14-.57c.09-.4.2-.62.33-.67.13-.04.28-.06.46-.04l.98.25,1.83.33c.27.09.49.21.66.36l.41.52.88.66c1.13.86,1.76,1.28,1.89,1.26.36-.04.74-.32,1.12-.85l.46-.77,1.37-1.75c.33-.66.56-1.05.71-1.19.14-.14.45-.22.9-.26.47-.02.83.2,1.08.64s.36.81.34,1.08c-.02.18-.05.32-.11.42-.05.1-.24.42-.55.94l-1.5,3.34c-.33.51-.51.92-.53,1.23-.03.31.25.71.83,1.2.13.13.56.41,1.31.85l3.5,2.46,1.72.88,1.2.74c1.68,1,3.64,1.59,5.91,1.75l1.31.08c.89.07,1.33.26,1.31.55-.02.05-.12.36-.29.92-.17.56-.3.89-.38,1.01-.08.12-.3.37-.64.75l-1.5,1.7s-.46.32-1.29.85c-.82.53-1.45.85-1.87.97-.43.12-1.04.12-1.85.01-1.62-.18-3.34-1.27-5.14-3.25s-3.04-3.29-3.71-3.91c-.67-.62-1.27-1.37-1.82-2.26-.55-.88-.92-1.28-1.12-1.19-.13.07-.35.31-.66.7-.31.39-.57.7-.78.93-.21.23-1.17,1.06-2.87,2.5-1.7,1.44-2.67,2.24-2.91,2.39-.24.16-.95.56-2.13,1.22-1.19.66-2.08,1.02-2.68,1.09-1.7.25-2.93-.04-3.69-.89s-1.17-1.46-1.22-1.85c-.05-.38-.1-1.11-.16-2.19-.06-1.08.02-1.72.26-1.94ZM42.94,44.15c.13-.58.28-.89.46-.93.18-.04.37-.05.56-.04.19,0,.35,0,.46-.03.12-.03.34-.14.66-.33.32-.19.66-.36,1.03-.52.36-.15.98-.37,1.86-.66.88-.28,1.66-.58,2.35-.89.69-.31,1.15-.5,1.37-.56.22-.06.59-.11,1.12-.15.53-.04.9.18,1.11.64.21.46.11,1.03-.29,1.68l-.82,1.01-.66,1.01-.85.93c-.05.07-.24.31-.55.71-.31.4-.83.77-1.57,1.09s-1.48.47-2.23.44c-.27,0-.86-.25-1.75-.74-.89-.49-1.48-.86-1.75-1.11s-.44-.52-.51-.82c-.06-.3-.07-.55-.01-.75ZM45.97,34.2c.42.02.65.02.68,0l.98-.25c.05,0,.2,0,.42-.01.23,0,1.06-.12,2.49-.33,1.43-.21,2.29-.4,2.58-.56.29-.16.52-.32.68-.48.16-.15.5-.67,1.01-1.53.51-.87.88-1.34,1.12-1.44.16-.05.52,0,1.08.18.55.17.93.3,1.13.38.2.08.6.51,1.2,1.27s.98,1.18,1.15,1.23.43.1.79.14c.36.04,1.03.17,2.01.41.97.24,2.09.38,3.35.44.64.04,1.09,0,1.37-.08.27-.09.42-.15.44-.16.16-.04.48.02.96.16.47.15.8.28.97.4.17.12.46.47.88,1.05.41.58.52,1.2.34,1.86-.13.42-.35.77-.67,1.05-.32.28-.52.44-.59.48-.07.04-.76.05-2.05.03l-6.64-.96-1.8.14s-.44.02-1.27.01c-.83,0-2.43.17-4.8.55-2.37.37-4.08.72-5.14,1.03-1.06.31-1.72.44-2,.38-.29-.04-.63-.17-1.01-.41-.38-.24-.66-.58-.82-1.03-.16-.45-.19-.85-.08-1.22l.11-.3.36-2c.18-.29.44-.44.77-.44ZM59.7,39.64c.35-.16.77-.09,1.29.22l.33.25,2.11.68,1.18.66,1.64.55,3.14,1.29c1.13.26,1.74.5,1.82.74.08.24.04.55-.12.93-.09.2-.38.58-.88,1.15-.49.57-.9,1-1.22,1.3-.32.3-1,.45-2.04.45-1.35.02-2.26-.18-2.73-.59-.47-.41-.91-.87-1.31-1.38l-.63-.74-.49-.71-.79-.79c-.07-.07-.29-.39-.64-.94-.36-.56-.55-.88-.59-.97-.04-.09-.11-.33-.22-.71s-.16-.64-.14-.77c0-.09.04-.21.11-.34.07-.14.14-.22.19-.26Z"/>
  </g>
</svg>