<?xml version="1.0" encoding="UTF-8"?>
<svg xmlns="http://www.w3.org/2000/svg" version="1.1" viewBox="0 0 100 100">
  <!-- Generator: Adobe Illustrator 30.0.0, SVG Export Plug-In . SVG Version: 2.1.1 Build 123)  -->
  <defs>
    <style>
      .st0 {
        fill: #94271e;
      }

      .st1 {
        fill: #ffeaaa;
      }
    </style>
  </defs>
  <g id="_图层_2" data-name="图层_2">
    <path class="st0" d="M87.72,91.35l-.85-3.94-.05,2.3-.26.7-.39.77-.23,1.13s-4.41-.14-6.59-.08c-3.68.09-7.54-.67-10.97-.53-3.1.13-4.52,1.01-6.23.89-2.68-.2-2.22-1.71-4.6-1.55-4.54.3-3.52,1.53-7.81.68-3.51-.69-4,1.58-5.71,1.36-4.33-.56-6.69-.32-7.8.05-1.91.63-2.95-1.09-4.05-1.08-1.43.01-2.12.16-3.37.16-2,0-2.9-1.03-4.37-1.02-2.88.02-2.63.49-2.75.49-1.17.03-.72-.58-1.74-.54-1.57.06-1.76.62-2.53.62-.08,0-.91.03-.99.04l-3.15.33-.8-.35-1.38.27c-.61.12-1.25,0-1.77-.35-.29-.19-.56-.4-.81-.53-.62-.32-1.64-1.55-1.66-2.25-.03-1.47.82-6.66.82-6.66l2.92-.85-1.57-.42-.34-.98s.31-3.26.2-3.53c-2.06-5.35-2.12-6.64-1.94-9.65.13-2.15.72-4.23,1.06-5.42.99-3.47-.43-5.24-.55-5.85-.73-3.79.51-4.16.74-5.51.46-2.67-.39-4.72-.81-5.86-.45-1.22.43-3.32.27-3.56-.72-1.09.11-4.29.11-4.29.04-.6.38-1.02.78-1.4.88-.85.99-2.22.25-3.18l.48-.37c-.43-.57-.52-1.48-.52-1.48l1.28-1.12,3.55,1.32-1.25-1.93s-3.38-1.17-3.55-1.83c-.11-.43-.03-2.12.1-2.54l-.46-2.91c.08-.53.12-.9.04-1.43-.1-.76-.52-1.63-.65-2.36l-.67-4.57c-.14-.83-.03-1.49.3-2.27.74-1.74,2.12-2.64,3.71-2.44l1.41.12c.14.01.29.02.43,0,.7-.06,1.38-.24,2.02-.52.3-.13.92-.32,1.44-.44.33-.07.67-.08,1-.01l1.43.29c1.63.23,2.19,1.21,2.35.6l.26.28.15,2.58.43-.72.31-.23.3-.86.44-.17s.24-.68.25-.68c.41.07,1.97.49,1.97.49l.11,1.25.77-1.07s1.87.19,2.4.17c1.85-.04,2.7-1.51,4-1.14,7.51,2.09,8.31.63,12.67-.92,1.26-.45,1.55,1.19,2.02,1.09,4.83-.95,8.25-.56,11,.02,8.19,1.73,16.49.3,19.1-.12,2.75-.44,11.96.59,11.96.59.81,0,1.06.65,1.06.65l.56-.09.52-.08.47.23s.14,1.57.33,1.68c0,0,.41,4.46.24,7.36-.07,1.29-.79,2.86-1.66,4.04-.61.83-.1,1.88-.1,1.88l.42.68-.95.78h1.33s-1.02.87-1.02.87c0,0,2.01,1.89,2.11,4.82s-.13,4.96.15,6.08c.67,2.75-.97,5.45-.83,6.73.1.9.63,1.37.77,2.02.18.88-.61,3.89-1.49,5.65-.49.99-1.39,1.77-1.39,1.77l.44.58-1.4,1.01,2.28-.59.54,1.12s1.7,4.05,1.67,6.12c-.05,3.63-.46,4.8-.69,5.46-.69,1.93.52,2.06.49,2.97-.06,2.07-1,3.18-1.09,4.72-.07,1.12-.52,4.37-.52,4.37,0,.4.09.8.28,1.15v.83c.28.52.22.9.06,1.47-.05.18.1.71.1.71l-.13.7c-.04.23-.05.47-.03.7l.41,3.78c0,.34-1.59,2.77-1.59,2.77l-.86.34-.86-.71s-.49.39-1.31.31Z"/>
  </g>
  <g id="_图层_4" data-name="图层_4">
    <path class="st1" d="M25.75,64.67l.46-.44.3-.52c.09-.05.22-.08.38-.08.07.02.29.08.64.19s.57.18.64.22l.36.22c.09.05.53,0,1.31-.16l1.89.05,2.24-.44c1.28-.16,2.07-.54,2.39-1.13.32-.59.53-1.63.64-3.1l.11-1.26c0-.09,0-.34-.01-.74,0-.4,0-.82,0-1.24,0-.43.01-.81.01-1.13l-.03-1.86c-.02-.91-.02-1.81-.01-2.71,0-.89.01-1.5.01-1.83-.04-.56-.1-1.17-.19-1.8-.09-.64-.14-1.06-.14-1.26v-.77c-.02-.89-.15-1.54-.38-1.94l-.3-.38c-.18-.22-.28-.42-.29-.6,0-.18.02-.34.1-.46.25-.51.66-.67,1.22-.49.56.18.86.26.92.25.04,0,.13-.02.27-.05l2.21-.19,1.26-.25c.05,0,.32-.01.79-.04.47-.03.89-.09,1.24-.18.36-.09.72-.23,1.11-.42s.75-.52,1.11-1c.36-.47.45-.84.29-1.09-.16-.25-.37-.37-.63-.36l-.55.16-.68-.14c-.09,0-.2,0-.33-.03-.62,0-1.08.02-1.39.05l-1.12.27-1.04.08s-.26.13-.71.34c-.46.21-1.07.39-1.85.55-.77.16-1.26.23-1.46.23h-2.05l-2.05.27c-.2.02-.36.02-.49,0-1.4-.11-2.13-.36-2.19-.74s-.07-.73-.05-1.04c.02-.91.04-1.39.05-1.42l.55-1.07c.09-.38.16-.59.22-.63l.38-.11c.4-.22.77-.28,1.12-.19l1.12.44.79-.08.27.03s.32,0,.86-.05c.54-.05.83-.09.89-.11l.46-.22c.13-.04.41-.03.85.03l4.73-.52c.35,0,.56,0,.63-.03l1.48-.38,2.13-.08c.36-.11.6-.19.71-.23.11-.05.3-.53.56-1.46.26-.93.58-1.49.94-1.7l1.2-.19c.97-.15,1.48-.21,1.53-.19.09.07.28.31.56.72.28.41.43.71.45.89l-.14,1.04c.11.6.76.97,1.94,1.09,1.18.13,2.38.15,3.58.05,1.2-.09,1.85-.15,1.94-.16,1.4,0,2.6.13,3.58.38l1.8.49.9.08,1.04.25c.86.2,1.38.36,1.57.46s.35.27.48.49l.25.98.27.74c.02.11.02.19,0,.25-.04.09-.28.28-.74.56-.46.28-.85.48-1.18.6-.33.12-.67.2-1.01.23-.16.04-.66-.02-1.49-.18-.83-.15-1.77-.25-2.82-.29-1.05-.04-1.62-.06-1.71-.08l-1.37-.27c-.26-.04-.52-.06-.78-.07-.27,0-1.33-.1-3.19-.26-.05,0-.44.01-1.15.04s-1.1.07-1.18.12l-.3.36-.38.36c-.07.11-.1.24-.08.38,0,.09.04.25.12.46s.21.38.37.48c.16.1.53.18,1.09.23l1.53.22,1.61-.14,1.2.08,2.08-.05,1.09.27c.33.09.66.13,1.01.11.13,0,.31,0,.55-.03.24-.02.41-.03.52-.03.16.02.46.13.88.33.42.2.67.37.77.52l.14.66.14.49s-.14.38-.41,1.09l-.3,1.31-.3.52c-.07.13-.16.57-.27,1.34l-.3,1.26c-.11.42-.21,1.13-.29,2.12-.08.99-.21,2.28-.38,3.86-.17,1.58-.28,3.02-.31,4.32-.04,1.3-.09,2.2-.15,2.68-.06.48-.07.83-.01,1.05.04.22.1.4.21.53.1.14.51.31,1.23.53.72.22,1.55.31,2.5.27.47,0,.92,0,1.33-.03.41-.02.69-.04.83-.05l1.29-.08c.66-.02,1.47,0,2.45.05.97.05,1.85.05,2.62-.01.77-.06,1.19,0,1.24.19s-.03.51-.25.94c-.26.47-.66,1.05-1.2,1.74s-1.13,1.32-1.76,1.91c-.63.59-1.04.94-1.22,1.04-.18.1-.58.23-1.19.4-.61.16-1.15.26-1.63.3-.71.07-1.27.05-1.67-.07-.4-.12-.68-.21-.82-.26l-3.31-1.42-.79-.3-2.02-.9c-.42-.13-.85-.2-1.29-.21-.44,0-.68-.02-.71-.04l-1.12-.27-3.83-.05-1.39-.11-1.67.03-1.26-.05c-.75-.02-1.82.08-3.23.29-1.4.21-2.28.33-2.62.36-.35.03-.95.04-1.82.03-.87,0-1.42,0-1.67.03s-.7.1-1.37.21c-.67.11-1.27.18-1.82.22l-3.17.74-2.57.36c-.42.15-.77.29-1.07.44l-.63.36c-.27.15-.53.21-.77.19-.18,0-.66-.11-1.42-.33s-1.23-.45-1.38-.7c-.16-.25-.27-.49-.36-.72-.08-.24-.12-.46-.12-.68,0-.2.1-.57.29-1.11.19-.54.34-.87.45-1ZM43.38,45.81c1.68-.29,2.91-.46,3.69-.52l1.37.05,1.48-.03,1.31.11c.71-.02,1.1-.02,1.18,0l.33.11h1.37l.79.3,1.75-.14c.14,0,.51.04,1.09.11.58.07.99.05,1.23-.07.24-.12.46-.33.68-.63s.31-.58.27-.83c-.05-.22-.25-.45-.57-.68-.33-.24-.68-.39-1.04-.46l-1.97.03c-.24,0-.82-.06-1.75-.19-.93-.13-1.58-.2-1.94-.22-.64-.02-1.57.02-2.79.11-1.22.09-2.14.18-2.76.26-.62.08-1.3.12-2.05.11-.75,0-1.14-.01-1.18-.01l-1.8.52c-.27,0-.43.02-.46.05s-.09.13-.16.27l-.36.57c-.13.38-.03.72.29,1.03.32.3.99.35,2.01.15ZM42.73,51.85s.35.01,1.05-.01c.7-.03,2.19-.17,4.47-.42l1.5-.16,1.18.03s.48,0,1.4-.08l.55-.03c3.81-.18,5.84-.34,6.08-.46.25-.13.34-.46.29-.98-.05-.53-.2-.9-.44-1.12-.29-.22-.76-.31-1.41-.29-.65.03-1.46,0-2.42-.1-.97-.09-1.57-.14-1.8-.14-.22.02-.64.07-1.26.15-.62.08-1.04.12-1.26.12-.05.02-.29.02-.71,0-.42-.02-.73-.03-.93-.03-.35.02-.9.07-1.65.16-.76.09-1.54.13-2.34.12-.8,0-1.43.06-1.87.22-.45.16-.77.44-.96.86-.19.42-.28.73-.26.93,0,.27.1.54.31.81.21.26.37.41.48.42ZM42.02,61.56c.13.51.78.77,1.96.78,1.18,0,1.84,0,1.98-.01l1.29-.19h2.02l3.2-.14c1-.02,1.95,0,2.84.05.98.07,1.67,0,2.06-.22.39-.22.64-.56.74-1.04.1-.47.01-.88-.26-1.2s-.74-.46-1.41-.38c-.67.07-1.61.1-2.83.07-1.22-.03-1.9-.04-2.02-.04l-.99.16-1.37.05-1.12.08-2.54-.05-.44.05h-2.3c-.36.09-.59.21-.67.34s-.13.45-.15.94c-.02.49-.02.74,0,.74ZM42.04,55.98c.05.47.24.83.55,1.05.31.23.83.26,1.57.1s1.24-.25,1.52-.25l1.09.16,3.2-.25,1.78.14c.35.02.78,0,1.3-.08.52-.07.81-.12.89-.14.33-.02,1.06.02,2.2.12,1.14.1,1.86-.06,2.16-.48.3-.42.45-.83.44-1.24,0-.41-.08-.68-.22-.82s-.58-.21-1.33-.21l-2.19-.22-1.26.11-1.34-.03-1.04.11c-.51.05-1.4.05-2.65-.01-1.26-.06-2.52.03-3.77.29-1.26.26-2.08.45-2.46.59s-.53.49-.44,1.05Z"/>
  </g>
</svg>