<?xml version="1.0" encoding="UTF-8"?>
<svg xmlns="http://www.w3.org/2000/svg" version="1.1" viewBox="0 0 100 100">
  <!-- Generator: Adobe Illustrator 30.0.0, SVG Export Plug-In . SVG Version: 2.1.1 Build 123)  -->
  <defs>
    <style>
      .st0 {
        fill: #94271e;
      }

      .st1 {
        fill: #ffeaaa;
      }
    </style>
  </defs>
  <g id="_图层_2" data-name="图层_2">
    <path class="st0" d="M87.72,91.35l-.85-3.94-.05,2.3-.26.7-.39.77-.23,1.13s-4.41-.14-6.59-.08c-3.68.09-7.54-.67-10.97-.53-3.1.13-4.52,1.01-6.23.89-2.68-.2-2.22-1.71-4.6-1.55-4.54.3-3.52,1.53-7.81.68-3.51-.69-4,1.58-5.71,1.36-4.33-.56-6.69-.32-7.8.05-1.91.63-2.95-1.09-4.05-1.08-1.43.01-2.12.16-3.37.16-2,0-2.9-1.03-4.37-1.02-2.88.02-2.63.49-2.75.49-1.17.03-.72-.58-1.74-.54-1.57.06-1.76.62-2.53.62-.08,0-.91.03-.99.04l-3.15.33-.8-.35-1.38.27c-.61.12-1.25,0-1.77-.35-.29-.19-.56-.4-.81-.53-.62-.32-1.64-1.55-1.66-2.25-.03-1.47.82-6.66.82-6.66l2.92-.85-1.57-.42-.34-.98s.31-3.26.2-3.53c-2.06-5.35-2.12-6.64-1.94-9.65.13-2.15.72-4.23,1.06-5.42.99-3.47-.43-5.24-.55-5.85-.73-3.79.51-4.16.74-5.51.46-2.67-.39-4.72-.81-5.86-.45-1.22.43-3.32.27-3.56-.72-1.09.11-4.29.11-4.29.04-.6.38-1.02.78-1.4.88-.85.99-2.22.25-3.18l.48-.37c-.43-.57-.52-1.48-.52-1.48l1.28-1.12,3.55,1.32-1.25-1.93s-3.38-1.17-3.55-1.83c-.11-.43-.03-2.12.1-2.54l-.46-2.91c.08-.53.12-.9.04-1.43-.1-.76-.52-1.63-.65-2.36l-.67-4.57c-.14-.83-.03-1.49.3-2.27.74-1.74,2.12-2.64,3.71-2.44l1.41.12c.14.01.29.02.43,0,.7-.06,1.38-.24,2.02-.52.3-.13.92-.32,1.44-.44.33-.07.67-.08,1-.01l1.43.29c1.63.23,2.19,1.21,2.35.6l.26.28.15,2.58.43-.72.31-.23.3-.86.44-.17s.24-.68.25-.68c.41.07,1.97.49,1.97.49l.11,1.25.77-1.07s1.87.19,2.4.17c1.85-.04,2.7-1.51,4-1.14,7.51,2.09,8.31.63,12.67-.92,1.26-.45,1.55,1.19,2.02,1.09,4.83-.95,8.25-.56,11,.02,8.19,1.73,16.49.3,19.1-.12,2.75-.44,11.96.59,11.96.59.81,0,1.06.65,1.06.65l.56-.09.52-.08.47.23s.14,1.57.33,1.68c0,0,.41,4.46.24,7.36-.07,1.29-.79,2.86-1.66,4.04-.61.83-.1,1.88-.1,1.88l.42.68-.95.78h1.33s-1.02.87-1.02.87c0,0,2.01,1.89,2.11,4.82s-.13,4.96.15,6.08c.67,2.75-.97,5.45-.83,6.73.1.9.63,1.37.77,2.02.18.88-.61,3.89-1.49,5.65-.49.99-1.39,1.77-1.39,1.77l.44.58-1.4,1.01,2.28-.59.54,1.12s1.7,4.05,1.67,6.12c-.05,3.63-.46,4.8-.69,5.46-.69,1.93.52,2.06.49,2.97-.06,2.07-1,3.18-1.09,4.72-.07,1.12-.52,4.37-.52,4.37,0,.4.09.8.28,1.15v.83c.28.52.22.9.06,1.47-.05.18.1.71.1.71l-.13.7c-.04.23-.05.47-.03.7l.41,3.78c0,.34-1.59,2.77-1.59,2.77l-.86.34-.86-.71s-.49.39-1.31.31Z"/>
  </g>
  <g id="_图层_4" data-name="图层_4">
    <path class="st1" d="M26.08,37.67c0-.05.1-.24.3-.55.2-.31.41-.56.63-.74l1.01-.74c1.28-.98,2.2-1.78,2.78-2.38s1.03-1.02,1.35-1.24c.33-.23.51-.36.55-.4l.85-1.31c.24-.29.54-.52.9-.7.36-.17.62-.27.77-.29.09,0,.21.02.37.07.15.05.26.09.33.14.06.05.2.16.4.33.2.17.32.29.36.34l.11.63.27.38c.04.07.1.26.18.57.08.31.22.61.41.9.19.29.37.49.55.59.17.1.51.16,1.03.18l1.53.11h1.7l1.61.41c.91.22,1.49.48,1.74.79.25.31.25.69.01,1.15-.11.18-.3.37-.56.57-.26.2-.42.33-.48.38l-.52.71c-.22.26-.66.47-1.33.64-.67.17-1.52.29-2.56.34s-1.69.07-1.94.05l-2.02-.22c-.71-.04-1.31.07-1.79.31-.48.25-.93.52-1.35.81l-1.5,1.23c-.47.29-1.26.42-2.35.38-1.02-.02-1.83-.57-2.42-1.65-.59-1.08-.89-1.69-.89-1.82ZM26.86,51.97c.06-.56.15-.94.27-1.14.12-.19.31-.32.56-.4l.57-.05c.07,0,.3-.06.67-.18.37-.12,1.08-.22,2.13-.3,1.05-.08,1.68-.25,1.89-.51.21-.25.34-.75.38-1.49.05-.74,0-1.13-.11-1.18-.12-.05-.42,0-.89.12l-1.72.22c-.89.24-1.36.35-1.39.33-.42-.05-.75-.33-1-.82s-.37-.86-.38-1.09c0-.24,0-.46.04-.68.09-.95.38-1.59.86-1.93.48-.34.83-.54,1.05-.62.22-.07.53-.13.94-.18.41-.05.87-.12,1.38-.22.51-.1,1.39-.24,2.65-.42,1.26-.18,1.96-.28,2.11-.3l3.64-.11c.88-.05,1.41-.08,1.61-.08.47.04.92.15,1.34.33.42.18.69.39.82.62.13.23.18.52.16.86-.02.26-.08.53-.19.82-.11.29-.51.67-1.2,1.15-.69.47-1.21.75-1.56.82l-1.67.3-.38.16-1.56.19c-.42.26-.6.64-.55,1.15.05.51.24.87.55,1.07.22.16.62.24,1.2.22.58-.02,1.29-.03,2.13-.03,1.18.04,1.9.21,2.13.51.24.3.3.64.19,1.03l-.46.9-.3.77c-.24.35-1.11.68-2.62,1-1.51.32-2.4.64-2.65.96-.26.32-.42.77-.51,1.35-.08.58-.13,1.23-.14,1.94,0,.71.05,1.16.16,1.34.12.18.82-.09,2.09-.82l2.41-1.15c.73-.35,1.23-.48,1.5-.41.27.07.46.19.56.34.1.16.15.26.15.31-.02.15-.19.39-.51.74-.32.35-.57.63-.75.86-.18.23-.34.47-.46.72l-.66,1.29c-.15.2-.42.5-.83.89-.41.39-.78.77-1.11,1.12s-.92.79-1.78,1.3l-2.9,1.45c-.38.2-.89.49-1.53.88-.64.38-1.1.69-1.39.92-.29.23-.45.35-.46.37l-.77.46-.46.46c-.27.18-.51.23-.71.14-.15-.04-.32-.25-.52-.63-.2-.38-.32-.68-.37-.89-.05-.21-.08-.48-.1-.82-.02-.34-.02-.56,0-.67.04-.38.36-.95.97-1.7.61-.75,1.1-1.41,1.48-1.98.37-.57.67-1.14.9-1.7.23-.56.51-1.58.86-3.06.35-1.49.44-2.31.29-2.47-.16-.16-.45-.23-.89-.19l-1.86.63c-.69.16-1.16.23-1.39.19-.09,0-.32-.09-.7-.26-.37-.17-.65-.46-.83-.86l-.41-.79c-.05-.16-.05-.53.01-1.09ZM42.08,62.93l-.11-.55c-.02-.27.36-.59,1.15-.96.27-.11.55-.24.83-.38.28-.15.52-.27.71-.38s.83-.59,1.91-1.45c1.08-.86,1.77-1.44,2.05-1.76.28-.32.48-.52.59-.62l.49-.33,1.97-1.64c.82-.42,1.41-.66,1.78-.72.36-.06.62-.02.77.14.14.16.22.38.22.67-.02.53-.08.97-.19,1.31-.11.35-.24.62-.38.82l-.66.74c-.17.2-.36.54-.58,1.03-.22.48-.4.85-.55,1.11-.15.26-.6.78-1.37,1.59l-1.83,2.3-.79.63-.96.82c-.47.38-.88.61-1.23.68l-1.31.08c-.93.07-1.44,0-1.53-.19l-.16-.46-.63-.52c-.04-.05-.07-.26-.11-.63l-.22-.77.14-.55ZM46.12,41.47c-.04-.11-.03-.26.01-.45.05-.19.19-.39.44-.6.25-.21,1.08-.45,2.5-.71,1.42-.26,2.35-.53,2.79-.79.44-.26.66-.6.67-1,0-.4,0-.67-.04-.79l-.22-.44-.41-1.01c-.16-.24-.38-.44-.66-.6l-.98-.52c-.2-.16-.34-.49-.41-.98-.07-.49-.09-.8-.05-.93.05-.24.31-.49.77-.77.46-.27,1.13-.48,2.04-.62.9-.14,1.44-.21,1.63-.21.51.02.89.12,1.15.31.25.19.44.37.55.53l.25.63.41.68c.04.13.04.68.03,1.67l.05,1.26c-.02.89.07,1.56.27,2,.2.44,1.03.58,2.49.44,1.09-.09,1.77-.25,2.04-.49.26-.24.49-.52.67-.85l1.34-2.54c.25-.38.39-.66.41-.82l-.16-.96c.02-.25.33-.59.93-1.01.6-.42,1.26-.62,1.97-.6l1.31.19c.35.04.59.08.72.14s.28.23.42.53c.14.3.1.59-.14.86l-.22.25-.16.96c-.04.05-.19.14-.46.26-.27.12-.79.68-1.56,1.68l-1.04,1.04c-.57.6-.76.97-.57,1.09.05.05.27.08.64.07.37,0,.96.02,1.75.08.79.06,1.43.05,1.9-.04l1.34-.3c.44-.05.92.02,1.45.22.53.2.75.67.66,1.39-.05.36-.21.8-.45,1.31-.25.51-.45.98-.62,1.39-.16.42-.32,1.03-.46,1.85-.15.81-.21,1.89-.18,3.24.03,1.35-.05,2.37-.25,3.05-.19.68-.48,1.15-.88,1.4-.39.25-1.09.28-2.09.1-2.01-.33-3.15-.5-3.45-.52-1.35-.02-2.12.28-2.3.89-.18.61-.35,1.44-.51,2.49-.16,1.05-.22,1.57-.21,1.57,0,.27.1.87.3,1.79.2.92.4,1.56.62,1.91.21.36.51.64.92.86l1.89.79c.56.31.9.46,1.01.46l1.61-.36h2.05l1.29-.9,1.5-.71c.6-.31,1.11-.78,1.53-1.42l.41-.63c.84-1.15,1.2-.56,1.09,1.75v2.6c-.02.67-.08,1.25-.19,1.72l-.63,1.91c-.07.22-.14.38-.19.48-.05.1-.37.43-.93.98-.57.56-1.02.87-1.37.94-.35.07-.76.11-1.23.11l-2.13.19c-.44,0-.9-.06-1.39-.19l-1.12-.3-2.13-.41-2.73-.98c-.86-.15-1.38-.26-1.56-.33-.18-.07-.47-.33-.88-.77-.4-.44-.69-1-.88-1.68-.18-.68-.28-1.32-.29-1.9,0-.58.01-1.11.07-1.59.11-1.53.17-2.33.19-2.41v-1.75c0-.24.07-.7.22-1.39l.22-1.2c.11-.55.18-1.01.21-1.39s-.06-.71-.26-.97c-.2-.26-.82-.32-1.86-.18-3.34.47-5.16.74-5.48.79-.32.05-.63.14-.93.25s-.66.27-1.08.48c-.42.21-.76.31-1.01.31-.49.02-.84-.11-1.05-.4-.21-.28-.3-.61-.26-.97,0-.16.11-.56.34-1.19.23-.63.39-1.44.49-2.42.1-.98.15-1.89.16-2.71,0-.82-.06-1.42-.21-1.8-.09-.2-.35-.62-.78-1.27-.43-.65-.65-1.03-.67-1.13ZM52.22,47.9s.45.04,1.23,0l3.01-.36c.96-.09,2.47-.09,4.51.01,2.04.1,3.51.08,4.4-.07.51-.07.92-.24,1.22-.49.3-.25.4-.79.29-1.61-.11-.67-.44-1.21-.98-1.6-.55-.39-2.41-.5-5.58-.31-.33.02-1.25.1-2.76.26-1.51.16-2.77.29-3.77.41-1,.12-1.61.51-1.81,1.18-.2.67-.24,1.25-.12,1.75.12.5.24.78.37.83Z"/>
  </g>
</svg>