<?xml version="1.0" encoding="UTF-8"?>
<svg xmlns="http://www.w3.org/2000/svg" version="1.1" viewBox="0 0 100 100">
  <!-- Generator: Adobe Illustrator 30.0.0, SVG Export Plug-In . SVG Version: 2.1.1 Build 123)  -->
  <defs>
    <style>
      .st0 {
        fill: #94271e;
      }

      .st1 {
        fill: #ffeaaa;
      }
    </style>
  </defs>
  <g id="_图层_2" data-name="图层_2">
    <path class="st0" d="M87.72,91.35l-.85-3.94-.05,2.3-.26.7-.39.77-.23,1.13s-4.41-.14-6.59-.08c-3.68.09-7.54-.67-10.97-.53-3.1.13-4.52,1.01-6.23.89-2.68-.2-2.22-1.71-4.6-1.55-4.54.3-3.52,1.53-7.81.68-3.51-.69-4,1.58-5.71,1.36-4.33-.56-6.69-.32-7.8.05-1.91.63-2.95-1.09-4.05-1.08-1.43.01-2.12.16-3.37.16-2,0-2.9-1.03-4.37-1.02-2.88.02-2.63.49-2.75.49-1.17.03-.72-.58-1.74-.54-1.57.06-1.76.62-2.53.62-.08,0-.91.03-.99.04l-3.15.33-.8-.35-1.38.27c-.61.12-1.25,0-1.77-.35-.29-.19-.56-.4-.81-.53-.62-.32-1.64-1.55-1.66-2.25-.03-1.47.82-6.66.82-6.66l2.92-.85-1.57-.42-.34-.98s.31-3.26.2-3.53c-2.06-5.35-2.12-6.64-1.94-9.65.13-2.15.72-4.23,1.06-5.42.99-3.47-.43-5.24-.55-5.85-.73-3.79.51-4.16.74-5.51.46-2.67-.39-4.72-.81-5.86-.45-1.22.43-3.32.27-3.56-.72-1.09.11-4.29.11-4.29.04-.6.38-1.02.78-1.4.88-.85.99-2.22.25-3.18l.48-.37c-.43-.57-.52-1.48-.52-1.48l1.28-1.12,3.55,1.32-1.25-1.93s-3.38-1.17-3.55-1.83c-.11-.43-.03-2.12.1-2.54l-.46-2.91c.08-.53.12-.9.04-1.43-.1-.76-.52-1.63-.65-2.36l-.67-4.57c-.14-.83-.03-1.49.3-2.27.74-1.74,2.12-2.64,3.71-2.44l1.41.12c.14.01.29.02.43,0,.7-.06,1.38-.24,2.02-.52.3-.13.92-.32,1.44-.44.33-.07.67-.08,1-.01l1.43.29c1.63.23,2.19,1.21,2.35.6l.26.28.15,2.58.43-.72.31-.23.3-.86.44-.17s.24-.68.25-.68c.41.07,1.97.49,1.97.49l.11,1.25.77-1.07s1.87.19,2.4.17c1.85-.04,2.7-1.51,4-1.14,7.51,2.09,8.31.63,12.67-.92,1.26-.45,1.55,1.19,2.02,1.09,4.83-.95,8.25-.56,11,.02,8.19,1.73,16.49.3,19.1-.12,2.75-.44,11.96.59,11.96.59.81,0,1.06.65,1.06.65l.56-.09.52-.08.47.23s.14,1.57.33,1.68c0,0,.41,4.46.24,7.36-.07,1.29-.79,2.86-1.66,4.04-.61.83-.1,1.88-.1,1.88l.42.68-.95.78h1.33s-1.02.87-1.02.87c0,0,2.01,1.89,2.11,4.82s-.13,4.96.15,6.08c.67,2.75-.97,5.45-.83,6.73.1.9.63,1.37.77,2.02.18.88-.61,3.89-1.49,5.65-.49.99-1.39,1.77-1.39,1.77l.44.58-1.4,1.01,2.28-.59.54,1.12s1.7,4.05,1.67,6.12c-.05,3.63-.46,4.8-.69,5.46-.69,1.93.52,2.06.49,2.97-.06,2.07-1,3.18-1.09,4.72-.07,1.12-.52,4.37-.52,4.37,0,.4.09.8.28,1.15v.83c.28.52.22.9.06,1.47-.05.18.1.71.1.71l-.13.7c-.04.23-.05.47-.03.7l.41,3.78c0,.34-1.59,2.77-1.59,2.77l-.86.34-.86-.71s-.49.39-1.31.31Z"/>
  </g>
  <g id="_图层_4" data-name="图层_4">
    <path class="st1" d="M25.13,53.52c.02-.07.06-.15.14-.22.07-.07.37-.13.89-.18.52-.04,1.13-.42,1.82-1.14.69-.71,1.17-1.34,1.44-1.9.26-.56.51-1.2.72-1.93l.57-2.11c.22-.8.34-1.35.37-1.65s.03-.81.01-1.53c-.02-.72-.02-1.15-.01-1.3,0-.15.03-.42.07-.83.04-.41.02-.71-.05-.89-.13-.2-.57-.46-1.31-.78-.75-.32-1.19-.62-1.33-.9-.14-.28-.23-.82-.29-1.63-.05-.8-.02-1.32.11-1.56.07-.15.28-.4.63-.77.35-.36.98-.67,1.89-.93l4.73-.66c.6-.15.96-.23,1.07-.25l1.86.03,1.83-.25.77.25,1.34.25c.24.07.66.26,1.26.57.6.31,1.1.48,1.5.52.36.05.84.02,1.42-.11l1.42-.33c.49-.09,1.57-.21,3.23-.37,1.66-.15,2.91-.28,3.76-.38.85-.1,2.03-.29,3.54-.56,1.51-.27,2.39-.4,2.62-.38.14.02.41.09.81.22.39.13.66.2.81.22l1.59.08c.27.04.67.14,1.2.3.53.16.92.23,1.16.21s.4-.04.45-.04l.41.44.25.16c.25.18.39.38.4.6,0,.22,0,.37-.01.46-.04.13-.24.46-.62,1-.38.54-.65.88-.83,1.01-.18.14-.82.24-1.91.31-1.09.07-2.37.24-3.83.49-1.46.26-2.29.54-2.49.86-.2.32-.24.83-.11,1.52l.36,1.45c.11.58.23.95.37,1.11.14.16.72.16,1.76.01.27-.04,1.07-.06,2.41-.08l3.58-.08c.64.05,1.12.17,1.45.36.33.18.58.41.77.68.18.27.31.52.38.74.07.22.04.66-.11,1.31-.13.55-.31.93-.53,1.13-.23.21-.54.36-.93.45-.39.09-1.06.15-2,.18-.94.03-2.02.14-3.23.33-1.21.19-1.9.37-2.05.55-.16.17.03.78.56,1.82.33.66.65,1.45.96,2.38.31.93.54,1.55.7,1.86.15.31.44.79.85,1.45s.86,1.3,1.34,1.93c.48.63,1.35,1.45,2.6,2.47,1.25,1.02,2.44,1.6,3.58,1.75,1.14.15,2,.31,2.6.51.59.19,1.28.3,2.05.33.77.03,1.23.13,1.37.31.14.18-.09.69-.67,1.53-.91,1.29-2.17,2.42-3.77,3.36-1.61.95-2.77,1.48-3.5,1.59-.82.15-1.59.05-2.31-.27-.72-.33-1.44-.9-2.15-1.71s-1.18-1.43-1.39-1.85l-.38-.68-.41-.6c-.73-1.28-1.15-1.92-1.27-1.94-.12-.02-.36.09-.72.33-.24.16-.83.69-1.79,1.59-.96.89-2.01,1.59-3.16,2.08s-2.08.67-2.79.52c-.58-.09-.96-.28-1.12-.57l-.25-.68-.27-.41c-.25-.44-.14-.98.36-1.64l.71-.93.19-.44c.11-.18.52-.31,1.24-.4.72-.08,1.62-.4,2.71-.94,1.08-.55,1.64-.84,1.68-.88l1.61-1.29c.22-.15.36-.29.44-.42.07-.14-.05-.44-.37-.9-.32-.46-.56-.72-.72-.78s-.6.16-1.31.63c-.4.27-.95.56-1.64.86-.69.3-1.28.6-1.76.9-.48.3-1.08.62-1.78.94-.7.33-1.14.56-1.31.68-.17.13-.44.37-.81.72-.36.36-.65.59-.85.7l-1.67.82-1.26.93c-.09.05-.47.14-1.13.25-.67.11-1.2.15-1.61.11-.41-.04-.62-.25-.64-.63-.02-.38,0-.77.08-1.15.05-.42.09-.65.11-.68l.46-.66.3-.57c.05-.11.24-.31.55-.62.31-.3.61-.68.89-1.13.28-.46.51-.93.7-1.42.18-.49.31-1.31.38-2.46.07-1.15.19-2.43.36-3.86s.26-2.59.29-3.51c.03-.92.02-1.86-.01-2.83-.05-.95-.09-1.68-.11-2.2-.02-.52-.04-.88-.05-1.08l-.44-2.05c-.07-.73-.14-1.14-.21-1.24-.06-.1-.26-.32-.6-.66-.34-.34-.58-.47-.72-.4-.09.05-.16.16-.19.3l-.16.71c-.05.09-.26.26-.6.52-.35.26-.85.42-1.52.49-.67.07-1.33.1-1.98.08-.66-.02-1.06-.03-1.2-.03-.62.04-1.39.17-2.32.41-.93.24-1.49.42-1.67.55-.18.13-.32.33-.41.6-.09.27-.17.83-.25,1.68-.07.85-.03,1.41.14,1.7.16.28.77.41,1.8.37l4.1-.68c.78-.05,1.47-.11,2.05-.16.58-.05,1.04.07,1.37.38.33.31.49.67.49,1.07-.02.04-.05.25-.11.63l-.14,1.5-1.09,2.9.05.71v.88l.05.57c.05.71-.13,1.85-.55,3.42-.15.55-.25.97-.31,1.26-.06.29-.1.47-.12.55l-.44.74-.55,1.26c-.24.49-.48.84-.74,1.04-.26.2-.71.46-1.37.77l-2.19,1.18c-.95.44-1.47.72-1.56.86-.09.14-.17.37-.25.7-.07.33-.19.7-.34,1.11-.16.41-.45.88-.88,1.41-.43.53-.71.85-.83.97-.13.12-.35.24-.67.36-.32.12-.57.12-.77.01s-.3-.22-.31-.33c-.02-.11,0-.27.05-.49l.16-2.11.27-1.8-.33-4.38c0-.86-.03-1.48-.08-1.87-.05-.39-.16-.56-.3-.51-.05.04-.12.1-.19.19l-1.7,2.35c-.47.24-1.09.36-1.86.36-.22.02-.36.01-.42-.01-.06-.03-.35-.23-.85-.6-.5-.37-.86-.68-1.07-.93-.21-.25-.36-.8-.45-1.67-.09-.87-.08-1.51.03-1.93ZM35.63,56.25l2.02-.63c1.17-.29,1.86-.59,2.09-.89.23-.3.36-.71.41-1.24.05-.53.08-1.31.11-2.34.03-1.03-.07-1.68-.3-1.96-.23-.27-.55-.44-.97-.49-.38-.04-.91.13-1.59.49l-1.2.6c-.33.2-.55.39-.67.57-.12.18-.18.66-.18,1.42l-.11,1.78c-.04,1.64.09,2.53.38,2.68ZM50.73,54.86l.52-.33c.16-.09.83-.34,2.01-.75s2.15-.79,2.93-1.15c.77-.36,1.23-.62,1.37-.81.14-.18,0-.75-.4-1.7-.22-.47-.39-.96-.52-1.45-.13-.49-.27-.8-.42-.93-.16-.13-.58-.13-1.27,0l-2.43.41c-.73.18-1.22.42-1.48.7-.25.28-.43,1.19-.53,2.72-.1,1.53-.13,2.35-.1,2.46.02.11.06.27.14.49.07.22.14.33.19.33ZM50.89,40.66c.04,1.4.17,2.2.4,2.38.23.18.67.26,1.33.25.4,0,.9-.08,1.49-.23.59-.15.96-.31,1.12-.46.15-.15.17-.62.04-1.41-.13-.6-.22-1.16-.29-1.68-.06-.52-.17-.84-.31-.96-.15-.12-.79-.13-1.94-.04-1.15.09-1.76.18-1.82.27-.06.09-.07.72-.01,1.89Z"/>
  </g>
</svg>