<?xml version="1.0" encoding="UTF-8"?>
<svg xmlns="http://www.w3.org/2000/svg" version="1.1" viewBox="0 0 100 100">
  <!-- Generator: Adobe Illustrator 30.0.0, SVG Export Plug-In . SVG Version: 2.1.1 Build 123)  -->
  <defs>
    <style>
      .st0 {
        fill: #94271e;
      }

      .st1 {
        fill: #ffeaaa;
      }
    </style>
  </defs>
  <g id="_图层_2" data-name="图层_2">
    <path class="st0" d="M87.72,91.35l-.85-3.94-.05,2.3-.26.7-.39.77-.23,1.13s-4.41-.14-6.59-.08c-3.68.09-7.54-.67-10.97-.53-3.1.13-4.52,1.01-6.23.89-2.68-.2-2.22-1.71-4.6-1.55-4.54.3-3.52,1.53-7.81.68-3.51-.69-4,1.58-5.71,1.36-4.33-.56-6.69-.32-7.8.05-1.91.63-2.95-1.09-4.05-1.08-1.43.01-2.12.16-3.37.16-2,0-2.9-1.03-4.37-1.02-2.88.02-2.63.49-2.75.49-1.17.03-.72-.58-1.74-.54-1.57.06-1.76.62-2.53.62-.08,0-.91.03-.99.04l-3.15.33-.8-.35-1.38.27c-.61.12-1.25,0-1.77-.35-.29-.19-.56-.4-.81-.53-.62-.32-1.64-1.55-1.66-2.25-.03-1.47.82-6.66.82-6.66l2.92-.85-1.57-.42-.34-.98s.31-3.26.2-3.53c-2.06-5.35-2.12-6.64-1.94-9.65.13-2.15.72-4.23,1.06-5.42.99-3.47-.43-5.24-.55-5.85-.73-3.79.51-4.16.74-5.51.46-2.67-.39-4.72-.81-5.86-.45-1.22.43-3.32.27-3.56-.72-1.09.11-4.29.11-4.29.04-.6.38-1.02.78-1.4.88-.85.99-2.22.25-3.18l.48-.37c-.43-.57-.52-1.48-.52-1.48l1.28-1.12,3.55,1.32-1.25-1.93s-3.38-1.17-3.55-1.83c-.11-.43-.03-2.12.1-2.54l-.46-2.91c.08-.53.12-.9.04-1.43-.1-.76-.52-1.63-.65-2.36l-.67-4.57c-.14-.83-.03-1.49.3-2.27.74-1.74,2.12-2.64,3.71-2.44l1.41.12c.14.01.29.02.43,0,.7-.06,1.38-.24,2.02-.52.3-.13.92-.32,1.44-.44.33-.07.67-.08,1-.01l1.43.29c1.63.23,2.19,1.21,2.35.6l.26.28.15,2.58.43-.72.31-.23.3-.86.44-.17s.24-.68.25-.68c.41.07,1.97.49,1.97.49l.11,1.25.77-1.07s1.87.19,2.4.17c1.85-.04,2.7-1.51,4-1.14,7.51,2.09,8.31.63,12.67-.92,1.26-.45,1.55,1.19,2.02,1.09,4.83-.95,8.25-.56,11,.02,8.19,1.73,16.49.3,19.1-.12,2.75-.44,11.96.59,11.96.59.81,0,1.06.65,1.06.65l.56-.09.52-.08.47.23s.14,1.57.33,1.68c0,0,.41,4.46.24,7.36-.07,1.29-.79,2.86-1.66,4.04-.61.83-.1,1.88-.1,1.88l.42.68-.95.78h1.33s-1.02.87-1.02.87c0,0,2.01,1.89,2.11,4.82s-.13,4.96.15,6.08c.67,2.75-.97,5.45-.83,6.73.1.9.63,1.37.77,2.02.18.88-.61,3.89-1.49,5.65-.49.99-1.39,1.77-1.39,1.77l.44.58-1.4,1.01,2.28-.59.54,1.12s1.7,4.05,1.67,6.12c-.05,3.63-.46,4.8-.69,5.46-.69,1.93.52,2.06.49,2.97-.06,2.07-1,3.18-1.09,4.72-.07,1.12-.52,4.37-.52,4.37,0,.4.09.8.28,1.15v.83c.28.52.22.9.06,1.47-.05.18.1.71.1.71l-.13.7c-.04.23-.05.47-.03.7l.41,3.78c0,.34-1.59,2.77-1.59,2.77l-.86.34-.86-.71s-.49.39-1.31.31Z"/>
  </g>
  <g id="_图层_4" data-name="图层_4">
    <path class="st1" d="M25.59,36.91c.05-.24.27-.62.66-1.15.38-.53,1.25-1.13,2.6-1.8,1.35-.67,2.33-1.1,2.95-1.29l3.42-.85,1.04-.66c.84-.49,1.45-.77,1.83-.83.38-.06.74.06,1.07.37.33.31.51.64.53,1s-.05.69-.23,1l-.49.79-.14.49-.82,1.12-.16.33-1.04,1.48c-.09.15-.25.43-.48.85-.23.42-.41.8-.55,1.13-.14.34-.21.89-.21,1.65-.02.27,0,.9.08,1.89.07.98.11,2.03.11,3.14-.02.66-.04,1.66-.07,3.01-.03,1.35-.07,2.41-.14,3.17-.06.77-.1,1.18-.1,1.23v2.6l-.16,2.65.11,2.57-.08,1.07c-.02.26.05.67.19,1.26.15.58.19.95.14,1.09l-.41.71-.11.93c-.09.15-.45.29-1.07.44-.62.15-1.02.16-1.2.05-.04,0-.31-.26-.83-.78s-.79-.83-.82-.92-.02-.29.01-.6c.09-.93.15-1.63.19-2.11l.05-3.58c.02-1.6.1-2.85.25-3.73.15-.88.22-1.35.23-1.41,0-.05.04-1.2.1-3.45l.16-4.76c-.05-.56-.18-1.23-.37-2s-.43-1.34-.72-1.72c-.29-.38-.78-.67-1.48-.85l-1.04-.19c-.29-.05-.66-.22-1.09-.49l-1.12-.55c-.46-.31-.71-.72-.77-1.23-.05-.51-.06-.88-.03-1.09ZM36.55,51.68l.14-.14.71-.9c.24-.16.6-.24,1.09-.22.13.02.21.04.26.05.05.02.24.13.59.34.35.21.68.34,1.01.4.47.09.94.05,1.39-.12.46-.17.73-.42.82-.75.09-.33.1-.61.03-.85-.13-.36-.45-.64-.96-.83-.51-.19-1.03-.3-1.57-.34-.54-.04-.89-.37-1.07-1.01-.17-.64-.19-1.18-.04-1.61,0-.02.16-.35.48-1,.32-.65.48-1.2.48-1.65-.02-.24-.06-.46-.12-.68-.06-.22-.11-.36-.15-.41-.04-.05-.15-.17-.34-.34-.19-.17-.58-.37-1.18-.6-.59-.23-.94-.41-1.05-.55s-.21-.33-.31-.59c-.1-.25-.14-.43-.12-.52,0-.02.11-.38.33-1.08.22-.7,1.07-1.2,2.54-1.5s2.56-.41,3.25-.31c.33.05.57.14.72.25.15.11.37.34.66.7.28.36.53.59.74.71.21.12.46.13.75.04l.57-.25c.13-.04.31-.06.55-.08h1.64c.62-.02,1.2-.1,1.74-.26.54-.15.89-.24,1.05-.26h.55l.71-.16.52.11c.49.05.8-.1.92-.46.12-.36.08-.76-.12-1.18-.18-.33-.62-.46-1.31-.41-1.13.11-1.8.18-2.02.22l-1.67.44-1.18.05-1.18.16c-.64.04-1.1-.14-1.39-.53-.29-.39-.43-.71-.41-.94,0-.09.03-.24.08-.45.05-.21.17-.43.36-.66.18-.23.33-.37.45-.44.12-.06.33-.09.63-.07.3.02,1.65-.1,4.06-.37,2.41-.26,3.81-.59,4.21-.98.4-.39.75-.96,1.04-1.71.29-.75.67-1.11,1.15-1.09.04.02.21.05.53.11.32.05.52.11.62.16.09.05.19.14.29.26.1.12.27.5.52,1.13.25.64.41.99.49,1.07.08.07.29.15.62.22l1.39.16,1.37.22c1.44.13,2.19.18,2.24.16.09,0,.27-.01.53-.04.26-.03.65-.15,1.16-.38.51-.23.88-.35,1.12-.37.18,0,.55.04,1.12.12.56.08.93.26,1.09.53s.25.6.26.97c0,.37,0,.61-.01.7-.04.16-.25.56-.63,1.18-.38.62-.51,1.14-.38,1.56.11.44.46.76,1.07.96l1.04.27c.51.2.78.44.82.72.04.28-.03.52-.19.7-.09.11-.29.25-.6.41-.31.16-.69.33-1.15.49-.46.16-.74.24-.85.22l-.57-.14c-.37-.07-.69-.04-.98.11-.26.13-.49.34-.7.63-.21.29-.42.78-.64,1.48-.22.69-.43,1.15-.63,1.38-.2.23-.57.44-1.09.64-.53.2-.88.3-1.07.3l-1.45-.19c-.05.02-.22.04-.49.05-.46.07-1.05.04-1.79-.1s-1.04.15-.92.86c.04.27.11.45.23.52.12.07.63.11,1.54.11l1.04.16c.07.02.66.02,1.75,0,1.09-.02,1.87-.05,2.32-.11.46-.05.75-.09.88-.11.11,0,.2,0,.27.03l.38.44.27.27c.11.2.08.5-.08.9-.18.4-.42.66-.71.77-.29.11-.76.18-1.39.22-.64.04-1.43.11-2.38.22-.95.11-1.88.14-2.8.1-.92-.04-1.33.16-1.22.63s.29.78.53.93c.25.16.69.2,1.34.14.65-.06.98-.1,1-.12.42-.02.95,0,1.6.05.65.05,1.22.13,1.74.23.51.1,1.03.16,1.54.16.52,0,1.06.21,1.63.62.56.4.85.79.86,1.18,0,.38-.06.68-.21.9-.47.69-1.49,1.01-3.04.96l-1.56-.11-2.02-.08c-.24,0-.81-.04-1.72-.12-.91-.08-1.44-.08-1.59.01-.2.13-.31.42-.33.88-.02.46-.07,1.09-.16,1.9-.09.81-.08,1.38.03,1.71.14.49.44.88.88,1.18l1.7.71,1.45.79c.67.37,1.36.57,2.05.63h2.02l.93.11c.42.05.88.07,1.37.05l2.87-.19c1.84-.05,2.93-.11,3.25-.18.33-.06.53-.05.62.03s.12.21.12.37c-.02.09-.07.25-.15.48-.08.23-.23.84-.44,1.83-.21.99-.84,2.05-1.9,3.16-1.06,1.11-1.97,1.82-2.75,2.13-.78.31-1.7.42-2.78.33-1.22-.07-2.28-.41-3.16-1-.88-.59-1.88-1.31-2.98-2.15-1.1-.84-1.91-1.43-2.41-1.78-.5-.35-.8-.56-.89-.63l-2.16-1.94-1.89-1.15-1.64-1.2c-.24-.11-.5-.23-.79-.36l-1.8-.66c-.15-.05-.46-.24-.96-.55-.49-.31-.94-.53-1.34-.66l-1.01-.25c-.46-.11-.94-.31-1.46-.62s-.88-.46-1.08-.48c-.16,0-.29.02-.37.05-.08.04-.33.49-.75,1.37l-.3.52-.57,1.5-1.2.79-.57.49c-.07.05-.26.15-.57.27-.31.13-.67.32-1.08.57-.41.26-.69.37-.83.36-.05,0-.23-.05-.52-.16l-.46-.16c-.22-.09-.33-.17-.34-.25,0-.07.05-.26.18-.57v-1.12c0-.09.08-.3.25-.64.16-.34.33-.6.49-.78l1.23-1.04.55-.88c.33-.44.5-.68.52-.74.02-.05.03-.17.04-.36,0-.18,0-.3-.01-.36-.04-.05-.09-.1-.15-.14-.06-.04-.2-.08-.4-.14-.2-.05-.59-.2-1.16-.44-.57-.24-.9-.49-.97-.77l-.08-.44-.52-1.42c-.04-.29-.02-.51.05-.66ZM43.33,43.12l.25.71c.07.2.18.36.33.46l1.09.52,1.04.96c.18.13.29.22.33.27.04.05.05.22.03.49l-.03.46c-.04.15-.13.35-.29.6-.16.26-.24.45-.26.57l-.03.25c-.02.05-.06.18-.14.38l-.38,1.61c-.15.46-.21.73-.19.82,0,.18.08.41.23.67.15.26.33.43.52.49.19.06.31.07.37.01.11-.16.36-.26.74-.3.38-.04.67-.12.85-.25l.33-.25c.07-.04.25-.08.52-.14l1.78-.44c.64-.13,1.34-.16,2.1-.1.77.06,1.2.02,1.3-.12.1-.15.14-.41.12-.79-.04-.36-.1-.64-.19-.82l-5.82.88c-.44-.24-.69-.36-.77-.38l-.46.03s.07-.34.27-1.01l.19-.98c.11-.16.26-.28.45-.36.19-.07.62-.16,1.27-.27l1.67-.38c.25-.04.74-.04,1.45-.01.71.03,1.19-.07,1.44-.3s.36-.54.34-.94c-.02-.4-.09-.63-.21-.7-.12-.06-.31-.08-.59-.04l-2.16-.05-2.76.49c-.26.05-.46.06-.63.03-.35-.04-.61-.15-.79-.36l-.57-1.34c-.07-.11-.14-.28-.19-.51-.05-.23.12-.36.52-.4.22.04.64-.05,1.26-.27l2.16-.08,1.37-.19c1.53-.09,2.37-.2,2.52-.33.14-.13.27-.33.37-.62.1-.28.1-.58,0-.89-.1-.31-.74-.44-1.93-.38l-1.2.05c-.18.04-.72.18-1.6.44-.88.26-1.52.36-1.9.3l-.55-.08c-.6-.04-.9-.06-.9-.08l-1.39-.63c-.15.07-.25.17-.3.3l-.11.33-.98.63c-.13.11-.25.27-.36.48-.11.21-.17.36-.18.44,0,.08.01.21.07.37l.03.14.57.6ZM53.75,57.09c.11-.05.22-.25.33-.57s.17-.73.18-1.22c0-.48-.07-.79-.25-.92-.17-.13-.76-.16-1.76-.11l-2.02.19c-.93-.07-1.4-.03-1.42.12-.02.16-.02.24,0,.26.02.33.49.71,1.42,1.15l1.61.82c.24.09.61.16,1.11.22s.77.07.81.05ZM62.64,41.51c.77-.05,1.15-.31,1.16-.78,0-.46-.14-.8-.45-1-.38-.22-1-.35-1.86-.38l-1.37.08c-.71.04-1.1.11-1.16.22-.06.11-.12.27-.15.49-.04.22-.07.45-.11.7-.04.25,0,.47.08.67.09.2,1.38.2,3.86,0ZM63.84,36.7c.14-.11.21-.34.21-.68,0-.35-.19-.69-.53-1.04-.35-.35-1.07-.5-2.16-.46-1.06.05-1.73.15-2.01.27-.28.13-.46.28-.53.46-.07.18-.12.45-.12.79,0,.35.1.6.31.77.11.11.4.14.88.08.47-.05,1.22-.07,2.23-.05,1.01.02,1.59-.03,1.74-.14Z"/>
  </g>
</svg>