<?xml version="1.0" encoding="UTF-8"?>
<svg xmlns="http://www.w3.org/2000/svg" version="1.1" viewBox="0 0 100 100">
  <!-- Generator: Adobe Illustrator 30.0.0, SVG Export Plug-In . SVG Version: 2.1.1 Build 123)  -->
  <defs>
    <style>
      .st0 {
        fill: #94271e;
      }

      .st1 {
        fill: #ffeaaa;
      }
    </style>
  </defs>
  <g id="_图层_2" data-name="图层_2">
    <path class="st0" d="M87.72,91.35l-.85-3.94-.05,2.3-.26.7-.39.77-.23,1.13s-4.41-.14-6.59-.08c-3.68.09-7.54-.67-10.97-.53-3.1.13-4.52,1.01-6.23.89-2.68-.2-2.22-1.71-4.6-1.55-4.54.3-3.52,1.53-7.81.68-3.51-.69-4,1.58-5.71,1.36-4.33-.56-6.69-.32-7.8.05-1.91.63-2.95-1.09-4.05-1.08-1.43.01-2.12.16-3.37.16-2,0-2.9-1.03-4.37-1.02-2.88.02-2.63.49-2.75.49-1.17.03-.72-.58-1.74-.54-1.57.06-1.76.62-2.53.62-.08,0-.91.03-.99.04l-3.15.33-.8-.35-1.38.27c-.61.12-1.25,0-1.77-.35-.29-.19-.56-.4-.81-.53-.62-.32-1.64-1.55-1.66-2.25-.03-1.47.82-6.66.82-6.66l2.92-.85-1.57-.42-.34-.98s.31-3.26.2-3.53c-2.06-5.35-2.12-6.64-1.94-9.65.13-2.15.72-4.23,1.06-5.42.99-3.47-.43-5.24-.55-5.85-.73-3.79.51-4.16.74-5.51.46-2.67-.39-4.72-.81-5.86-.45-1.22.43-3.32.27-3.56-.72-1.09.11-4.29.11-4.29.04-.6.38-1.02.78-1.4.88-.85.99-2.22.25-3.18l.48-.37c-.43-.57-.52-1.48-.52-1.48l1.28-1.12,3.55,1.32-1.25-1.93s-3.38-1.17-3.55-1.83c-.11-.43-.03-2.12.1-2.54l-.46-2.91c.08-.53.12-.9.04-1.43-.1-.76-.52-1.63-.65-2.36l-.67-4.57c-.14-.83-.03-1.49.3-2.27.74-1.74,2.12-2.64,3.71-2.44l1.41.12c.14.01.29.02.43,0,.7-.06,1.38-.24,2.02-.52.3-.13.92-.32,1.44-.44.33-.07.67-.08,1-.01l1.43.29c1.63.23,2.19,1.21,2.35.6l.26.28.15,2.58.43-.72.31-.23.3-.86.44-.17s.24-.68.25-.68c.41.07,1.97.49,1.97.49l.11,1.25.77-1.07s1.87.19,2.4.17c1.85-.04,2.7-1.51,4-1.14,7.51,2.09,8.31.63,12.67-.92,1.26-.45,1.55,1.19,2.02,1.09,4.83-.95,8.25-.56,11,.02,8.19,1.73,16.49.3,19.1-.12,2.75-.44,11.96.59,11.96.59.81,0,1.06.65,1.06.65l.56-.09.52-.08.47.23s.14,1.57.33,1.68c0,0,.41,4.46.24,7.36-.07,1.29-.79,2.86-1.66,4.04-.61.83-.1,1.88-.1,1.88l.42.68-.95.78h1.33s-1.02.87-1.02.87c0,0,2.01,1.89,2.11,4.82s-.13,4.96.15,6.08c.67,2.75-.97,5.45-.83,6.73.1.9.63,1.37.77,2.02.18.88-.61,3.89-1.49,5.65-.49.99-1.39,1.77-1.39,1.77l.44.58-1.4,1.01,2.28-.59.54,1.12s1.7,4.05,1.67,6.12c-.05,3.63-.46,4.8-.69,5.46-.69,1.93.52,2.06.49,2.97-.06,2.07-1,3.18-1.09,4.72-.07,1.12-.52,4.37-.52,4.37,0,.4.09.8.28,1.15v.83c.28.52.22.9.06,1.47-.05.18.1.71.1.71l-.13.7c-.04.23-.05.47-.03.7l.41,3.78c0,.34-1.59,2.77-1.59,2.77l-.86.34-.86-.71s-.49.39-1.31.31Z"/>
  </g>
  <g id="_图层_4" data-name="图层_4">
    <path class="st1" d="M26.13,55.83c.09-.2.25-.33.46-.38s.47-.07.77-.05c.29.02.61.02.96,0,1.02-.04,1.82-.16,2.41-.37.58-.21,1.24-.57,1.97-1.08l1.89-1.37c.24-.16.6-.41,1.09-.73.49-.32.75-.61.77-.86l-.08-.57v-.41c-.04-.15-.57-.15-1.61,0-.55.09-1.46.33-2.73.72-1.28.39-2.11.61-2.49.66-.38.05-.87-.13-1.46-.53-.59-.4-.75-1.07-.48-2,.09-.38.15-.58.16-.6v-.22c0-.09.15-.38.45-.88s1.05-.82,2.26-.98,2.5-.38,3.88-.66c1.39-.27,2.12-.64,2.21-1.09v-.63c0-.31-.01-.51-.04-.59s-.45-.06-1.27.07l-1.39.08c-.09.02-.81.16-2.15.41-1.34.26-2.12.36-2.34.31-.22-.05-.44-.5-.66-1.35-.22-.86-.05-1.49.49-1.89.25-.18,1.13-.42,2.61-.71,1.49-.29,2.67-.47,3.57-.53.89-.06,1.37-.21,1.42-.45.05-.24.07-.48.05-.74-.04-.36-.12-.63-.26-.81-.14-.17-.69-.19-1.65-.04-.31.05-.76.1-1.34.14-.58.04-1.37.2-2.35.48-.98.28-1.74.34-2.26.18s-.79-.61-.81-1.34c-.02-.73.05-1.29.19-1.7.49-1.51.85-2.3,1.08-2.37.23-.06.41-.08.56-.04l.66.46c.24.16.9.12,2-.14.27-.05.65-.1,1.12-.14.47-.04.79-.07.96-.11l.77-.16,1.12-.14s.29-.39.82-1.16c.53-.77,1.08-1.23,1.65-1.35.57-.13,1.08.05,1.52.55l.77,1.45c.16.22.34.36.52.42.18.06.68.07,1.5.01l2.52.11c.56-.07.96-.1,1.19-.08.23.02.52.22.86.62.35.39.51.89.49,1.5-.02.61-.17,1.06-.46,1.35-.33.35-1.05.47-2.17.38-1.12-.09-1.94-.07-2.45.07-.51.14-1,.22-1.48.25-.47.03-.73.07-.78.12-.05.05-.06.33-.05.83,0,.5.09.78.23.83.07.05.29.04.64-.04s.81-.1,1.35-.05c.55.05.92.05,1.12.01l1.5-.25c.86.05,1.4.41,1.64,1.05.24.65.13,1.27-.33,1.87-.35.44-.74.72-1.18.85-.44.13-.82.19-1.15.19h-.63l-.93.16c-1.2.11-1.84.21-1.9.29-.06.08-.12.35-.18.79-.05.45-.02.76.11.94.22.35.91.39,2.08.12,1.17-.26,1.96-.38,2.38-.34.75.07,1.26.34,1.53.79.27.46.34.98.19,1.59-.16.58-.52,1.11-1.08,1.59-.56.47-1.24.78-2.06.9-.49.09-1.16.07-2-.05-.84-.13-1.21.2-1.12.98.02.24.15.44.38.6l.63.33.49.41c.27.24.89.51,1.86.81.97.3,1.64.66,2.02,1.08l.77,1.12c.18.26.36.54.52.85.16.31.03.68-.41,1.12-.44.44-.95.6-1.53.49l-1.2-.33-1.09-.08-2.54-.79c-.16.16-.26.5-.3,1.01l-.05,1.15-.14,1.5.03.44-.03,1.29.14,1.91c0,.18-.05.71-.14,1.59-.11.98-.27,1.6-.49,1.86s-.44.41-.66.46c-.18.05-.61,0-1.29-.18-.67-.17-1.05-.66-1.13-1.46-.08-.8-.14-1.79-.18-2.95l-.11-2.57c-.02-1.46-.16-2.19-.41-2.19-.13.02-.42.22-.88.6-.46.38-.95.73-1.49,1.04-.54.31-1.06.57-1.56.77-.5.2-.81.33-.92.38l-.9.63c-.31.18-.61.28-.9.3-.38.04-.85-.07-1.39-.31s-.96-.54-1.23-.88c-.27-.34-.5-.8-.68-1.39-.18-.59-.31-1.15-.37-1.68-.06-.53-.06-.89.01-1.09ZM52.11,50.8l-1.23.14c-.71-.02-1.28-.39-1.7-1.12-.42-.73-.64-1.37-.66-1.93-.02-.56-.02-.89,0-1,.04-1.37.37-2.11,1-2.23.63-.12.96-.2,1-.23l.14-.16.9.08c.09.02.26,0,.49-.08l2.13-.25,2.49-.46.98.05,2.35-.25,4.35.44h1.59l1.42.19c.27.04,1.22,0,2.84-.14,1.62-.13,2.79-.35,3.51-.67.72-.32,1.1-.49,1.13-.51.33-.04.52.2.57.7.05.5,0,1.02-.19,1.54-.02.05-.45.85-1.29,2.39-.84,1.54-1.56,2.59-2.16,3.14-.6.56-1.38.72-2.35.48l-1.23-.36c-.58-.05-.92-.01-1,.12s.01.63.29,1.49l.08.36c.07.35.26.79.56,1.33.3.54.48.89.53,1.05l.05.33c.04.27.24.76.62,1.45.37.69.65,1.29.83,1.8l.79,2.49,1.04,1.75c.47.8.66,1.44.55,1.91-.11.47-.49.91-1.13,1.31s-1.49.49-2.53.27c-.33-.05-.92-.25-1.78-.57s-3.17-.65-6.95-.96c-2.24-.16-3.7-.09-4.38.22-.67.31-1.06.48-1.16.52-.1.04-.91.16-2.43.37-1.52.21-2.68.43-3.46.67s-1.5.14-2.15-.29c-.65-.43-1.03-.91-1.15-1.44-.12-.53-.06-1.27.18-2.21.09-.44.21-.77.37-1.01.15-.24.42-.45.81-.63l2.08-.66c.2-.13.69-.8,1.48-2.02l.82-1.2c.11-.18.21-.38.3-.59.09-.21.23-.63.41-1.26s.32-1.07.41-1.33l.41-1.26c.31-1.15.11-1.75-.6-1.81ZM58.78,33.55l2.62-.11c.15.02.53.07,1.15.15s1.02.11,1.2.1l1.15-.08,1.18.08,2.32.11c.55.11,1.06.32,1.53.64.47.32.74.59.81.81s.1.47.1.77c-.04.8-.11,1.49-.21,2.06s-.52,1.03-1.26,1.35-1.84.55-3.29.66c-.42.04-1.29.01-2.6-.07s-1.98-.13-2-.15c-1.37-.05-2.59,0-3.66.18-1.08.17-1.65.26-1.72.26l-1.78-.05-2.73.25c-1-.27-1.59-1.07-1.76-2.38s-.09-2.21.26-2.71c.44-.62,1.07-1.02,1.89-1.19.82-.17,1.92-.35,3.31-.53l1.04-.22,2.46.08ZM64.63,57.34c-.04-.11-.14-.37-.3-.78s-.26-.65-.27-.72c-.02-.07-.06-.26-.14-.56s-.2-.76-.37-1.37c-.17-.61-.25-1.3-.22-2.06.03-.77-.02-1.21-.15-1.33-.13-.12-.59-.18-1.39-.18h-1.7c-1.19.13-1.9.33-2.15.6s-.43.99-.56,2.16c-.13,1.17-.48,2.32-1.05,3.47s-.81,1.85-.71,2.09.44.43,1.03.56c.51.13,1.35.05,2.52-.23,1.17-.28,2.16-.36,2.98-.25.82.12,1.49.16,2.02.11.53-.04.68-.55.46-1.52Z"/>
  </g>
</svg>