<?xml version="1.0" encoding="UTF-8"?>
<svg xmlns="http://www.w3.org/2000/svg" version="1.1" viewBox="0 0 100 100">
  <!-- Generator: Adobe Illustrator 30.0.0, SVG Export Plug-In . SVG Version: 2.1.1 Build 123)  -->
  <defs>
    <style>
      .st0 {
        fill: #94271e;
      }

      .st1 {
        fill: #ffeaaa;
      }
    </style>
  </defs>
  <g id="_图层_2" data-name="图层_2">
    <path class="st0" d="M87.72,91.35l-.85-3.94-.05,2.3-.26.7-.39.77-.23,1.13s-4.41-.14-6.59-.08c-3.68.09-7.54-.67-10.97-.53-3.1.13-4.52,1.01-6.23.89-2.68-.2-2.22-1.71-4.6-1.55-4.54.3-3.52,1.53-7.81.68-3.51-.69-4,1.58-5.71,1.36-4.33-.56-6.69-.32-7.8.05-1.91.63-2.95-1.09-4.05-1.08-1.43.01-2.12.16-3.37.16-2,0-2.9-1.03-4.37-1.02-2.88.02-2.63.49-2.75.49-1.17.03-.72-.58-1.74-.54-1.57.06-1.76.62-2.53.62-.08,0-.91.03-.99.04l-3.15.33-.8-.35-1.38.27c-.61.12-1.25,0-1.77-.35-.29-.19-.56-.4-.81-.53-.62-.32-1.64-1.55-1.66-2.25-.03-1.47.82-6.66.82-6.66l2.92-.85-1.57-.42-.34-.98s.31-3.26.2-3.53c-2.06-5.35-2.12-6.64-1.94-9.65.13-2.15.72-4.23,1.06-5.42.99-3.47-.43-5.24-.55-5.85-.73-3.79.51-4.16.74-5.51.46-2.67-.39-4.72-.81-5.86-.45-1.22.43-3.32.27-3.56-.72-1.09.11-4.29.11-4.29.04-.6.38-1.02.78-1.4.88-.85.99-2.22.25-3.18l.48-.37c-.43-.57-.52-1.48-.52-1.48l1.28-1.12,3.55,1.32-1.25-1.93s-3.38-1.17-3.55-1.83c-.11-.43-.03-2.12.1-2.54l-.46-2.91c.08-.53.12-.9.04-1.43-.1-.76-.52-1.63-.65-2.36l-.67-4.57c-.14-.83-.03-1.49.3-2.27.74-1.74,2.12-2.64,3.71-2.44l1.41.12c.14.01.29.02.43,0,.7-.06,1.38-.24,2.02-.52.3-.13.92-.32,1.44-.44.33-.07.67-.08,1-.01l1.43.29c1.63.23,2.19,1.21,2.35.6l.26.28.15,2.58.43-.72.31-.23.3-.86.44-.17s.24-.68.25-.68c.41.07,1.97.49,1.97.49l.11,1.25.77-1.07s1.87.19,2.4.17c1.85-.04,2.7-1.51,4-1.14,7.51,2.09,8.31.63,12.67-.92,1.26-.45,1.55,1.19,2.02,1.09,4.83-.95,8.25-.56,11,.02,8.19,1.73,16.49.3,19.1-.12,2.75-.44,11.96.59,11.96.59.81,0,1.06.65,1.06.65l.56-.09.52-.08.47.23s.14,1.57.33,1.68c0,0,.41,4.46.24,7.36-.07,1.29-.79,2.86-1.66,4.04-.61.83-.1,1.88-.1,1.88l.42.68-.95.78h1.33s-1.02.87-1.02.87c0,0,2.01,1.89,2.11,4.82s-.13,4.96.15,6.08c.67,2.75-.97,5.45-.83,6.73.1.9.63,1.37.77,2.02.18.88-.61,3.89-1.49,5.65-.49.99-1.39,1.77-1.39,1.77l.44.58-1.4,1.01,2.28-.59.54,1.12s1.7,4.05,1.67,6.12c-.05,3.63-.46,4.8-.69,5.46-.69,1.93.52,2.06.49,2.97-.06,2.07-1,3.18-1.09,4.72-.07,1.12-.52,4.37-.52,4.37,0,.4.09.8.28,1.15v.83c.28.52.22.9.06,1.47-.05.18.1.71.1.71l-.13.7c-.04.23-.05.47-.03.7l.41,3.78c0,.34-1.59,2.77-1.59,2.77l-.86.34-.86-.71s-.49.39-1.31.31Z"/>
  </g>
  <g id="_图层_4" data-name="图层_4">
    <path class="st1" d="M27.97,63.93c-.02-.49.04-.9.16-1.22.13-.32.27-.51.44-.59.09-.04.28-.05.56-.04.28,0,.46,0,.53-.01l.6-.36c2.04-.67,3.4-1.05,4.09-1.13s1.07-.14,1.16-.18l.77-.25c.15-.04.72-.07,1.71-.11.99-.04,1.53,0,1.6.11.07.11.11.23.11.36-.02.66-.23,1.19-.63,1.59l-1.97,1.31c-.38.42-.61.64-.68.66l-.38.11-.74.66-.85.55-.11.27-.79.27-.3.36c-.05.04-.24.06-.55.08l-.98.27c-.2.04-.63,0-1.29-.14-.66-.13-1.08-.28-1.29-.46-.2-.18-.32-.32-.36-.41l-.3-.57-.38-.57c-.09-.16-.14-.35-.14-.55ZM30.26,32.65l1.72.03c.2,0,.4-.03.6-.08l1.53-.36,1.18-.11,1.75-.33c.13,0,.34-.01.64-.04s.51-.09.62-.18l.3-1.01c.02-.05.1-.19.23-.41s.29-.38.45-.48c.16-.1.45-.17.85-.21.2,0,.49.07.86.22.37.15.62.29.74.42.12.14.21.39.27.77.06.37.13.58.21.62.07.07.34.06.79-.04.46-.1.98-.13,1.56-.1l4.05.08c.77.04,1.25.16,1.45.37.2.21.33.53.4.97s.08.74.04.9c-.11.35-.35.62-.72.82-.37.2-.8.31-1.27.33h-1.18l-3.42.22c-.24-.05-.38-.08-.44-.08-.24.02-.44.11-.62.29s-.29.38-.34.62c-.05.24.29.46,1.04.68l2.9-.3c.84-.04,1.47.2,1.9.71.43.51.6.82.51.93l-.16.16-.05.14c-.04.07-.11.16-.23.25-.12.09-.42.13-.92.11-.49-.02-.88,0-1.15.03-.27.04-.64.08-1.11.14s-.84.15-1.13.27l-.57.25c-.49.16-.77.28-.83.34s-.13.26-.21.57c-.07.32-.04.51.11.57.15.06.3.09.46.07l4.07-.36c1.55-.07,2.39.06,2.52.41.13.35.2.56.21.63,0,.07,0,.18-.04.33-.11.42-.21.67-.3.74l-1.09.16c-.05.02-.21.09-.46.21-.26.12-.84.21-1.76.29-.92.07-1.67.14-2.24.19s-.98.28-1.2.68c-.23.4-.27.72-.12.96.15.24.54.32,1.18.25l1.61-.27c.16-.02.62-.02,1.37-.01.75,0,1.34,0,1.78-.04.44-.04.7-.06.79-.08h.88l1.42-.22h.6c.07,0,.28,0,.63-.03.53-.02,1.5.05,2.93.21,1.42.16,2.23.09,2.42-.21.19-.29.32-.56.4-.79.07-.24.05-.46-.05-.67-.11-.21-.51-.34-1.2-.38-.69-.05-1.19-.07-1.5-.07-.51.04-1.09.13-1.74.27-.65.15-1.09.21-1.33.19-.56-.02-.91-.19-1.04-.52s-.18-.57-.16-.74c0-.05.03-.25.1-.6.06-.35.28-.53.64-.55.24,0,.8-.05,1.7-.14h1.37l1.29-.11c1.77.16,2.12-.35,1.07-1.53-.13-.13-.61-.17-1.45-.14-.84.04-1.6.13-2.28.27-.68.15-1.07.16-1.16.03l-.08-.25s-.17-.19-.45-.57-.23-.77.15-1.18c.09-.11.3-.2.64-.27.34-.07.67-.16,1-.26.33-.1.61-.16.85-.18l1.5.05,1.39-.14c.69,0,1.03-.24,1-.71-.03-.47-.41-.81-1.16-1.01-.44-.09-1.17-.08-2.19.04-1.02.12-1.61.17-1.78.15-.66-.02-1.01-.18-1.07-.49l-.03-.3-.25-.41c-.24-.44-.08-.85.46-1.23.07-.05.46-.15,1.15-.27.69-.13,1.12-.18,1.29-.16.2.05.65,0,1.34-.14.69-.15,1.25-.24,1.68-.29.43-.05.71-.1.83-.15s.26-.14.38-.26c.13-.12.28-.31.45-.56.17-.25.34-.51.49-.75s.49-.36,1-.34c.4.04.69.08.88.12.18.05.36.19.53.44s.29.42.34.51l.19.74c.09.2.48.32,1.16.36.68.04,1.32.12,1.9.25.58.13,1.04.24,1.35.33.32.09.68.31,1.09.67s.62.58.64.68c.02.1.01.25-.01.44s-.58.31-1.65.34c-1.55.07-2.58.05-3.09-.07-.51-.12-.9-.1-1.16.07s-.38.39-.36.68c.03.29.13.52.31.68.26.26.87.34,1.85.26s1.75-.03,2.31.16.88.4.93.63c.05.23.09.46.1.68,0,.23,0,.37-.01.42-.09.18-.8.31-2.13.37-1.33.06-2.23.05-2.69-.04-.46-.09-.82-.07-1.07.07s-.39.39-.44.77c-.04.37.1.71.42,1,.27.29,1.01.39,2.21.3,1.2-.09,2.1-.04,2.69.16.59.2,1.02.4,1.29.59s.4.38.41.57-.14.47-.45.83c-.24.27-.49.41-.77.41-.05.02-1.06-.05-3.01-.19-1.95-.15-2.95-.12-3.01.07s-.1.52-.14.98.03.76.19.88c.16.12.69.19,1.59.21.37.02.6,0,.71-.05l.96-.66.36.16s.06.02.14.01c.07,0,.18-.01.33-.01,1.08.04,1.67.13,1.79.27.12.15.18.33.18.55-.02.09-.04.21-.08.34s-.09.26-.16.38c-.07.12-.11.19-.11.21l.03.38s-.06.08-.14.14-.17.27-.3.64c-.13.37-.41.84-.85,1.39-.44.56-.71,1.05-.82,1.48-.11.43-.16.65-.16.67l-.22.49-.16.57c-.09.29-.3.77-.64,1.44-.34.67-.51,1.08-.51,1.24v.3c-.02.47-.14.78-.37.92s-.55.24-.96.31c-.41.07-.82.06-1.24-.03l-1.18-.25c-.18,0-.53.02-1.04.07-.51.05-1.27.07-2.28.08-1.01,0-1.72.04-2.12.1l-2.19.44-2.41-.03-1.61.38c-.95.22-1.49.42-1.61.62-.13.19-.21.44-.25.75-.04.31.41.71,1.34,1.2,1.59.88,2.6,1.09,3.03.66l.38-.6c.16-.25.66-.63,1.48-1.13.82-.5,1.64-.82,2.47-.94.83-.13,1.23.05,1.22.52-.02.09-.08.35-.19.78-.11.43-.18.68-.22.75-.04.07-.13.22-.27.44s-.28.36-.41.41l-.77.3c-.24.18-.32.4-.25.66.02.15.17.34.46.59s.51.4.66.46c.15.06.56.14,1.26.23l.98.14c.44.02.67.03.68.03l.57.19c.24.07,1.28.16,3.12.25l2.62.27c.13.02.26.03.38.03.62.04,2.01-.06,4.17-.29,2.16-.23,3.61-.42,4.33-.57.73-.15,1.2-.15,1.41.03.21.17.2.76-.04,1.76-.26,1.04-.58,1.84-.98,2.41l-.85,1.2c-.11.2-.18.32-.22.36-.04.04-.13.14-.29.3s-.3.33-.42.51c-.13.17-.21.28-.25.31l-.96.6c-.77.49-1.35.8-1.76.93-.41.13-.91.25-1.49.36s-.99.19-1.23.25l-1.39-.19-.68-.03-.77-.3-.46-.08c-.22-.04-.6-.27-1.15-.71s-1.27-.85-2.17-1.24c-.9-.39-1.92-.92-3.05-1.57l-1.91-1.34c-.56-.38-1.32-.82-2.27-1.31s-1.54-.87-1.76-1.13c-.23-.26-.39-.41-.48-.45l-.46-.03-.79-.55-.96-.41-1.26-.71h-.22l-.88-.6-.57-.22c-.44-.15-.86-.39-1.26-.74l-1.48-1.78c-.38-.22-1-.26-1.86-.14l-3.91.74c-.2.02-.32.03-.36.03l-1.34.3c-.27.04-.5,0-.68-.08l-1.04-.74c-.18-.09-.29-.17-.33-.25-.04-.07-.05-.17-.03-.3,0-.05.06-.28.19-.68l.27-.96c.15-.33.34-.54.57-.63.09-.04.39,0,.89.11.5.11,1.37.04,2.61-.22l2.76-.38c2.21-.47,3.68-.73,4.43-.77l2.19-.05,1.26-.19c1.95-.24,3.09-.35,3.42-.33,0,.02.14.05.42.1.28.05.57.06.86.04.15,0,.66-.1,1.54-.31.88-.21,2.14-.33,3.77-.37,1.63-.04,2.59-.25,2.87-.66.28-.4.4-.68.36-.85s-.3-.29-.78-.38c-.71-.13-1.67-.14-2.88-.04-1.21.1-2.22.15-3.02.14-.8,0-1.29,0-1.46.01-.17.02-.57.08-1.2.19s-1.81.24-3.54.38c-1.73.15-3,.32-3.8.52l-1.94.55-2.98.41c-.42.07-.77.16-1.04.25l-.77.27-2.43.3c-1.04.2-1.67.23-1.89.08-.35-.18-.62-.43-.83-.75-.21-.32-.34-.74-.4-1.27-.05-.53.23-.88.85-1.04h.71l1.37-.27.55-.03,1.12-.19c.05,0,.31-.02.77-.07.46-.04,1.04-.15,1.76-.3.72-.15,1.19-.25,1.41-.29l.82-.05,1.48-.33,1.01-.08c1.2-.13,1.89-.18,2.06-.15.17.03.31.02.4-.01l.6-.3s.09,0,.21.01c.12,0,.3,0,.53-.01l3.69-.3c.16,0,.39,0,.68-.03,1.84-.05,3.88-.03,6.11.08s3.37.03,3.42-.25.03-.51-.04-.71c-.13-.27-.43-.46-.9-.55l-5.41-.14c-.16,0-.52-.02-1.08-.05-.56-.04-.98-.06-1.27-.08-.44,0-.83.02-1.18.05l-1.12.16-2.57.11c-1.04.11-1.76.19-2.16.25l-1.2.27h-.55l-1.04.19c-.16.04-.62.05-1.38.04-.76,0-2,.1-3.73.31-1.73.22-2.88.45-3.43.68-.56.24-.91.36-1.05.36-.53.02-.87-.16-1.01-.55-.15-.38-.22-.73-.23-1.04,0-.31.01-.52.07-.63l.44-.55.14-.33c.04-.05.6-.17,1.7-.36l2-.41c.91-.09,1.29-.46,1.13-1.12-.16-.66-.87-.68-2.15-.08l-.6.3c-.07.04-.23.07-.46.11l-1.04.27-2.11.55c-.09.04-.39.08-.9.14-.51.05-.78.04-.82-.05l-.05-.08-.44-.25c-.07-.05-.14-.21-.21-.45-.06-.25-.09-.41-.07-.48,0-.11.07-.38.22-.81.15-.43.47-.75.98-.97l1.31-.19,1.12-.3.44.03c.31.02,1.25-.19,2.83-.62,1.58-.43,2.27-.9,2.09-1.41-.07-.18-.46-.29-1.15-.33-.05,0-.26.05-.6.14l-1.8.19-.36.14-.85.14-.19.16c-.05.04-.2.06-.44.08l-1.42.36c-.53,0-.94-.1-1.24-.3-.3-.2-.47-.34-.51-.41-.04-.07.02-.46.16-1.18.13-.67.22-1.02.29-1.04.06-.02.39-.04.98-.07.59-.03.98-.07,1.16-.12l1.31-.49.74-.05,1.83-.3c1.04-.02,1.7-.23,1.97-.63.27-.4.29-.68.05-.85-.24-.16-.62-.23-1.15-.19h-.77c-.15.02-.54.14-1.19.37-.65.23-1.34.36-2.08.38s-1.18.05-1.33.08c-.15.03-.48.14-1,.33s-.84.22-.97.1l-.33-.57-.27-.36s-.03-.07-.03-.16l-.11-.79c-.02-.15,0-.31.05-.49.04-.2.17-.53.41-.98.24-.46.37-.69.41-.71ZM59.47,61.47c-.09-.24-.04-.56.16-.97s.5-.8.9-1.18c.4-.37.66-.65.77-.83l.36-.66c.24-.35.68-.53,1.34-.55,1.06-.02,1.77.08,2.15.29.37.21.6.44.68.7.08.26.12.46.12.63-.02.29-.1.56-.25.81s-.52.55-1.12.9-1.05.6-1.35.74-.62.22-.96.26c-.34.04-.69.13-1.07.29-.37.16-.72.22-1.05.19s-.56-.23-.68-.62Z"/>
  </g>
</svg>