<?xml version="1.0" encoding="UTF-8"?>
<svg xmlns="http://www.w3.org/2000/svg" version="1.1" viewBox="0 0 100 100">
  <!-- Generator: Adobe Illustrator 30.0.0, SVG Export Plug-In . SVG Version: 2.1.1 Build 123)  -->
  <defs>
    <style>
      .st0 {
        fill: #94271e;
      }

      .st1 {
        fill: #ffeaaa;
      }
    </style>
  </defs>
  <g id="_图层_2" data-name="图层_2">
    <path class="st0" d="M87.72,91.35l-.85-3.94-.05,2.3-.26.7-.39.77-.23,1.13s-4.41-.14-6.59-.08c-3.68.09-7.54-.67-10.97-.53-3.1.13-4.52,1.01-6.23.89-2.68-.2-2.22-1.71-4.6-1.55-4.54.3-3.52,1.53-7.81.68-3.51-.69-4,1.58-5.71,1.36-4.33-.56-6.69-.32-7.8.05-1.91.63-2.95-1.09-4.05-1.08-1.43.01-2.12.16-3.37.16-2,0-2.9-1.03-4.37-1.02-2.88.02-2.63.49-2.75.49-1.17.03-.72-.58-1.74-.54-1.57.06-1.76.62-2.53.62-.08,0-.91.03-.99.04l-3.15.33-.8-.35-1.38.27c-.61.12-1.25,0-1.77-.35-.29-.19-.56-.4-.81-.53-.62-.32-1.64-1.55-1.66-2.25-.03-1.47.82-6.66.82-6.66l2.92-.85-1.57-.42-.34-.98s.31-3.26.2-3.53c-2.06-5.35-2.12-6.64-1.94-9.65.13-2.15.72-4.23,1.06-5.42.99-3.47-.43-5.24-.55-5.85-.73-3.79.51-4.16.74-5.51.46-2.67-.39-4.72-.81-5.86-.45-1.22.43-3.32.27-3.56-.72-1.09.11-4.29.11-4.29.04-.6.38-1.02.78-1.4.88-.85.99-2.22.25-3.18l.48-.37c-.43-.57-.52-1.48-.52-1.48l1.28-1.12,3.55,1.32-1.25-1.93s-3.38-1.17-3.55-1.83c-.11-.43-.03-2.12.1-2.54l-.46-2.91c.08-.53.12-.9.04-1.43-.1-.76-.52-1.63-.65-2.36l-.67-4.57c-.14-.83-.03-1.49.3-2.27.74-1.74,2.12-2.64,3.71-2.44l1.41.12c.14.01.29.02.43,0,.7-.06,1.38-.24,2.02-.52.3-.13.92-.32,1.44-.44.33-.07.67-.08,1-.01l1.43.29c1.63.23,2.19,1.21,2.35.6l.26.28.15,2.58.43-.72.31-.23.3-.86.44-.17s.24-.68.25-.68c.41.07,1.97.49,1.97.49l.11,1.25.77-1.07s1.87.19,2.4.17c1.85-.04,2.7-1.51,4-1.14,7.51,2.09,8.31.63,12.67-.92,1.26-.45,1.55,1.19,2.02,1.09,4.83-.95,8.25-.56,11,.02,8.19,1.73,16.49.3,19.1-.12,2.75-.44,11.96.59,11.96.59.81,0,1.06.65,1.06.65l.56-.09.52-.08.47.23s.14,1.57.33,1.68c0,0,.41,4.46.24,7.36-.07,1.29-.79,2.86-1.66,4.04-.61.83-.1,1.88-.1,1.88l.42.68-.95.78h1.33s-1.02.87-1.02.87c0,0,2.01,1.89,2.11,4.82s-.13,4.96.15,6.08c.67,2.75-.97,5.45-.83,6.73.1.9.63,1.37.77,2.02.18.88-.61,3.89-1.49,5.65-.49.99-1.39,1.77-1.39,1.77l.44.58-1.4,1.01,2.28-.59.54,1.12s1.7,4.05,1.67,6.12c-.05,3.63-.46,4.8-.69,5.46-.69,1.93.52,2.06.49,2.97-.06,2.07-1,3.18-1.09,4.72-.07,1.12-.52,4.37-.52,4.37,0,.4.09.8.28,1.15v.83c.28.52.22.9.06,1.47-.05.18.1.71.1.71l-.13.7c-.04.23-.05.47-.03.7l.41,3.78c0,.34-1.59,2.77-1.59,2.77l-.86.34-.86-.71s-.49.39-1.31.31Z"/>
  </g>
  <g id="_图层_4" data-name="图层_4">
    <path class="st1" d="M35.19,54.98c.02-.2,0-.47-.03-.81-.04-.34-.31-.54-.82-.62-.24-.02-.67.05-1.3.19-.63.15-1.13.17-1.52.08-.71-.15-1.12-.41-1.23-.79s-.17-.69-.18-.92c0-.23.02-.45.1-.67.11-.4.25-.69.42-.86.17-.17.46-.41.85-.72.39-.31.73-.62,1.01-.92.28-.3.49-.5.62-.59l.68-.41.3-.33c.53-.49.72-.94.57-1.34-.09-.2-.55-.15-1.38.16-.83.31-1.37.46-1.63.44-.84-.04-1.42-.22-1.75-.55s-.51-.55-.55-.67c-.04-.12-.06-.32-.07-.6,0-.28.03-.56.12-.83.04-.16.12-.36.25-.6l.68-1.23.22-.49c.47,0,.92.07,1.34.22.64-.29,1.08-.46,1.33-.51.25-.05.45-.08.62-.1h1.12c.15,0,.46-.05.94-.15.48-.1.78-.13.9-.08.12.05.41.2.89.45l.88.41c.51.29.76.53.74.71v.79c.02.6.04,1.05.07,1.34.03.29.04.49.04.6l-1.09,1.83-.63,1.42c.55.05.88.12.98.19l.52.38c-.02.2-.04.34-.05.41l-.41,1.01.03.14c0,.37,0,.71.01,1.03,0,.32-.01.65-.07,1l-.36,1.72-.08,1.18c-.04.35-.05.57-.03.68.04.37.12.6.26.71s.44.23.92.36l1.97.55c.31-.11.55-.17.71-.19l.52-.03c1.59-.77,2.41-1.23,2.46-1.39l.05-.98c.02-.07.17-.24.46-.49l.9-1.04,1.37-1.26c.11-.13.31-.43.62-.92.3-.48.5-.85.6-1.09.1-.25.13-.5.08-.77-.05-.26-.22-.47-.53-.62-.09-.02-1.31.05-3.66.22-.09-.42-.21-.77-.36-1.07.27-1.04.53-2.12.77-3.25-.11-.29-.17-.52-.19-.68l.08-1.39c.02-.62-.12-1.26-.41-1.91-.13-.25-.35-.62-.66-1.09-.31-.47-.53-.79-.66-.96l-1.26-1.07c-.29-.29-.49-.67-.6-1.13s.09-1.05.6-1.76c.05-.09.12-.17.21-.23.08-.06.31-.12.7-.16.38-.05.67-.1.88-.18l1.72-1.04,1.37-.71,2.87-1.59c.58-.33,1.23-.75,1.93-1.27.7-.52,1.19-.73,1.46-.64l.46.14c.38.07.81.2,1.29.38.24.49.44.75.6.77l.44.14c1.02.44,1.96.72,2.82.85.86.13,1.56.18,2.11.16.11,0,.22,0,.33-.03l.68-.14c.22-.02.47.02.77.11.29.09.52.53.68,1.31-.42.26-.73.44-.93.55l-1.09.55c-.47.27-1.14.86-2,1.75l.25.22c.47.07.89.16,1.24.25.36.09.55.14.6.15.04,0,.38,0,1.01-.05.63-.05,1.05-.05,1.27,0,.22.05.53.15.93.31.4.16.91.3,1.53.4.62.1,1.15.29,1.59.56,0,.29.02.47.05.55l.08.3-.16,1.39c-.15.13-.3.24-.45.34-.16.1-.31.31-.48.62v.33c-.2.29-.44.65-.72,1.07-.28.42-.57.91-.86,1.48l-.16.33-.77,1.45c-.15.35-.31.66-.49.93-.84.6-1.45.88-1.83.85h-1.23c-.84.11-1.46.16-1.85.15-.39,0-.79-.05-1.2-.12s-.68-.11-.81-.11l-.96.33-.41.14c-.77.64-1.35,1.09-1.74,1.37-.39.27-.59.55-.59.82l-.03.36-.9.93c-.11.27-.24.56-.38.85-.15.29-.39.62-.74.98-.35.37-.54.59-.57.68l-.38,1.31c-.09.15-.37.37-.83.67s-1.15.95-2.06,1.96c1.08.58,1.94.99,2.58,1.23.65.24,2.36.56,5.13.96l5.41.9c.4.05.77.09,1.09.11,1.28.09,3.51-.06,6.71-.46,3.2-.4,5.27-.67,6.21-.81.94-.14,1.54-.02,1.8.36.26.37.19,1.03-.23,1.96-.18.4-.67,1.09-1.45,2.06-.79.98-1.48,1.78-2.09,2.41-.61.63-1.45,1.15-2.52,1.57-1.07.42-2.08.67-3.04.75s-2.13-.12-3.51-.62l-2.73-.93-1.04-.46-1.8-.79-3.36-1.18c-.53-.22-.85-.35-.96-.38l-.88-.22c-.09-.02-.27-.08-.53-.19s-.45-.17-.56-.19c-.11-.02-.28-.03-.52-.04-.24,0-.61-.05-1.11-.12-.5-.07-.84-.14-1.03-.19l-1.34-.49c-.22-.07-.64-.16-1.26-.26-.62-.1-1.16-.19-1.61-.27-.46-.08-.78-.14-.98-.18-.31-.02-.73,0-1.27.04-.54.05-.95.05-1.23,0-.28-.04-.44-.07-.48-.07l-.49.08-.82-.16-.96.27c-.07.02-.29,0-.64-.04-.36-.04-.88.03-1.56.22s-1.15.28-1.41.26l-.71-.05c-.24,0-1.43.21-3.58.63-1.15.22-1.79.26-1.91.14l-.79-.52c-.04-.11-.1-.33-.21-.67-.1-.34-.15-.61-.15-.82s.04-.39.11-.55c.07-.15.29-.41.64-.77s.58-.57.67-.64l1.31-.66.38-.38,1.83-1.18c.05-.04.9-.86,2.54-2.46ZM29.66,35.84c.13-.56.28-.96.46-1.18l.6-.68.38-.82c.18-.2.46-.3.85-.3l.9.19,1.75-.08,1.37.6c.29.11.69.17,1.19.18.5,0,.84.02,1.03.04l.88.27c.77.24,1.28.53,1.54.88.26.35.23.67-.1.96-.07.05-.22.12-.45.21-.23.08-.41.18-.55.29s-.37.34-.7.68c-.33.35-.64.59-.93.74l-1.75.55c-.35.15-.67.22-.96.22-.36.31-.61.48-.74.52-.13.04-.98.16-2.54.38l-.16-.16c-.38-.09-.71-.34-.98-.74l-.66.11c-.05-.11-.08-.2-.08-.27l.05-1.26-.22-.6-.19-.6v-.11ZM46.75,38.32c.15.04.36.08.63.14s.42.08.44.08c.18.02.42-.04.71-.16.29-.13.69-.31,1.2-.55.51-.24.97-.43,1.37-.57.4-.15.87-.25,1.39-.33l.46-.05c.6-.07,1.28-.24,2.04-.49.76-.25,1.28-.69,1.57-1.31.29-.62.3-1.01.04-1.16-.27-.15-.74-.16-1.44-.01-.02.02-.41.05-1.16.11-.76.05-1.27.06-1.55.03-.18.13-.31.22-.38.27l-.68.46-.98.79c-.88.69-1.87,1.37-2.98,2.02-.24.29-.46.54-.68.74ZM49.08,45.32c.11.07.63.02,1.56-.16.07,0,.47-.02,1.2-.05.73-.04,1.19-.15,1.4-.33l.79-.6c.36-.8.52-1.33.46-1.59l-.14-.79c-.49-.33-1.05-.59-1.67-.79-.87.31-1.7.68-2.49,1.11-.78.43-1.19.75-1.23.97v.44l-.16.77c-.04.11-.05.26-.03.44v.33c.09.11.19.2.3.27ZM58.46,50.38c.16.26.27.47.33.64.05.17,0,.55-.19,1.13-.18.58-.24,1.03-.16,1.33.07.3.3.51.68.63.38.12.83.17,1.34.15h1.07l2.32-.25c2.88.13,4.39.4,4.54.81.14.41.21.71.21.9,0,.19-.01.3-.01.31l-.49.85c-1.39.73-2.28,1.13-2.68,1.19-.4.06-.92.08-1.56.05-.64-.03-1.3.04-2,.21-.86-.16-1.65-.22-2.38-.18-.73.05-1.3.06-1.72.04-.42-.02-1.36-.19-2.82-.52-.27-.27-.44-.52-.51-.75-.06-.23-.07-.69-.01-1.38.07-1.29.14-2.09.19-2.39s.32-1.06.79-2.27c.47-1.21.92-1.85,1.34-1.9l.66.16.9.22.16,1.01ZM57.42,43.16c.55.6,1.11.91,1.7.93.29.02.67-.04,1.15-.18.47-.14.82-.21,1.04-.21l.88.05.52-.22c.18-.53.33-.98.44-1.35.11-.37.14-.67.08-.89-.05-.13-.19-.34-.41-.63-.22-.29-.5-.46-.85-.52-.05,0-.23,0-.53.03-.3.02-.68,0-1.12-.07-.45-.06-.71-.09-.78-.07l-.93.3c-.18.27-.39.58-.62.93-.23.35-.38.62-.45.82-.07.2-.11.53-.11.98v.08ZM64.61,48.85l.85.49c.04.51.04.8.03.88l-.19,1.15c-.13.05-.41.21-.83.48-.43.26-1.34.39-2.72.37-.33-.2-.53-.35-.62-.44-.08-.09-.16-.2-.22-.33-.06-.13-.12-.43-.15-.92-.04-.48.08-.88.36-1.19.33-.36.99-.57,2-.63.4,0,.9.05,1.5.14Z"/>
  </g>
</svg>