<?xml version="1.0" encoding="UTF-8"?>
<svg xmlns="http://www.w3.org/2000/svg" version="1.1" viewBox="0 0 100 100">
  <!-- Generator: Adobe Illustrator 30.0.0, SVG Export Plug-In . SVG Version: 2.1.1 Build 123)  -->
  <defs>
    <style>
      .st0 {
        fill: #94271e;
      }

      .st1 {
        fill: #ffeaaa;
      }
    </style>
  </defs>
  <g id="_图层_2" data-name="图层_2">
    <path class="st0" d="M87.72,91.35l-.85-3.94-.05,2.3-.26.7-.39.77-.23,1.13s-4.41-.14-6.59-.08c-3.68.09-7.54-.67-10.97-.53-3.1.13-4.52,1.01-6.23.89-2.68-.2-2.22-1.71-4.6-1.55-4.54.3-3.52,1.53-7.81.68-3.51-.69-4,1.58-5.71,1.36-4.33-.56-6.69-.32-7.8.05-1.91.63-2.95-1.09-4.05-1.08-1.43.01-2.12.16-3.37.16-2,0-2.9-1.03-4.37-1.02-2.88.02-2.63.49-2.75.49-1.17.03-.72-.58-1.74-.54-1.57.06-1.76.62-2.53.62-.08,0-.91.03-.99.04l-3.15.33-.8-.35-1.38.27c-.61.12-1.25,0-1.77-.35-.29-.19-.56-.4-.81-.53-.62-.32-1.64-1.55-1.66-2.25-.03-1.47.82-6.66.82-6.66l2.92-.85-1.57-.42-.34-.98s.31-3.26.2-3.53c-2.06-5.35-2.12-6.64-1.94-9.65.13-2.15.72-4.23,1.06-5.42.99-3.47-.43-5.24-.55-5.85-.73-3.79.51-4.16.74-5.51.46-2.67-.39-4.72-.81-5.86-.45-1.22.43-3.32.27-3.56-.72-1.09.11-4.29.11-4.29.04-.6.38-1.02.78-1.4.88-.85.99-2.22.25-3.18l.48-.37c-.43-.57-.52-1.48-.52-1.48l1.28-1.12,3.55,1.32-1.25-1.93s-3.38-1.17-3.55-1.83c-.11-.43-.03-2.12.1-2.54l-.46-2.91c.08-.53.12-.9.04-1.43-.1-.76-.52-1.63-.65-2.36l-.67-4.57c-.14-.83-.03-1.49.3-2.27.74-1.74,2.12-2.64,3.71-2.44l1.41.12c.14.01.29.02.43,0,.7-.06,1.38-.24,2.02-.52.3-.13.92-.32,1.44-.44.33-.07.67-.08,1-.01l1.43.29c1.63.23,2.19,1.21,2.35.6l.26.28.15,2.58.43-.72.31-.23.3-.86.44-.17s.24-.68.25-.68c.41.07,1.97.49,1.97.49l.11,1.25.77-1.07s1.87.19,2.4.17c1.85-.04,2.7-1.51,4-1.14,7.51,2.09,8.31.63,12.67-.92,1.26-.45,1.55,1.19,2.02,1.09,4.83-.95,8.25-.56,11,.02,8.19,1.73,16.49.3,19.1-.12,2.75-.44,11.96.59,11.96.59.81,0,1.06.65,1.06.65l.56-.09.52-.08.47.23s.14,1.57.33,1.68c0,0,.41,4.46.24,7.36-.07,1.29-.79,2.86-1.66,4.04-.61.83-.1,1.88-.1,1.88l.42.68-.95.78h1.33s-1.02.87-1.02.87c0,0,2.01,1.89,2.11,4.82s-.13,4.96.15,6.08c.67,2.75-.97,5.45-.83,6.73.1.9.63,1.37.77,2.02.18.88-.61,3.89-1.49,5.65-.49.99-1.39,1.77-1.39,1.77l.44.58-1.4,1.01,2.28-.59.54,1.12s1.7,4.05,1.67,6.12c-.05,3.63-.46,4.8-.69,5.46-.69,1.93.52,2.06.49,2.97-.06,2.07-1,3.18-1.09,4.72-.07,1.12-.52,4.37-.52,4.37,0,.4.09.8.28,1.15v.83c.28.52.22.9.06,1.47-.05.18.1.71.1.71l-.13.7c-.04.23-.05.47-.03.7l.41,3.78c0,.34-1.59,2.77-1.59,2.77l-.86.34-.86-.71s-.49.39-1.31.31Z"/>
  </g>
  <g id="_图层_4" data-name="图层_4">
    <path class="st1" d="M27.81,43.73h.36l1.59.08c.33-.02.63-.09.9-.22l.77-.41c.16-.07.55-.17,1.15-.3l2.43-.57c.42-.05.69-.11.82-.16l.85-.33c.09-.02.34-.05.74-.08l.82-.08,3.28-.14,3.45-.74,2.84-.19c.49-.05.83-.08,1.01-.08.71.02,1.12.21,1.22.57.1.36.05.77-.15,1.2l-.98,2.02c-.29.75-.49,1.21-.6,1.39-.11.18-.18.33-.22.44-.04.11-.07.19-.11.23-.04.05-.26-.05-.68-.29l-.38-.19c-.11-.05-.21-.15-.31-.29-.1-.14-.17-.27-.21-.4l-.08-1.04c-.04-.36-.13-.61-.29-.72-.16-.12-.54-.06-1.16.18-.47.18-.84.29-1.09.33-.26.04-.68.07-1.29.11l-4.57.66c-.4.05-.67.1-.79.14-.13.04-.38.13-.77.27-.38.15-1.03.34-1.96.59-.92.25-1.46.43-1.61.56-.16.13-.37.44-.64.93l-.63,1.12-.44,1.07c-.05.07-.21.25-.45.53-.25.28-.52.67-.82,1.15-.3.48-.62.69-.94.62-.07,0-.24-.07-.51-.21-.26-.14-.42-.23-.48-.29s-.15-.23-.27-.53c-.13-.3-.2-.54-.22-.72-.04-.29.06-.76.3-1.41.24-.65.36-1.12.36-1.41-.02-.09-.09-.46-.21-1.09-.12-.64-.16-1.17-.14-1.6.03-.43.07-.66.12-.7ZM34.81,60.63l-.11-.41c-.02-.16.1-.49.37-.97.26-.48.32-.81.16-.98-.16-.17-.44-.15-.86.07-.11.05-.34.26-.68.63-.35.37-.72.55-1.13.56-.41,0-.72-.08-.92-.26-.15-.11-.24-.22-.27-.33-.04-.11-.05-.25-.03-.44,0-.13,0-.25.03-.36l.49-2.19c.05-.33.06-.62.03-.88-.05-.25-.16-.49-.3-.71l-.85-1.01c-.04-.15,0-.38.08-.71.09-.33.19-.53.3-.6.09-.06.34-.05.74.01.4.06.83.06,1.29-.01.46-.07.87-.15,1.23-.25l1.39-.36,1.15-.22c.35-.07,1.05-.3,2.12-.67,1.07-.37,2.1-.55,3.1-.52,1,.03,1.7-.15,2.09-.52.39-.37.66-.56.81-.56l1.12.3c.53.11.83.23.92.36.08.13.16.32.25.59.08.26.09.48.01.64-.04.07-.08.15-.14.22l-1.15,1.37c-.26.35-.53.83-.82,1.45-.29.62-.42,1.06-.37,1.33.05.26.07.42.07.45-.04.09-.17.21-.4.34-.23.14-.35.21-.37.23l-.16.88-.19.3c-.2.42-.09.74.33.96.16.11.45.11.86.01.41-.1.7-.15.86-.15l1.72.46c.55.02.92.07,1.13.15.21.08.3.38.26.89-.04.46-.21.79-.53,1-.32.21-.86.51-1.63.89l-2.02,1.09-1.8.57-1.01.63-1.86.49c-.05.02-.27.11-.66.29-.38.17-.73.31-1.04.42l-3.91,1.34c-.33.13-.96.43-1.9.9-.94.47-1.75.7-2.42.68-1.37,0-2.16-.33-2.38-.98s-.33-1.14-.34-1.45c0-.31.08-.73.26-1.26.13-.44.35-.78.67-1.03.32-.25.6-.4.83-.46.24-.06.72-.13,1.46-.19.74-.06,1.47-.25,2.2-.56.73-.31,1.23-.61,1.49-.89.26-.28.41-.48.42-.59ZM30.47,32.87c.05-.04.15-.05.3-.05l.44.22c.18.11.62.06,1.31-.14.29-.07.82-.13,1.59-.16.77-.04,1.57-.15,2.42-.36.85-.2,1.37-.37,1.57-.52.2-.15.4-.57.59-1.27.19-.7.37-1.08.55-1.12.17-.05.36-.06.56-.04.04.02.32.08.86.19.54.11.88.29,1.03.55l.3.77c.07.11.26.22.57.34.31.12.52.19.63.21h.96l1.5.14c.77-.02,1.2,0,1.31.05l.33.22,1.26.57c.13.13.25.32.37.57.12.26.26.51.44.75.17.25.26.39.26.42-.05.2-.24.36-.56.46-.32.11-.87.21-1.65.31-.78.1-1.21.15-1.29.15l-1.72-.08c-.53.04-1.09.14-1.7.3s-.89.31-.88.44l.16.44-.08.85s.16.04.38,0l.82-.05c.25-.02.7-.14,1.33-.36s1.05-.34,1.27-.36c.67,0,1.26.22,1.76.66.5.44.72.79.64,1.07-.05.18-.26.36-.62.55-.36.18-.87.33-1.53.45-.67.12-1.04.19-1.13.21l-.98.3h-1.5l-1.72.25-1.04.05-1.86.71c-.26.09-.51.16-.77.19l-1.56.16-2.49.79h-.68c-.05.02-.21.1-.45.23s-.49.2-.72.18c-.27,0-.47-.05-.59-.16-.12-.11-.29-.47-.52-1.09-.23-.62-.31-.98-.26-1.09.09-.2.47-.41,1.15-.63.67-.22,1.35-.39,2.02-.52l1.18-.27h1.31c.31-.02.61-.09.9-.22l.55-.25,1.59-.36c.2-.18.3-.41.3-.68-.02-.31-.15-.53-.38-.66l-.74-.05-.82-.19-2.11.88-.93.25c-.47.16-.74.24-.79.22l-.38-.05-.85.22c-.2.04-.39,0-.57-.11l-.46-.27-1.04-.44c-.33-.27-.41-.8-.25-1.59.04-.22.17-.58.4-1.09.23-.51.47-.87.72-1.07ZM33.72,47.06l.6-.03c.58-.02,1.03-.06,1.34-.14.31-.07.71-.22,1.19-.45.48-.23.8-.37.96-.44.15-.06.39-.12.7-.18l2.3-.3c.71-.2,1.1-.31,1.18-.33l.93.16.77.08c.8.27,1.18.66,1.15,1.15-.04.29-.45.64-1.23,1.04l-1.72.88c-.27.09-.87.24-1.78.44-.91.2-1.55.31-1.91.33l-1.61.08c-.89.15-1.57.31-2.02.48-.46.17-.79.13-1-.14-.21-.26-.31-.55-.29-.86,0-.13.07-.45.22-.97.15-.52.23-.79.25-.81ZM35.42,54.99c0,.13.02.29.05.49.04.2.23.31.57.33l2.52-.98c.35-.13.93-.2,1.75-.22.82-.02,1.36-.09,1.61-.22.25-.13.41-.24.48-.34.06-.1.16-.29.3-.57.14-.28.2-.54.19-.78,0-.24-.19-.43-.53-.57-.13-.04-.69.04-1.7.22-1,.18-1.77.41-2.3.68-.53.27-.82.42-.88.44l-1.86.74c-.18.15-.26.41-.22.79ZM38.05,60.3c.12.09.32.15.62.16.35.05.62.03.82-.08l.79-.79.46-.33c.25-.22.42-.48.49-.78.07-.3.1-.54.08-.72-.05-.33-.18-.55-.38-.66l-.9-.03c-.09,0-.3-.04-.62-.11-.32-.07-.64-.04-.96.1-.32.14-.44.42-.37.86l.16.46-.38,1.75s.06.07.18.16ZM55.46,51.85l.3,1.04,1.26,1.23.55.85.82.79.88,1.12,1.61,1.18.96.82c.95.82,1.85,1.39,2.69,1.72s1.33.51,1.44.55l1.12.63.98.27c.07.04.23.11.46.21.24.1.43.16.57.18.29.07.8.05,1.53-.05.73-.11,1.55-.12,2.46-.03.49.07.96.05,1.39-.08.44-.13.73-.1.88.08.14.18-.13.93-.82,2.24l-.6,1.2c-.31.49-1.2,1.3-2.67,2.43-1.47,1.13-2.72,1.69-3.76,1.67-.18,0-.6-.05-1.24-.16-.65-.11-1.2-.32-1.65-.63l-1.75-1.64c-.49-.38-.75-.59-.77-.63l-.71-1.23c-.09-.11-.33-.4-.72-.88-.39-.47-1.02-1.47-1.87-2.98-.86-1.51-1.32-2.33-1.39-2.46l-.96-.9c-.31-.27-.57-.63-.79-1.07l-.66-1.26c-.42-.66-.77-.97-1.04-.93-.26.05-.5.34-.74.85l-.41.9c-.09.13-.17.23-.25.3l-.85.57c-.05.04-.22.22-.51.55s-.55.46-.81.38l-.52-.22-.52-.03c-.13-.04-.31-.34-.56-.92s-.4-1.01-.45-1.31-.09-.56-.1-.78c0-.22.08-.57.26-1.07.18-.51.55-.8,1.09-.88h.6c.22,0,.48-.04.79-.14.31-.09.57-.19.77-.3l1.04-.63c.13-.07.23-.12.31-.14.08-.02.18-.04.29-.05h.82l.93-.47c.07,0,.17.03.3.08ZM50.56,46c.18-.27.43-.51.74-.71l1.5-.68.77-.46,1.01-.25c2.17-.62,3.35-.73,3.54-.34.19.39.22.77.1,1.13-.13.35-.34.67-.63.98l-1.12,1.09-.44.49c-.18.2-.69.68-1.52,1.44-.83.76-1.34,1.27-1.53,1.53-.19.26-.39.43-.59.49-.2.06-.43.02-.68-.12l-.93-.77-.6-.36c-.09-.07-.19-.31-.29-.71-.1-.4-.14-.66-.12-.77,0-.05,0-.11.03-.16l.19-.41.57-1.42ZM54.61,35.99c.4.15.64.24.71.27l1.04.85,1.2.33c.51.29.78.43.82.41.02,0,.13-.09.33-.27.2-.18.62-.44,1.27-.77.65-.33,1.37-.77,2.16-1.34.79-.56,1.49-1.25,2.09-2.05l1.26-2.02c.35-.55.83-.62,1.45-.22.33.24.59.76.78,1.56.19.8.33,1.29.42,1.45.09.16.47.52,1.15,1.05.67.54,1.17,1.09,1.48,1.67.31.57.51.89.6.94l.93.52.79,1.12c.33.42.53.73.6.93.07.2-.34.57-1.23,1.09-.49.29-.88.55-1.15.77l-1.97,1.31c-.29.27-.44.52-.45.72,0,.21.19.5.59.86l.98.9c.6.64,1.06,1.31,1.38,2.02.32.71.38,1.22.19,1.53-.19.31-.83.41-1.9.3-.4-.02-.73-.07-.98-.16l-1.2-.36c-.26-.02-.44-.04-.56-.08-.12-.04-.36-.26-.72-.68l-1.29-1.42c-.46-.47-.81-.68-1.07-.63-.05.02-.18.18-.38.49l-.71.6s-.17.22-.45.62c-.28.39-.74.83-1.38,1.33-.64.49-1.08.73-1.31.71-.04,0-.14-.03-.3-.08l-.6-.16c-.33-.18-.44-.6-.33-1.26.04-.24.24-.73.6-1.49.36-.76.64-1.42.83-2s.29-.88.31-.92l.57-1.18.19-.55s.07-.14.21-.37c.14-.23.21-.46.22-.68,0-.23-.05-.43-.18-.62-.07-.07-.27-.2-.59-.37-.32-.17-.67-.42-1.04-.75-.38-.33-.59-.5-.64-.52-.18-.04-.37-.03-.55.03l-.88.41-.88.3c-.13.05-.52.29-1.16.7-.65.41-1.3.54-1.96.4l-1.34-.57c-.47-.2-.78-.38-.92-.53-.14-.15-.24-.38-.31-.67l-.08-.79-.38-1.23c-.05-.29-.03-.6.08-.93.15-.47.46-.82.94-1.03.48-.21,1.04-.18,1.68.1.64.27.97.41,1.01.41ZM60.49,53.24l.33-1.26c.13-.2.71-.46,1.74-.77,1.03-.31,1.63-.17,1.79.41.16.58.15.98-.03,1.2l-.14.14c-.07.07-.2.36-.37.86-.17.5-.39.93-.66,1.27-.27.35-.45.59-.55.74-.1.15-.21.27-.31.38s-.33.18-.66.22c-.33.04-.53.02-.6-.05-.02,0-.12-.1-.29-.31-.17-.21-.27-.34-.29-.4-.02-.05-.02-.23,0-.52l-.14-1.45.16-.46ZM66.48,42.17l.57-.14.68.11c.24,0,.41-.06.52-.18.11-.12.24-.33.38-.63.14-.3.31-.61.49-.93.18-.32.31-.66.38-1.03.07-.36-.04-.67-.33-.93l-.93-.33c-.13-.04-.38-.17-.74-.4-.37-.23-.67-.34-.9-.34-.38.04-.78.36-1.18.96-.4.6-.59,1.13-.57,1.59,0,.49.23.98.7,1.48s.77.75.92.77ZM66.12,56.36c-.04-.11,0-.28.08-.52.09-.24.32-.6.68-1.09.36-.49.54-.88.52-1.18l-.08-.44c-.02-.46.19-.72.63-.79l.88.27,1.01.08c.25.07.5.26.74.57l.82,1.37c.16.24.27.42.31.56.04.14,0,.31-.12.53-.05.09-.25.3-.57.63l-.82.88c-.2.16-.54.33-1.03.51-.48.17-1,.16-1.54-.04-.46-.15-.82-.37-1.08-.67-.27-.3-.41-.52-.42-.67Z"/>
  </g>
</svg>