<?xml version="1.0" encoding="UTF-8"?>
<svg xmlns="http://www.w3.org/2000/svg" version="1.1" viewBox="0 0 100 100">
  <!-- Generator: Adobe Illustrator 30.0.0, SVG Export Plug-In . SVG Version: 2.1.1 Build 123)  -->
  <defs>
    <style>
      .st0 {
        fill: #94271e;
      }

      .st1 {
        fill: #ffeaaa;
      }
    </style>
  </defs>
  <g id="_图层_2" data-name="图层_2">
    <path class="st0" d="M87.72,91.35l-.85-3.94-.05,2.3-.26.7-.39.77-.23,1.13s-4.41-.14-6.59-.08c-3.68.09-7.54-.67-10.97-.53-3.1.13-4.52,1.01-6.23.89-2.68-.2-2.22-1.71-4.6-1.55-4.54.3-3.52,1.53-7.81.68-3.51-.69-4,1.58-5.71,1.36-4.33-.56-6.69-.32-7.8.05-1.91.63-2.95-1.09-4.05-1.08-1.43.01-2.12.16-3.37.16-2,0-2.9-1.03-4.37-1.02-2.88.02-2.63.49-2.75.49-1.17.03-.72-.58-1.74-.54-1.57.06-1.76.62-2.53.62-.08,0-.91.03-.99.04l-3.15.33-.8-.35-1.38.27c-.61.12-1.25,0-1.77-.35-.29-.19-.56-.4-.81-.53-.62-.32-1.64-1.55-1.66-2.25-.03-1.47.82-6.66.82-6.66l2.92-.85-1.57-.42-.34-.98s.31-3.26.2-3.53c-2.06-5.35-2.12-6.64-1.94-9.65.13-2.15.72-4.23,1.06-5.42.99-3.47-.43-5.24-.55-5.85-.73-3.79.51-4.16.74-5.51.46-2.67-.39-4.72-.81-5.86-.45-1.22.43-3.32.27-3.56-.72-1.09.11-4.29.11-4.29.04-.6.38-1.02.78-1.4.88-.85.99-2.22.25-3.18l.48-.37c-.43-.57-.52-1.48-.52-1.48l1.28-1.12,3.55,1.32-1.25-1.93s-3.38-1.17-3.55-1.83c-.11-.43-.03-2.12.1-2.54l-.46-2.91c.08-.53.12-.9.04-1.43-.1-.76-.52-1.63-.65-2.36l-.67-4.57c-.14-.83-.03-1.49.3-2.27.74-1.74,2.12-2.64,3.71-2.44l1.41.12c.14.01.29.02.43,0,.7-.06,1.38-.24,2.02-.52.3-.13.92-.32,1.44-.44.33-.07.67-.08,1-.01l1.43.29c1.63.23,2.19,1.21,2.35.6l.26.28.15,2.58.43-.72.31-.23.3-.86.44-.17s.24-.68.25-.68c.41.07,1.97.49,1.97.49l.11,1.25.77-1.07s1.87.19,2.4.17c1.85-.04,2.7-1.51,4-1.14,7.51,2.09,8.31.63,12.67-.92,1.26-.45,1.55,1.19,2.02,1.09,4.83-.95,8.25-.56,11,.02,8.19,1.73,16.49.3,19.1-.12,2.75-.44,11.96.59,11.96.59.81,0,1.06.65,1.06.65l.56-.09.52-.08.47.23s.14,1.57.33,1.68c0,0,.41,4.46.24,7.36-.07,1.29-.79,2.86-1.66,4.04-.61.83-.1,1.88-.1,1.88l.42.68-.95.78h1.33s-1.02.87-1.02.87c0,0,2.01,1.89,2.11,4.82s-.13,4.96.15,6.08c.67,2.75-.97,5.45-.83,6.73.1.9.63,1.37.77,2.02.18.88-.61,3.89-1.49,5.65-.49.99-1.39,1.77-1.39,1.77l.44.58-1.4,1.01,2.28-.59.54,1.12s1.7,4.05,1.67,6.12c-.05,3.63-.46,4.8-.69,5.46-.69,1.93.52,2.06.49,2.97-.06,2.07-1,3.18-1.09,4.72-.07,1.12-.52,4.37-.52,4.37,0,.4.09.8.28,1.15v.83c.28.52.22.9.06,1.47-.05.18.1.71.1.71l-.13.7c-.04.23-.05.47-.03.7l.41,3.78c0,.34-1.59,2.77-1.59,2.77l-.86.34-.86-.71s-.49.39-1.31.31Z"/>
  </g>
  <g id="_图层_4" data-name="图层_4">
    <path class="st1" d="M30.9,44.01c.05-.04.1-.06.14-.08.11-.04.4.02.88.18.47.16,1.18.09,2.11-.21.93-.29,2.18-.56,3.76-.79,1.58-.24,2.68-.6,3.32-1.08.64-.48,1.25-1.07,1.83-1.75.58-.68.86-1.23.83-1.63-.03-.4-.14-.71-.34-.93-.2-.22-1.32-.06-3.36.46l-.77.16-2.32.68c-.4.04-.75.09-1.04.16-.29.07-.59.11-.9.11-1.4.07-2.3-.18-2.69-.75-.39-.57-.61-.98-.64-1.22-.04-.24-.03-.49.03-.77.11-.67.39-1.29.83-1.83.45-.55.77-.85.97-.9.13-.02.48.07,1.05.27.57.2,1.83.05,3.76-.44,1.93-.49,3.63-.85,5.1-1.07,1.47-.22,2.41-.55,2.83-.98.42-.44.75-.89,1-1.37.25-.47.5-.81.75-1.01.25-.2.7-.29,1.34-.27.46.04.85.19,1.18.46l1.56,2.3c.36.33,1.12.5,2.27.52l4.4.08c4.41.13,7.07.25,7.97.36s1.5.32,1.79.64c.29.32.41.72.36,1.22-.13,1.04-.8,1.75-2.02,2.12-1.22.37-2.3.51-3.23.4-.58-.05-1.16-.14-1.74-.26-.57-.12-1.4-.22-2.49-.3-1.09-.08-1.65-.12-1.68-.12-.98.46-1.24,1.27-.77,2.43.05.18.31.61.78,1.29.46.67.85,1.18,1.16,1.5.31.33,1.91.54,4.81.63l6.75.44.9-.11c1.28-.09,2.13-.23,2.57-.42s.7-.27.78-.23c.08.04.14.1.18.19.04.09.02.27-.05.55-.04.09-.1.48-.18,1.18-.08.69-.49,1.59-1.23,2.69s-1.28,1.81-1.63,2.12c-.35.31-.83.62-1.44.93-.61.31-1.24.46-1.87.44-.49,0-1.04-.1-1.63-.31-.59-.21-1.54-.56-2.86-1.04-1.31-.48-2.05-.66-2.2-.53-.16.13-.24.39-.25.78,0,.39.01,1.02.07,1.87,0,.07.04,1.5.11,4.29.07,2.79.11,4.4.11,4.84-.09,3.55-.63,5.87-1.63,6.95-.99,1.08-1.94,1.76-2.84,2.06s-2.79.32-5.65.07c-1.2-.09-2.6-.28-4.2-.56-1.6-.28-2.44-.52-2.54-.71-.1-.19-.14-.38-.12-.56,0-.35.31-.75.92-1.22.61-.46,1.28-.84,2.01-1.13.73-.29,1.91-.56,3.55-.82l1.42-.3c.14-.02.84-.09,2.08-.21,1.24-.12,2.09-.52,2.54-1.2.46-.68.71-1.38.75-2.08.04-.7.08-1.31.1-1.82l.16-3.34c0-.4,0-.76.03-1.07,0-.46-.04-1.03-.11-1.72-.07-.69-.1-1.12-.08-1.29l.22-2.24c-.07-.64-.36-1.22-.85-1.74s-1.71-.76-3.66-.72c-1.95.04-3.73,0-5.33-.08-2.3-.11-4.69.08-7.18.57s-4.49,1.01-6,1.56l-3.96,1.53c-1.42.47-2.48.52-3.17.14-.22-.11-.45-.32-.7-.63-.25-.31-.38-.53-.4-.66-.02-.13-.03-.28-.03-.46,0-.31.02-.58.07-.81.05-.23.13-.46.26-.68.13-.23.48-.68,1.07-1.35l.68-.82,1.64-.55ZM34.72,55.84c-.21-1.5-.41-2.49-.59-2.97l-.25-.55c-.07-.16-.11-.36-.12-.57,0-.22.11-.43.37-.63.15-.11.46-.17.93-.18.47,0,1.48-.23,3.01-.66,1.53-.43,3.34-.72,5.44-.89,2.1-.16,3.67-.32,4.73-.48,1.06-.15,1.77-.12,2.13.11.36.23.61.52.72.89.12.37.17.67.15.9l-.77,2.02c-.2.51-.31,1.33-.31,2.45,0,1.12.02,1.91.08,2.38.06.46.1.78.12.94.02.16,0,.33-.08.49-.13.27-.54.54-1.23.81-.69.26-2.03.56-4.02.88-1.99.32-3.63.63-4.94.93-1.3.3-2.42.55-3.35.74s-1.54.11-1.82-.26c-.28-.36-.42-.85-.4-1.45l.49-2.46c0-.13-.1-.94-.31-2.45ZM45.86,54.68c-.18-.64-.47-1.04-.86-1.2-.39-.16-1.12-.1-2.17.19l-2.65.49c-.91.18-1.51.45-1.79.79-.28.35-.43.93-.44,1.76,0,.83.47,1.23,1.44,1.19l2.46-.52,2.49-.38c1-.29,1.51-.75,1.52-1.37,0-.62.01-.94.01-.96ZM52.62,41.52c.42-.07.73-.21.93-.42.2-.21.17-.65-.08-1.33-.09-.22-.36-.63-.81-1.24-.45-.61-.86-1.05-1.23-1.31-.37-.26-.99-.3-1.85-.1-.57.15-.98.36-1.24.64-.26.28-.52.78-.75,1.49l-.6,1.61c-.26,1.24,1.62,1.46,5.63.66Z"/>
  </g>
</svg>