<?xml version="1.0" encoding="UTF-8"?>
<svg xmlns="http://www.w3.org/2000/svg" version="1.1" viewBox="0 0 100 100">
  <!-- Generator: Adobe Illustrator 30.0.0, SVG Export Plug-In . SVG Version: 2.1.1 Build 123)  -->
  <defs>
    <style>
      .st0 {
        fill: #94271e;
      }

      .st1 {
        fill: #ffeaaa;
      }
    </style>
  </defs>
  <g id="_图层_2" data-name="图层_2">
    <path class="st0" d="M87.72,91.35l-.85-3.94-.05,2.3-.26.7-.39.77-.23,1.13s-4.41-.14-6.59-.08c-3.68.09-7.54-.67-10.97-.53-3.1.13-4.52,1.01-6.23.89-2.68-.2-2.22-1.71-4.6-1.55-4.54.3-3.52,1.53-7.81.68-3.51-.69-4,1.58-5.71,1.36-4.33-.56-6.69-.32-7.8.05-1.91.63-2.95-1.09-4.05-1.08-1.43.01-2.12.16-3.37.16-2,0-2.9-1.03-4.37-1.02-2.88.02-2.63.49-2.75.49-1.17.03-.72-.58-1.74-.54-1.57.06-1.76.62-2.53.62-.08,0-.91.03-.99.04l-3.15.33-.8-.35-1.38.27c-.61.12-1.25,0-1.77-.35-.29-.19-.56-.4-.81-.53-.62-.32-1.64-1.55-1.66-2.25-.03-1.47.82-6.66.82-6.66l2.92-.85-1.57-.42-.34-.98s.31-3.26.2-3.53c-2.06-5.35-2.12-6.64-1.94-9.65.13-2.15.72-4.23,1.06-5.42.99-3.47-.43-5.24-.55-5.85-.73-3.79.51-4.16.74-5.51.46-2.67-.39-4.72-.81-5.86-.45-1.22.43-3.32.27-3.56-.72-1.09.11-4.29.11-4.29.04-.6.38-1.02.78-1.4.88-.85.99-2.22.25-3.18l.48-.37c-.43-.57-.52-1.48-.52-1.48l1.28-1.12,3.55,1.32-1.25-1.93s-3.38-1.17-3.55-1.83c-.11-.43-.03-2.12.1-2.54l-.46-2.91c.08-.53.12-.9.04-1.43-.1-.76-.52-1.63-.65-2.36l-.67-4.57c-.14-.83-.03-1.49.3-2.27.74-1.74,2.12-2.64,3.71-2.44l1.41.12c.14.01.29.02.43,0,.7-.06,1.38-.24,2.02-.52.3-.13.92-.32,1.44-.44.33-.07.67-.08,1-.01l1.43.29c1.63.23,2.19,1.21,2.35.6l.26.28.15,2.58.43-.72.31-.23.3-.86.44-.17s.24-.68.25-.68c.41.07,1.97.49,1.97.49l.11,1.25.77-1.07s1.87.19,2.4.17c1.85-.04,2.7-1.51,4-1.14,7.51,2.09,8.31.63,12.67-.92,1.26-.45,1.55,1.19,2.02,1.09,4.83-.95,8.25-.56,11,.02,8.19,1.73,16.49.3,19.1-.12,2.75-.44,11.96.59,11.96.59.81,0,1.06.65,1.06.65l.56-.09.52-.08.47.23s.14,1.57.33,1.68c0,0,.41,4.46.24,7.36-.07,1.29-.79,2.86-1.66,4.04-.61.83-.1,1.88-.1,1.88l.42.68-.95.78h1.33s-1.02.87-1.02.87c0,0,2.01,1.89,2.11,4.82s-.13,4.96.15,6.08c.67,2.75-.97,5.45-.83,6.73.1.9.63,1.37.77,2.02.18.88-.61,3.89-1.49,5.65-.49.99-1.39,1.77-1.39,1.77l.44.58-1.4,1.01,2.28-.59.54,1.12s1.7,4.05,1.67,6.12c-.05,3.63-.46,4.8-.69,5.46-.69,1.93.52,2.06.49,2.97-.06,2.07-1,3.18-1.09,4.72-.07,1.12-.52,4.37-.52,4.37,0,.4.09.8.28,1.15v.83c.28.52.22.9.06,1.47-.05.18.1.71.1.71l-.13.7c-.04.23-.05.47-.03.7l.41,3.78c0,.34-1.59,2.77-1.59,2.77l-.86.34-.86-.71s-.49.39-1.31.31Z"/>
  </g>
  <g id="_图层_4" data-name="图层_4">
    <path class="st1" d="M27.81,56.22l.05-.63c0-.33.03-.61.08-.85.05-.24.28-.48.68-.74l1.61-.77.82-.52,1.09-.33.79-.38c.49-.2.79-.34.9-.41.11-.07.23-.29.36-.64.13-.36.15-.93.05-1.72-.09-.79-.11-1.34-.07-1.64.05-.3.04-.5-.03-.59-.06-.09-.3-.1-.7-.03-.26.05-.62.19-1.08.4-.46.21-.81.34-1.03.4-.75.2-1.28.17-1.6-.08-.32-.25-.58-.51-.79-.78-.21-.26-.32-.87-.34-1.82-.02-.95.4-1.62,1.26-2.02.29-.13.45-.2.46-.22l.27-.22s.15-.06.36-.12c.2-.06.5-.21.9-.44.4-.23.62-.35.66-.37l1.04-.16c.42-.11.67-.26.75-.46.08-.2.14-.6.18-1.2l.11-.82c.05-.62-.1-.95-.46-.98-.22,0-.69.09-1.42.26-.73.17-1.36.36-1.89.56-.53.2-.91.26-1.15.16-.07-.02-.25-.11-.52-.27s-.54-.36-.79-.59c-.26-.23-.36-.82-.33-1.76,0-.25.06-.8.18-1.64.12-.84.28-1.33.48-1.49.2-.15.57-.29,1.12-.41.55-.12,1.7-.41,3.47-.89l.9-.25c.15-.02.52-.02,1.12-.01.6,0,1.48-.05,2.62-.16,1.15-.12,1.91-.15,2.3-.1l1.34.22c.86.04,1.38.1,1.56.18.18.08.4.37.66.86.25.49.36.98.3,1.45-.16,1.31-1.22,2.21-3.16,2.69-1.94.48-2.99.87-3.13,1.15-.15.28-.21.58-.19.9.02.32.02.64,0,.96-.02.32.02.52.11.62l1.42.3.68.44,1.42.52c.49.35.7.9.63,1.67-.07.51-.2.85-.38,1.01-.18.16-.59.46-1.23.88-.64.42-.98.63-1.01.63l-1.04.36c-.24.18-.32.65-.26,1.39.06.75.08,1.3.05,1.67-.03.37,0,.62.1.77.07.15.17.25.3.3.13.05.41.09.85.11l1.5.25,1.78.16c.73.16,1.13.49,1.22.97.08.48-.02.91-.31,1.27l-1.29,1.09-.55.71c-.29.33-.78.6-1.48.82l-1.42.46c-.11.05-.22.1-.33.14l-1.67.77-.66.27c-.4.18-1.31.7-2.72,1.56-1.41.86-2.76,1.24-4.03,1.15-.29-.02-.59-.1-.9-.25-.31-.15-.49-.67-.55-1.56-.05-.89-.07-1.6-.05-2.13ZM40.15,64.86c.09-.2.43-.51,1.03-.92.59-.41,1.13-.65,1.61-.71.48-.06,1.22-.06,2.2,0,.98.06,1.63.06,1.94-.01.66-.13,1.48-.37,2.47-.72.99-.36,1.7-.75,2.12-1.19l.55-.66c.4-.46.59-.79.57-1.01-.07-.47-.59-.7-1.56-.68-.58.02-1.01.05-1.29.1-.27.05-.9.21-1.87.48-.98.27-1.65.4-2.01.38-.75,0-1.29-.25-1.63-.77-.34-.51-.5-.95-.48-1.31,0-.27.12-.57.36-.9.24-.33.59-.54,1.07-.63l2.13-.05.49-.19s.46-.02,1.31-.05l1.67-.25c2.41-.16,3.64-.3,3.69-.41l.27-.93c.15-.47.18-.75.11-.82-.07-.07-.25-.12-.52-.14-1.22-.04-2.1,0-2.62.08-.53.09-1.41.28-2.65.56-1.24.28-2.14.37-2.71.26-.35-.05-.58-.17-.7-.34-.12-.17-.18-.48-.19-.93,0-.45.09-.79.29-1.03l.44-.44.25-.3,1.18-.16.68-.38.79-.08s.6-.14,1.68-.41,2.09-.37,3.01-.3c.92.07,1.45.04,1.59-.11.14-.15.2-.49.19-1.04s-.1-.89-.27-1.03-.62-.15-1.33-.04l-2.93.19c-.62.07-1.23.22-1.83.44l-1.31.52c-.58.22-1.08.32-1.5.3-.78-.02-1.17-.49-1.15-1.42,0-.35.15-.78.46-1.3.31-.52.85-.84,1.61-.97.77-.13,1.36-.21,1.79-.26.43-.05.71-.1.83-.15l.52-.27s.24,0,.6.03c.37.02.65-.09.85-.33l.11-1.56.08-.3c.07-.4.02-.72-.15-.94-.17-.23-1.2.01-3.08.72l-1.28.36c-.46.15-.78.26-.98.36l-1.45.74c-.42.05-.82-.07-1.2-.38-.26-.18-.43-.4-.52-.66l-.14-.46-.14-.36c-.05-.11-.07-.24-.05-.38,0-.38.11-.71.34-.97.23-.26.63-.58,1.22-.96.58-.37,1.25-.56,2-.55.75,0,1.19-.06,1.33-.21.14-.15.2-.36.2-.63-.02-.04-.03-.12-.03-.25l-.08-.77c-.05-.35-.15-.61-.27-.79l-.52-.52c-.18-.2-.32-.56-.42-1.07-.1-.51-.16-.85-.16-1.03,0-.17.05-.31.18-.4l.19-.11.11-.33s.12-.06.3-.08l1.53-.11c.47.15.83.49,1.08,1.03.25.54.42,1.08.53,1.63s.13,1.16.05,1.83c-.07.67-.04,1.03.1,1.08.14.05.31.06.53.04.37-.02.62-.05.78-.1.15-.05.26-.1.31-.15s.1-.25.14-.57l.57-2.08c.05-.22.09-.44.11-.67.02-.23.05-.73.11-1.5.05-.77.2-1.44.42-2,.23-.56.59-.86,1.08-.9.49-.05.84.01,1.04.18.18.2.32.62.41,1.26l.08.82c.13,1.24.11,2.32-.05,3.24-.16.92-.17,1.43-.03,1.52.16.13.52.15,1.08.07s.93-.11,1.11-.1l.93.16c.2-.04.3-.73.3-2.08l.11-1.53c.05-1.51.24-2.51.55-2.98.31-.47.7-.67,1.18-.57.29.07.57.37.85.89s.43,1.03.46,1.52c0,.09-.01.44-.04,1.04s-.01.97.04,1.09l.19.63v1.23c.09.33.29.57.59.72.3.16.85.23,1.65.23l3.99.52c.33.04.71.04,1.15,0,.62-.02,1.39-.1,2.31-.26.92-.15,1.55-.21,1.89-.16.34.05.57.11.71.21.14.09.04.47-.29,1.15-.47.95-1.12,1.78-1.96,2.49s-1.65,1.03-2.47.96c-.46-.02-1.71-.35-3.76-1-2.05-.65-3.05-.73-2.99-.26l.3,1.04.08,1.45c.05.05.21.1.45.12s.63.09,1.15.19c.52.1,1.12.19,1.82.26.69.07,1.09.19,1.19.34.1.16.22.4.37.72s.22.78.23,1.35-.78.83-2.37.75l-3.64-.3h-.9c-.15.02-.56.07-1.23.15s-1.11.09-1.3.03c-.19-.06-.35-.09-.48-.08-.13,0-.11.52.05,1.54.05.42.14.69.26.81.12.12.61.12,1.46.01.89-.11,2.31-.16,4.27-.16.78.02,1.53.19,2.23.51.7.32,1.1.85,1.2,1.6.1.75-.05,1.2-.45,1.37s-.72.24-.96.22l-1.26-.08h-.16c-.24.02-.51.03-.81.04-.3,0-.51.01-.62.01-.13.02-.48,0-1.05-.03-.57-.04-1.19-.04-1.86-.01s-1.19.01-1.57-.04-.6-.06-.66-.01c-.05.05-.09.36-.11.94l-.11,1.07c.04.13.75.13,2.13,0l1.42-.03.46-.08h1.48c1.9-.15,3.09,0,3.6.41.5.42.71.91.63,1.48-.08.57-.29.95-.62,1.15-.22.15-.66.21-1.33.21-.67,0-1.23.02-1.71.1l-.88-.05s-.15.03-.41.03l-3.39-.36-.41.03c-1.26.05-1.95.14-2.08.25l-.52.63-.63.55c-.18.18-.36.44-.53.78-.17.34-.29.54-.34.62l-.36.38c-.13.15-.3.44-.51.88s-.37.74-.49.9-.5.6-1.15,1.31-1.04,1.12-1.18,1.23-.49.32-1.05.63l-2.35,1.37c-.78.42-1.64.74-2.56.97-.92.23-1.64.23-2.15.01l-1.01-.55-1.15-.33c-.67-.26-1.22-.74-1.63-1.46s-.62-1.14-.63-1.27c0-.13,0-.21.01-.25ZM59.38,43.8c.14-.07.24-.17.31-.29.07-.12.09-.71.05-1.76-.04-.55-.11-.91-.22-1.09-.11-.18-.46-.25-1.04-.22l-1.15.16h-1.12c-.29.15-.46.42-.52.82v1.15l-.19,1.12c.11.24.46.35,1.07.33l.85-.11c1.17,0,1.82-.04,1.96-.11ZM59.94,61.47c-.09-.38-.03-.64.18-.78s.78-.08,1.71.18c.02.02.42.05,1.2.1.78.05,1.55.22,2.3.52s1.21.46,1.39.48l.98.16c1.86.64,3.02,1.19,3.47,1.67.46.47.71.88.78,1.23.06.35-.17.78-.7,1.31-.29.27-.63.51-1.01.71l-1.67.77c-.78.42-1.5.54-2.16.36-.33-.07-1.28-.67-2.84-1.8l-1.39-.96c-.66-.49-1.15-1.05-1.48-1.68s-.58-1.38-.77-2.26ZM64.7,36.04c-.22-.35-.28-.61-.18-.78.1-.17.32-.39.66-.66.34-.26.67-.71,1.01-1.33.34-.62.68-1.01,1.03-1.16.35-.15.77-.23,1.26-.23.37.02.66.26.88.74.22.47.31.99.27,1.56-.07.67-.24,1.18-.51,1.5s-.89.55-1.87.67c-.98.12-1.53.17-1.64.15-.44,0-.74-.15-.9-.46Z"/>
  </g>
</svg>