<?xml version="1.0" encoding="UTF-8"?>
<svg xmlns="http://www.w3.org/2000/svg" version="1.1" viewBox="0 0 100 100">
  <!-- Generator: Adobe Illustrator 30.0.0, SVG Export Plug-In . SVG Version: 2.1.1 Build 123)  -->
  <defs>
    <style>
      .st0 {
        fill: #94271e;
      }

      .st1 {
        fill: #ffeaaa;
      }
    </style>
  </defs>
  <g id="_图层_2" data-name="图层_2">
    <path class="st0" d="M87.72,91.35l-.85-3.94-.05,2.3-.26.7-.39.77-.23,1.13s-4.41-.14-6.59-.08c-3.68.09-7.54-.67-10.97-.53-3.1.13-4.52,1.01-6.23.89-2.68-.2-2.22-1.71-4.6-1.55-4.54.3-3.52,1.53-7.81.68-3.51-.69-4,1.58-5.71,1.36-4.33-.56-6.69-.32-7.8.05-1.91.63-2.95-1.09-4.05-1.08-1.43.01-2.12.16-3.37.16-2,0-2.9-1.03-4.37-1.02-2.88.02-2.63.49-2.75.49-1.17.03-.72-.58-1.74-.54-1.57.06-1.76.62-2.53.62-.08,0-.91.03-.99.04l-3.15.33-.8-.35-1.38.27c-.61.12-1.25,0-1.77-.35-.29-.19-.56-.4-.81-.53-.62-.32-1.64-1.55-1.66-2.25-.03-1.47.82-6.66.82-6.66l2.92-.85-1.57-.42-.34-.98s.31-3.26.2-3.53c-2.06-5.35-2.12-6.64-1.94-9.65.13-2.15.72-4.23,1.06-5.42.99-3.47-.43-5.24-.55-5.85-.73-3.79.51-4.16.74-5.51.46-2.67-.39-4.72-.81-5.86-.45-1.22.43-3.32.27-3.56-.72-1.09.11-4.29.11-4.29.04-.6.38-1.02.78-1.4.88-.85.99-2.22.25-3.18l.48-.37c-.43-.57-.52-1.48-.52-1.48l1.28-1.12,3.55,1.32-1.25-1.93s-3.38-1.17-3.55-1.83c-.11-.43-.03-2.12.1-2.54l-.46-2.91c.08-.53.12-.9.04-1.43-.1-.76-.52-1.63-.65-2.36l-.67-4.57c-.14-.83-.03-1.49.3-2.27.74-1.74,2.12-2.64,3.71-2.44l1.41.12c.14.01.29.02.43,0,.7-.06,1.38-.24,2.02-.52.3-.13.92-.32,1.44-.44.33-.07.67-.08,1-.01l1.43.29c1.63.23,2.19,1.21,2.35.6l.26.28.15,2.58.43-.72.31-.23.3-.86.44-.17s.24-.68.25-.68c.41.07,1.97.49,1.97.49l.11,1.25.77-1.07s1.87.19,2.4.17c1.85-.04,2.7-1.51,4-1.14,7.51,2.09,8.31.63,12.67-.92,1.26-.45,1.55,1.19,2.02,1.09,4.83-.95,8.25-.56,11,.02,8.19,1.73,16.49.3,19.1-.12,2.75-.44,11.96.59,11.96.59.81,0,1.06.65,1.06.65l.56-.09.52-.08.47.23s.14,1.57.33,1.68c0,0,.41,4.46.24,7.36-.07,1.29-.79,2.86-1.66,4.04-.61.83-.1,1.88-.1,1.88l.42.68-.95.78h1.33s-1.02.87-1.02.87c0,0,2.01,1.89,2.11,4.82s-.13,4.96.15,6.08c.67,2.75-.97,5.45-.83,6.73.1.9.63,1.37.77,2.02.18.88-.61,3.89-1.49,5.65-.49.99-1.39,1.77-1.39,1.77l.44.58-1.4,1.01,2.28-.59.54,1.12s1.7,4.05,1.67,6.12c-.05,3.63-.46,4.8-.69,5.46-.69,1.93.52,2.06.49,2.97-.06,2.07-1,3.18-1.09,4.72-.07,1.12-.52,4.37-.52,4.37,0,.4.09.8.28,1.15v.83c.28.52.22.9.06,1.47-.05.18.1.71.1.71l-.13.7c-.04.23-.05.47-.03.7l.41,3.78c0,.34-1.59,2.77-1.59,2.77l-.86.34-.86-.71s-.49.39-1.31.31Z"/>
  </g>
  <g id="_图层_4" data-name="图层_4">
    <path class="st1" d="M26.23,34.59c0-.21.06-.4.19-.56.04-.04.11-.09.22-.16l2.19-.66,1.29-.52,1.23-.05,1.53-.36c.25-.05.56-.1.9-.14l3.04-.19,2.49-.33h1.31c.24,0,.5-.02.79-.05.29-.04.84-.12,1.65-.25.81-.13,1.45-.21,1.93-.25l1.72-.03,2.54-.16,1.45.05,3.88-.27c.07,0,.84.03,2.3.08l4.92-.05h3.09c.6.02,1.51.1,2.72.23,1.21.14,2.06.19,2.56.15l2.62-.25c.96-.02,1.68-.1,2.13-.23.46-.14.73-.15.83-.03.1.12.14.28.12.48-.02.07-.09.26-.22.57l-.27.96c-.15.4-.41.81-.78,1.22-.38.41-.76.68-1.16.81-.4.13-1.02.13-1.86,0-1.28-.16-2.23-.27-2.87-.33l-1.91-.11-1.5-.19c-.6-.05-1.4-.07-2.41-.05l-5.41.22c-.6.04-1.17.07-1.7.1-.53.03-.8.04-.82.04-.35.02-.78,0-1.29-.07-.51-.06-.75.06-.71.37l.22.44-.05.6c0,.4.48.6,1.45.6.25.02.88-.07,1.87-.26.99-.19,2.03-.3,3.1-.31.35,0,1.5.05,3.47.14l2.46.05c.93.04,1.98.15,3.14.34,1.17.19,2.14.28,2.93.27.78,0,1.4.07,1.86.25.46.17.68.67.68,1.49-.02.18-.07.43-.15.75-.08.32-.26.59-.53.81l-1.2.77-.57.88c-.2.27-.54.57-1.01.88-.47.31-1,.67-1.59,1.09-.58.42-.98.52-1.2.3s-.32-.44-.3-.66l.14-.66.11-.74.55-1.01c.07-.18.12-.43.14-.74.02-.31-.11-.65-.38-1.01-.13-.15-.32-.3-.59-.46-.27-.16-.98-.31-2.15-.42-1.17-.12-2.6-.19-4.31-.22-1.71-.03-2.76-.03-3.16-.01-.57.04-1.29.14-2.16.3s-1.61.23-2.19.19c-.58-.04-.94,0-1.07.08-.22.16-.32.67-.31,1.5,0,.84-.05,1.62-.18,2.35-.47,2.72-1.35,4.01-2.62,3.88-.6-.05-1.06-.44-1.38-1.16-.32-.72-.48-1.29-.48-1.71l.22-1.97-.08-1.2c.04-.55.03-.87-.03-.96-.15-.16-.5-.3-1.07-.41-.22-.02-.65,0-1.29.08-.64.07-1.38.14-2.23.21-.85.06-1.62.09-2.32.08-.7,0-1.13-.01-1.27-.01-.31.04-.63.08-.96.14l-1.53.36-.88.14c-.18.05-.74.27-1.67.66s-1.49.64-1.68.78-.53.46-1.01.96c-.48.5-.75.91-.81,1.22l-.16.79c-.05.09-.32.36-.79.79-.47.44-.82.71-1.03.81-.21.1-.47.08-.78-.05-.31-.14-.5-.35-.57-.63-.07-.28-.08-.93-.03-1.96v-.82s0-.25.03-.66c0-.31-.05-.77-.15-1.37-.1-.6-.1-.97.01-1.09.13-.16.32-.27.57-.33l.98.05c.07,0,.28-.04.63-.11l1.31-.25,1.2-.41c.16-.04.61-.08,1.34-.12.73-.05,1.77-.2,3.13-.46,1.36-.26,2.37-.43,3.05-.51.67-.07,1.43-.11,2.26-.12.83,0,1.34-.02,1.54-.04l1.86-.3,1.01-.11c.84-.09,1.23-.46,1.18-1.09-.05-.53-.54-.77-1.45-.74-.04.02-.21.05-.53.08-.32.04-.69.07-1.12.11-.43.04-1.53.16-3.31.38s-3.09.34-3.92.37c-.84.03-1.32.05-1.45.07l-.88.16c-.13.02-.35,0-.66-.07-.31-.06-.55-.09-.71-.07l-1.12.55c-.31.15-.73.22-1.27.23-.54,0-.89.02-1.05.04l-1.78.33c-.46-.04-.76-.13-.9-.29-.15-.15-.35-.43-.6-.83l-.44-.55c-.05-.07-.08-.21-.08-.42ZM26.61,64.58l.46-.46c.24-.27.4-.42.48-.45s.33-.06.75-.1l.79-.14,1.09-.08c.22-.02.71-.12,1.46-.3.76-.18,1.39-.3,1.9-.36l.98-.08c.44-.05,1.15-.24,2.13-.55.98-.31,1.55-.6,1.71-.86.15-.26.13-.48-.08-.66-.21-.17-.53-.21-.97-.1-.07.02-.35.02-.82.01-.47,0-1.19.12-2.15.38-.96.26-1.51.34-1.67.23-.16-.11-.23-.32-.23-.63l.08-1.26-.25-1.8c-.05-.46-.12-.75-.19-.88l-.44-.57c-.18-.42-.13-.71.15-.89.28-.17.63-.18,1.05-.01l.85.41c.44.2.91.28,1.42.25.27,0,.65-.05,1.13-.16.48-.11.91-.19,1.27-.23.36-.04.59-.18.68-.41.09-.23.05-.41-.14-.53-.05-.02-.22-.01-.51.01-.28.03-.63-.04-1.04-.22-.41-.17-.66-.34-.74-.51s-.15-.39-.19-.68c-.05-.29-.12-.49-.22-.59-.1-.1-.46-.17-1.08-.21-.51-.02-.8-.01-.88.01-.07.03-.32.17-.74.42-.42.26-.86.39-1.31.41-.77.04-1.44-.15-2.04-.56-.59-.41-.87-.77-.83-1.08,0-.09.14-.34.42-.74.28-.4.48-.66.59-.77s.3-.17.57-.19c.09,0,.19.02.3.05l.52.27c.15.07.68-.07,1.61-.44.22-.07.61-.12,1.18-.15.56-.03.9-.1,1-.21.1-.11.16-.52.18-1.23.02-.71.4-1.07,1.15-1.07.49.02.83.18,1.01.49l.25.98c.24.53,1.06.58,2.46.16.33-.09.91-.18,1.75-.26.84-.08,1.33-.15,1.48-.22.15-.06.29-.19.44-.37l1.07-1.7c.07-.02.15-.04.25-.05.09,0,.29.07.6.21.31.14.5.25.57.34l.14.36.63.57.11.6c.07.16.35.23.83.21.48-.03.89-.01,1.23.04.34.05.52.12.56.21.04.08.05.21.03.4-.07.55-.15.88-.23.98s-.42.27-1,.48c-.58.21-1.2.29-1.85.25-.65-.04-1.02-.03-1.11.04l-.46,1.18-.49.55-.57.77-1.45.55c-.24.13-.38.35-.44.66-.05.31.36.28,1.23-.08.25-.09.66-.16,1.22-.21.56-.04.89-.09,1-.12l1.12-.55h.77l.55-.05c.33,0,.5.08.51.25,0,.16-.04.32-.15.46-.2.29-.34.6-.41.93l-.19,1.31c-.11.69-.35,1.33-.72,1.91-.37.58-.77.97-1.18,1.16s-.9.32-1.46.4c-.57.07-.99.14-1.29.19-.29.05-.5.15-.62.29-.12.14-.12.38,0,.74.12.36.49.52,1.11.51.09,0,.31-.01.64-.04.34-.03,1.12-.09,2.34-.18,1.15-.05,1.76.11,1.85.48.08.37,0,.72-.23,1.05-.09.13-.2.24-.31.34-.12.1-.23.17-.33.22-.1.05-.52.21-1.26.49-.74.28-1.46.45-2.16.51-.7.05-1.15.16-1.34.33s-.32.39-.4.67c-.07.28-.11.63-.12,1.05,0,.42-.04.72-.1.9l-.49.88c-.31.62-.51.94-.6.96h-.55l-.66.05c-.24-.04-.5-.27-.78-.7-.28-.43-.43-1.1-.45-2.01-.02-.91-.1-1.38-.23-1.39-.14-.02-.23-.03-.29-.03-.09.02-.23.07-.41.16-.18.09-.67.23-1.48.42-.8.19-1.5.34-2.08.45-.58.11-1.4.31-2.46.6-1.06.29-1.89.36-2.49.22-.49-.11-.99-.32-1.49-.63-.5-.31-.78-.64-.85-.98-.06-.35-.06-.58.01-.71ZM35.52,58.89c.05,0,.21-.02.46-.05l1.45-.22c.46,0,.85-.26,1.19-.79.34-.53-.03-.69-1.11-.49l-1.01.11c-.55.07-.96.2-1.23.38-.27.18-.42.31-.44.4-.02.08,0,.21.08.37.07.22.27.32.6.3ZM35.28,41.2c-.05-.11-.07-.19-.04-.25s.1-.11.21-.16l1.15-.08.77-.27c.07,0,.29.01.64.04s.61.03.75.01c.11,0,.24-.02.38-.05l.38-.08,1.31.05c.09,0,.57-.08,1.45-.25,1.02-.18,1.71-.13,2.08.16.36.29.54.54.52.74-.04.15-.26.38-.67.7-.41.32-.72.53-.94.64s-.59.2-1.12.27l-3.8.36c-.67.09-1.11.06-1.31-.08l-.46-.44-.96-.66c-.13-.13-.24-.35-.33-.66ZM37.66,44.29l1.42-.33c.93-.2,2.21-.26,3.83-.19.44.04.85.26,1.24.66.39.4.42.75.1,1.04-.09.07-.27.14-.55.19s-.89.29-1.86.7c-.97.41-1.88.5-2.73.26l-.98-.27-.6-.03-.82-.19c-.58-.09-.88-.22-.88-.38v-.22l-.3-.27c-.29-.44.42-.76,2.13-.96ZM42.58,50.88c-.05-.05-.23-.09-.53-.11-.3-.02-.72.05-1.27.19-.55.15-1.22.26-2.01.34s-1.2.17-1.22.27c-.02.1-.02.19,0,.26v.19c.02.22.36.32,1.04.3,2.21-.04,3.45-.25,3.72-.64.27-.39.36-.66.27-.81ZM41.79,56.86c-.05.29-.04.55.05.77.09.22.45.26,1.07.11.84-.18,1.43-.36,1.78-.55.35-.18.46-.5.36-.94-.11-.45-.61-.63-1.5-.56-.91.09-1.43.25-1.54.48-.12.23-.19.46-.21.7ZM45.34,66.35c.49-.64.88-1.05,1.16-1.24.28-.19,1.18-.55,2.69-1.07,1.51-.52,2.41-1.42,2.69-2.71s.48-2.55.59-3.79l.27-3.2c.04-.56.04-1.02,0-1.37-.07-.55-.21-1.04-.41-1.49-.2-.45-.42-.83-.67-1.16s-.37-.59-.38-.79c0-.2.21-.46.67-.77.31-.2.73-.36,1.26-.49l2.43-.38c.56-.09.94-.15,1.12-.16l1.01.03,4.43-.57,1.23.16,2.3-.38c.66,0,1.02-.02,1.09-.05l.71-.27c.33-.04.72.12,1.19.48s.69.72.67,1.11c-.02.15-.07.3-.16.46l-.46.66c-.55.8-.78,1.98-.68,3.53l.08,1.37-.11,3.04c-.05,1.29.04,2.94.27,4.92l.41,3.5c.09.89.09,1.55,0,1.97-.05.18-.19.54-.4,1.08-.21.54-.45.87-.71.98-.27.12-.67,0-1.22-.36s-.94-1-1.16-1.93c-.23-.93-.33-1.7-.31-2.3l.08-1.31v-1.31c-.04-1.02-.22-1.61-.56-1.76-.34-.15-.79-.21-1.35-.15-.13.02-.38.08-.77.19s-.82.19-1.3.25c-.48.05-1.16.08-2.04.07-.88,0-1.45-.01-1.72-.01-.49.04-.9.13-1.23.27-.33.15-.54.33-.63.55-.09.22-.16.5-.21.85-.05.35-.16.89-.36,1.64-.19.75-.38,1.33-.55,1.75-.17.42-.43.72-.77.92-.34.19-.92.37-1.74.53-.82.16-1.49.25-2.02.27-.84.05-1.82-.05-2.95-.31-1.13-.26-1.63-.67-1.5-1.22ZM54.23,43.38l.41.05c.14.02.45-.03.9-.14.46-.11.79-.17,1.01-.19.22-.02.95-.02,2.19,0,3.43.05,5.28.12,5.56.21.28.08.51.16.67.25s.27.16.31.25c.04.08.01.23-.1.45-.27.57-.85,1.09-1.74,1.57-.88.48-1.47.74-1.76.78l-1.64-.49-1.15-.05c-.35-.02-1.21-.32-2.58-.92-1.38-.59-2.07-1.03-2.09-1.31-.02-.28-.02-.43,0-.45ZM54.42,40.51c-.02-.13,0-.23.05-.31s.44-.19,1.15-.31l1.01-.46c.22-.09.84-.11,1.86-.07,1.02.05,2.06-.01,3.12-.18,1.06-.16,1.71-.21,1.97-.14.13.05.38.23.77.52.38.29.54.5.46.63l-.3.3-.16.6c-.07.11-.29.2-.66.27l-1.29.41c-.66.15-1.7.1-3.12-.15s-2.58-.35-3.46-.3c-.88.05-1.35-.22-1.41-.81ZM55.38,58.53c.05.07.43.14,1.12.19.69.05,1.77-.07,3.23-.37,1.46-.3,2.58-.41,3.38-.33s1.26.06,1.39-.07c.14-.13.24-.46.3-1,.06-.54.06-.87-.01-1-.05-.05-.11-.1-.16-.14-.05-.04-.35-.08-.88-.14l-.85-.19c-.13-.02-.46,0-1.01.07-.55.06-1.18.09-1.89.08-.71,0-1.3.07-1.78.23l-1.37.52c-.77.16-1.24.31-1.42.45-.18.14-.24.45-.18.94.06.49.1.74.12.74ZM56.09,53.47l1.39-.38c.86-.16,2.25-.29,4.17-.38,1.92-.09,2.99-.25,3.2-.49.21-.24.34-.61.38-1.11.04-.5-.23-.74-.83-.73l-1.04.3-1.61.03c-.33.02-.81.12-1.44.3-.63.18-1.11.27-1.44.27l-.9-.05c-.4,0-.83.06-1.29.18-.46.12-.76.25-.9.4-.15.15-.18.45-.11.9.07.46.21.71.41.77Z"/>
  </g>
</svg>