<?xml version="1.0" encoding="UTF-8"?>
<svg xmlns="http://www.w3.org/2000/svg" version="1.1" viewBox="0 0 100 100">
  <!-- Generator: Adobe Illustrator 30.0.0, SVG Export Plug-In . SVG Version: 2.1.1 Build 123)  -->
  <defs>
    <style>
      .st0 {
        fill: #94271e;
      }

      .st1 {
        fill: #ffeaaa;
      }
    </style>
  </defs>
  <g id="_图层_2" data-name="图层_2">
    <path class="st0" d="M87.72,91.35l-.85-3.94-.05,2.3-.26.7-.39.77-.23,1.13s-4.41-.14-6.59-.08c-3.68.09-7.54-.67-10.97-.53-3.1.13-4.52,1.01-6.23.89-2.68-.2-2.22-1.71-4.6-1.55-4.54.3-3.52,1.53-7.81.68-3.51-.69-4,1.58-5.71,1.36-4.33-.56-6.69-.32-7.8.05-1.91.63-2.95-1.09-4.05-1.08-1.43.01-2.12.16-3.37.16-2,0-2.9-1.03-4.37-1.02-2.88.02-2.63.49-2.75.49-1.17.03-.72-.58-1.74-.54-1.57.06-1.76.62-2.53.62-.08,0-.91.03-.99.04l-3.15.33-.8-.35-1.38.27c-.61.12-1.25,0-1.77-.35-.29-.19-.56-.4-.81-.53-.62-.32-1.64-1.55-1.66-2.25-.03-1.47.82-6.66.82-6.66l2.92-.85-1.57-.42-.34-.98s.31-3.26.2-3.53c-2.06-5.35-2.12-6.64-1.94-9.65.13-2.15.72-4.23,1.06-5.42.99-3.47-.43-5.24-.55-5.85-.73-3.79.51-4.16.74-5.51.46-2.67-.39-4.72-.81-5.86-.45-1.22.43-3.32.27-3.56-.72-1.09.11-4.29.11-4.29.04-.6.38-1.02.78-1.4.88-.85.99-2.22.25-3.18l.48-.37c-.43-.57-.52-1.48-.52-1.48l1.28-1.12,3.55,1.32-1.25-1.93s-3.38-1.17-3.55-1.83c-.11-.43-.03-2.12.1-2.54l-.46-2.91c.08-.53.12-.9.04-1.43-.1-.76-.52-1.63-.65-2.36l-.67-4.57c-.14-.83-.03-1.49.3-2.27.74-1.74,2.12-2.64,3.71-2.44l1.41.12c.14.01.29.02.43,0,.7-.06,1.38-.24,2.02-.52.3-.13.92-.32,1.44-.44.33-.07.67-.08,1-.01l1.43.29c1.63.23,2.19,1.21,2.35.6l.26.28.15,2.58.43-.72.31-.23.3-.86.44-.17s.24-.68.25-.68c.41.07,1.97.49,1.97.49l.11,1.25.77-1.07s1.87.19,2.4.17c1.85-.04,2.7-1.51,4-1.14,7.51,2.09,8.31.63,12.67-.92,1.26-.45,1.55,1.19,2.02,1.09,4.83-.95,8.25-.56,11,.02,8.19,1.73,16.49.3,19.1-.12,2.75-.44,11.96.59,11.96.59.81,0,1.06.65,1.06.65l.56-.09.52-.08.47.23s.14,1.57.33,1.68c0,0,.41,4.46.24,7.36-.07,1.29-.79,2.86-1.66,4.04-.61.83-.1,1.88-.1,1.88l.42.68-.95.78h1.33s-1.02.87-1.02.87c0,0,2.01,1.89,2.11,4.82s-.13,4.96.15,6.08c.67,2.75-.97,5.45-.83,6.73.1.9.63,1.37.77,2.02.18.88-.61,3.89-1.49,5.65-.49.99-1.39,1.77-1.39,1.77l.44.58-1.4,1.01,2.28-.59.54,1.12s1.7,4.05,1.67,6.12c-.05,3.63-.46,4.8-.69,5.46-.69,1.93.52,2.06.49,2.97-.06,2.07-1,3.18-1.09,4.72-.07,1.12-.52,4.37-.52,4.37,0,.4.09.8.28,1.15v.83c.28.52.22.9.06,1.47-.05.18.1.71.1.71l-.13.7c-.04.23-.05.47-.03.7l.41,3.78c0,.34-1.59,2.77-1.59,2.77l-.86.34-.86-.71s-.49.39-1.31.31Z"/>
  </g>
  <g id="_图层_4" data-name="图层_4">
    <path class="st1" d="M27.81,54.28l1.18.16c.18-.02.52-.19,1.01-.52l2.49-1.45c1.37-1.06,2.05-1.68,2.04-1.86,0-.18,0-.28,0-.29,0,0,.05-.02.12-.04.07-.02.04-.35-.11-.98l-.08-.71c-.15-.25-.55-.29-1.2-.11l-1.42.63c-.07.02-.55.05-1.44.1-.88.05-1.38.05-1.49.01-.22-.05-.52-.21-.92-.48-.39-.26-.63-.56-.72-.9-.09-.34-.16-.81-.19-1.42-.04-.61,0-1.04.11-1.3.31-.88.69-1.3,1.15-1.29l.57.16c.05.02.51-.12,1.37-.41l1.67-.33.55-.25,1.15-.19c.38-.13.62-.33.71-.6l-.19-1.12c-.11-.73-.21-1.12-.29-1.16-.08-.05-.31-.02-.7.07-1.24.35-2.27.53-3.08.56-.81.03-1.5-.22-2.06-.75-.31-.25-.57-.65-.79-1.19-.22-.54-.3-1.09-.25-1.65.02-.4.19-.84.51-1.33.32-.48.74-.87,1.27-1.15.53-.28,1.75-.5,3.66-.64l3.47-.41c.27-.02,1.49-.08,3.64-.19,2.81-.13,4.27.44,4.39,1.71.12,1.27-.32,2.28-1.33,3.05-.75.57-1.47.86-2.17.88-.7.02-1.15.07-1.34.15s-.32.19-.38.31c-.06.13-.03.55.1,1.26.11.75.21,1.18.29,1.29s.66.09,1.72-.07c1.07-.15,2.1-.15,3.1.01.64.11.95.61.93,1.5-.05,1.33-.65,2.16-1.78,2.49-1.13.33-2.06.56-2.78.68-.72.13-1.14.37-1.27.72-.13.36.22.79,1.04,1.3.2.15.82.34,1.86.59s1.8.8,2.28,1.67c.48.87.51,1.53.08,2-.43.46-.97.75-1.63.85-.66.1-1.24.12-1.74.05-.5-.06-.84-.08-1.03-.04-.22.07-.4.19-.53.36s-.2.55-.18,1.15l-.19,4.65c.07,1.51.11,2.32.11,2.43-.02.09-.04.23-.07.41-.03.18-.04.31-.04.38l-.05,1.45-.3.98s-.02.2-.01.55c0,.35-.1.8-.33,1.35-.23.56-.61.9-1.13,1.03-.53.13-1.08-.17-1.64-.9-.18-.22-.31-.43-.37-.63-.06-.2-.1-1-.1-2.41l-.14-2.38.11-1.39.03-.98.19-2.02c0-.69-.06-1.07-.19-1.12l-1.01.85-.96.46c-.2.11-.38.26-.55.44l-.49.55c-1.13,1.08-2.32,1.43-3.55,1.07-.55-.15-.97-.42-1.27-.82-.3-.4-.47-.95-.51-1.64-.04-.69-.05-1.14-.03-1.34.02-.27.1-.58.25-.92.15-.34.31-.57.49-.7.18-.13.31-.2.38-.22ZM42.44,65.33c-.22-.33-.31-.67-.27-1.03.04-.36,1.96-.5,5.77-.42.88.02,1.86-.07,2.95-.27,1.09-.2,2.21-.5,3.35-.9,1.14-.4,1.86-.65,2.17-.74l3.55-.68c.84-.22,2.04-.82,3.61-1.8l2.02-1.12c2.71-1.57,4.46-2.38,5.24-2.43.77-.05,1.27.14,1.48.57.21.44-.18,1.12-1.16,2.05-1,.95-2.24,1.69-3.71,2.21-1.47.53-2.51,1-3.13,1.42l-.85.6c-.46.31-1.25.76-2.39,1.35-1.14.59-2.52,1.37-4.13,2.34s-3.09,1.68-4.42,2.15c-1.33.46-2.37.87-3.1,1.22-.74.35-1.28.52-1.63.52-.35.02-.98-.16-1.91-.55s-1.66-1.05-2.19-2l-.71-1.5c-.16-.31-.35-.64-.55-.98ZM45.78,34.84c.02-.16.14-.37.37-.63.23-.25.71-.33,1.44-.22.56.11,1.51,0,2.84-.31,1.33-.32,2.66-.56,3.99-.72,1.33-.16,2.21-.48,2.65-.96l1.01-1.7c.46-.66,1-.99,1.63-1,.63,0,1.09.25,1.38.78l.3.79c.33.67,1.11,1.05,2.35,1.12l1.83.11,2.11.3h1.2l1.34.6,1.5.6c.42.33.66.73.74,1.2.07.47-.02,1.04-.27,1.7l-.79,1.97c-.16.49-.3,1.31-.4,2.46-.1,1.15-.27,1.84-.49,2.08-.23.24-.46.45-.7.63-.24.18-.69.28-1.35.29-.67,0-1.05.09-1.16.23-.04.02-.13,0-.27-.05-.15-.05-.73.06-1.75.36-.15.05-.6.12-1.37.19-.77.07-1.17.12-1.2.14l-.38.19c-.09.04-.19.05-.3.05h-1.31c-.26.15-.39.58-.4,1.31,0,.73-.07,1.55-.19,2.47-.12.92,0,1.49.34,1.71.35.22.9.09,1.67-.38l.63-.38.68-.22.93-.41c.84-.18,1.26-.3,1.26-.36-.02-.11-.11-.24-.27-.38l-1.01-.55c-.11-.07-.27-.29-.46-.66-.2-.36-.21-.65-.03-.85.13-.15.52-.26,1.18-.36l3.09-.11c2.37-.13,3.97-.25,4.81-.38.84-.13,1.4-.02,1.68.31.28.34.39.82.31,1.44-.09.6-.57,1.29-1.45,2.06-.88.78-1.5,1.21-1.86,1.31-.37.1-.73.14-1.09.12-1.46-.02-2.48-.3-3.08-.83-.59-.54-.92-.76-.97-.67-.91,1.5-1.43,2.26-1.56,2.3-.37.15-.86.38-1.48.7-.62.32-1.24.58-1.87.79-.63.21-1.73.55-3.31,1.03-1.58.47-2.95.94-4.1,1.39-1.16.46-1.96.72-2.42.79l-1.8.27c-.16.05-.49.18-.97.37-.48.19-.86.29-1.13.3-.27,0-.56-.13-.85-.42-.09-.07-.24-.27-.45-.59-.21-.32-.34-.56-.4-.72s.12-.43.52-.79l1.31-.74.9-.6c.11-.04.51-.06,1.19-.08.68-.02,2.15-.35,4.42-.98l.96-.25c1.24-.33,2-.77,2.3-1.34l-.03-2.82c-.02-1.39-.16-2.17-.44-2.37s-.78-.24-1.5-.15c-1.28.18-2.71.45-4.31.81s-2.56.63-2.9.83c-.34.2-.57.3-.68.29-.12,0-.29-.2-.51-.56-.22-.36-.32-.73-.3-1.09,0-.07.05-.36.16-.86.11-.5.21-1.31.3-2.42.09-1.11-.03-2.1-.36-2.95-.2-.46-.3-.72-.3-.79l-.14-1.01-.68-1.23c-.27-.53-.36-1.03-.27-1.5ZM46.52,48.79c.04-.05.36-.22.96-.49s1.52-.38,2.75-.31c1.23.06,2.2,0,2.9-.21.7-.2,1.16-.25,1.37-.14.21.11.34.39.4.85.05.46-.7,1.07-2.27,1.83-.2.11-.37.2-.49.27l-.99.68c-1.93,1.2-3.24,1.31-3.94.33-.02,0-.16-.35-.44-1.04l-.27-.63c-.07-.16-.1-.37-.1-.62,0-.25.05-.42.12-.53ZM47.09,59.89c.04-.47.18-.86.42-1.16s.88-.46,1.89-.46c1.01,0,1.74-.07,2.17-.18l2.76-1.01,1.39-.33,2.02-.79c.22-.07.77-.22,1.65-.44.88-.22,1.45-.4,1.7-.53s.41-.21.51-.23c.53-.05,1.07-.23,1.64-.52.56-.29,1.28-.59,2.13-.9.86-.31,1.47-.6,1.85-.86.37-.26.62-.41.75-.42.09,0,.28.06.56.18.28.12.46.28.55.49.08.21-.03.51-.34.89-.16.2-.67.56-1.5,1.07l-1.18.82c-.66.46-1.68,1.01-3.06,1.65-1.39.65-2.73,1.14-4.03,1.49-1.3.35-2.09.59-2.37.74l-.55.33c-.26.15-.98.38-2.16.71l-3.01,1.01c-.44.13-.82.21-1.15.25-.82.11-1.48.01-1.98-.29-.5-.3-.72-.8-.67-1.49ZM51.41,43.81l1.31-.49,2.16-.36,2.52-.52,1.2-.08,2.3-.38,1.94.03,1.61-.11c1.09-.05,1.79-.1,2.11-.15.31-.05.63-.19.96-.42.33-.24.75-.92,1.26-2.04.51-1.12.66-1.88.45-2.27-.21-.39-.65-.72-1.33-.97-.53-.18-1.39-.26-2.57-.25-1.19.02-2.38,0-3.57-.07-1.2-.06-2.07-.07-2.64-.01-.46.05-1.57.3-3.34.72-1.77.43-2.88.73-3.35.9-.47.17-.81.39-1.04.64-.23.26-.4.54-.52.86-.12.32-.19.7-.21,1.13l-.05,2.08c-.09.64-.11,1.13-.05,1.49s.34.44.85.26ZM52.12,40.75c-.11-.38.05-.85.48-1.41.43-.56,1.19-.96,2.3-1.22,1.1-.25,2.15-.4,3.16-.44.25,0,.54,0,.85.01.31,0,.52,0,.63-.01l1.72-.22,1.45-.03c.18,0,.58-.06,1.19-.19.61-.13,1.1-.17,1.46-.14.55.07.95.28,1.2.62.25.34.31.71.16,1.11-.15.38-.35.64-.6.77-.26.13-.8.2-1.63.21-.83,0-2.05.14-3.66.4-1.61.26-2.5.44-2.67.56-.16.12-.98.3-2.46.55s-2.42.32-2.82.22c-.4-.1-.66-.36-.77-.78Z"/>
  </g>
</svg>