<?xml version="1.0" encoding="UTF-8"?>
<svg xmlns="http://www.w3.org/2000/svg" version="1.1" viewBox="0 0 100 100">
  <!-- Generator: Adobe Illustrator 30.0.0, SVG Export Plug-In . SVG Version: 2.1.1 Build 123)  -->
  <defs>
    <style>
      .st0 {
        fill: #94271e;
      }

      .st1 {
        fill: #ffeaaa;
      }
    </style>
  </defs>
  <g id="_图层_2" data-name="图层_2">
    <path class="st0" d="M87.72,91.35l-.85-3.94-.05,2.3-.26.7-.39.77-.23,1.13s-4.41-.14-6.59-.08c-3.68.09-7.54-.67-10.97-.53-3.1.13-4.52,1.01-6.23.89-2.68-.2-2.22-1.71-4.6-1.55-4.54.3-3.52,1.53-7.81.68-3.51-.69-4,1.58-5.71,1.36-4.33-.56-6.69-.32-7.8.05-1.91.63-2.95-1.09-4.05-1.08-1.43.01-2.12.16-3.37.16-2,0-2.9-1.03-4.37-1.02-2.88.02-2.63.49-2.75.49-1.17.03-.72-.58-1.74-.54-1.57.06-1.76.62-2.53.62-.08,0-.91.03-.99.04l-3.15.33-.8-.35-1.38.27c-.61.12-1.25,0-1.77-.35-.29-.19-.56-.4-.81-.53-.62-.32-1.64-1.55-1.66-2.25-.03-1.47.82-6.66.82-6.66l2.92-.85-1.57-.42-.34-.98s.31-3.26.2-3.53c-2.06-5.35-2.12-6.64-1.94-9.65.13-2.15.72-4.23,1.06-5.42.99-3.47-.43-5.24-.55-5.85-.73-3.79.51-4.16.74-5.51.46-2.67-.39-4.72-.81-5.86-.45-1.22.43-3.32.27-3.56-.72-1.09.11-4.29.11-4.29.04-.6.38-1.02.78-1.4.88-.85.99-2.22.25-3.18l.48-.37c-.43-.57-.52-1.48-.52-1.48l1.28-1.12,3.55,1.32-1.25-1.93s-3.38-1.17-3.55-1.83c-.11-.43-.03-2.12.1-2.54l-.46-2.91c.08-.53.12-.9.04-1.43-.1-.76-.52-1.63-.65-2.36l-.67-4.57c-.14-.83-.03-1.49.3-2.27.74-1.74,2.12-2.64,3.71-2.44l1.41.12c.14.01.29.02.43,0,.7-.06,1.38-.24,2.02-.52.3-.13.92-.32,1.44-.44.33-.07.67-.08,1-.01l1.43.29c1.63.23,2.19,1.21,2.35.6l.26.28.15,2.58.43-.72.31-.23.3-.86.44-.17s.24-.68.25-.68c.41.07,1.97.49,1.97.49l.11,1.25.77-1.07s1.87.19,2.4.17c1.85-.04,2.7-1.51,4-1.14,7.51,2.09,8.31.63,12.67-.92,1.26-.45,1.55,1.19,2.02,1.09,4.83-.95,8.25-.56,11,.02,8.19,1.73,16.49.3,19.1-.12,2.75-.44,11.96.59,11.96.59.81,0,1.06.65,1.06.65l.56-.09.52-.08.47.23s.14,1.57.33,1.68c0,0,.41,4.46.24,7.36-.07,1.29-.79,2.86-1.66,4.04-.61.83-.1,1.88-.1,1.88l.42.68-.95.78h1.33s-1.02.87-1.02.87c0,0,2.01,1.89,2.11,4.82s-.13,4.96.15,6.08c.67,2.75-.97,5.45-.83,6.73.1.9.63,1.37.77,2.02.18.88-.61,3.89-1.49,5.65-.49.99-1.39,1.77-1.39,1.77l.44.58-1.4,1.01,2.28-.59.54,1.12s1.7,4.05,1.67,6.12c-.05,3.63-.46,4.8-.69,5.46-.69,1.93.52,2.06.49,2.97-.06,2.07-1,3.18-1.09,4.72-.07,1.12-.52,4.37-.52,4.37,0,.4.09.8.28,1.15v.83c.28.52.22.9.06,1.47-.05.18.1.71.1.71l-.13.7c-.04.23-.05.47-.03.7l.41,3.78c0,.34-1.59,2.77-1.59,2.77l-.86.34-.86-.71s-.49.39-1.31.31Z"/>
  </g>
  <g id="_图层_4" data-name="图层_4">
    <path class="st1" d="M26.45,57.73v-.46l.38-.96.05-.88.55-1.15c.04-.15.04-.44,0-.88-.04-.44-.03-.85.03-1.23l.08-.55.14-3.12s.02-.28.07-.74c.05-.46.09-1.07.14-1.85.05-.77.08-1.26.1-1.46l.05-.63-.52-5.5c-.02-.67.07-1.47.27-2.38.35-1.7.93-2.54,1.75-2.54.6.02.99.24,1.16.67.17.43.26.74.26.94-.02.16-.19.6-.52,1.31s-.31,2.64.05,5.8l.11,1.01c.07.69.12,1.05.14,1.07v1.42l.08,2.32v3.2c.02.78.15,1.24.38,1.35.24.12.56.09.96-.1.69-.27,1.15-.75,1.38-1.42.23-.67.46-1.51.71-2.5.25-.99.39-1.65.42-1.98v-1.86l.16-3.96-.05-2.11v-.82l-.11-3.25c-.02-.18-.02-.78,0-1.79.02-1.01.4-1.65,1.13-1.93s1.33-.23,1.79.14c.2.18.38.58.53,1.19.15.61.24,1.17.26,1.68v1.26c-.02.13-.11.4-.29.81-.17.41-.27.73-.3.96-.03.23-.08.96-.15,2.2-.07,1.24-.09,1.98-.05,2.21l.08.55c.07.6.04,3.03-.11,7.27-.02.4-.03,1.08-.04,2.05,0,.97-.06,1.84-.15,2.63-.09.78-.14,1.23-.14,1.34l.05,1.29c-.02.24-.07.72-.16,1.46-.09.74-.15,1.4-.18,2-.03.59-.05,1.02-.07,1.27-.02.26-.18,1.1-.49,2.53-.31,1.43-.55,2.34-.71,2.72s-.41.55-.74.49c-.33-.04-.57-.22-.74-.55l-.33-.82-.16-.25c-.15-.22-.21-.6-.19-1.15,0-.77,0-1.46.03-2.09.02-.63.22-1.66.62-3.1.39-1.44.19-2.05-.62-1.83-.09.04-.3.17-.62.41-.32.24-1.26.67-2.83,1.3-1.57.63-2.54.84-2.93.63-.38-.21-.63-.76-.74-1.65ZM38.45,56.55c.11-.11.35-.15.71-.14l.85.14c.05,0,.25-.14.6-.41l1.12-.74c.05-.05.23-.29.52-.7.29-.41.81-.92,1.54-1.52s1.22-1.02,1.44-1.26l.71-.85c.97-1,1.61-1.74,1.94-2.21.33-.47.56-.77.71-.9l.44-.38.57-.68.98-1.04.46-.77.38-.6.3-.6.6-.79.66-1.37.22-.38,1.01-2.32c.27-.46.37-.75.3-.88-.07-.13-.14-.21-.19-.23s-.37.06-.93.26c-.2.07-1.3.18-3.31.33l-1.04.19c-.05.02-.13.02-.22,0-.8,0-1.49-.11-2.05-.34-.57-.23-1-.71-1.3-1.45s-.45-1.19-.45-1.35v-.46l-.05-.52c-.02-.05,0-.15.03-.27.15-.91.36-1.44.66-1.59.29-.15.62-.26,1-.34.37-.08.62-.13.75-.15.22,0,.52.08.9.23.38.16.61.23.68.23l1.72-.3.93.03c.22,0,1.32-.22,3.31-.67,1.99-.45,3.66-.66,5.03-.64,1.02.02,2.17.2,3.45.55l2.02.6c.75.24,1.33.44,1.76.6.43.16.85.31,1.26.42.41.12.7.25.88.38.17.14.24.35.21.64l-.71,1.29-.14.6c-.07.24-.16.4-.26.48-.1.08-.29.14-.56.18l-2.73.9c-.57.15-1.28.22-2.13.22-.55.02-1.39-.01-2.54-.1s-1.81-.12-2-.12c-.46.02-.74.16-.85.41-.07.16-.09.46-.04.9.04.44.02,1.1-.07,2-.09.89-.12,1.69-.08,2.38.04,1.59.1,2.79.18,3.62.08.83.13,1.31.15,1.44l-.08,4.65c0,.09.04.56.14,1.39.09.84.14,1.75.15,2.75,0,.99-.01,1.72-.07,2.17l-.3,1.89c-.02.07-.05.33-.08.78-.04.45-.14,1.25-.31,2.41-.17,1.16-.36,2.05-.56,2.67-.2.62-.43.99-.68,1.12l-.44.16c-.46.2-.7.29-.74.27-.16,0-.33-.1-.49-.3l-.66-2.38-.27-.63c-.09-.22-.05-1.36.11-3.42,0-.09,0-.26.01-.51,0-.25.02-.46.04-.64l.52-4.84c.11-1.79.19-2.8.25-3.04l.3-1.31c.2-.91.26-1.76.19-2.54-.09-.75-.21-1.21-.36-1.38-.15-.17-.29-.26-.44-.27-.15,0-.36.18-.63.56l-1.09,1.23-.66.9-.63.82c-.09.15-.22.4-.38.77l-2.57,4.79c-.22.42-.44.78-.66,1.09l-1.83,2.76c-.35.37-.97.81-1.86,1.33-.89.52-1.89.52-2.98.01-.35-.15-.62-.35-.82-.6l-.88-1.26c-.36-.33-.56-.52-.59-.57s-.06-.28-.1-.68l-.08-.74s-.02-.21-.01-.59c0-.37.08-.62.21-.75ZM40.31,49.44l.3-1.59c.2-1.18.33-2.4.38-3.64.02-.82.01-1.51-.01-2.06-.03-.56-.03-.89-.01-1l.14-1.91c.02-1.04.05-1.6.08-1.7l.68-2.57c-.04-.36-.05-.58-.03-.66.05-.25.22-.44.49-.56.27-.12.56-.14.85-.07.04.02.18.13.42.34.25.21.4.35.45.42.05.07.08.25.08.52l-.03.38.08,1.48v.14l-.05,1.2c0,.18.11.84.34,1.98.23,1.14.24,2.35.04,3.62l-.6,3.25s-.02.13-.01.33c0,.2,0,.33-.01.38-.05.2-.17.41-.36.63l-2.08,1.5c-.22.27-.46.41-.72.4-.26,0-.41-.29-.42-.83ZM61.45,45.72c.27.15.66.51,1.16,1.09.5.58.76.88.78.88l.57.46.55.55.27.19c.13.11.49.58,1.09,1.42l5.74,4.27c1.79,1.62,2.89,2.41,3.32,2.35.43-.05.69-.06.78-.01.09.05.16.17.21.38.04.21-.4.76-1.33,1.65l-.79.96-.9.71-1.07.9-1.01.41-.9.49-.96.25-.63.22c-.33.11-.64.16-.93.14-1.24-.02-2.12-.41-2.62-1.19-.51-.77-1.12-2.11-1.82-4.01-.7-1.9-1.07-2.93-1.11-3.09-.04-.16-.09-.48-.15-.96-.06-.47-.1-.73-.1-.77l-.38-1.5c-.04-.07-.12-.49-.25-1.26-.13-.77-.31-1.35-.56-1.76s-.38-.66-.41-.74-.05-.21-.05-.38c0-.17.03-.37.12-.59.05-.18.21-.44.48-.78.26-.34.56-.43.89-.29Z"/>
  </g>
</svg>