<?xml version="1.0" encoding="UTF-8"?>
<svg xmlns="http://www.w3.org/2000/svg" version="1.1" viewBox="0 0 100 100">
  <!-- Generator: Adobe Illustrator 30.0.0, SVG Export Plug-In . SVG Version: 2.1.1 Build 123)  -->
  <defs>
    <style>
      .st0 {
        fill: #94271e;
      }

      .st1 {
        fill: #ffeaaa;
      }
    </style>
  </defs>
  <g id="_图层_2" data-name="图层_2">
    <path class="st0" d="M87.72,91.35l-.85-3.94-.05,2.3-.26.7-.39.77-.23,1.13s-4.41-.14-6.59-.08c-3.68.09-7.54-.67-10.97-.53-3.1.13-4.52,1.01-6.23.89-2.68-.2-2.22-1.71-4.6-1.55-4.54.3-3.52,1.53-7.81.68-3.51-.69-4,1.58-5.71,1.36-4.33-.56-6.69-.32-7.8.05-1.91.63-2.95-1.09-4.05-1.08-1.43.01-2.12.16-3.37.16-2,0-2.9-1.03-4.37-1.02-2.88.02-2.63.49-2.75.49-1.17.03-.72-.58-1.74-.54-1.57.06-1.76.62-2.53.62-.08,0-.91.03-.99.04l-3.15.33-.8-.35-1.38.27c-.61.12-1.25,0-1.77-.35-.29-.19-.56-.4-.81-.53-.62-.32-1.64-1.55-1.66-2.25-.03-1.47.82-6.66.82-6.66l2.92-.85-1.57-.42-.34-.98s.31-3.26.2-3.53c-2.06-5.35-2.12-6.64-1.94-9.65.13-2.15.72-4.23,1.06-5.42.99-3.47-.43-5.24-.55-5.85-.73-3.79.51-4.16.74-5.51.46-2.67-.39-4.72-.81-5.86-.45-1.22.43-3.32.27-3.56-.72-1.09.11-4.29.11-4.29.04-.6.38-1.02.78-1.4.88-.85.99-2.22.25-3.18l.48-.37c-.43-.57-.52-1.48-.52-1.48l1.28-1.12,3.55,1.32-1.25-1.93s-3.38-1.17-3.55-1.83c-.11-.43-.03-2.12.1-2.54l-.46-2.91c.08-.53.12-.9.04-1.43-.1-.76-.52-1.63-.65-2.36l-.67-4.57c-.14-.83-.03-1.49.3-2.27.74-1.74,2.12-2.64,3.71-2.44l1.41.12c.14.01.29.02.43,0,.7-.06,1.38-.24,2.02-.52.3-.13.92-.32,1.44-.44.33-.07.67-.08,1-.01l1.43.29c1.63.23,2.19,1.21,2.35.6l.26.28.15,2.58.43-.72.31-.23.3-.86.44-.17s.24-.68.25-.68c.41.07,1.97.49,1.97.49l.11,1.25.77-1.07s1.87.19,2.4.17c1.85-.04,2.7-1.51,4-1.14,7.51,2.09,8.31.63,12.67-.92,1.26-.45,1.55,1.19,2.02,1.09,4.83-.95,8.25-.56,11,.02,8.19,1.73,16.49.3,19.1-.12,2.75-.44,11.96.59,11.96.59.81,0,1.06.65,1.06.65l.56-.09.52-.08.47.23s.14,1.57.33,1.68c0,0,.41,4.46.24,7.36-.07,1.29-.79,2.86-1.66,4.04-.61.83-.1,1.88-.1,1.88l.42.68-.95.78h1.33s-1.02.87-1.02.87c0,0,2.01,1.89,2.11,4.82s-.13,4.96.15,6.08c.67,2.75-.97,5.45-.83,6.73.1.9.63,1.37.77,2.02.18.88-.61,3.89-1.49,5.65-.49.99-1.39,1.77-1.39,1.77l.44.58-1.4,1.01,2.28-.59.54,1.12s1.7,4.05,1.67,6.12c-.05,3.63-.46,4.8-.69,5.46-.69,1.93.52,2.06.49,2.97-.06,2.07-1,3.18-1.09,4.72-.07,1.12-.52,4.37-.52,4.37,0,.4.09.8.28,1.15v.83c.28.52.22.9.06,1.47-.05.18.1.71.1.71l-.13.7c-.04.23-.05.47-.03.7l.41,3.78c0,.34-1.59,2.77-1.59,2.77l-.86.34-.86-.71s-.49.39-1.31.31Z"/>
  </g>
  <g id="_图层_4" data-name="图层_4">
    <path class="st1" d="M28.32,47.44c.25-.29.54-.45.89-.46.15,0,1.21,0,3.19.03,1.98.02,4.7-.3,8.18-.94,3.47-.65,5.41-.99,5.81-1.03.4-.04.96-.07,1.67-.11l1.59-.03c2.68-.35,4.89-.5,6.64-.46l3.75.11,5.5.05,3.28.14c.88.04,1.55.01,2.02-.07s.78-.12.9-.12c.11.02.36.07.75.16.39.09.62.2.68.31.06.12.12.42.16.92s-.14,1.22-.56,2.19c-.49,1.15-.97,1.94-1.45,2.38s-1.16,1.01-2.05,1.72c-.89.71-1.52,1.03-1.89.96-.05,0-.16-.03-.31-.08s-.3-.15-.42-.29.05-.61.55-1.41c.35-.56.55-1.01.62-1.34s.11-.68.12-1.05c.02-.37-.04-.66-.19-.86-.27-.31-1.05-.51-2.34-.62-1.29-.1-2.17-.16-2.67-.18s-2.14-.03-4.95-.03c-3.72.02-6.34.07-7.86.15s-3.3.26-5.35.53l-9.6,1.83c-.86.15-1.4.31-1.63.48-.23.17-.45.39-.66.66-.21.26-.39.52-.53.78l-.77,1.37c-.47.71-.85,1.12-1.13,1.23-.28.11-.61.16-.97.16-.35.02-.58,0-.7-.05-.12-.05-.38-.41-.78-1.08-.4-.67-.47-1.53-.21-2.6.26-1.07.4-1.65.4-1.76l-.03-.27c-.02-.58.1-1.02.34-1.31ZM47.42,55.4l-.49-.44c-.24-.22-.4-.33-.49-.34-.09,0-.33.24-.71.75-.16.22-.62.52-1.38.9-.76.38-1.49.79-2.2,1.22-.71.43-1.82,1.03-3.34,1.79-1.51.77-3.04,1.11-4.59,1.04-.58-.02-.98-.15-1.18-.41-.2-.25-.33-.73-.4-1.42-.06-.69-.09-1.09-.07-1.2.02-.25.1-.46.25-.63.15-.16.58-.22,1.31-.18.73.05,1.43-.01,2.11-.18l2.3-.57c1.26-.25,2.15-.49,2.68-.71l2.62-1.12c.82-.31,1.15-.57,1-.79-.16-.22-.56-.17-1.22.14l-4.07.44c-.95.13-1.56.14-1.83.04-.27-.1-.5-.3-.67-.59-.17-.29-.21-.67-.1-1.15.15-.75.47-1.26.98-1.53.51-.27,2.29-.56,5.33-.86,3.04-.3,4.99-.44,5.82-.42l1.67.08c.2.02,1.51-.04,3.92-.19,2.42-.15,3.79-.22,4.12-.22.6.04,1.2.23,1.79.57.59.35.96.68,1.09,1.01s.21.54.21.63c-.02.09-.08.3-.19.63-.11.33-.38.55-.82.66s-.81.13-1.12.05l-1.48-.36c-.16,0-1.1,0-2.82.03l-3.91.11c-1.11-.09-1.68-.03-1.71.18-.03.21.09.47.34.78.13.2.41.46.85.77l.68.52,1.04.71c.15.13.35.33.6.62.26.28.52.42.79.42.07.02.18,0,.33-.04.15-.04.52-.21,1.13-.49.61-.28,1.23-.73,1.87-1.35.64-.62.97-.94,1.01-.96l.9-.38c.15-.13.26-.19.33-.19.37.02.83.37,1.41,1.05s.69,1.31.34,1.87c-.07.11-.24.27-.49.49s-.45.36-.57.41l-.6.25-.41.22c-.13.07-.27.12-.44.14l-1.18.16c-.22.07-.4.16-.53.25-.14.09-.35.31-.64.66-.29.35.84,1.03,3.39,2.05.88.37,1.59.71,2.13,1.03.55.32.96.5,1.23.53l.88.16c.05.04.46.28,1.23.72.77.45,2.29.63,4.57.56l1.42-.05h.25c.64.02.92.25.85.68-.02.07-.08.18-.19.33l-.52.93c-.13.2-.61.78-1.45,1.75l-.6.71c-1.15,1.29-2.26,1.94-3.34,1.94l-1.31-.14c-.58-.04-.94-.07-1.08-.1s-.38-.15-.72-.37l-7.98-6.73c-.24-.13-.38-.18-.44-.16-.05.04-.1.15-.12.33-.03.18-.1.41-.21.68s-.29.9-.55,1.87c-.26.98-1.12,2.22-2.61,3.75-1.49,1.52-2.61,1.85-3.38,1-.09-.09-.22-.31-.38-.66-.16-.35-.24-.64-.22-.88,0-.71.49-1.52,1.46-2.43.97-.91,1.61-1.6,1.91-2.08.3-.47.45-1.26.45-2.35-.02-.49-.11-.81-.29-.94s-.36-.13-.56.01c-.05.04-.11.1-.16.19l-1.23,1.97c-.44.62-.92,1.15-1.46,1.59-.54.44-.83.68-.89.74l-1.34,1.53c-.09.07-.36.23-.81.48-.45.25-.91.58-1.38,1-.47.42-.92.77-1.33,1.04s-1.09.39-2.04.36c-1.35-.04-2.25-.33-2.71-.88-.46-.55-.66-.89-.6-1.04.04-.13.68-.42,1.94-.88s2.52-1.13,3.8-2.02l2.24-1.8,1.45-1.07c.11-.07.71-.62,1.8-1.63,1.09-1.01,1.64-1.69,1.64-2.04-.02-.13-.11-.38-.27-.75-.16-.37-.39-.45-.68-.23-.05.04-.13.13-.23.29-.1.16-.39.43-.86.83l-2.41,2.32c-.26.2-1.11.78-2.57,1.72l-4.16,2.73c-1.35.73-2.52,1.22-3.5,1.48s-1.63.33-1.94.22c-.04,0-.31-.15-.82-.44l-1.01-.52c-.44-.29-.68-.7-.72-1.23-.05-.53.11-.88.48-1.07l.63-.16s.1-.06.19-.12c.09-.06.76-.27,2-.63,1.24-.36,2.3-.72,3.19-1.09.88-.37,1.98-.8,3.29-1.27,1.31-.47,2.1-.77,2.35-.9.25-.13.97-.56,2.15-1.3s1.98-1.26,2.42-1.57c.44-.31.62-.59.55-.85ZM30.96,34.7c.24-.71.62-1.21,1.16-1.49.54-.28,1.14-.46,1.82-.52.67-.06,1.16-.12,1.45-.18l.98-.16,1.78-.05,1.75-.25,2.24-.19c1.33-.11,2.51-.32,3.54-.63,1.03-.31,1.66-.58,1.9-.82l.63-.79c.18-.18.51-.37.98-.56s.86-.29,1.15-.29c.24.02.54.1.92.25.37.15.85.44,1.44.89.58.45,1,.72,1.24.81.25.09,1.12.12,2.61.08l2.57.19,2.41.05,2.9.44,3.42.3c1.95.42,2.86,1.08,2.73,2-.02.11-.1.34-.25.7s-.56.62-1.26.78-1.54.17-2.56.03c-1.01-.15-1.63-.18-1.85-.11l-2.71-.27c-.4-.02-.84-.07-1.33-.16-.48-.09-1.4-.12-2.75-.08l-6.04-.16c-1.8,0-3.85.14-6.15.42-2.3.28-4.23.62-5.8,1.03l-3.12.6c-2.06.47-3.34.73-3.83.77-.49.04-.95-.15-1.37-.55-.47-.42-.7-.86-.68-1.31.02-.46.04-.7.05-.74ZM55.35,36.39c2.12.26,3.52.35,4.22.29.7-.06,1.17-.08,1.41-.04l1.23.38c1.19.29,1.71.61,1.56.96-.02.05-.16.13-.44.23-.27.1-.66.48-1.15,1.13l-.68.79c-.29.38-.64.99-1.04,1.82-.4.83-.64,1.29-.71,1.38-.02.02-.65,0-1.89-.05s-2.01-.07-2.32-.05l-5.96.14c-.09.02-.7.11-1.83.29-1.13.17-2.41.28-3.84.33-1.43.05-2.46.26-3.09.64s-1.01.57-1.13.55c-.24-.02-.61-.51-1.11-1.48-.5-.97-.76-1.49-.78-1.59l-.6-1.91c-.18-.51-.26-.87-.25-1.07.04-.46.18-.73.44-.82.25-.09.53-.15.83-.19.3-.04.92-.19,1.85-.46s1.43-.42,1.5-.44l2.82-.11,1.53-.41c.55-.13,1.85-.25,3.9-.38,2.05-.13,3.9-.1,5.54.08ZM43.13,41.42l1.5-.38c.2-.04,1.2-.15,3.01-.34,1.8-.19,2.96-.3,3.47-.31l3.28.11c2.1-.07,3.19-.16,3.28-.27s.13-.26.11-.46c-.11-.84-.93-1.28-2.46-1.31-.71,0-2.38.13-5.02.4-2.63.26-4.48.5-5.52.71-1.05.21-1.66.37-1.85.48-.18.11-.3.19-.36.25s-.04.27.04.64c.08.37.25.54.51.51Z"/>
  </g>
</svg>