<?xml version="1.0" encoding="UTF-8"?>
<svg xmlns="http://www.w3.org/2000/svg" version="1.1" viewBox="0 0 100 100">
  <!-- Generator: Adobe Illustrator 30.0.0, SVG Export Plug-In . SVG Version: 2.1.1 Build 123)  -->
  <defs>
    <style>
      .st0 {
        fill: #94271e;
      }

      .st1 {
        fill: #ffeaaa;
      }
    </style>
  </defs>
  <g id="_图层_2" data-name="图层_2">
    <path class="st0" d="M87.72,91.35l-.85-3.94-.05,2.3-.26.7-.39.77-.23,1.13s-4.41-.14-6.59-.08c-3.68.09-7.54-.67-10.97-.53-3.1.13-4.52,1.01-6.23.89-2.68-.2-2.22-1.71-4.6-1.55-4.54.3-3.52,1.53-7.81.68-3.51-.69-4,1.58-5.71,1.36-4.33-.56-6.69-.32-7.8.05-1.91.63-2.95-1.09-4.05-1.08-1.43.01-2.12.16-3.37.16-2,0-2.9-1.03-4.37-1.02-2.88.02-2.63.49-2.75.49-1.17.03-.72-.58-1.74-.54-1.57.06-1.76.62-2.53.62-.08,0-.91.03-.99.04l-3.15.33-.8-.35-1.38.27c-.61.12-1.25,0-1.77-.35-.29-.19-.56-.4-.81-.53-.62-.32-1.64-1.55-1.66-2.25-.03-1.47.82-6.66.82-6.66l2.92-.85-1.57-.42-.34-.98s.31-3.26.2-3.53c-2.06-5.35-2.12-6.64-1.94-9.65.13-2.15.72-4.23,1.06-5.42.99-3.47-.43-5.24-.55-5.85-.73-3.79.51-4.16.74-5.51.46-2.67-.39-4.72-.81-5.86-.45-1.22.43-3.32.27-3.56-.72-1.09.11-4.29.11-4.29.04-.6.38-1.02.78-1.4.88-.85.99-2.22.25-3.18l.48-.37c-.43-.57-.52-1.48-.52-1.48l1.28-1.12,3.55,1.32-1.25-1.93s-3.38-1.17-3.55-1.83c-.11-.43-.03-2.12.1-2.54l-.46-2.91c.08-.53.12-.9.04-1.43-.1-.76-.52-1.63-.65-2.36l-.67-4.57c-.14-.83-.03-1.49.3-2.27.74-1.74,2.12-2.64,3.71-2.44l1.41.12c.14.01.29.02.43,0,.7-.06,1.38-.24,2.02-.52.3-.13.92-.32,1.44-.44.33-.07.67-.08,1-.01l1.43.29c1.63.23,2.19,1.21,2.35.6l.26.28.15,2.58.43-.72.31-.23.3-.86.44-.17s.24-.68.25-.68c.41.07,1.97.49,1.97.49l.11,1.25.77-1.07s1.87.19,2.4.17c1.85-.04,2.7-1.51,4-1.14,7.51,2.09,8.31.63,12.67-.92,1.26-.45,1.55,1.19,2.02,1.09,4.83-.95,8.25-.56,11,.02,8.19,1.73,16.49.3,19.1-.12,2.75-.44,11.96.59,11.96.59.81,0,1.06.65,1.06.65l.56-.09.52-.08.47.23s.14,1.57.33,1.68c0,0,.41,4.46.24,7.36-.07,1.29-.79,2.86-1.66,4.04-.61.83-.1,1.88-.1,1.88l.42.68-.95.78h1.33s-1.02.87-1.02.87c0,0,2.01,1.89,2.11,4.82s-.13,4.96.15,6.08c.67,2.75-.97,5.45-.83,6.73.1.9.63,1.37.77,2.02.18.88-.61,3.89-1.49,5.65-.49.99-1.39,1.77-1.39,1.77l.44.58-1.4,1.01,2.28-.59.54,1.12s1.7,4.05,1.67,6.12c-.05,3.63-.46,4.8-.69,5.46-.69,1.93.52,2.06.49,2.97-.06,2.07-1,3.18-1.09,4.72-.07,1.12-.52,4.37-.52,4.37,0,.4.09.8.28,1.15v.83c.28.52.22.9.06,1.47-.05.18.1.71.1.71l-.13.7c-.04.23-.05.47-.03.7l.41,3.78c0,.34-1.59,2.77-1.59,2.77l-.86.34-.86-.71s-.49.39-1.31.31Z"/>
  </g>
  <g id="_图层_4" data-name="图层_4">
    <path class="st1" d="M26.64,33.66l.44-.6c.29-.4.76-.61,1.39-.63l1.8.11c.78.02,1.48-.08,2.08-.29.6-.21.99-.34,1.18-.38.18-.05.57-.06,1.18-.05.6,0,1.02,0,1.26-.04.24-.04.38-.06.44-.08.09,0,.55.09,1.38.26.83.17,1.6.23,2.31.18l2.41-.19c.69.05,1.23.27,1.63.66.39.38.67.84.82,1.37.15.53.23.92.23,1.18-.02.2-.07.39-.16.57-.09.18-.23.38-.41.6-.18.22-.29.35-.33.38l-.38.55-.36.36-.44.68-2.43,1.72-.49.77c-.07.09-.23.28-.48.56-.25.28-.47.6-.68.94-.21.35-.26.67-.15.98.02.11.19.39.52.83.33.45.53.7.6.75l1.07.79.71.57c.07.07.17.15.3.22.13.07.21.13.26.18.05.05.13.15.25.3.12.16.26.31.42.46.16.16.27.28.33.38.05.1.07.32.05.67-.04.24-.07.44-.11.6-.04.16-.23.54-.57,1.13-.35.59-.7.99-1.07,1.19l-.66.3-.96.55c-.75.44-1.17.69-1.26.75-.09.06-.46.42-1.11,1.05-.65.64-1.6,1.38-2.87,2.23-1.27.85-2.09,1.51-2.47,2-.38.48-.64,1.15-.77,2-.13.85-.18,1.96-.16,3.35.02,1.39.03,2.48.03,3.28-.02.38-.12.68-.3.9-.02.04.01.28.1.74.08.46-.45.68-1.6.68-.58.02-.99-.18-1.23-.59-.24-.41-.37-.99-.41-1.74l-.19-2.21.03-5.25-.03-1.45.3-5.71c-.09-1.33-.13-2.04-.11-2.13l.05-.79-.19-1.53-.05-1.31-.11-1.12s-.02-.27,0-.82l-.44-5.47c.02-.42.03-.67.03-.77-.02-.15-.13-.74-.33-1.79-.2-1.05-.31-1.74-.31-2.08,0-.34,0-.59.04-.75ZM31.34,42.96c.11.13.36.2.77.21.4,0,.84-.2,1.31-.62l.82-.74c.13-.09.34-.21.63-.36.29-.15.49-.28.6-.41l.27-.44.44-.57c.18-.25.31-.67.4-1.24s0-.93-.26-1.07c-.26-.14-.56-.21-.9-.23-.89,0-1.57.05-2.04.15-.46.1-.93.29-1.38.57-.46.28-.8.61-1.04.97-.24.36-.26,1.06-.07,2.09.19,1.03.34,1.59.45,1.68ZM36.84,48.8c-.16-.26-.49-.56-.97-.88-.48-.32-.76-.5-.83-.53-.26-.07-.59-.04-1.01.11l-1.42.6c-.38.16-.64.31-.77.44-.13.13-.21.32-.25.57l.11,1.61c-.04.55-.03.89.03,1.04.05.15.18.27.38.37.2.1.67-.06,1.39-.48l1.94-.98c.07-.04.15-.09.22-.16l.63-.57.74-.55c.04-.13-.03-.32-.19-.59ZM39.93,66.04c.2-1.08.36-1.76.48-2.05.12-.29.42-.65.92-1.07.49-.42.8-.64.93-.66.69.18,1.29.2,1.78.05l1.75-.55c.38-.11,1.09-.23,2.13-.36,1.04-.13,1.75-.26,2.12-.41.37-.15.65-.24.82-.29.17-.04.57-.11,1.19-.19s1.34-.21,2.16-.38c.82-.17,1.56-.21,2.21-.11.66.1,1.06.11,1.2.01l.66-.79.71-.57c.22-.2.49-.7.81-1.49.32-.79.66-1.49,1.04-2.11.37-.61.61-1.03.7-1.27l.36-1.31.36-.79c.05-.15.09-.31.11-.49l.03-.38c.02-.22.13-.58.34-1.08.21-.5.59-.84,1.15-1.01.55-.17,1.03-.15,1.44.07.11.07.26.22.46.44.2.22.33.46.38.71.05.26.09.46.1.63,0,.16-.02.42-.1.77-.13.53-.24.91-.33,1.15-.09.24-.35.72-.77,1.45-.42.73-.68,1.2-.78,1.42-.1.22-.23.68-.4,1.38-.16.7-.36,1.26-.57,1.68-.22.42-.35.91-.38,1.46-.04.56.34.75,1.12.59.05,0,.73.09,2.04.27,1.3.18,2.3.42,2.99.71l.88.44.96.27c.51.16.96.44,1.37.82.4.38.59.85.57,1.39-.04.57-.33,1.09-.88,1.59s-1.18.75-1.89.77l-1.78-.08-1.18.03-2.76-.74c-.91-.18-1.5-.27-1.78-.27l-1.34.14c-.24.02-.85-.07-1.85-.27-.99-.2-1.86-.28-2.58-.25l-.44.03h-1.97c-.09.02-1.27.23-3.53.63l-1.72.27c-.8.15-1.44.3-1.9.45s-.74.24-.83.26l-1.29.27-1.83,1.09-.44-.03-.85.19c-.36.04-.79-.16-1.29-.6-.22-.16-.42-.37-.59-.6-.17-.24-.27-.44-.29-.62-.02-.17,0-.38.05-.62ZM43.4,41.74c.33-.15,1.01-.6,2.05-1.33l1.94-1.45.88-.52c.49-.31,1-.74,1.53-1.29l1.56-1.7c.24-.24.39-.4.46-.49l1.01-1.67.44-.55.74-1.07c1.02-1.24,2.19-1.39,3.5-.46.13.11.27.24.42.4.15.16.35.43.57.83.23.4.38.64.45.71.07.07.37.29.9.66l1.53,1.64c.11.11.39.26.83.46.45.2.78.39,1,.57.22.18.37.3.46.36l.98.6c.77.57,1.35.91,1.75,1.04l.77.19.93.36,1.37.19,1.8.57,1.61.19c.78.13,1.69.28,2.71.46,1.02.18,1.64.4,1.86.66.22.26-.12.83-1.01,1.72-.22.22-.35.35-.38.38-.04.04-.29.4-.75,1.08s-1.09,1.37-1.87,2.06c-.79.69-1.61,1.03-2.49,1.01-.26,0-.63-.09-1.12-.27l-2.11-.63c-.91-.36-1.69-.96-2.32-1.78-.64-.82-1.04-1.18-1.2-1.07-.15.09-.27.3-.36.63l-.25,1.09c-.33.73-.88,1.13-1.65,1.2-.78.07-1.76.09-2.97.05l-3.09.22-1.5.03c-.82.04-1.68.16-2.57.37-.89.21-1.51.31-1.86.29-.42,0-.98-.11-1.67-.33-.69-.22-1.13-.41-1.3-.57-.17-.16-.26-.41-.26-.74v-.82c-.2-.29-.61-.25-1.23.14l-.41.3c-.31.18-.82.32-1.53.42-.71.1-1.27-.25-1.67-1.05-.13-.22-.19-.49-.19-.82v-.41l-.03-.46c-.02-.18.04-.47.16-.88.13-.4.34-.59.63-.57l.41.22s.19-.05.52-.21ZM44.06,51.52c.13-.2.35-.46.66-.77l.52-.55c.31-.24.75-.36,1.31-.36,1.28.04,2.1.59,2.47,1.65.37,1.07.62,1.86.74,2.38.12.52.02,1.19-.29,2.01l-.9,1.8c-.6,1.26-1.29,1.31-2.05.16-.2-.27-.36-.56-.48-.86-.12-.3-.2-.51-.23-.64l-.36-1.2c-.16-.47-.35-.93-.55-1.37l-.88-1.45c-.11-.35-.1-.62.03-.82ZM51.22,41.7c.07.31.31.46.71.44.09,0,.39-.06.89-.18.5-.12,1.2-.23,2.09-.33.89-.1,1.86-.12,2.91-.05,1.05.06,1.82.07,2.31.01s1.03.05,1.61.31c.58.26.62-.06.11-.97-.05-.05-.18-.15-.37-.29s-.45-.44-.77-.92c-.32-.47-.63-.85-.93-1.12s-.75-.57-1.35-.9-1.03-.62-1.29-.88c-.26-.25-.46-.43-.6-.53-.15-.1-.38-.1-.68.01-.57.2-1.43.94-2.58,2.23-1.16,1.29-1.81,2.09-1.94,2.42s-.18.57-.12.74ZM55.51,57.7c-.57.18-1.03.04-1.39-.44-.37-.47-.61-.84-.72-1.11-.12-.26-.2-.48-.23-.64l-.49-1.53c-.05-.09-.18-.28-.38-.56-.2-.28-.33-.5-.38-.64-.05-.15-.11-.5-.16-1.07-.05-.56-.04-.93.05-1.09.05-.11.3-.3.73-.59.43-.28.89-.41,1.38-.4.47.04,1.02.25,1.63.64.61.39,1.01.74,1.19,1.05l.41,1.12c.18.55.28.86.29.93,0,.07,0,.26-.04.55l-.11.93c-.05.16-.13.31-.22.44l-.82.93-.52,1.2c-.11.18-.17.27-.19.27Z"/>
  </g>
</svg>