<?xml version="1.0" encoding="UTF-8"?>
<svg xmlns="http://www.w3.org/2000/svg" version="1.1" viewBox="0 0 100 100">
  <!-- Generator: Adobe Illustrator 30.0.0, SVG Export Plug-In . SVG Version: 2.1.1 Build 123)  -->
  <defs>
    <style>
      .st0 {
        fill: #94271e;
      }

      .st1 {
        fill: #ffeaaa;
      }
    </style>
  </defs>
  <g id="_图层_2" data-name="图层_2">
    <path class="st0" d="M87.72,91.35l-.85-3.94-.05,2.3-.26.7-.39.77-.23,1.13s-4.41-.14-6.59-.08c-3.68.09-7.54-.67-10.97-.53-3.1.13-4.52,1.01-6.23.89-2.68-.2-2.22-1.71-4.6-1.55-4.54.3-3.52,1.53-7.81.68-3.51-.69-4,1.58-5.71,1.36-4.33-.56-6.69-.32-7.8.05-1.91.63-2.95-1.09-4.05-1.08-1.43.01-2.12.16-3.37.16-2,0-2.9-1.03-4.37-1.02-2.88.02-2.63.49-2.75.49-1.17.03-.72-.58-1.74-.54-1.57.06-1.76.62-2.53.62-.08,0-.91.03-.99.04l-3.15.33-.8-.35-1.38.27c-.61.12-1.25,0-1.77-.35-.29-.19-.56-.4-.81-.53-.62-.32-1.64-1.55-1.66-2.25-.03-1.47.82-6.66.82-6.66l2.92-.85-1.57-.42-.34-.98s.31-3.26.2-3.53c-2.06-5.35-2.12-6.64-1.94-9.65.13-2.15.72-4.23,1.06-5.42.99-3.47-.43-5.24-.55-5.85-.73-3.79.51-4.16.74-5.51.46-2.67-.39-4.72-.81-5.86-.45-1.22.43-3.32.27-3.56-.72-1.09.11-4.29.11-4.29.04-.6.38-1.02.78-1.4.88-.85.99-2.22.25-3.18l.48-.37c-.43-.57-.52-1.48-.52-1.48l1.28-1.12,3.55,1.32-1.25-1.93s-3.38-1.17-3.55-1.83c-.11-.43-.03-2.12.1-2.54l-.46-2.91c.08-.53.12-.9.04-1.43-.1-.76-.52-1.63-.65-2.36l-.67-4.57c-.14-.83-.03-1.49.3-2.27.74-1.74,2.12-2.64,3.71-2.44l1.41.12c.14.01.29.02.43,0,.7-.06,1.38-.24,2.02-.52.3-.13.92-.32,1.44-.44.33-.07.67-.08,1-.01l1.43.29c1.63.23,2.19,1.21,2.35.6l.26.28.15,2.58.43-.72.31-.23.3-.86.44-.17s.24-.68.25-.68c.41.07,1.97.49,1.97.49l.11,1.25.77-1.07s1.87.19,2.4.17c1.85-.04,2.7-1.51,4-1.14,7.51,2.09,8.31.63,12.67-.92,1.26-.45,1.55,1.19,2.02,1.09,4.83-.95,8.25-.56,11,.02,8.19,1.73,16.49.3,19.1-.12,2.75-.44,11.96.59,11.96.59.81,0,1.06.65,1.06.65l.56-.09.52-.08.47.23s.14,1.57.33,1.68c0,0,.41,4.46.24,7.36-.07,1.29-.79,2.86-1.66,4.04-.61.83-.1,1.88-.1,1.88l.42.68-.95.78h1.33s-1.02.87-1.02.87c0,0,2.01,1.89,2.11,4.82s-.13,4.96.15,6.08c.67,2.75-.97,5.45-.83,6.73.1.9.63,1.37.77,2.02.18.88-.61,3.89-1.49,5.65-.49.99-1.39,1.77-1.39,1.77l.44.58-1.4,1.01,2.28-.59.54,1.12s1.7,4.05,1.67,6.12c-.05,3.63-.46,4.8-.69,5.46-.69,1.93.52,2.06.49,2.97-.06,2.07-1,3.18-1.09,4.72-.07,1.12-.52,4.37-.52,4.37,0,.4.09.8.28,1.15v.83c.28.52.22.9.06,1.47-.05.18.1.71.1.71l-.13.7c-.04.23-.05.47-.03.7l.41,3.78c0,.34-1.59,2.77-1.59,2.77l-.86.34-.86-.71s-.49.39-1.31.31Z"/>
  </g>
  <g id="_图层_4" data-name="图层_4">
    <path class="st1" d="M27.76,54.19c.07-.38.24-.74.49-1.08.25-.34.49-.59.71-.75l1.31-.6,2.08-2c.07-.05.15-.12.25-.19.09-.07.36-.18.81-.31.45-.14.88-.31,1.31-.52.43-.21.65-.32.67-.34l.88-.16,1.61-.88c.29-.13.69-.2,1.2-.22.25,0,.53.05.83.16s.47.21.51.29c.04.08,0,.28-.11.59l-.38,1.39-.33.6c-.02.05-.08.26-.18.62-.1.36-.55,1.12-1.35,2.3-.8,1.18-1.41,1.87-1.83,2.09l-1.07.49-1.2,1.07c-.13.11-.23.18-.3.22-.07.04-.52.26-1.33.68-.81.42-1.26.67-1.35.74l-.71.57c-.62.38-1.08.51-1.39.38-.15-.04-.34-.2-.57-.48-.24-.28-.42-.61-.56-.97-.14-.36-.22-.82-.25-1.38-.03-.56.06-1.33.26-2.31ZM27.57,36.61c.2-1.37.56-2.18,1.08-2.43.52-.25.92-.39,1.22-.41l3.25.03c1.15,0,1.93.07,2.35.22l.9.41,2.46.33,1.12.6,1.09.27c.88.4,1.23,1.04,1.07,1.91-.05.27-.31.65-.77,1.12-.46.47-.76.73-.9.77l-.49.08-1.86,1.12c-.31.18-.77.33-1.38.44-.61.11-1.82.21-3.64.3-1.81.09-2.83.03-3.05-.19l-.25-.25c-.05-.04-.34-.21-.86-.53-.52-.32-.82-.55-.89-.68-.07-.14-.14-.43-.19-.89l-.22-.96c-.09-.47-.11-.89-.05-1.26ZM52.18,57.53c.09-.09.21-.3.36-.63s-.3-.66-1.34-.98c-.42-.11-.92-.07-1.5.11l-5.47,2.6c-.75.31-1.39.45-1.91.41-.55-.02-.94-.13-1.18-.33-.24-.2-.47-.81-.7-1.83-.23-1.02-.31-1.64-.23-1.86.11-.38.28-.64.52-.77.24-.13.86-.23,1.87-.3,1.01-.07,2.27-.66,3.77-1.75,1.5-1.09,2.76-1.82,3.77-2.19,1.01-.36,1.64-.66,1.9-.88l.77-.71.52-.38,1.15-.9c.71-.49,1.34-.65,1.89-.46.04.02.41.34,1.12.96l.74.55c1.09.84,1.69,1.27,1.78,1.29l.63.19.57.27.44.11c1.11.35,1.58,1.04,1.39,2.08l-1.86,1.91c-.33.37-1,.88-2.01,1.53s-1.4,1.28-1.16,1.86c.05.2.48.56,1.29,1.07l2.93,2.05.57.22,2.13,1.04c.49.11.76.18.81.22.04.04.11.09.18.15.07.06,1.81.52,5.22,1.38l1.91.6c1.06.27,1.63.53,1.72.77.09.24-.04.68-.41,1.34-1.02,1.8-2.06,2.94-3.13,3.42-1.07.47-1.68.76-1.83.85-.15.09-.29.16-.4.22s-.42.06-.93.03c-1.33-.07-2.16-.21-2.47-.4s-.66-.44-1.03-.75l-1.67-1.37c-.35-.29-1.35-1.52-3.02-3.69s-2.73-3.43-3.19-3.79-.82-.52-1.09-.51c-.13.02-.49.18-1.08.48s-1.5.98-2.72,2.04l-2.62,2.16c-.8.77-1.27,1.19-1.41,1.29-.14.09-.99.54-2.57,1.34-1.58.8-2.63,1.27-3.16,1.41-.53.14-1.31.2-2.35.18-.95,0-1.83-.13-2.64-.4-.81-.26-1.44-.98-1.89-2.16-.45-1.18-.36-2.09.26-2.75.29-.31.89-.55,1.8-.71l5.8-.82c.66-.18,2-.69,4.02-1.52,2.02-.83,3.74-1.92,5.14-3.27ZM52.31,43.69c.22.05.4.22.55.49s.21.47.19.6l-.74.85-.25.46c-.15.2-.22.31-.22.33v.22c-.02.05-.11.12-.26.19-.15.07-.36.27-.62.6s-.57.64-.96.93l-1.89,1.2c-.09.07-.62.52-1.57,1.34s-1.81,1.18-2.56,1.07c-.95-.11-1.52-.61-1.72-1.5l-.05-1.07-.22-1.64c.07-.66.87-1.17,2.39-1.53,1.52-.36,2.57-.65,3.16-.85l4.37-1.78s.16.03.38.08ZM42.94,40.79c1.08-.64,2.38-1.01,3.91-1.12,1.53-.11,2.46-.23,2.79-.36.33-.13.5-.2.52-.22l1.37-.11c.09,0,.22-.03.4-.08s.59-.15,1.24-.29,1.36-.67,2.12-1.61c.76-.94-.42-.93-3.54.01l-2.08.19-.9.27c-.66.18-1.52.29-2.6.33-.77.04-1.37-.11-1.82-.44-.45-.33-.72-.63-.82-.92-.1-.28-.16-.55-.18-.81-.02-.25.11-.54.38-.85.27-.33.69-.56,1.26-.68.56-.13,1.23-.24,2-.33.77-.09,1.42-.2,1.97-.33l2.16-.52c.6-.05.95-.1,1.04-.14l.36-.14,2.35-.57s.22-.4.62-1.15c.39-.75.89-1.18,1.49-1.31.6-.13,1.08-.06,1.42.19.11.09.27.29.48.59s.55.73,1.03,1.29c.47.56.8.87.98.93.18.06.57.09,1.18.08.6,0,1.33.1,2.17.33.85.23,1.84.39,2.98.48,1.14.09,1.93.23,2.38.42s.71.42.79.67c.08.26.11.48.07.68-.09.35-.34.67-.74.97s-.92.5-1.56.59c-.22.04-1.84-.1-4.85-.4s-4.25.11-3.71,1.24c.55,1.13,2.05,1.54,4.51,1.23l4.92.36c.49,0,.88.04,1.18.12s.57.38.83.89c.26.51.22,1.1-.14,1.76-.36.67-2.15.93-5.37.81-1.99-.05-3.12-.11-3.39-.16l-.85-.16c-.31-.04-.63-.05-.96-.05l-1.94.16c-.29.02-.83-.02-1.61-.12-.78-.1-1.42-.16-1.91-.18-1.09,0-2.26.17-3.5.52l-3.04.88c-.07.02-1.16.13-3.25.33-.66.07-1.09.05-1.31-.08l-.88-.77-.3-.22c-.09-.07-.18-.2-.26-.37-.08-.17-.13-.32-.15-.44-.02-.12-.03-.25-.04-.38,0-.14.03-.29.12-.45.09-.16.32-.36.68-.57ZM54.01,54.85c1.53,1.29,2.57,1.32,3.1.08.54-1.24.8-2,.78-2.27-.05-.33-.27-.69-.64-1.08-.37-.39-.8-.57-1.27-.53-.38.04-.66.09-.82.16l-1.34,1.18c-.6.44-.93.79-.98,1.05-.05.26.34.73,1.18,1.41ZM59.81,44.32c.2-.56.56-.85,1.07-.85l1.04.27.41-.05c.05.02.15.05.3.11l2.79.74.79.36c.42.18,1.08.29,1.97.33.89.04,1.54.13,1.94.27.4.15.61.41.62.78,0,.37-.06.71-.21,1-.22.44-.39.73-.52.88-.13.15-.47.5-1.04,1.05-.56.56-.99.92-1.27,1.09-.28.17-.68.25-1.19.23-.53,0-.99-.12-1.39-.36l-1.8-1.48-2.35-1.59c-.29-.29-.55-.71-.78-1.26s-.36-.92-.38-1.12c-.03-.2-.02-.34.01-.41Z"/>
  </g>
</svg>