<?xml version="1.0" encoding="UTF-8"?>
<svg xmlns="http://www.w3.org/2000/svg" version="1.1" viewBox="0 0 100 100">
  <!-- Generator: Adobe Illustrator 30.0.0, SVG Export Plug-In . SVG Version: 2.1.1 Build 123)  -->
  <defs>
    <style>
      .st0 {
        fill: #94271e;
      }

      .st1 {
        fill: #ffeaaa;
      }
    </style>
  </defs>
  <g id="_图层_2" data-name="图层_2">
    <path class="st0" d="M87.72,91.35l-.85-3.94-.05,2.3-.26.7-.39.77-.23,1.13s-4.41-.14-6.59-.08c-3.68.09-7.54-.67-10.97-.53-3.1.13-4.52,1.01-6.23.89-2.68-.2-2.22-1.71-4.6-1.55-4.54.3-3.52,1.53-7.81.68-3.51-.69-4,1.58-5.71,1.36-4.33-.56-6.69-.32-7.8.05-1.91.63-2.95-1.09-4.05-1.08-1.43.01-2.12.16-3.37.16-2,0-2.9-1.03-4.37-1.02-2.88.02-2.63.49-2.75.49-1.17.03-.72-.58-1.74-.54-1.57.06-1.76.62-2.53.62-.08,0-.91.03-.99.04l-3.15.33-.8-.35-1.38.27c-.61.12-1.25,0-1.77-.35-.29-.19-.56-.4-.81-.53-.62-.32-1.64-1.55-1.66-2.25-.03-1.47.82-6.66.82-6.66l2.92-.85-1.57-.42-.34-.98s.31-3.26.2-3.53c-2.06-5.35-2.12-6.64-1.94-9.65.13-2.15.72-4.23,1.06-5.42.99-3.47-.43-5.24-.55-5.85-.73-3.79.51-4.16.74-5.51.46-2.67-.39-4.72-.81-5.86-.45-1.22.43-3.32.27-3.56-.72-1.09.11-4.29.11-4.29.04-.6.38-1.02.78-1.4.88-.85.99-2.22.25-3.18l.48-.37c-.43-.57-.52-1.48-.52-1.48l1.28-1.12,3.55,1.32-1.25-1.93s-3.38-1.17-3.55-1.83c-.11-.43-.03-2.12.1-2.54l-.46-2.91c.08-.53.12-.9.04-1.43-.1-.76-.52-1.63-.65-2.36l-.67-4.57c-.14-.83-.03-1.49.3-2.27.74-1.74,2.12-2.64,3.71-2.44l1.41.12c.14.01.29.02.43,0,.7-.06,1.38-.24,2.02-.52.3-.13.92-.32,1.44-.44.33-.07.67-.08,1-.01l1.43.29c1.63.23,2.19,1.21,2.35.6l.26.28.15,2.58.43-.72.31-.23.3-.86.44-.17s.24-.68.25-.68c.41.07,1.97.49,1.97.49l.11,1.25.77-1.07s1.87.19,2.4.17c1.85-.04,2.7-1.51,4-1.14,7.51,2.09,8.31.63,12.67-.92,1.26-.45,1.55,1.19,2.02,1.09,4.83-.95,8.25-.56,11,.02,8.19,1.73,16.49.3,19.1-.12,2.75-.44,11.96.59,11.96.59.81,0,1.06.65,1.06.65l.56-.09.52-.08.47.23s.14,1.57.33,1.68c0,0,.41,4.46.24,7.36-.07,1.29-.79,2.86-1.66,4.04-.61.83-.1,1.88-.1,1.88l.42.68-.95.78h1.33s-1.02.87-1.02.87c0,0,2.01,1.89,2.11,4.82s-.13,4.96.15,6.08c.67,2.75-.97,5.45-.83,6.73.1.9.63,1.37.77,2.02.18.88-.61,3.89-1.49,5.65-.49.99-1.39,1.77-1.39,1.77l.44.58-1.4,1.01,2.28-.59.54,1.12s1.7,4.05,1.67,6.12c-.05,3.63-.46,4.8-.69,5.46-.69,1.93.52,2.06.49,2.97-.06,2.07-1,3.18-1.09,4.72-.07,1.12-.52,4.37-.52,4.37,0,.4.09.8.28,1.15v.83c.28.52.22.9.06,1.47-.05.18.1.71.1.71l-.13.7c-.04.23-.05.47-.03.7l.41,3.78c0,.34-1.59,2.77-1.59,2.77l-.86.34-.86-.71s-.49.39-1.31.31Z"/>
  </g>
  <g id="_图层_4" data-name="图层_4">
    <path class="st1" d="M38.97,56.13s.01.12-.01.25c-.03.13-.18.31-.45.55-.27.24-.6.62-.97,1.13-.37.52-1.21,1.31-2.5,2.38-1.29,1.07-2.43,1.88-3.4,2.45-.98.57-1.94.8-2.88.71-.62-.04-1.03-.17-1.24-.41-.21-.24-.38-.6-.52-1.09s-.21-.9-.21-1.22.05-.83.16-1.54c.07-.47.18-.8.33-.98l.33-.33.38-.57c.53-.53,1.87-.88,4.03-1.04s3.58-.29,4.27-.37,1.09-.13,1.22-.15c.27,0,.58.04.92.11.34.07.52.12.56.14ZM31.67,31.98c.15-.04.47-.09.97-.15.5-.06,1.78-.15,3.83-.26s4.13-.28,6.23-.51c2.11-.23,3.31-.35,3.62-.37l5.91.22,3.2-.19c1.06-.02,2.76.1,5.1.36,2.34.26,4.41.45,6.21.57,1.79.13,2.73.36,2.8.71v.63l.27.98c0,.16-.02.33-.05.49-.18.55-.55.92-1.09,1.11s-.87.32-.97.38c-.1.06-.34.28-.71.64-.38.36-.61.63-.71.81-.1.17-.2.34-.29.51l-2.43,5.91c-.42.78-.66,1.31-.71,1.59l-.41,2.02c-.09.13-.19.25-.3.36l-.82.57c-.09.07-.3.26-.62.56-.32.3-.54.46-.67.48-.15.04-.4,0-.77-.11-.37-.11-1.04-.24-2.01-.4-.98-.15-1.79-.18-2.43-.07-.65.11-1,.24-1.05.4-.05.16-.03.49.08,1l.16,1.26c.11.35.16.55.16.6-.02.11-.27.59-.77,1.44s-1.29,1.59-2.41,2.23l-1.5.68c-.29.18-.46.37-.52.56s.25.45.93.78c.4.22,1,.44,1.79.67.79.23,1.73.53,2.82.9,1.08.37,1.77.59,2.06.64l2.46.52,1.12.36c.36.11,1.07.22,2.11.34,1.04.12,2.11.19,3.23.21.88.04,2.08-.09,3.62-.37,1.54-.28,2.75-.68,3.64-1.19.88-.51,1.56-.58,2.04-.21.47.37.09,1.43-1.15,3.16l-1.75,2.57c-1.39,1.84-3.11,2.85-5.17,3.04-.79.07-1.43.04-1.94-.08-.51-.13-1.29-.37-2.35-.74l-4.43-1.45-2.82-1.26c-.88-.36-1.38-.58-1.5-.66l-1.48-.88-1.01-.49c-.15-.05-1.41-.76-3.79-2.11-2.38-1.35-4.16-2.91-5.35-4.68l-2.16-3.42c-.67-.75-1.08-1.16-1.23-1.23-.15-.07-.4-.1-.77-.08-.51.05-1.15.25-1.91.59-.77.34-1.38.52-1.83.53-.05.02-.1.03-.14.03l-.52.19-.44.05c-.18.09-.48.18-.89.26s-.62.12-.64.12c-.18.02-.47-.09-.88-.33-.4-.24-.67-.51-.81-.83-.14-.32-.06-.82.23-1.52.09-.24.52-1.04,1.3-2.42.77-1.38,1.18-2.51,1.23-3.4.05-.89.07-1.8.07-2.71-.02-1.09-.05-1.86-.1-2.3-.05-.44-.26-1.15-.63-2.15-.37-.99-.81-1.61-1.31-1.86-.5-.25-.81-.41-.92-.49s-.22-.31-.33-.7-.16-.73-.14-1.04c0-.4.14-.7.41-.9.27-.2.58-.32.93-.36l.55.03.52-.16ZM37.88,46.97l3.45-.85c1.9-.15,3.11-.41,3.65-.79.54-.38.76-1.02.67-1.9-.09-.88-1.06-1.26-2.9-1.13-.6.05-.99.1-1.18.12-.18.03-.82.19-1.9.48-1.08.29-1.78.54-2.09.75-.31.21-.62.61-.93,1.19-.31.58-.34,1.11-.08,1.59.25.47.69.66,1.31.55ZM37.99,38.9c.15.26.37.44.68.55.31.11,1.34-.03,3.09-.41l2.35-.3c.71-.18,1.17-.43,1.37-.74.2-.31.38-.5.53-.57.15-.07.24-.44.25-1.09,0-.66-.03-1.07-.11-1.23s-.41-.3-.97-.41c-.57-.11-1.01-.15-1.34-.14-.35.04-1.28.29-2.79.75-1.51.46-2.42.9-2.73,1.3-.31.4-.47.85-.48,1.34,0,.49.04.81.15.96ZM46.41,55.69c.09-.02.31-.36.66-1.04l.71-1.5,1.09-1.56.22-.63c.27-.73.35-1.23.23-1.49-.12-.26-.47-.37-1.05-.31l-4.05.36c-.33.07-.78.14-1.35.19s-.85.45-.83,1.18c0,.15.08.51.25,1.09.16.58.67,1.26,1.52,2.02s1.49,1.24,1.93,1.44.67.28.68.26ZM51.82,45.19l1.78-.11,3.47-.08c1.46-.04,2.22-.38,2.28-1.03.06-.65-.09-1.13-.45-1.44-.26-.18-.72-.31-1.38-.37-.67-.06-1.59-.14-2.78-.23-1.42-.09-2.49-.02-3.21.22-.72.24-1.16.56-1.33.97s-.12.84.12,1.29c.25.45.74.71,1.49.78ZM56.01,38.13c2.42.07,3.7.08,3.83.03.64-.22,1.2-.57,1.68-1.07.48-.49.73-.9.75-1.22.02-.32-.12-.56-.41-.72-.11-.04-.95-.15-2.53-.33-1.58-.18-2.5-.28-2.78-.3-3.17-.13-5.07.16-5.7.88-.63.71-.58,1.41.15,2.11.35.35,2.01.56,5,.63ZM56.96,55.65c.04-.17.21-.49.51-.94.3-.46.46-.69.48-.71l.52-.55.93-1.48c.46-.69.99-1.07,1.61-1.12.44-.02.8.05,1.09.22.29.16.75.52,1.37,1.07.62.55.98.9,1.08,1.05.1.16.21.43.31.82.11.39.16.79.16,1.19-.04,1-.29,1.7-.75,2.08s-.83.57-1.11.57c-1.33.07-2.37-.01-3.1-.26s-1.26-.5-1.57-.75l-.9-.66-.63-.22s-.04-.14,0-.31Z"/>
  </g>
</svg>