<?xml version="1.0" encoding="UTF-8"?>
<svg xmlns="http://www.w3.org/2000/svg" version="1.1" viewBox="0 0 100 100">
  <!-- Generator: Adobe Illustrator 30.0.0, SVG Export Plug-In . SVG Version: 2.1.1 Build 123)  -->
  <defs>
    <style>
      .st0 {
        fill: #94271e;
      }

      .st1 {
        fill: #ffeaaa;
      }
    </style>
  </defs>
  <g id="_图层_2" data-name="图层_2">
    <path class="st0" d="M87.72,91.35l-.85-3.94-.05,2.3-.26.7-.39.77-.23,1.13s-4.41-.14-6.59-.08c-3.68.09-7.54-.67-10.97-.53-3.1.13-4.52,1.01-6.23.89-2.68-.2-2.22-1.71-4.6-1.55-4.54.3-3.52,1.53-7.81.68-3.51-.69-4,1.58-5.71,1.36-4.33-.56-6.69-.32-7.8.05-1.91.63-2.95-1.09-4.05-1.08-1.43.01-2.12.16-3.37.16-2,0-2.9-1.03-4.37-1.02-2.88.02-2.63.49-2.75.49-1.17.03-.72-.58-1.74-.54-1.57.06-1.76.62-2.53.62-.08,0-.91.03-.99.04l-3.15.33-.8-.35-1.38.27c-.61.12-1.25,0-1.77-.35-.29-.19-.56-.4-.81-.53-.62-.32-1.64-1.55-1.66-2.25-.03-1.47.82-6.66.82-6.66l2.92-.85-1.57-.42-.34-.98s.31-3.26.2-3.53c-2.06-5.35-2.12-6.64-1.94-9.65.13-2.15.72-4.23,1.06-5.42.99-3.47-.43-5.24-.55-5.85-.73-3.79.51-4.16.74-5.51.46-2.67-.39-4.72-.81-5.86-.45-1.22.43-3.32.27-3.56-.72-1.09.11-4.29.11-4.29.04-.6.38-1.02.78-1.4.88-.85.99-2.22.25-3.18l.48-.37c-.43-.57-.52-1.48-.52-1.48l1.28-1.12,3.55,1.32-1.25-1.93s-3.38-1.17-3.55-1.83c-.11-.43-.03-2.12.1-2.54l-.46-2.91c.08-.53.12-.9.04-1.43-.1-.76-.52-1.63-.65-2.36l-.67-4.57c-.14-.83-.03-1.49.3-2.27.74-1.74,2.12-2.64,3.71-2.44l1.41.12c.14.01.29.02.43,0,.7-.06,1.38-.24,2.02-.52.3-.13.92-.32,1.44-.44.33-.07.67-.08,1-.01l1.43.29c1.63.23,2.19,1.21,2.35.6l.26.28.15,2.58.43-.72.31-.23.3-.86.44-.17s.24-.68.25-.68c.41.07,1.97.49,1.97.49l.11,1.25.77-1.07s1.87.19,2.4.17c1.85-.04,2.7-1.51,4-1.14,7.51,2.09,8.31.63,12.67-.92,1.26-.45,1.55,1.19,2.02,1.09,4.83-.95,8.25-.56,11,.02,8.19,1.73,16.49.3,19.1-.12,2.75-.44,11.96.59,11.96.59.81,0,1.06.65,1.06.65l.56-.09.52-.08.47.23s.14,1.57.33,1.68c0,0,.41,4.46.24,7.36-.07,1.29-.79,2.86-1.66,4.04-.61.83-.1,1.88-.1,1.88l.42.68-.95.78h1.33s-1.02.87-1.02.87c0,0,2.01,1.89,2.11,4.82s-.13,4.96.15,6.08c.67,2.75-.97,5.45-.83,6.73.1.9.63,1.37.77,2.02.18.88-.61,3.89-1.49,5.65-.49.99-1.39,1.77-1.39,1.77l.44.58-1.4,1.01,2.28-.59.54,1.12s1.7,4.05,1.67,6.12c-.05,3.63-.46,4.8-.69,5.46-.69,1.93.52,2.06.49,2.97-.06,2.07-1,3.18-1.09,4.72-.07,1.12-.52,4.37-.52,4.37,0,.4.09.8.28,1.15v.83c.28.52.22.9.06,1.47-.05.18.1.71.1.71l-.13.7c-.04.23-.05.47-.03.7l.41,3.78c0,.34-1.59,2.77-1.59,2.77l-.86.34-.86-.71s-.49.39-1.31.31Z"/>
  </g>
  <g id="_图层_4" data-name="图层_4">
    <path class="st1" d="M27.38,59.36l.33.05c.33.02.68-.14,1.07-.46.36-.31.76-.88,1.19-1.7.43-.82.67-1.29.71-1.41.05-.12.2-.53.45-1.23.25-.7.41-1.19.46-1.46l.05-.49.11-.66.11-.93.85-3.34c.11-.55.17-1.33.19-2.35.02-1.02-.1-1.84-.36-2.46l-.49-1.12c-.05-.15-.07-.3-.05-.46,0-.6.32-.93.96-.98.11,0,.46.05,1.07.14.6.09.94.13,1.01.11.22,0,.61-.06,1.18-.19.56-.13,1.16-.23,1.78-.31.62-.08,1.35-.14,2.2-.18.85-.04,1.44-.08,1.79-.12.35-.05.57-.15.68-.33.11-.17.15-.43.11-.78-.04-.2-.15-.57-.34-1.11-.19-.54-.7-.82-1.52-.83-.18,0-.49.07-.92.21-.43.14-.81.23-1.13.29l-1.97.36c-.49.16-.77.25-.85.26-.07,0-.33.02-.78.03-.45,0-1.17.08-2.17.22-1,.14-1.54.2-1.61.18-.64-.05-1.13-.24-1.46-.56-.34-.32-.55-.58-.63-.79-.08-.21-.13-.65-.14-1.33,0-.67.04-1.18.14-1.52.1-.34.47-.62,1.11-.86l3.12.16c.13.02.31.02.55,0,.53,0,.95-.04,1.26-.11l2.16-.52,1.07-.05c.4-.07.81-.11,1.22-.12.41,0,.81-.21,1.19-.59l1.15-1.94c.33-.4.81-.66,1.44-.77s1.22.26,1.76,1.11.9,1.27,1.07,1.27c.02.02.22-.04.62-.18.39-.14.93-.18,1.63-.14.69.05,1.72.05,3.09.01,1.37-.04,2.39,0,3.06.1.67.1,1.13.13,1.37.1.2-.02.37-.07.52-.15s.43-.34.86-.77c.43-.43.85-.79,1.27-1.09s.78-.45,1.09-.45c.51.02.91.26,1.2.74l.33.85c.22.57.6.97,1.15,1.2l2.84.38,1.94.6.55.05.93.27c.51.13,1.03.36,1.56.7.53.34.8.75.81,1.23,0,.48-.36.9-1.11,1.24-.18.09-.5.17-.96.25-.46.07-.85.15-1.18.23s-.55.12-.66.12c-.26.04-.54.03-.85-.03l-.98-.16-2.38-.11-1.59-.49c-.29.02-.7.2-1.23.55-.53.35-.89.57-1.09.66-.2.09-.32.15-.36.16l-.77.9-.6.49c-.22.18-.46.45-.72.79-.26.35-.48.58-.66.71-.17.13-.41.19-.7.19-.16.02-.42-.02-.78-.12-.36-.1-.44-.71-.26-1.82l.52-1.59c.11-.44.1-.75-.03-.93-.18-.24-.78-.37-1.78-.41l-1.07.05-1.29.05-1.04.16h-1.39c-1.18.07-1.85.17-1.98.3-.14.13-.25.31-.33.53-.08.23-.12.62-.11,1.18,0,.56-.11.93-.37,1.11-.26.18-.37.28-.36.3.02.24.46.38,1.34.44.09.02.66-.01,1.71-.1,1.05-.08,1.58-.13,1.6-.15.56-.02.94.21,1.13.68.19.47.29.88.29,1.23-.02.46-.06.74-.12.85s-.3.42-.72.92c-.42.5-.77.96-1.05,1.37s-.48.91-.6,1.49c-.12.58-.24,1-.36,1.26-.12.26-.35.46-.68.6-.34.15-.67.22-.98.23-.32,0-.5.01-.53.01l-.98.3c-.15.04-.39.04-.74,0-.62-.04-1.34.05-2.16.25-.82.2-1.29.31-1.39.33l-1.78.25-1.48.49-.46-.03c-.36.02-.64.14-.83.37-.19.23-.31.74-.34,1.54l-.33,2.27c-.07,1.04-.13,1.61-.18,1.72-.05.11-.24.46-.59,1.07l-1.56,4.68c-.18.47-.35.81-.51,1-.16.19-.8.88-1.94,2.06-1.14,1.19-2.3,1.75-3.49,1.7-.42-.02-.77-.15-1.04-.38-.27-.24-.36-.84-.27-1.8.09-.97.14-1.7.14-2.19l-.03-.82c-.02-1.04.36-1.61,1.12-1.72ZM33.99,63.22v-.36c-.02-.55.05-.88.22-1.01l1.01-.05,1.18-.38,1.23-.22s.32-.11.9-.34c.58-.23.91-.28.98-.16.07.12.05.4-.08.83l-.55,2.05s-.38.61-1.09,1.72-1.5,1.18-2.38.22-1.35-1.73-1.42-2.3ZM46.14,55.31c.35,0,.82-.04,1.42-.14.6-.09,1.06-.13,1.37-.11.77.07,1.19.28,1.27.62.08.34.11.62.1.83-.11.78-.31,1.31-.62,1.59s-.68.44-1.13.49l-.87.05-1.2.14c-.78-.04-1.28,0-1.49.12-.21.12-.3.23-.26.34.04.11.08.21.14.31.05.1.02.67-.11,1.71l.14,2.05c-.02.26-.08.63-.19,1.12s-.22,1.13-.34,1.9c-.12.77-.63,1.07-1.54.89-.51-.09-.83-.37-.97-.83s-.21-.78-.21-.94l.08-.96v-.27l-.05-.66-.03-3.31c-.09-.27-.19-.45-.29-.52-.1-.07-.32-.13-.67-.16l-1.45-.14-1.12.3c-.73.16-1.21.23-1.45.19-.33-.04-.56-.15-.7-.34s-.21-.44-.22-.75c0-.31,0-.55.04-.71.11-.77.67-1.35,1.7-1.76,1.02-.41,2.12-.66,3.31-.75,1.18-.09,1.9-.15,2.16-.19l.98-.19,2.21.08ZM46.29,45.26c.23-.12.47-.36.72-.74.25-.37.33-.64.22-.81-.11-.13-.34-.2-.7-.22-.36-.02-.72-.06-1.08-.14-.36-.07-.61-.11-.74-.11-1.4.07-2.48.16-3.24.26-.76.1-1.36.21-1.8.34-.45.13-1.08.24-1.89.34-.81.1-1.27.21-1.38.34-.11.13-.17.31-.19.56-.02.25.12.53.41.86.29.33.76.4,1.39.22l.93-.41,3.72-.22.98-.27c1.53.11,2.41.1,2.64-.01ZM47.39,53.45l-.57-.03-1.2.05c-2.3.02-3.53.11-3.69.29-.16.17-.27.28-.33.33-.05.05-.26.07-.63.08-.36,0-.63.02-.79.04l-1.12.25c-.29.02-.65-.05-1.08-.22-.43-.16-.7-.31-.81-.45s-.2-.38-.27-.72c-.07-.35.32-.79,1.18-1.34.56-.36.98-.57,1.24-.62.26-.04.57-.08.93-.1.36-.02,1.08-.1,2.17-.25l1.78-.16c.33-.02.6-.05.82-.11l1.75-.46c.47-.09,1.09-.06,1.86.08.77.15,1.17.41,1.22.78.04.37.07.6.07.67-.04.26-.27.6-.71,1.04s-.74.7-.92.78c-.17.08-.47.11-.89.07ZM47.19,59.8c.65-.11,1.4.21,2.26.96.86.75,1.31,1.26,1.35,1.53s0,.53-.12.77c-.11.18-.73.69-1.87,1.52-1.14.83-1.86,0-2.17-2.47-.02,0-.03-.11-.03-.33l-.41-1.75s.35-.11,1-.22ZM54.58,45h.6c.2,0,.44-.04.71-.11.27-.07.56-.13.88-.16l3.01-.25c.82.11,1.24.16,1.26.14.11,0,.24-.02.38-.05l.77-.16.77-.08c.18-.04.33-.11.45-.23.12-.12.22-.33.31-.64l.41-1.48c.22-.64.55-1.11,1-1.41s.84-.43,1.19-.4c.38.07.66.32.82.74.16.42.25,1.1.26,2.04,0,.94.42,1.42,1.24,1.44.09.02.3,0,.63-.03.33-.04.97-.07,1.91-.1s1.93-.19,2.95-.49,1.66-.38,1.91-.23c.29.2.43.46.41.79-.04.35-.38,1.08-1.04,2.19-.66,1.11-1.13,1.87-1.44,2.28s-.73.82-1.29,1.23-1.27.57-2.15.48c-.88-.05-1.5-.29-1.87-.7s-.75-.52-1.13-.34c-.35.18-.52.65-.51,1.39,0,.75-.02,1.55-.1,2.41-.07.8-.14,2.02-.21,3.65-.06,1.63-.06,3.1,0,4.4.06,1.3.05,2.2-.04,2.69-.16.8-.57,1.71-1.22,2.71s-1.74,1.47-3.27,1.39l-2.11-.33c-.16,0-.42,0-.78-.03-.36-.02-1.06-.09-2.12-.22-1.06-.13-1.64-.21-1.74-.25-.1-.04-.41-.16-.92-.36-.51-.2-1.08-.38-1.71-.55s-.98-.36-1.07-.57-.09-.42-.01-.6c.07-.22.94-.58,2.61-1.09,1.67-.51,2.8-.81,3.39-.89s1.35-.11,2.28-.1c.18.02.41.04.7.07s.47.03.56.01c.4-.05.83-.37,1.29-.96.46-.58.69-1.25.71-2,0-.22-.02-.53-.07-.94s-.06-.71-.04-.92c0-.2.07-.77.22-1.72.15-.95.18-1.79.11-2.54-.07-.75-.09-1.2-.05-1.37l.05-.3-.11-.82c-.02-.13,0-.51.03-1.15.04-.64-.07-1.06-.33-1.26-.16-.11-.54-.17-1.12-.19l-1.89-.05-3.83.57c-.53.05-1.01.2-1.44.44-.43.24-1.04.35-1.82.33-.97,0-1.56-.12-1.78-.37s-.37-.53-.45-.86-.13-.6-.14-.82.01-.41.07-.57c.04-.2.32-.72.86-1.56.54-.84,1.03-1.29,1.46-1.34l.85.38.68-.19ZM52.81,55.34c-.04-1.02.04-1.73.22-2.12.18-.39.55-.71,1.09-.97.55-.26,1.58-.26,3.09,0,.84.16,1.73.27,2.67.31.94.05,1.45.24,1.52.59.07.35.1.57.08.66-.07.31-.41.59-1,.83s-.94.47-1.05.67l-.16.3c-.07.11-.26.24-.57.38l-1.37.82c-.37.18-.57.29-.63.33l-.33.3c-.62.51-1.43.5-2.43-.03-.38-.18-.66-.35-.83-.49-.17-.15-.27-.67-.29-1.59Z"/>
  </g>
</svg>