<?xml version="1.0" encoding="UTF-8"?>
<svg xmlns="http://www.w3.org/2000/svg" version="1.1" viewBox="0 0 100 100">
  <!-- Generator: Adobe Illustrator 30.0.0, SVG Export Plug-In . SVG Version: 2.1.1 Build 123)  -->
  <defs>
    <style>
      .st0, .st1 {
        fill: #94271e;
      }

      .st2 {
        fill: #ffeaaa;
      }

      .st1, .st3 {
        display: none;
      }
    </style>
  </defs>
  <g id="_图层_1" data-name="图层_1" class="st3">
    <g>
      <path class="st1" d="M41.77,7.83l.49-.21-.07-.32s.52.15.7.06c.12-.06.12-.21.17-.25.04-.03.68-.05.9-.12.16-.05.14-.22.19-.22.09,0,.25.11.42.1,1.02-.05,1.91-.1,2.29,1.01.11.09.27-.07.37-.07.03,0,.38.65.38-.11l.37.32.05-.42,2.31-.28.24-.25.06.21c.13-.02.51-.13.61-.1.08.02.06.18.14.2.2.04,1.04-.05,1.25,0,.06.02.21.53.44,0l.32.22c.33-.58,1.34.27,1.81-.21.16.41.41.29.79.22l.11.63.38-.43c.19.05.38.1.36.32h.21s0-.32,0-.32l.42.11-.32.37.27.16.17-.62.2-.06c.34.16.74-.03,1.12-.05,1.88-.09,3.24.07,5.06.56.33.09.35-.26.47.29.41-.05.83.12,1.18.13.26,0,.11.11.13.29l.11-.42c.26.34.41,0,.53.05.09.04.34.36.48.38.05,0,.02-.16.13-.21.07-.03.22.02.32-.03.09-.05.15-.5.45-.23v.36s1.01-.32,1.01-.32c.35.72.11-.46.48-.21.02.01-.1.22-.01.35.24.38.91.05.23-.35.36.06,1.03-.15,1.33-.12.21.03.35.53.58.33s-.27-.18-.21-.32c.13,0,.25-.07.37-.07.27,0,1.39.04,1.59.09.07.02.05.19.11.2.07,0,1.09-.12,1.4-.14.38-.02.95-.17,1.25-.17.16,0,.92.29,1.01.2v-.53c.23.18.47-.01.67.02.26.04.71.64.71-.12l.42.21v-.32s.41,0,.41,0l.12.26-.21.16.48-.32.16.53c.52-.12.51-.59,1.17-.11l.11-.32.06.18c.21-.14.12.13.35.18s.81-.01,1.03-.15l.05.32.42-.21.06.21c.3-.25.59.07.74.07.11,0,.18-.24.37-.18l.16.32v-.42s.37.11.37.11l-.11.21h.64s0,.53,0,.53l.21-.05-.1-.27.74.11.1-.38c.11-.1.74.25.65-.15l.11.32.32-.32.11.42.26-.21.11.21.05-.32.59.31c.02-.26.57-.32.74-.29.04,0,.2.38.69.09-.1.37.21.32.33.47.11.13-.08.37.15.48l.26-.21c.02.39.56.34.84.54-.08.21-.16.37.06.52l.37-.53c-.1.35.23.86.53.96l-.21.16.32.05c.08.3-.23.15-.28.42-.03.17.05.27.06.43l.53-.32-.43.58c.27.06.34.09.43.37l-.42-.21-.11.64c.36.06.21-.43.52-.31l.07.21.26-.11v.52s-.32.06-.32.06c-.03.33-.07.31-.42.37-.08.31.36.23.42.53l-.32-.05-.11.47.53-.27-.37.48-.37-.32v.64s.74-.32.74-.32l.08.29c-.26.03-.13.41-.19.7-.05.23-.2.37-.21.6l.42.16c-.26.24-.46.43-.32.8-.52,0-.39.04-.65.25-.22.18-.34.02-.41.6h.32s-.11.32-.11.32l.74.11-.32.11v.94s-.53.17-.53.17l.52.28c-.12.18.06.4.06.47-.03.43-.47.69-.23,1.09.06.1.37.09.28.34l-.36.1-.07.85.1-.21.64.11c-.01.21-.31-.01-.21.32l.19.05c.05.36-.36.75.02.96l-.21.26.42-.11c.11.36-.14.37-.21.64l-.32-.32.04.32-.14.05.53.16-.21.53.42-.11c.07.19-.17.26-.18.37,0,.13.28.4.07.69l-.42-.32.21.85.11-.21.21.16c-.27.36-.11.45,0,.8l-.26-.21-.16.21.19.05-.08.16.32.06-.11.48-.21-.11.21.69c-.24.24-.39-.13-.32.37h.32s-.32.8-.32.8l.22.11-.19.43c.22.24.32.25.19.58l-.32-.05c.06.31-.04.77.32.94.14.07.27-.22.21.28h-.32s0,.64,0,.64l.33.06c.23.29-.5.96.2,1.16l-.32.05c.35.33.02.34,0,.59,0,.03.12.61.13.63.04.08.18.04.19.05.04.06-.18.17-.19.35s.14.43.19.61l-.43-.05c-.04.33.4.39.43.64.04.35-.49,1.12-.27,1.44.05.07.21.08.24.12.02.03.04.7.03.78-.02.26-.49.93-.01.9l-.53.58c.24.4.09.74.53,1.01h-.64c-.03-.25.23-.46-.05-.63l-.37.26.32-.05-.11.74c-.39-.24-.28.23.11.11v.16c-.36.07-.47,1.46-.4,1.7.02.06.15.03.18.13.04.11-.02.27.04.43.02.06.37.23.37.26.02.08-.11.23-.09.34.01.09.22.08.31.25.14.27.06.67.14.91.02.08.56.47.13.52l.08.19-.53.16c.06.15.34.22.39.29.03.04.13.87.13.99.08,1.35-.15,3.07-.26,4.46-.01.14.08.32.05.48l-.21-.11c.07.43-.02,1.12-.53.85.09.47-.31.74-.43,1.22l.32.22-.21.05c-.05.18.22.05.22.16,0,.32-.46.74.1,1.16l-.19.1c.13.2-.05.6-.01.73.03.1.29.03.21.33-.03.1-.26-.02-.21.16l.53-.1-.09.47.41.17-.16.75c.07.34.31.21.43.3.35.28.27,1.62.42,2.07-.11,1.35.1,3.11-.46,4.37-.12.26-.3.23-.32.27-.03.05.46.89-.33.84l.32.21c.06.27-.07.16-.21.26.43.16.25.34.35.61.23.56.54,1.47.42,2.08-.07.35-.35,1.38-.78,1.3l.32.21c.09.28-.15.18-.19.26-.1.25-.01.77-.07.9-.07.15-.73.57-.8.91.03.14.21-.06.3-.03.31.1.03.56.34.56v.16c-.55.06-.09.5-.11.53,0,.01-.15-.01-.17.02-.05.08.09.28-.25.3l.31.47-.32.21.32.16-.53.69.32.05c-.14.32.11.66-.32.8l.32.37-.32.16.32.16v.21s-.21-.11-.21-.11c-.08.46-.21.97.38,1.06l-.06.43h.42c.16.91.24,1.64,0,2.55l-.32-.11c0,.15-.13.29-.16.41-.04.22-.11.93.14.91-.08.76.21,1.56.29,2.32.04.38.15.62.15.66.01.18-.21.61-.11.89-.66-.13-.61.61-.15.32l.05.21-.7.32.12.32c-.17.19-.48.23-.66.35-.09.06-.11.28-.24.34-.24.12-.61-.01-.73.07-.05.03-.08.3-.18.42-.06.07-.16,0-.24.04-.03.01-.02.13-.04.13-.11.04-.39-.18-.62.14l-.32-.32.42.53c-.22-.02-.39-.09-.62-.04-.29.06-.16.38-.68.14-.13-.06-.02-.29-.29-.2v.42c0-.39-.64-.67-.64-.21-.19,0-.32-.4-.15-.43l.36-.21-.64.05-.21.58-.22-.53h-.31s0,.42,0,.42c-.23,0-.47-.08-.43.21l-.58-.42-.27.64h-.21s.11-.32.11-.32l-.19.08c-.22-.5-1.14.12-1.46.35l-.05-.43-.32.43c0-.6-.77.06-.75-.42l-.58.53-.21-.53c-.5.29-.39.74-1.06.75,0-.39-.31-.25-.43-.54-.23,0-.25.15-.16.32-.41-.1-.69-.12-1.06.11-.12-.29.31-.24.32-.37,0-.17-.22-.36-.42-.27.08.41-.41,1.02-.48.32-.14.37-.26.26-.58.32v-.32s-.2.05-.2.05c.18.48-.5-.18-.55-.26l-.22.53-.16-.32-.37.32.26-.64c-.22-.01-.23.26-.38.36-.51.35-.74.19-1.27.06l.11.21h-.21c-.03-.36-.5-.48-.78-.32-.1.06-.04.3-.34.22-.11-.03-.11-.38-.32-.32-.09.33-.5.2-.73.25-.13.03-.22.21-.28.18-.01,0,.04-.18-.13-.25-.21-.08-.56.06-.82-.19l.1-.3h-.32s.11.32.11.32l-.9.11-.11-.22-.27.42c.05-.52-.09-.19-.19-.25-.09-.23-1.04-.21-1.24.03l-.07-.19c-.3.19-.47-.1-.66-.11-.18,0-.41.17-.64.16s-1.01-.23-1.08-.5c-.05.05-.11.14-.17.16-.79.18-1.49.82-2.42,1.05-.33.08-.76.06-1.13.28l-.06-.32c-.13.09-.65.05-.73-.02-.04-.04,0-.2-.04-.27-.07-.09-.5-.14-.56-.45l-.21.32c-.41-.36-.59.03-1.06-.03-.06,0-.05-.14-.08-.15-.05-.02-.15.07-.17.05-.06-.05-.07-.22-.17-.3-.36-.26-.91-.63-1.33-.58.03.22.77.38.26.58-.03.01-.13-.55-.32,0l-.21-.32-.37.42v-.53s-.53.32-.53.32l-.11-.32-.16.42c-.33-.41-.78-.05-.69.43l-.16-.32-.32.32-.06-.21-.31.1v-.42c-.24.37-.31.21-.4.25-.03.01-.02.17-.07.17-.09,0-.23-.11-.43-.1-.18,0-.39.14-.52.12-.07-.01-.05-.18-.14-.21-.07-.02-.33.07-.46,0l.11.32h-.32s.11-.21.11-.21c-.23,0-.47.08-.43-.21h-.1c-.09.28-.64.71-.96.64l.21-.16-.58-.56-.64.29-.06-.31h-.3s-.22.31-.22.31l.05-.32c-.58.57-.43-.09-.54-.11l-.79.11s.23-.42-.16-.43c-.08,0,.03.28-.06.46-.16.3-.4.39-.72.41l-.02.29c-1.08.02-1.99.68-3.07.76v-.32c-.92.4-.85-.58-1.6-.43l.1-.2-.74-.33c.06.51-.68.63-1.06.53v.32s-.32-.21-.32-.21v.32c-.32-.13-.64.19-.95.26-.77.17-1.84.01-2.39.39h-.85s-.06-.25-.06-.25c-.14-.34-.25.15-.31.19-.44.29-1.14-.35-1.6-.16.16-.44-.36-.44-.56-.52-.07-.03-.05-.21-.14-.21-.31-.02-.5.08-.84-.22l-.09.21c-.31-.19-.6-.07-.91,0l.42-.21-.11-.42c-.35-.08-.15.21-.22.31l-.54.06-.36-.38-.05.32-.21-.21-.16.21-.05-.42h-.64s0,.32,0,.32l.25-.11.28.22c-.2.49-.38.08-.73.21l-.17-.74-.16.42-.21-.11c-.09.38.13.22.21.42h-.53s.11-.21.11-.21c-.11-.08-1.05.41-1.36-.03-.1-.15.13-.38-.34-.29l.21.16c-.17.22-.58.52-.74.16.51.11.45-.62.32-.96-.27.03-.08.72-.11.74l-.26-.09c-.48.83-1.25-.59-1.92-.65l-.16.53-.16-.64.04.36-.25.17-.11-.21c-.29.1.2.57-.37.42l-.32-.53c0,.1-.03.2-.11.26-.49.35-.37-.06-.57-.05-.35.02-.36.27-.41.3-.04.02-.72.1-.81.12l-.11-.37-.43-.05c.07.19.09.5-.21.42l-.22-.74c-.32-.1-.18.33-.48.32-.13,0,.09-.43-.27-.32l-.11.53c-.28-.21-.83.39-.85-.09h-.21c.17.3-.2.31-.37.52-.1-.37-.49-.23-.8-.1l-.05-.32c-.22.43-.82.46-1.27.42-.67-.06-.45.03-1.08.1-.23.03-.94.07-1.15.06-.44,0-.46-.37-.55-.38-.17-.03-.67.19-.94.17-.11,0-.22-.18-.42-.17-.06,0-.05.19-.19.25-.43.19-1.32.29-1.47-.24h-.2s-.07.22-.07.22c-.27-.05-.42-.13-.37-.43l-.74.21.11-.32-.42.11c0-.09.03-.23-.02-.29-.13-.14-.81-.37-.84-.41-.05-.06-.39-.84-.41-.95-.08-.51-.07-2.01,0-2.54.11-.99.52-2.28.64-3.29.14-1.23,0-2.49.12-3.7.02-.22.04-.79.3-.71l-.32-.26c.26-.24.48-.71.32-1.04-.06-.13-.25-.02-.21-.18l.32-.06c-.31-.58.1-.56.32-1.01l-.42.21.32-.64-.37.21c-.26-.2.02-.51,0-.69-.01-.17-.33-.45-.27-.69l.21.05c.1-.37-.49-.62,0-.74-.04-.09-.25-.12-.32-.23-.35-.52.27-.43.11-.67-.02-.03-.31.08-.21-.22h.32c-.1-.13-.26-.43-.19-.59.03-.09.28.02.19-.26l-.38-.1c.07-.52-.4-.43-.05-1.02l-.32-.05c-.05-.18.19-.04.21-.17.03-.17-.15-.51-.16-.65-.03-.34-.24-1.76-.23-1.85.02-.19.24-.45.18-.52-.03-.04-.26.08-.21-.11l.32-.06-.1-.46.42-.28-.42-.16c-.12-.27.21-.18.22-.28.02-.21-.19-.58-.17-.84.01-.17.2-.37.16-.58l.21.21v-.53c.38-.09.22.13.43.21v-.74s-.53,0-.53,0l.42-.11-.21-.21h.42c.12-.27-.22-.2-.21-.26.02-.18.23-.33.43-.27.03-.18-.19-.08-.31-.17-.2-.15-.41-.41-.33-.68l.32.11-.11-.37.32.05-.53-.42c.59.14.91-.41.21-.21l.1-.42-.37.32c-.24-.2.22-.42.23-.45.04-.1-.06-.67-.05-.7,0-.02.17-.02.22-.15.13-.32.36-.87-.03-1.04l-.11.32c-.04-.09,0-.79.02-.83.04-.07.28-.09.3-.18s-.28-.35-.11-.58l.42.21c-.04-.25-.2-.54.11-.58l-.43-.48c.26.03.23-.08.21-.32h-.43c.28-.31.15-.92-.32-.85l.05-.2.26-.06c-.11-.17-.06-.41-.31-.38l.21-.21-.21-.07c-.12-.76.1-1.63-.21-2.32.26-.06.31-.06.43-.32l-.22-.11.12-.36-.32-.05.27-.37.27.05-.21-.37.42-.16c.09-.33-.55,0-.42-.32.17-.4.54.17.74,0l-.31-.42.2-.26-.43-.28c.07-.44.52-.61.11-1l.21-.06c.05-.19-.34-.22-.32-.42.02-.19.2-.1.29-.09.39.05-.08-.43-.4-.18-.03-.26.12-.31.32-.21v-.21c-.36.1-.32-.82-.26-.96.05-.13.34-.27.34-.37,0-.05-.17-.18-.19-.33-.03-.23.13-.45.11-.68l-.32-.06.11-.48.21.11v-.26s-.32-.32-.32-.32c.14-.18.4-.08.32-.37-.34.12-.5-.47-.59-.74-.06-.17.18-.36-.15-.32v-.21s.32-.11.32-.11l-.3-.02c-.09-.07-.03-1.87-.02-2.16,0-.25.18-.55.17-.75-.03-.51-.28-1.01.15-1.6l-.21-.11c-.09-1.22-.15-1.86.2-3.08.14-.47-.09-.73.54-1.05l-.21-.1.74-.76-.11-.89-.11.43-.42-.37.19-.08-.06-.24.29-.05-.05-.43-.27.11.11-.42-.42.11c-.04-.35-.03-.32.3-.33l.23-.62-.26-.22-.16.21.32-.58-.32-.05c-.08-.2.18-.39.18-.48s-.2-.21-.18-.42c.03-.31.41-.26.04-.78-.07-.1-.24-.13-.25-.2-.02-.16.18-.36-.11-.51l.21-.11-.32-.17c-.03-.19.31-.34.32-.37.1-.41-.18-.16-.32-.34-.26-.33-.01-.88-.32-1.15l.21-.05c.08-.22-.22-.42-.19-.56.02-.11.22-.21.2-.44,0-.05-.19-.04-.21-.13-.06-.23-.19-.85.1-.83-.29-.17-.09-.56,0-.82.04-.12.31.01.1-.4l.42-.16c-.16-.25-.61.02-.53-.37h.32c-.16-.21-.22-.27-.11-.53l.42.32-.11-.53.32.11-.43-.58.4-.33c-.04-.78-.06-1.56.13-2.32l-.21-.17.21-.05c-.26-.36-.81-1.06-.21-1.28-.27-.12-.51-.55-.57-.82-.08-.34.2-.56-.16-.66,0-.42-.13-1.65-.22-2.11-.02-.08-.2-.07-.22-.14-.04-.17.14-.92.32-.94-.16-.17-.28-.5-.22-.73.03-.11.23-.11.27-.17.05-.08-.07-.21-.03-.29.07-.14.44-.32.61-.24v-.59s.42.05.42.05c-.05-.17-.37-.19-.32-.48.04-.23.41-.04.42-.05-.18-.7.64-.52.86-.7.1-.08-.03-.29.16-.36.23.05.85.22.79-.11l.21.21v-.32s1.12.1,1.12.1c.41-.18.82,0,1.15-.02.28-.02.71-.29,1.13-.08l-.09-.27c.23-.05.18-.32.21-.35.07-.06.27.02.38-.05.06-.04-.02-.29.24-.18l-.11.21h.32c-.16-.32.19-.5.27-.11.2-.43.44-.37.84-.43l.16.32.02-.3c.21-.19.43.02.6.02.83.02,1.6.2,2.29.66.07.05.19.03.28.04v.53s.75-.21.75-.21v.32s.11-.21.11-.21c.13.12.64.23.79.21.1-.01.08-.25.23-.3.13-.04,1.07.02,1.06.3h.16s.05-.21.05-.21c.51.52.6.21.99.13.19-.04.51.13.77-.02l-.11.32s.43-.4.78-.32c.08.02.06.22.13.22.32.01.58-.19.95.21l.12-.22c.34.14.86.04,1.14.11.08.02.07.18.09.19.1.05.21-.09.28-.07.02,0,.04.2.27.31.3.14.86.27,1.12,0l.05.44.32.09-.05-.53c.15-.08.6.11.62.09.03-.02.04-.19.12-.24.41-.3.56-.27.95-.43.1-.04.18-.24.28-.26.14-.02.28.23.41.2.17-.03.22-.45.29-.51.02-.02.37.08.47-.13l.07.19.24-.08c.11.22.69.4.87.33l.05.2.11-.21.53.32.05-.42.1.21.48-.21-.06.32c.11.17.29.09.43,0l.05.31c.18.05.06-.17.15-.19.18-.05.56.24.48-.12h.1c.01.4.36.28.64.21v.32c.29.08.17-.14.27-.19.2-.11.32.19.34.19.29.05,1.86,0,2.04.13.08.05.08.4.33.29-.03-.32.29-.14.41-.22.07-.05.19-.71.66-.62l1.06-.42Z"/>
      <path class="st0" d="M41.77,7.83l.49-.21-.07-.32s.52.15.7.06c.12-.06.12-.21.17-.25.04-.03.68-.05.9-.12.16-.05.14-.22.19-.22.09,0,.25.11.42.1,1.02-.05,1.91-.1,2.29,1.01.11.09.27-.07.37-.07.03,0,.38.65.38-.11l.37.32.05-.42,2.31-.28.24-.25.06.21c.13-.02.51-.13.61-.1.08.02.06.18.14.2.2.04,1.04-.05,1.25,0,.06.02.21.53.44,0l.32.22c.33-.58,1.34.27,1.81-.21.16.41.41.29.79.22l.11.63.38-.43c.19.05.38.1.36.32h.21s0-.32,0-.32l.42.11-.32.37.27.16.17-.62.2-.06c.34.16.74-.03,1.12-.05,1.88-.09,3.24.07,5.06.56.33.09.35-.26.47.29.41-.05.83.12,1.18.13.26,0,.24-.13.24-.13.26.34.41,0,.53.05.09.04.34.36.48.38.05,0,.02-.16.13-.21.07-.03.22.02.32-.03.09-.05.15-.5.45-.23v.36s1.01-.32,1.01-.32c.35.72.11-.46.48-.21.02.01-.1.22-.01.35.24.38.91.05.23-.35.36.06,1.03-.15,1.33-.12.21.03.35.53.58.33s-.27-.18-.21-.32c.13,0,.25-.07.37-.07.27,0,1.39.04,1.59.09.07.02.05.19.11.2.07,0,1.09-.12,1.4-.14.38-.02.95-.17,1.25-.17.16,0,.92.29,1.01.2v-.53c.23.18.47-.01.67.02.26.04.71.64.71-.12l.43-.1h.4s.12.27.12.27l-.21.16.48-.32.16.53c.52-.12.51-.59,1.17-.11l.16-.13c.21-.14.12.13.35.18s1.08.16,1.08.16l.42-.21.06.21c.3-.25.59.07.74.07.11,0,.18-.24.37-.18l.16.32v-.42s.37.11.37.11l-.11.21h.64s0,.53,0,.53l.21-.05-.1-.27.74.11.1-.38c.11-.1.74.25.65-.15l.11.32.32-.32.11.42.26-.21.11.21.05-.32.59.31c.02-.26.57-.32.74-.29.04,0,.2.38.69.09-.1.37.21.32.33.47.11.13-.08.37.15.48l.26-.21c.02.39.56.34.84.54-.08.21-.16.37.06.52l.37-.53c-.1.35.23.86.53.96l-.21.16.32.05c.08.3-.23.15-.28.42-.03.17.05.27.06.43l.1.26c.27.06,0,.16,0,.16l-.11.64c.36.06.21-.43.52-.31l.07.21.26-.11v.52s-.32.06-.32.06c-.03.33-.07.31-.42.37-.08.31.36.23.42.53l-.32-.05-.11.47-.21-.1v.64s.74-.32.74-.32l.08.29c-.26.03-.13.41-.19.7-.05.23-.2.37-.21.6l.42.16c-.26.24-.46.43-.32.8-.52,0-.39.04-.65.25-.22.18-.34.02-.41.6h.32s-.11.32-.11.32l.43.21v.94s-.53.17-.53.17l.52.28c-.12.18.06.4.06.47-.03.43-.47.69-.23,1.09.06.1.37.09.28.34l-.36.1-.07.85.1-.21.64.11c-.01.21-.31-.01-.21.32l.19.05c.05.36-.36.75.02.96l-.21.26.42-.11c.11.36-.14.37-.21.64l-.32-.32.04.32-.14.05.53.16-.21.53.42-.11c.07.19-.17.26-.18.37,0,.13.28.4.07.69l-.42-.32.21.85.11-.21.21.16c-.27.36-.11.45,0,.8l-.26-.21-.16.21.19.05-.08.16.32.06-.11.48-.21-.11.21.69c-.24.24-.39-.13-.32.37h.32s-.32.8-.32.8l.22.11-.19.43c.22.24.32.25.19.58l-.32-.05c.06.31-.04.77.32.94.14.07.27-.22.21.28h-.32s0,.64,0,.64l.33.06c.23.29-.5.96.2,1.16l-.32.05c.35.33.02.34,0,.59,0,.03.12.61.13.63.04.08.18.04.19.05.04.06-.18.17-.19.35s.14.43.19.61l-.43-.05c-.04.33.4.39.43.64.04.35-.49,1.12-.27,1.44.05.07.21.08.24.12.02.03.04.7.03.78-.02.26-.49.93-.01.9l-.53.58c.24.4.09.74.53,1.01h-.64c-.03-.25.23-.46-.05-.63l-.37.26.32-.05-.11.74c-.39-.24-.28.23.11.11v.16c-.36.07-.47,1.46-.4,1.7.02.06.15.03.18.13.04.11-.02.27.04.43.02.06.37.23.37.26.02.08-.11.23-.09.34.01.09.22.08.31.25.14.27.06.67.14.91.02.08.56.47.13.52l.08.19-.53.16c.06.15.34.22.39.29.03.04.13.87.13.99.08,1.35-.15,3.07-.26,4.46-.01.14.08.32.05.48l-.21-.11c.07.43-.02,1.12-.53.85.09.47-.31.74-.43,1.22l.11.27c-.05.18.19,1.35.19,1.35.13.2-.12.68-.08.81.03.1.29.03.21.33-.03.1-.26-.02-.21.16l.53-.1-.09.47.41.17-.16.75c.07.34.31.21.43.3.35.28.27,1.62.42,2.07-.11,1.35.1,3.11-.46,4.37-.12.26-.3.23-.32.27-.03.05.14.83-.33.84l.32.21c.06.27-.07.16-.21.26.43.16.25.34.35.61.23.56.54,1.47.42,2.08-.07.35-.35,1.38-.78,1.3l.32.21c.09.28-.15.18-.19.26-.1.25-.01.77-.07.9-.07.15-.73.57-.8.91.03.14.21-.06.3-.03.31.1.03.56.34.56v.16c-.55.06-.09.5-.11.53,0,.01-.15-.01-.17.02-.05.08.09.28-.25.3l.31.47-.32.21.32.16-.53.69.32.05c-.14.32.11.66-.32.8v.53s.11.27.11.27c-.08.46-.21.97.38,1.06l.36.43c.16.91.24,1.64,0,2.55l-.32-.11c0,.15-.13.29-.16.41-.04.22-.11.93.14.91-.08.76.21,1.56.29,2.32.04.38.15.62.15.66.01.18-.21.61-.11.89-.66-.13-.61.61-.15.32l.05.21-.7.32.12.32c-.17.19-.48.23-.66.35-.09.06-.11.28-.24.34-.24.12-.61-.01-.73.07-.05.03-.08.3-.18.42-.06.07-.16,0-.24.04-.03.01-.02.13-.04.13-.11.04-.39-.18-.62.14l-.32-.32.42.53c-.22-.02-.39-.09-.62-.04-.29.06-.16.38-.68.14-.13-.06-.02-.29-.29-.2v.42c0-.39-.64-.67-.64-.21-.19,0-.32-.4-.15-.43l.36-.21-.64.05-.21.58-.22-.53h-.31s0,.42,0,.42c-.23,0-.47-.08-.43.21l-.58-.42-.27.64h-.21s.11-.32.11-.32l-.19.08c-.22-.5-1.14.12-1.46.35l-.05-.43-.32.43c0-.6-.77.06-.75-.42l-.58.53-.21-.53c-.5.29-.39.74-1.06.75,0-.39-.31-.25-.43-.54-.23,0-.25.15-.16.32-.41-.1-.69-.12-1.06.11-.12-.29.31-.24.32-.37,0-.17-.22-.36-.42-.27.08.41-.41,1.02-.48.32-.14.37-.26.26-.58.32v-.32s-.2.05-.2.05c.18.48-.5-.18-.55-.26l-.22.53-.16-.32-.37.32.26-.64c-.22-.01-.23.26-.38.36-.51.35-.74.19-1.27.06l.11.21h-.21c-.03-.36-.5-.48-.78-.32-.1.06-.04.3-.34.22-.11-.03-.11-.38-.32-.32-.09.33-.5.2-.73.25-.13.03-.22.21-.28.18-.01,0,.04-.18-.13-.25-.21-.08-.56.06-.82-.19l.1-.3h-.32s.11.32.11.32l-.9.11-.11-.22-.27.42c.05-.52-.09-.19-.19-.25-.09-.23-1.04-.21-1.24.03l-.07-.19c-.3.19-.47-.1-.66-.11-.18,0-.41.17-.64.16s-1.01-.23-1.08-.5c-.05.05-.11.14-.17.16-.79.18-1.49.82-2.42,1.05-.33.08-.76.06-1.13.28l-.06-.32c-.13.09-.65.05-.73-.02-.04-.04,0-.2-.04-.27-.07-.09-.5-.14-.56-.45l-.21.32c-.41-.36-.59.03-1.06-.03-.06,0-.05-.14-.08-.15-.05-.02-.15.07-.17.05-.06-.05-.07-.22-.17-.3-.36-.26-.91-.63-1.33-.58.03.22.77.38.26.58-.03.01-.13-.55-.32,0l-.21-.32-.37.42v-.53s-.53.32-.53.32l-.11-.32-.16.42c-.33-.41-.78-.05-.69.43l-.16-.32-.32.32-.06-.21-.31.1v-.42c-.24.37-.31.21-.4.25-.03.01-.02.17-.07.17-.09,0-.23-.11-.43-.1-.18,0-.39.14-.52.12-.07-.01-.05-.18-.14-.21-.07-.02-.33.07-.46,0l.11.32h-.32s.11-.21.11-.21c-.23,0-.47.08-.43-.21h-.1c-.09.28-.64.71-.96.64l.21-.16-.58-.56-.64.29-.06-.31h-.3s-.22.31-.22.31l.05-.32c-.58.57-.43-.09-.54-.11l-.79.11s.23-.42-.16-.43c-.08,0,.03.28-.06.46-.16.3-.4.39-.72.41l-.02.29c-1.08.02-1.99.68-3.07.76v-.32c-.92.4-.85-.58-1.6-.43l.1-.2-.74-.33c.06.51-.68.63-1.06.53v.32s-.32-.21-.32-.21v.32c-.32-.13-.64.19-.95.26-.77.17-1.84.01-2.39.39h-.85s-.06-.25-.06-.25c-.14-.34-.25.15-.31.19-.44.29-1.14-.35-1.6-.16.16-.44-.36-.44-.56-.52-.07-.03-.05-.21-.14-.21-.31-.02-.5.08-.84-.22l-.09.21c-.31-.19-.6-.07-.91,0l.42-.21-.11-.42c-.35-.08-.15.21-.22.31l-.54.06-.36-.38-.05.32-.21-.21-.16.21-.05-.42h-.64s0,.32,0,.32l.25-.11.28.22c-.2.49-.38.08-.73.21l-.17-.74-.16.42-.21-.11c-.09.38.13.22.21.42h-.53s.11-.21.11-.21c-.11-.08-1.05.41-1.36-.03-.1-.15.13-.38-.34-.29l.21.16c-.17.22-.58.52-.74.16.51.11.45-.62.32-.96-.27.03-.08.72-.11.74l-.26-.09c-.48.83-1.25-.59-1.92-.65l-.16.53-.16-.64.04.36-.25.17-.11-.21c-.29.1.2.57-.37.42l-.32-.53c0,.1-.03.2-.11.26-.49.35-.37-.06-.57-.05-.35.02-.36.27-.41.3-.04.02-.72.1-.81.12l-.11-.37-.43-.05c.07.19.09.5-.21.42l-.22-.74c-.32-.1-.18.33-.48.32-.13,0,.09-.43-.27-.32l-.11.53c-.28-.21-.83.39-.85-.09h-.21c.17.3-.2.31-.37.52-.1-.37-.49-.23-.8-.1l-.05-.32c-.22.43-.82.46-1.27.42-.67-.06-.45.03-1.08.1-.23.03-.94.07-1.15.06-.44,0-.46-.37-.55-.38-.17-.03-.67.19-.94.17-.11,0-.22-.18-.42-.17-.06,0-.05.19-.19.25-.43.19-1.32.29-1.47-.24h-.2s-.07.22-.07.22c-.27-.05-.42-.13-.37-.43l-.74.21.11-.32-.42.11c0-.09.03-.23-.02-.29-.13-.14-.81-.37-.84-.41-.05-.06-.39-.84-.41-.95-.08-.51-.07-2.01,0-2.54.11-.99.52-2.28.64-3.29.14-1.23,0-2.49.12-3.7.02-.22.25-.83.42-.72l.16-.39c.26-.24.33-.44.17-.76-.06-.13-.03-.06.01-.22l.15-.33c-.13-.46.6-.75.55-1.09-.01-.08-.16-.31-.25-.36s-.4-.27-.46-.69c-.02-.17-.33-.22-.3-.41l-.12-.21c.1-.37-.19-.6-.27-.71-.35-.52.19-.49.03-.73-.02-.03-.01-.05-.01-.05-.1-.13-.26-.43-.19-.59.03-.09.28.02.19-.26l-.38-.1c.07-.52-.4-.43-.05-1.02,0,0-.13-.1-.11-.22.03-.17-.15-.51-.16-.65-.03-.34-.24-1.76-.23-1.85.02-.19.24-.45.18-.52-.03-.04.11-.16.11-.16l-.1-.46.42-.28-.42-.16c-.12-.27.21-.18.22-.28.02-.21-.19-.58-.17-.84.01-.17.2-.37.16-.58l.21.21v-.53c.38-.09.22.13.43.21v-.74s-.53,0-.53,0l.42-.11-.21-.21h.42c.12-.27-.22-.2-.21-.26.02-.18.23-.33.43-.27.03-.18-.19-.08-.31-.17-.2-.15-.41-.41-.33-.68l.32.11-.11-.37.32.05-.53-.42c.59.14.91-.41.21-.21l.1-.42s-.15-.1-.14-.13c.04-.1-.06-.67-.05-.7,0-.02.17-.02.22-.15.13-.32.36-.87-.03-1.04l-.11.32c-.04-.09,0-.79.02-.83.04-.07.28-.09.3-.18s-.28-.35-.11-.58l.42.21c-.04-.25-.2-.54.11-.58l-.43-.48c.26.03.23-.08.21-.32h-.43c.28-.31.15-.92-.32-.85l.05-.2.26-.06c-.11-.17-.06-.41-.31-.38l.21-.21-.21-.07c-.12-.76.1-1.63-.21-2.32.26-.06.31-.06.43-.32l-.22-.11.12-.36-.32-.05.27-.37.27.05-.21-.37.42-.16c.09-.33-.55,0-.42-.32.17-.4.54.17.74,0l-.31-.42.2-.26-.43-.28c.07-.44.52-.61.11-1l.21-.06c.05-.19-.34-.22-.32-.42.02-.19.2-.1.29-.09.39.05-.08-.43-.4-.18-.03-.26.12-.31.32-.21v-.21c-.36.1-.32-.82-.26-.96.05-.13.34-.27.34-.37,0-.05-.17-.18-.19-.33-.03-.23.13-.45.11-.68l-.32-.06.11-.48.21.11v-.26s-.32-.32-.32-.32c.14-.18.4-.08.32-.37-.34.12-.5-.47-.59-.74-.06-.17.18-.36-.15-.32v-.21s.32-.11.32-.11l-.3-.02c-.09-.07-.03-1.87-.02-2.16,0-.25.18-.55.17-.75-.03-.51-.28-1.01.15-1.6l-.21-.11c-.09-1.22-.15-1.86.2-3.08.14-.47-.09-.73.54-1.05l-.21-.1s1.26-.8,1.17-1.21c-.1-.44-.52-.46-.59-.68-.09-.31-.21-.69-.21-.69,0,0-.13-.25-.11-.7,0-.38-.05-.4-.05-.4l.11-.46-.32-.05c-.08-.2.18-.39.18-.48s-.2-.21-.18-.42c.03-.31.41-.26.04-.78-.07-.1-.24-.13-.25-.2-.02-.16.18-.36-.11-.51l.21-.11-.32-.17c-.03-.19.31-.34.32-.37.1-.41-.18-.16-.32-.34-.26-.33-.01-.88-.32-1.15l.21-.05c.08-.22-.22-.42-.19-.56.02-.11.22-.21.2-.44,0-.05-.19-.04-.21-.13-.06-.23-.19-.85.1-.83-.29-.17-.09-.56,0-.82.04-.12.31.01.1-.4l.42-.16c-.16-.25-.61.02-.53-.37h.32c-.16-.21-.22-.27-.11-.53l.42.32-.11-.53.32.11-.43-.58.4-.33c-.04-.78-.06-1.56.13-2.32l-.21-.17.21-.05c-.26-.36-.81-1.06-.21-1.28-.27-.12-.51-.55-.57-.82-.08-.34.2-.56-.16-.66,0-.42-.13-1.65-.22-2.11-.02-.08-.2-.07-.22-.14-.04-.17.14-.92.32-.94-.16-.17-.28-.5-.22-.73.03-.11.23-.11.27-.17.05-.08-.07-.21-.03-.29.07-.14.44-.32.61-.24v-.59s.42.05.42.05c-.05-.17-.37-.19-.32-.48.04-.23.41-.04.42-.05-.18-.7.64-.52.86-.7.1-.08-.03-.29.16-.36.23.05.85.22.79-.11l.21.21v-.32s1.12.1,1.12.1c.41-.18.82,0,1.15-.02.28-.02.71-.29,1.13-.08l-.09-.27c.23-.05.18-.32.21-.35.07-.06.27.02.38-.05.06-.04-.02-.29.24-.18l-.11.21h.32c-.16-.32.19-.5.27-.11.2-.43.44-.37.84-.43l.16.32.02-.3c.21-.19.43.02.6.02.83.02,1.6.2,2.29.66.07.05.19.03.28.04v.53s.75-.21.75-.21v.32s.11-.21.11-.21c.13.12.64.23.79.21.1-.01.08-.25.23-.3.13-.04,1.07.02,1.06.3h.16s.05-.21.05-.21c.51.52.6.21.99.13.19-.04.51.13.77-.02l-.11.32s.43-.4.78-.32c.08.02.06.22.13.22.32.01.58-.19.95.21l.12-.22c.34.14.86.04,1.14.11.08.02.07.18.09.19.1.05.21-.09.28-.07.02,0,.04.2.27.31.3.14.86.27,1.12,0l.05.44.32.09-.05-.53c.15-.08.6.11.62.09.03-.02.04-.19.12-.24.41-.3.56-.27.95-.43.1-.04.18-.24.28-.26.14-.02.28.23.41.2.17-.03.22-.45.29-.51.02-.02.37.08.47-.13l.07.19.24-.08c.11.22.69.4.87.33l.05.2.11-.21.53.32.05-.42.1.21.48-.21-.06.32c.11.17.29.09.43,0l.05.31c.18.05.06-.17.15-.19.18-.05.56.24.48-.12h.1c.01.4.36.28.64.21v.32c.29.08.17-.14.27-.19.2-.11.32.19.34.19.29.05,1.86,0,2.04.13.08.05.08.4.33.29-.03-.32.29-.14.41-.22.07-.05.19-.71.66-.62l1.06-.42Z"/>
    </g>
  </g>
  <g id="_图层_2" data-name="图层_2">
    <path class="st0" d="M87.72,91.35l-.85-3.94-.05,2.3-.26.7-.39.77-.23,1.13s-4.41-.14-6.59-.08c-3.68.09-7.54-.67-10.97-.53-3.1.13-4.52,1.01-6.23.89-2.68-.2-2.22-1.71-4.6-1.55-4.54.3-3.52,1.53-7.81.68-3.51-.69-4,1.58-5.71,1.36-4.33-.56-6.69-.32-7.8.05-1.91.63-2.95-1.09-4.05-1.08-1.43.01-2.12.16-3.37.16-2,0-2.9-1.03-4.37-1.02-2.88.02-2.63.49-2.75.49-1.17.03-.72-.58-1.74-.54-1.57.06-1.76.62-2.53.62-.08,0-.91.03-.99.04l-3.15.33-.8-.35-1.38.27c-.61.12-1.25,0-1.77-.35-.29-.19-.56-.4-.81-.53-.62-.32-1.64-1.55-1.66-2.25-.03-1.47.82-6.66.82-6.66l2.92-.85-1.57-.42-.34-.98s.31-3.26.2-3.53c-2.06-5.35-2.12-6.64-1.94-9.65.13-2.15.72-4.23,1.06-5.42.99-3.47-.43-5.24-.55-5.85-.73-3.79.51-4.16.74-5.51.46-2.67-.39-4.72-.81-5.86-.45-1.22.43-3.32.27-3.56-.72-1.09.11-4.29.11-4.29.04-.6.38-1.02.78-1.4.88-.85.99-2.22.25-3.18l.48-.37c-.43-.57-.52-1.48-.52-1.48l1.28-1.12,3.55,1.32-1.25-1.93s-3.38-1.17-3.55-1.83c-.11-.43-.03-2.12.1-2.54l-.46-2.91c.08-.53.12-.9.04-1.43-.1-.76-.52-1.63-.65-2.36l-.67-4.57c-.14-.83-.03-1.49.3-2.27.74-1.74,2.12-2.64,3.71-2.44l1.41.12c.14.01.29.02.43,0,.7-.06,1.38-.24,2.02-.52.3-.13.92-.32,1.44-.44.33-.07.67-.08,1-.01l1.43.29c1.63.23,2.19,1.21,2.35.6l.26.28.15,2.58.43-.72.31-.23.3-.86.44-.17s.24-.68.25-.68c.41.07,1.97.49,1.97.49l.11,1.25.77-1.07s1.87.19,2.4.17c1.85-.04,2.7-1.51,4-1.14,7.51,2.09,8.31.63,12.67-.92,1.26-.45,1.55,1.19,2.02,1.09,4.83-.95,8.25-.56,11,.02,8.19,1.73,16.49.3,19.1-.12,2.75-.44,11.96.59,11.96.59.81,0,1.06.65,1.06.65l.56-.09.52-.08.47.23s.14,1.57.33,1.68c0,0,.41,4.46.24,7.36-.07,1.29-.79,2.86-1.66,4.04-.61.83-.1,1.88-.1,1.88l.42.68-.95.78h1.33s-1.02.87-1.02.87c0,0,2.01,1.89,2.11,4.82s-.13,4.96.15,6.08c.67,2.75-.97,5.45-.83,6.73.1.9.63,1.37.77,2.02.18.88-.61,3.89-1.49,5.65-.49.99-1.39,1.77-1.39,1.77l.44.58-1.4,1.01,2.28-.59.54,1.12s1.7,4.05,1.67,6.12c-.05,3.63-.46,4.8-.69,5.46-.69,1.93.52,2.06.49,2.97-.06,2.07-1,3.18-1.09,4.72-.07,1.12-.52,4.37-.52,4.37,0,.4.09.8.28,1.15v.83c.28.52.22.9.06,1.47-.05.18.1.71.1.71l-.13.7c-.04.23-.05.47-.03.7l.41,3.78c0,.34-1.59,2.77-1.59,2.77l-.86.34-.86-.71s-.49.39-1.31.31Z"/>
  </g>
  <g id="_图层_3" data-name="图层_3">
    <path class="st2" d="M28.06,58.56s.03-.12.08-.25l.76-1.47c.53-1.06.84-2.37.92-3.92.08-1.56.13-2.71.14-3.45,0-.75.02-1.23.04-1.46.02-.23.04-.37.06-.42,0-.11-.06-.44-.18-.98-.12-.54-.1-2.21.07-5.03l-.08-3.65v-2.66c-.08-.85-.08-1.4,0-1.64.06-.28.33-.75.81-1.4s1.01-.96,1.6-.92c.43.04.75.19.93.45.19.26.35.67.48,1.22l.25,1.02c.02.19.07.71.16,1.56s.13,1.39.14,1.61c0,.23,0,.53-.04.91-.06.53-.17,1.39-.33,2.59-.16,1.2-.25,1.96-.27,2.28l-.2,5.69c-.09,1.83-.11,3.07-.06,3.72.06.65.07,1.06.04,1.23s-.04.37-.03.59c0,.23.19.4.55.52.36.12.89-.13,1.59-.75.51-.45.82-.77.93-.96l.2-2.83.17-1.1v-1.7c0-.06.05-.32.14-.79l-.08-6.77.08-2.29c-.02-.25-.05-.62-.1-1.12-.05-.5-.06-.88-.04-1.15l.23-1.7.08-1.19c.02-.21.08-.47.2-.78s.64-1.02,1.57-2.14c.94-1.11,1.53-.72,1.8,1.18s.24,3.71-.08,5.42c-.08.38-.13.72-.17,1.02l-.23,6.6c-.04.49-.12,1.38-.25,2.66s-.19,2.3-.17,3.06c0,.21,0,.42.03.65s.03.56.04,1c0,.44.05.73.11.86.07.13.19.22.38.25s.53-.11,1.02-.45c.55-.4.85-.64.92-.74.07-.09.21-.52.44-1.27l.4-1.13c.13-.43.27-1.62.42-3.57l.11-1.42.11-3,.08-.65c.04-.42.06-1.25.07-2.49,0-1.25.04-2.06.09-2.44.05-.38.11-.73.2-1.05.09-.32.36-.85.84-1.6.47-.75,1.09-1.12,1.86-1.13.76,0,1.29.36,1.57,1.1.28.75.22,1.95-.2,3.61-.23.85-.43,1.69-.61,2.53-.18.84-.33,2.05-.44,3.64l-.42,5.47c-.17,1.36-.42,2.7-.75,4.01-.33,1.31-.6,2.25-.82,2.82-.22.57-.6,1.19-1.16,1.88-.56.69-1.7,1.42-3.44,2.19l-5.13,2.35-1.16.42-2.41,1.19c-1.04.51-1.91.72-2.61.62-.45-.06-.84-.23-1.16-.52-.32-.29-.46-.89-.41-1.78.05-.9.15-1.62.3-2.17ZM51.05,43.64c-.43-.62-.64-.99-.62-1.1.04-.26.23-.5.58-.71.35-.21.86-.39,1.54-.54l.99-.14c.06,0,.48-.13,1.27-.4.79-.26,1.59-.46,2.39-.59.8-.13,1.28-.28,1.43-.45s.27-.39.37-.67c.09-.27.16-.51.2-.72.02-.21-.01-.79-.1-1.76-.08-.96.06-2.54.44-4.73.3-1.81.89-2.73,1.77-2.75.88-.02,1.54.47,2,1.47.17.42.25.9.25,1.44l-.03,1.56.25,2.21-.17,3.12c.19.34.43.57.72.68.29.11,1.02.21,2.19.28l1.98.28c.45.04,1.17,0,2.14-.13.97-.12,1.58.09,1.83.65.25.56.08,1.75-.48,3.58-.32,1.02-.5,2.09-.54,3.2l.25,7.9c-.04.19-.09.54-.17,1.06-.08.52-.08.95,0,1.29,0,.08.04.28.13.62.09.34.17,1.57.26,3.7.08,2.12.11,3.33.07,3.61l-.54,2.24c-.06.26-.14.6-.24,1-.1.41-.56.54-1.37.41-.32-.04-.59-.16-.82-.37s-.38-.49-.45-.85l-.11-.74-.14-.51c-.02-.08-.03-.38-.04-.91,0-.53-.11-1.3-.3-2.32s-.3-1.96-.33-2.82c-.03-.86-.15-1.33-.35-1.42-.21-.08-.42-.14-.65-.16l-4.79.76c-.62.09-1.6.11-2.92.04-1.32-.07-2.96-.08-4.93-.04l-.37.37-.88.79c-.21.25-.54.99-.99,2.22-.45,1.24-.95,2.04-1.49,2.42-.54.38-1.32.87-2.34,1.47s-2.11.93-3.26.99c-.6.04-1.39-.07-2.37-.33-.97-.25-1.7-.54-2.18-.85-.48-.31-.71-.55-.69-.72,0-.13.17-.32.52-.57.35-.25.67-.44.95-.59l.54-.28,1.33-.82c.34-.19.96-.46,1.87-.82s1.61-.72,2.12-1.08,1.11-.99,1.8-1.88c.69-.9,1.1-1.57,1.23-2.01.13-.44.23-.82.3-1.13.07-.31.12-.52.16-.64l.54-1.3c.06-.23.1-.61.14-1.16l.65-7.99c.06-.98-.13-1.78-.57-2.41ZM54.68,31.35c.21-.04.45,0,.74.14.28.13.49.28.62.44.13.16.26.49.38.98.12.49.19.82.2.99,0,.17-.06.48-.21.93-.45,1.34-.82,2.23-1.1,2.66-.28.43-.59.77-.93,1.02-.34.25-.97.48-1.88.69-.92.22-1.68-.2-2.31-1.25s-.52-2.07.31-3.07c.09-.11.25-.26.48-.45l1.16-.93,1.42-1.36c.58-.47.96-.74,1.13-.79ZM55.03,55.41c.18.1.61.08,1.29-.07h1.98l1.33-.2c.87-.04,2.1-.08,3.68-.11h2.75c.83-.04,1.32-.17,1.46-.4.14-.23.25-.62.34-1.18.08-.56,0-1.01-.24-1.37s-1.46-.41-3.65-.14l-8.5.51c-.21.13-.36.26-.45.38-.09.12-.15.53-.17,1.23l-.11.85c.02.23.12.39.3.5ZM61.22,46.9c3.17-.34,4.96-.44,5.37-.3.41.14.65.2.72.18.15-.04.25-.14.31-.31s.14-.54.25-1.1.11-.92,0-1.08c-.13-.13-.32-.21-.57-.24-.25-.03-.88-.07-1.9-.13l-3.96-.23-2.29.23c-1.57.13-2.56.26-2.97.4s-.71.31-.89.54c-.18.23-.26.66-.24,1.3,0,.72.08,1.13.25,1.23.17.1.37.16.59.16.11.02.58-.05,1.42-.2s1.29-.25,1.39-.28l.2-.08,2.32-.08ZM67.54,30.41l1.84,1.02.76.37,2.66,1.84c1.17.79,1.79,1.38,1.86,1.77.07.39.03.72-.1,1.01-.09.17-.23.33-.4.48-.17.15-.81.42-1.91.82-1.1.4-1.8.59-2.08.59-.3.02-.67-.04-1.09-.17-.42-.13-.86-.39-1.3-.76-.44-.38-.72-1.17-.83-2.38l-.06-.65c-.04-.3-.24-1.11-.59-2.42-.36-1.31.06-1.82,1.25-1.52Z"/>
  </g>
</svg>