<?xml version="1.0" encoding="UTF-8"?>
<svg xmlns="http://www.w3.org/2000/svg" version="1.1" viewBox="0 0 100 100">
  <!-- Generator: Adobe Illustrator 30.0.0, SVG Export Plug-In . SVG Version: 2.1.1 Build 123)  -->
  <defs>
    <style>
      .st0 {
        fill: #94271e;
      }

      .st1 {
        fill: #ffeaaa;
      }
    </style>
  </defs>
  <g id="_图层_2" data-name="图层_2">
    <path class="st0" d="M87.72,91.35l-.85-3.94-.05,2.3-.26.7-.39.77-.23,1.13s-4.41-.14-6.59-.08c-3.68.09-7.54-.67-10.97-.53-3.1.13-4.52,1.01-6.23.89-2.68-.2-2.22-1.71-4.6-1.55-4.54.3-3.52,1.53-7.81.68-3.51-.69-4,1.58-5.71,1.36-4.33-.56-6.69-.32-7.8.05-1.91.63-2.95-1.09-4.05-1.08-1.43.01-2.12.16-3.37.16-2,0-2.9-1.03-4.37-1.02-2.88.02-2.63.49-2.75.49-1.17.03-.72-.58-1.74-.54-1.57.06-1.76.62-2.53.62-.08,0-.91.03-.99.04l-3.15.33-.8-.35-1.38.27c-.61.12-1.25,0-1.77-.35-.29-.19-.56-.4-.81-.53-.62-.32-1.64-1.55-1.66-2.25-.03-1.47.82-6.66.82-6.66l2.92-.85-1.57-.42-.34-.98s.31-3.26.2-3.53c-2.06-5.35-2.12-6.64-1.94-9.65.13-2.15.72-4.23,1.06-5.42.99-3.47-.43-5.24-.55-5.85-.73-3.79.51-4.16.74-5.51.46-2.67-.39-4.72-.81-5.86-.45-1.22.43-3.32.27-3.56-.72-1.09.11-4.29.11-4.29.04-.6.38-1.02.78-1.4.88-.85.99-2.22.25-3.18l.48-.37c-.43-.57-.52-1.48-.52-1.48l1.28-1.12,3.55,1.32-1.25-1.93s-3.38-1.17-3.55-1.83c-.11-.43-.03-2.12.1-2.54l-.46-2.91c.08-.53.12-.9.04-1.43-.1-.76-.52-1.63-.65-2.36l-.67-4.57c-.14-.83-.03-1.49.3-2.27.74-1.74,2.12-2.64,3.71-2.44l1.41.12c.14.01.29.02.43,0,.7-.06,1.38-.24,2.02-.52.3-.13.92-.32,1.44-.44.33-.07.67-.08,1-.01l1.43.29c1.63.23,2.19,1.21,2.35.6l.26.28.15,2.58.43-.72.31-.23.3-.86.44-.17s.24-.68.25-.68c.41.07,1.97.49,1.97.49l.11,1.25.77-1.07s1.87.19,2.4.17c1.85-.04,2.7-1.51,4-1.14,7.51,2.09,8.31.63,12.67-.92,1.26-.45,1.55,1.19,2.02,1.09,4.83-.95,8.25-.56,11,.02,8.19,1.73,16.49.3,19.1-.12,2.75-.44,11.96.59,11.96.59.81,0,1.06.65,1.06.65l.56-.09.52-.08.47.23s.14,1.57.33,1.68c0,0,.41,4.46.24,7.36-.07,1.29-.79,2.86-1.66,4.04-.61.83-.1,1.88-.1,1.88l.42.68-.95.78h1.33s-1.02.87-1.02.87c0,0,2.01,1.89,2.11,4.82s-.13,4.96.15,6.08c.67,2.75-.97,5.45-.83,6.73.1.9.63,1.37.77,2.02.18.88-.61,3.89-1.49,5.65-.49.99-1.39,1.77-1.39,1.77l.44.58-1.4,1.01,2.28-.59.54,1.12s1.7,4.05,1.67,6.12c-.05,3.63-.46,4.8-.69,5.46-.69,1.93.52,2.06.49,2.97-.06,2.07-1,3.18-1.09,4.72-.07,1.12-.52,4.37-.52,4.37,0,.4.09.8.28,1.15v.83c.28.52.22.9.06,1.47-.05.18.1.71.1.71l-.13.7c-.04.23-.05.47-.03.7l.41,3.78c0,.34-1.59,2.77-1.59,2.77l-.86.34-.86-.71s-.49.39-1.31.31Z"/>
  </g>
  <g id="_图层_4" data-name="图层_4">
    <path class="st1" d="M28.8,61.89c.84.58,2.59.48,5.26-.31,2.67-.79,4.16-1.3,4.47-1.52l.98-.77,1.31-.88,2.05-1.5c.78-.53,1.26-.88,1.42-1.04l.88-1.04,1.37-1.48c.13-.2.32-.68.57-1.45.25-.77.43-1.54.53-2.32.1-.78.03-1.26-.22-1.42s-.62-.23-1.13-.19c-.31.04-.59.07-.85.11-.26.04-.91.18-1.97.42-1.06.25-2.14.46-3.25.64-1.11.18-1.91.39-2.39.63-.48.24-.79.36-.92.36-.05.02-.29,0-.71-.08l-1.04-.05c-.64-.05-1.03-.18-1.18-.38-.15-.2-.3-.53-.45-.98-.16-.46-.24-.75-.26-.89-.02-.14,0-.3.05-.48.07-.33.24-.62.51-.89s.76-.49,1.49-.67c.73-.18,1.27-.3,1.61-.36l2.13-.16,2.08-.52c.15-.04.72-.14,1.72-.3,1-.16,2.1-.39,3.28-.67,1.18-.28,1.96-.44,2.32-.48l1.26-.05c.2,0,.61-.05,1.23-.16s1.08-.17,1.37-.19l3.04.11c1.49-.07,2.45-.06,2.87.04.42.1.65.14.68.12.56-.02,1.08-.36,1.54-1.01s.6-1.1.4-1.34c-.16-.16-1.75-.23-4.76-.19-1.17.04-2.63.16-4.4.37-1.77.21-3.11.36-4.02.44s-1.4.12-1.48.12l-3.36.68c-1.06.15-1.7.26-1.94.36l-1.15.55-.9.11-1.12.3-1.64.33-.55.33c-.16.05-.55,0-1.16-.19-.61-.18-1.05-.36-1.33-.55-.27-.18-.46-.42-.56-.71-.1-.29-.16-.53-.16-.72,0-.19.21-.56.64-1.11.51-.66.81-1.01.9-1.07.09-.05.19-.09.3-.11.09,0,.32.01.7.04.37.03.66.02.86-.01l1.29-.46,3.28-.38,1.67-.49,3.01-.6,3.09-.71,5.03-.36c.29-.05.48-.09.57-.11.05,0,.37.02.96.05l1.45.03.49.05h2.32c1.28.04,2.16.09,2.67.15.5.06.84.03,1.03-.1.35-.25.51-.63.48-1.13-.03-.5-.12-.8-.29-.89-.07-.02-.21-.02-.4-.01-.19,0-.41,0-.67-.01-.56-.02-1.25-.09-2.06-.22-.81-.13-1.4-.18-1.76-.16l-1.07.14-2.32.11-1.18.22-1.18.08c-.05.02-.3.05-.75.11s-.85.09-1.22.1c-.37,0-1.25.06-2.65.15l-2.68.03-1.64.25-1.83.16-1.01.3-1.5.38c-.49.15-.91.33-1.26.55l-1.39.93c-.33.15-.65.2-.96.16-.11,0-.36-.05-.77-.16-.4-.11-.73-.18-.98-.22-.26-.04-.42-.08-.51-.12-.08-.05-.14-.1-.18-.18l-.38-.49-.71-.46c-.05-.04-.11-.11-.18-.22-.06-.11-.13-.28-.19-.51-.06-.23-.1-.42-.11-.59,0-.16.1-.38.34-.66l1.07-1.01c.22-.27.37-.43.45-.48.08-.05.18-.07.29-.07l.6.41c.15.09.56,0,1.26-.3l1.15-.36,1.01-.41s.24,0,.66.01c.42,0,1.13-.1,2.12-.34.99-.24,2.1-.46,3.32-.66,1.22-.2,1.91-.31,2.08-.33.2,0,.68,0,1.44.03.76.02,1.45-.02,2.09-.11l3.53-.46,2.49.16,2.3-.22c.47,0,1.25.1,2.32.29s2.06.38,2.97.56c.9.18,1.67.27,2.31.27.26.02.59-.08,1.01-.29.42-.21.78-.2,1.07.04.11.13.23.29.37.49.14.2.21.42.22.64,0,.23-.05.59-.18,1.08-.02.07-.08.33-.18.77s-.17.71-.21.81c-.04.1-.24.41-.62.93s-.6.88-.67,1.08l-.16.55c-.05.13-.18.38-.38.77s-.54,1.21-1.01,2.49l-.85,2.19c-.07.22-.13.41-.16.57l-.44,2.11-.36.85c-.15.49-.26.78-.36.88-.09.09-.33.15-.71.16-.58.05-1.34.04-2.27-.04s-1.6-.12-2.02-.12l-2,.11c-1.77,0-2.79.03-3.06.08s-.5.23-.68.52c-.18.29-.08.73.3,1.31l.3.44c.05.11.18.4.37.86.19.47.51,1.13.96,1.98.45.86.96,1.32,1.53,1.39.57.07,1.04-.05,1.38-.38.07-.07.25-.33.52-.78.27-.45.62-.83,1.04-1.16s.64-.5.66-.52l.38-.74c.31-.58.78-.97,1.39-1.16s1.02-.3,1.2-.31c.16,0,.66.05,1.48.16s1.28.26,1.38.46c.1.2.15.46.16.78,0,.32,0,.6-.04.83l-.16.79c-.05.29-.11.47-.15.53-.04.06-.26.21-.64.45l-.6.46c-.44.31-.91.42-1.41.33-.5-.09-.76-.14-.78-.14-.18.02-.44.16-.78.42-.34.26-.72.52-1.15.75-.43.24-.69.48-.78.72s-.06.52.08.81c.09.22.2.37.33.45s.39.21.79.37l1.01.55c.37.2.97.43,1.83.7.86.26,2.02.66,3.5,1.18s3.24.87,5.3,1.05l2.3.27h1.01c.46.02.71.08.78.19s-.08.4-.42.88l-1.53,2.65c-.64.95-1.57,1.85-2.79,2.72-1.22.87-2.4,1.26-3.53,1.19-.73-.04-1.66-.34-2.79-.9-1.13-.57-2.18-1.28-3.14-2.13l-1.94-1.72c-.35-.27-.73-.58-1.15-.93-.42-.35-.69-.6-.82-.77l-.49-.74-1.48-1.78-.6-.88c-.18-.24-.35-.44-.49-.6l-.52-.52-.63-1.15s-.29-.27-.82-.81c-.53-.54-.85-.81-.96-.81l-.68.41-.38.03c-.15.04-.24.1-.29.18s-.07.22-.08.42c0,.2-.69,1.12-2.04,2.76l-.66.93c-.11.15-.71.8-1.79,1.97-1.08,1.17-1.71,1.81-1.87,1.93-.16.12-.32.22-.46.31l-1.18.77c-1.62,1.09-2.56,1.7-2.82,1.83-.26.13-1.16.42-2.71.88-1.55.46-2.96.7-4.24.74-1.26.04-2.21-.18-2.84-.64-.64-.46-1.02-.82-1.15-1.05-.13-.24-.23-.62-.3-1.13-.07-.52-.11-.96-.11-1.31s.06-.77.19-1.24c.07-.27.2-.51.37-.71.17-.2.31-.29.42-.27.11.02.32.12.63.3ZM35.83,52.1l2.54-.46c1.44-.24,2.43-.31,2.98-.22.27.05.55.09.83.1.28,0,.47.05.57.11.1.06.15.24.15.53-.02.16-.05.3-.11.41s-.2.25-.42.41c-.23.16-.51.42-.83.77-.33.35-.87.86-1.61,1.53-.75.67-1.26,1.09-1.53,1.24-.27.16-.72.28-1.33.37-.61.09-.95.15-1.03.16l-.85.46c-.24.11-.47.17-.71.19-1,.09-1.77-.25-2.31-1.04-.54-.78-.8-1.34-.78-1.67,0-.07.18-.48.55-1.23.36-.75.58-1.17.66-1.27.07-.1.21-.16.41-.18l.33.05c.18.02,1.01-.07,2.49-.27Z"/>
  </g>
</svg>