<?xml version="1.0" encoding="UTF-8"?>
<svg xmlns="http://www.w3.org/2000/svg" version="1.1" viewBox="0 0 100 100">
  <!-- Generator: Adobe Illustrator 30.0.0, SVG Export Plug-In . SVG Version: 2.1.1 Build 123)  -->
  <defs>
    <style>
      .st0 {
        fill: #94271e;
      }

      .st1 {
        fill: #ffeaaa;
      }
    </style>
  </defs>
  <g id="_图层_2" data-name="图层_2">
    <path class="st0" d="M87.72,91.35l-.85-3.94-.05,2.3-.26.7-.39.77-.23,1.13s-4.41-.14-6.59-.08c-3.68.09-7.54-.67-10.97-.53-3.1.13-4.52,1.01-6.23.89-2.68-.2-2.22-1.71-4.6-1.55-4.54.3-3.52,1.53-7.81.68-3.51-.69-4,1.58-5.71,1.36-4.33-.56-6.69-.32-7.8.05-1.91.63-2.95-1.09-4.05-1.08-1.43.01-2.12.16-3.37.16-2,0-2.9-1.03-4.37-1.02-2.88.02-2.63.49-2.75.49-1.17.03-.72-.58-1.74-.54-1.57.06-1.76.62-2.53.62-.08,0-.91.03-.99.04l-3.15.33-.8-.35-1.38.27c-.61.12-1.25,0-1.77-.35-.29-.19-.56-.4-.81-.53-.62-.32-1.64-1.55-1.66-2.25-.03-1.47.82-6.66.82-6.66l2.92-.85-1.57-.42-.34-.98s.31-3.26.2-3.53c-2.06-5.35-2.12-6.64-1.94-9.65.13-2.15.72-4.23,1.06-5.42.99-3.47-.43-5.24-.55-5.85-.73-3.79.51-4.16.74-5.51.46-2.67-.39-4.72-.81-5.86-.45-1.22.43-3.32.27-3.56-.72-1.09.11-4.29.11-4.29.04-.6.38-1.02.78-1.4.88-.85.99-2.22.25-3.18l.48-.37c-.43-.57-.52-1.48-.52-1.48l1.28-1.12,3.55,1.32-1.25-1.93s-3.38-1.17-3.55-1.83c-.11-.43-.03-2.12.1-2.54l-.46-2.91c.08-.53.12-.9.04-1.43-.1-.76-.52-1.63-.65-2.36l-.67-4.57c-.14-.83-.03-1.49.3-2.27.74-1.74,2.12-2.64,3.71-2.44l1.41.12c.14.01.29.02.43,0,.7-.06,1.38-.24,2.02-.52.3-.13.92-.32,1.44-.44.33-.07.67-.08,1-.01l1.43.29c1.63.23,2.19,1.21,2.35.6l.26.28.15,2.58.43-.72.31-.23.3-.86.44-.17s.24-.68.25-.68c.41.07,1.97.49,1.97.49l.11,1.25.77-1.07s1.87.19,2.4.17c1.85-.04,2.7-1.51,4-1.14,7.51,2.09,8.31.63,12.67-.92,1.26-.45,1.55,1.19,2.02,1.09,4.83-.95,8.25-.56,11,.02,8.19,1.73,16.49.3,19.1-.12,2.75-.44,11.96.59,11.96.59.81,0,1.06.65,1.06.65l.56-.09.52-.08.47.23s.14,1.57.33,1.68c0,0,.41,4.46.24,7.36-.07,1.29-.79,2.86-1.66,4.04-.61.83-.1,1.88-.1,1.88l.42.68-.95.78h1.33s-1.02.87-1.02.87c0,0,2.01,1.89,2.11,4.82s-.13,4.96.15,6.08c.67,2.75-.97,5.45-.83,6.73.1.9.63,1.37.77,2.02.18.88-.61,3.89-1.49,5.65-.49.99-1.39,1.77-1.39,1.77l.44.58-1.4,1.01,2.28-.59.54,1.12s1.7,4.05,1.67,6.12c-.05,3.63-.46,4.8-.69,5.46-.69,1.93.52,2.06.49,2.97-.06,2.07-1,3.18-1.09,4.72-.07,1.12-.52,4.37-.52,4.37,0,.4.09.8.28,1.15v.83c.28.52.22.9.06,1.47-.05.18.1.71.1.71l-.13.7c-.04.23-.05.47-.03.7l.41,3.78c0,.34-1.59,2.77-1.59,2.77l-.86.34-.86-.71s-.49.39-1.31.31Z"/>
  </g>
  <g id="_图层_4" data-name="图层_4">
    <path class="st1" d="M27.95,48.88l.46-.27c.47-.35.75-.53.82-.55l.41-.03,1.15-.41c.09,0,.31.05.67.16s.7.15,1.03.11c.25-.02.47-.09.66-.22l.52-.44,1.45-.63c.6-.31.88-1.15.85-2.52-.02-.27-.06-.67-.14-1.19-.07-.52-.23-.91-.46-1.18-.24-.26-.45-.41-.63-.45-.18-.02-.5.1-.94.36-.45.26-.68.38-.7.38l-1.5.14-1.09.33c-.2.02-.51-.06-.92-.23-.41-.17-.69-.38-.83-.62l-.46-1.53-.38-.46c-.22-.31-.3-.88-.25-1.72.04-.67.18-1.23.44-1.65.25-.43.73-.72,1.42-.89.29-.05.76-.04,1.41.04.65.08,1.1.1,1.35.07l.74-.11.88.03c.58-.04,1.05-.23,1.39-.57s.62-.79.82-1.34l.49-1.75c.15-.47.32-.77.52-.89.2-.12.53-.12.98-.01.46.13.88.31,1.26.56s.61.43.68.56c.07.13.14.4.19.81s.19.89.4,1.44c.21.55.41.9.6,1.07s.62.16,1.3,0c.18-.04.48-.12.9-.25.42-.13.77-.19,1.04-.19.49.04.79.21.9.51s.18.81.21,1.53c.03.72,0,1.19-.07,1.41-.16.47-.33.77-.49.88l-.85.16-.98.68s-.31.07-.89.15-1.2.29-1.89.62-1.1.58-1.26.75c-.16.17-.21.52-.15,1.03l.25,1.67-.03.85c0,.22.05.37.14.46l.6.38.22.27c.27.36.88.51,1.83.44,1.17-.07,1.83-.32,1.98-.75.15-.43.2-.75.12-.97l-.19-.46.22-.82v-.38l1.01-1.94c.31-.62.53-.97.66-1.05.13-.08.31-.12.55-.12.31.02.55.14.71.36s.27.4.31.53c.05.14.07.28.07.42l-.22,1.64c.04.26.22.62.55,1.09.33.47.5.79.51.94,0,.16-.02.44-.1.86l-.11,2.41-.19.77s0,.26.07.68c.06.42.1.72.1.9l-.14,1.53c-.02.2.01.82.1,1.85.08,1.03.12,1.95.11,2.75,0,.8.03,1.33.12,1.59.11.42.2.67.27.74.07.07.26.11.57.11l.96.16s.56.04,1.61.05c1,.04,1.6.03,1.79-.01.19-.04.62-.23,1.27-.55.66-.32,1.17-.7,1.54-1.15.37-.45.55-.94.53-1.49-.02-.07-.08-.4-.19-.97s-.26-.98-.44-1.23c-.18-.25-.4-.43-.64-.56-.25-.13-.71-.1-1.38.08-.2.05-.46.16-.79.33s-.5.24-.52.22c-.68,0-1.26-.54-1.75-1.63-.49-1.08-.6-1.84-.33-2.26.27-.42.42-.65.44-.68,0-.04,0-.16-.01-.38s.02-.5.08-.85c.06-.35.1-.59.11-.74,0-.15-.05-.52-.18-1.12-.04-.15-.14-1.02-.3-2.61-.16-1.59-.26-2.57-.27-2.91-.02-.35-.03-.57-.03-.68l-.38-1.59-.05-.68c-.02-.09-.11-.4-.29-.92-.17-.52-.26-.88-.27-1.07,0-.19.02-.43.1-.72.11-.58.24-1.15.4-1.71.15-.56.36-.92.6-1.09.25-.17.41-.26.51-.27.09,0,.28.13.57.42l.41.38c.11.15.25.42.44.81.18.39.26.99.23,1.8-.03.81,0,1.32.1,1.52l.36.88-.03.57c0,.15.12.52.37,1.13.25.61.29,1.61.15,2.99-.15,1.39-.17,2.32-.08,2.82l.3,1.37c.02.13.06.52.12,1.18.06.66.32,1.03.78,1.12.09.04.32,0,.68-.1.36-.1.64-.36.82-.78l.19-1.34.55-1.42v-.93c0-.11.04-.36.14-.75.09-.39.14-.7.16-.92l-.03-1.42s.02-.7.11-2.05l.05-1.64c.05-1.28.07-2.05.05-2.32l-.22-1.64v-1.42c-.02-.4-.02-.66,0-.77.04-.38.25-.74.66-1.07.4-.33.71-.6.92-.82.21-.22.38-.33.51-.33.31.02.59.24.83.66.25.42.4.67.46.75.06.08.13.18.21.29.07.11.05.42-.05.93l-.19.88c-.13.58-.2,1.14-.22,1.67v4.4l-.25,1.8-.08,1.45-.16.82c-.05.29-.08.63-.08,1.01-.02.09-.02.17,0,.25l.05,1.39c-.05,1.51,0,2.38.14,2.6.07.15.25.23.55.25l1.18.36c.55.13.98,0,1.3-.41.32-.4.51-.83.59-1.29l.05-.9s.05-.3.15-.78c.1-.48.19-1.21.27-2.19.08-.98.17-1.76.27-2.35.1-.59.16-.96.18-1.11l-.05-.93.27-1.5.03-2.35c.07-.24.35-.63.83-1.19.48-.56.9-.98,1.26-1.26.36-.28.71-.35,1.05-.21.11.07.33.31.66.7.33.39.52.65.59.78.06.13.1.37.1.74-.02.51-.12,1.01-.3,1.5l-.46,1.04-.3,1.07c-.04.11-.12.33-.23.67-.12.34-.2.62-.23.86l-.08.52-.16.74c-.05.2-.09.46-.11.79l-.22,2.41-.38,2.87c-.04.27-.07.84-.11,1.7-.04.86,0,1.52.14,1.98.13.47.2.77.21.9,0,.14-.02.3-.1.48-.15.33-.38.61-.68.85-.31.24-.54.36-.68.36l-.82-.22-.52-.08-1.09-.3c-.13,0-.34.03-.64.1-.3.06-.75.13-1.35.21-.6.07-1,.2-1.19.37-.19.17-.27.43-.23.78l.33.96c0,.09,0,.19.03.3l-.05,1.72c.04,1.42.91,2.01,2.62,1.75,1.42-.2,2.34-.27,2.76-.22.24.04.37.05.41.05h.98l.44.14c.16.02.43-.16.79-.55.29-.31.47-.53.55-.66l.49-1.91c.33-1.11.49-1.68.49-1.7l-.11-.71.57-3.77s-.04-.25-.07-.63-.02-.71.01-.98l.05-.38c.02-.13.05-.5.1-1.11.04-.61.11-1.18.19-1.7s.12-.89.12-1.11l-.05-.55v-.63c-.02-.27-.02-.44,0-.49,0-.02.05-.22.15-.6.1-.38.18-.63.25-.75.06-.12.23-.25.49-.41.26-.15.62-.15,1.05.01.35.15.65.43.92.86.26.43.39.82.37,1.16-.02.04-.03.1-.03.19l-.33,2.43c-.04.13-.15.51-.33,1.15-.18.64-.26,1.19-.22,1.67l.05.66-.22,2.63v.66l-.11.66.19,1.34c0,.15-.04.67-.11,1.59l-.05,1.39c-.02.42-.03.67-.04.74,0,.07.02.49.1,1.26.05.97.14,1.68.26,2.15.12.46.17.76.15.89l-.57,1.48-.08.55c-.07.18-.34.37-.79.57l-1.53.77c-.24.09-.44.16-.6.19-.35.07-1.13,0-2.35-.19l-1.56-.19c-.42-.04-.89-.11-1.41-.22s-.87-.18-1.05-.22l-5.06.22-2.57-.22h-.19l-4.76.27c-2.73.05-4.41.13-5.02.23-.61.1-1.03.2-1.27.3-.24.1-.39.16-.46.16-.07,0-.28-.15-.62-.48-.34-.33-.52-.56-.55-.68-.03-.13-.02-.46.01-.98l-.03-1.42s.1-.34.3-.9l.55-1.83.6-1.01c.36-.67.65-1.84.85-3.5l.05-5c.02-.44-.02-.69-.12-.77-.1-.07-.24-.11-.42-.11-.47.02-.79.11-.96.29-.16.17-.39.53-.68,1.08-.29.55-.63.95-1.03,1.2-.39.26-.86.45-1.41.59s-.97.38-1.27.72c-.3.35-.46.71-.48,1.09v.49l-.3,2.35c0,.11.05.54.15,1.29.1.75.1,1.63-.01,2.65l-.11.88c-.15,1.13-.27,1.86-.37,2.19-.1.33-.3.77-.59,1.33-.29.56-.62.99-.97,1.3-.36.31-.63.49-.82.55s-.35.07-.48.05l-.9-.19-.46.08c-.38.07-.87.03-1.46-.14-.59-.16-1.14-.45-1.64-.86-.5-.41-.77-.63-.81-.67l-.44-.19c-.22-.11-.49-.41-.82-.9s-.46-.83-.38-1.01c.02-.07.09-.15.22-.23.13-.08.52-.15,1.18-.21l1.83-.38c.24-.04.64-.05,1.2-.04.56,0,1.04-.23,1.42-.72s.65-1.07.79-1.72l.22-1.26c.22-1.13.32-1.82.3-2.08l-.19-1.12c-.02-.15-.02-.37-.01-.67,0-.3,0-.5-.04-.59-.13-.18-.48-.2-1.05-.05-.57.15-.94.2-1.11.16l-.79-.19c-.2-.02-.39-.02-.57,0-.18.04-.49.14-.93.31-.44.17-.77.25-.98.23-.67-.04-1.2-.41-1.57-1.11-.37-.7-.57-1.16-.6-1.38s-.04-.43-.04-.64.08-.67.25-1.37c.16-.7.25-1.06.27-1.08Z"/>
  </g>
</svg>