<?xml version="1.0" encoding="UTF-8"?>
<svg xmlns="http://www.w3.org/2000/svg" version="1.1" viewBox="0 0 100 100">
  <!-- Generator: Adobe Illustrator 30.0.0, SVG Export Plug-In . SVG Version: 2.1.1 Build 123)  -->
  <defs>
    <style>
      .st0 {
        fill: #94271e;
      }

      .st1 {
        fill: #ffeaaa;
      }
    </style>
  </defs>
  <g id="_图层_2" data-name="图层_2">
    <path class="st0" d="M87.72,91.35l-.85-3.94-.05,2.3-.26.7-.39.77-.23,1.13s-4.41-.14-6.59-.08c-3.68.09-7.54-.67-10.97-.53-3.1.13-4.52,1.01-6.23.89-2.68-.2-2.22-1.71-4.6-1.55-4.54.3-3.52,1.53-7.81.68-3.51-.69-4,1.58-5.71,1.36-4.33-.56-6.69-.32-7.8.05-1.91.63-2.95-1.09-4.05-1.08-1.43.01-2.12.16-3.37.16-2,0-2.9-1.03-4.37-1.02-2.88.02-2.63.49-2.75.49-1.17.03-.72-.58-1.74-.54-1.57.06-1.76.62-2.53.62-.08,0-.91.03-.99.04l-3.15.33-.8-.35-1.38.27c-.61.12-1.25,0-1.77-.35-.29-.19-.56-.4-.81-.53-.62-.32-1.64-1.55-1.66-2.25-.03-1.47.82-6.66.82-6.66l2.92-.85-1.57-.42-.34-.98s.31-3.26.2-3.53c-2.06-5.35-2.12-6.64-1.94-9.65.13-2.15.72-4.23,1.06-5.42.99-3.47-.43-5.24-.55-5.85-.73-3.79.51-4.16.74-5.51.46-2.67-.39-4.72-.81-5.86-.45-1.22.43-3.32.27-3.56-.72-1.09.11-4.29.11-4.29.04-.6.38-1.02.78-1.4.88-.85.99-2.22.25-3.18l.48-.37c-.43-.57-.52-1.48-.52-1.48l1.28-1.12,3.55,1.32-1.25-1.93s-3.38-1.17-3.55-1.83c-.11-.43-.03-2.12.1-2.54l-.46-2.91c.08-.53.12-.9.04-1.43-.1-.76-.52-1.63-.65-2.36l-.67-4.57c-.14-.83-.03-1.49.3-2.27.74-1.74,2.12-2.64,3.71-2.44l1.41.12c.14.01.29.02.43,0,.7-.06,1.38-.24,2.02-.52.3-.13.92-.32,1.44-.44.33-.07.67-.08,1-.01l1.43.29c1.63.23,2.19,1.21,2.35.6l.26.28.15,2.58.43-.72.31-.23.3-.86.44-.17s.24-.68.25-.68c.41.07,1.97.49,1.97.49l.11,1.25.77-1.07s1.87.19,2.4.17c1.85-.04,2.7-1.51,4-1.14,7.51,2.09,8.31.63,12.67-.92,1.26-.45,1.55,1.19,2.02,1.09,4.83-.95,8.25-.56,11,.02,8.19,1.73,16.49.3,19.1-.12,2.75-.44,11.96.59,11.96.59.81,0,1.06.65,1.06.65l.56-.09.52-.08.47.23s.14,1.57.33,1.68c0,0,.41,4.46.24,7.36-.07,1.29-.79,2.86-1.66,4.04-.61.83-.1,1.88-.1,1.88l.42.68-.95.78h1.33s-1.02.87-1.02.87c0,0,2.01,1.89,2.11,4.82s-.13,4.96.15,6.08c.67,2.75-.97,5.45-.83,6.73.1.9.63,1.37.77,2.02.18.88-.61,3.89-1.49,5.65-.49.99-1.39,1.77-1.39,1.77l.44.58-1.4,1.01,2.28-.59.54,1.12s1.7,4.05,1.67,6.12c-.05,3.63-.46,4.8-.69,5.46-.69,1.93.52,2.06.49,2.97-.06,2.07-1,3.18-1.09,4.72-.07,1.12-.52,4.37-.52,4.37,0,.4.09.8.28,1.15v.83c.28.52.22.9.06,1.47-.05.18.1.71.1.71l-.13.7c-.04.23-.05.47-.03.7l.41,3.78c0,.34-1.59,2.77-1.59,2.77l-.86.34-.86-.71s-.49.39-1.31.31Z"/>
  </g>
  <g id="_图层_4" data-name="图层_4">
    <path class="st1" d="M24.93,57.11c.07-.75.26-1.46.56-2.15s1.55-1.24,3.76-1.68c1-.02,1.95-.1,2.83-.26.88-.15,1.57-.32,2.05-.49.48-.17.77-.27.86-.29.09-.02.35-.04.78-.07.43-.03,1.15-.15,2.17-.37l2.87-.57.57.14c1.28-.27,2.33-.45,3.16-.53.83-.08,1.35-.2,1.57-.34l.71-.41c0-.46-.11-.93-.34-1.42-.23-.49-1.04-.56-2.45-.22-.24.13-.96.35-2.16.66-1.09.16-1.96.28-2.6.36-.64.07-1.47.3-2.49.68-.31.18-.47.26-.49.25l-1.45-.3c-.44-.47-.66-.81-.66-1.01l-.05-.57.38-.6c-.04-.09-.06-.16-.07-.22,0-.05.09-.57.29-1.56.02-.11.05-.39.08-.85l.25-2.3c.04-.64,0-1.23-.08-1.78l-.33-1.59-.11-.98-1.29-2.19-.68-.74-.98-1.07c-.13-.29-.2-.56-.21-.79,0-.24.11-.5.36-.78.25-.28.42-.46.53-.53.24-.15.69-.16,1.35-.04.67.12,1.14.13,1.44.04.42-.13,1.14-.27,2.16-.44,1.02-.16,1.92-.25,2.71-.26.78,0,1.32-.04,1.6-.08.28-.05.68-.13,1.2-.26.52-.13.91-.21,1.16-.25l2.05-.19c.16-.02.45-.07.86-.16.41-.09.8-.13,1.16-.11.36.02.56,0,.6-.03l.38-.19c.56.02.99.04,1.28.05l1.5.22h1.5c.78-.11,1.49-.18,2.13-.22.64-.04,1.71.07,3.23.33,2.22.38,3.79.5,4.7.36.91-.07,1.8-.04,2.68.11.78.38,1.68.67,2.68.88l.63.63c.31.49.42.79.33.9l-.25.41-.63,1.37c-.33.11-.59.23-.78.37s-.41.48-.66,1.04c-.25.56-.45.93-.62,1.13l-.44.46-.85,1.8-.55.85-.68,1.97c-.05.29-.1.49-.14.59-.04.1-.38.63-1.01,1.6l-.85,1.42c-.6.82-1.34,1.34-2.2,1.56-.87.22-2.07.13-3.62-.27-1.22-.13-2.27-.07-3.13.18-.87.25-1.28.6-1.24,1.05,0,.16.11.4.33.7s.7.5,1.45.59l2.16.14,1.23.19,1.59.08c1.28.2,2.56.29,3.87.27,1.3-.02,2.43.03,3.38.14.95.11,1.5.16,1.67.14.44,0,2.07-.24,4.89-.71.18-.15.34-.25.46-.3l1.15-.14.98-.3c.58-.07.98.07,1.2.44.22.37.22.87,0,1.5-.16.46-.52,1.2-1.07,2.24s-1.26,2.17-2.13,3.38c-.88,1.21-2.17,1.75-3.88,1.63l-1.59-.25c-1.2-.16-1.82-.25-1.86-.27l-1.83-.79-1.91-.52-1.91-.82c-.4-.18-.69-.31-.88-.38l-3.12-.46c-.26-.04-.68-.15-1.27-.34-.59-.19-1.24-.34-1.96-.45-.07.05-.13.08-.16.08l-.46.16c-.22.09-.42.26-.6.52-.18.26-.28.44-.3.55l.03.68-.11.79.05.55-.14.14.08,2.13c.07.55.12,1.01.14,1.39.02.38.03.61.04.67,0,.06.08.46.22,1.2s.14,1.37.03,1.89c-.12.52-.25.96-.38,1.33-.14.36-.26.6-.37.71l-.49.41-.25.27c-.75.15-1.19.18-1.34.11l-1.15-.33c-.4-.66-.66-1.17-.77-1.53l.11-4.7.05-2.43c.36-1.68.46-2.79.3-3.35-.16-.56-.26-.83-.27-.83l-3.09-.08c-.8.07-1.5.12-2.08.15-.58.03-1.53.2-2.83.51-1.3.31-2.13.57-2.49.78-.36.21-.6.32-.72.34l-.41.03-1.07.41c-.6.13-.9.2-.9.22l-.11.22c-.47-.02-.77.1-.88.36-.31.02-.53.04-.67.07s-.46.16-.96.4c-.5.24-1.03.38-1.6.44l-1.09.14c-.86.22-1.3.32-1.34.3-.77-.07-1.44-.51-2.02-1.31l.16-1.01-.19-.27ZM32.39,63.13l.03-1.01c.11-.09.19-.16.25-.22l.6-.68c.2-.18.61-.39,1.22-.63.61-.24,1.03-.37,1.27-.41l1.83-.11,1.42-.6c1.24-.46,1.93-.78,2.08-.98l1.64-.25.79-.22c.67.2,1.13.45,1.35.75.23.3.21.79-.04,1.48-.26.68-.47,1.17-.66,1.46l-1.2,1.56-.55.74c-.53.67-1.44,1.4-2.72,2.19s-2.17,1.07-2.67.85l-1.64-.49-1.01-1.09c-.24-.11-.39-.2-.45-.27-.06-.07-.23-.32-.51-.74-.27-.42-.42-.65-.44-.68l-.52-.44-.08-.19ZM39.34,44.81c.11.44.25.75.44.94.18.19.72.22,1.61.1l1.89-.27,2.93-.41.68-.52.57-1.53c-.05-.18-.16-.38-.3-.6-.47,0-.95-.01-1.42-.04-.47-.03-.82-.04-1.04-.03-.22,0-.7.1-1.45.26-.75.16-1.8.35-3.14.55l-.79,1.37.03.19ZM39.45,37.34l1.15,1.78,1.26.36c.4-.04.7-.08.9-.14l1.39-.38s.49-.03,1.37-.1c.88-.06,1.47-.35,1.78-.86.18-.75.23-1.23.14-1.45l-.25-.57-.33-.55c-.51-.18-.88-.27-1.12-.27l-1.23.3-1.86.19c-.42.07-.88.22-1.38.45-.5.23-1,.38-1.49.45l-.27.22-.05.57ZM58.07,38.49l.14-.14c1.64.55,2.57.57,2.79.08l.36-.66.46-.66c.09-.73.07-1.21-.05-1.45-.13-.24-1.01-.48-2.65-.74l-1.64-.36c-1.17-.18-2.88.07-5.14.77-.26.33-.38.57-.38.74l.19.79-.03,1.26c.11.69.49.99,1.15.9l2.24-.46c.47-.05,1.33-.08,2.57-.08ZM52.33,43.25c.31.88.6,1.4.86,1.59.26.18,1.11.26,2.53.22,2.31-.04,3.74-.41,4.28-1.11.54-.7.6-1.29.18-1.76-.11-.09-.47-.25-1.08-.46-.61-.22-.97-.34-1.08-.36l-1.7.22-1.42.05c-.6.07-1.4.39-2.41.96l-.16.49v.16ZM54.87,58.01c1-.24,1.57-.31,1.7-.22l1.29.79c.24.11.69.29,1.37.55.67.26,1.07.42,1.2.49l.98.74.66.3,1.78,1.04.57-.08c.31.15.54.26.68.36l.9.88.63.52c-.07.47-.16.79-.26.94-.1.16-.49.51-1.16,1.07-.68.56-1.05.85-1.13.89-.08.04-.45.17-1.11.4-.66.23-1.08.36-1.26.41-.18.04-.5.04-.96-.01-.46-.05-1.46-.38-3.01-.98-.16-.35-.28-.55-.36-.6l-.6-.38c-.15-.24-.26-.42-.33-.55l-1.09-1.42s-.22-.61-.62-1.76c-.39-1.16-.58-1.83-.56-2.02.02-.19.06-.32.14-.4l.46-.49.08-.44Z"/>
  </g>
</svg>