<?xml version="1.0" encoding="UTF-8"?>
<svg xmlns="http://www.w3.org/2000/svg" version="1.1" viewBox="0 0 100 100">
  <!-- Generator: Adobe Illustrator 30.0.0, SVG Export Plug-In . SVG Version: 2.1.1 Build 123)  -->
  <defs>
    <style>
      .st0 {
        fill: #94271e;
      }

      .st1 {
        fill: #ffeaaa;
      }
    </style>
  </defs>
  <g id="_图层_2" data-name="图层_2">
    <path class="st0" d="M87.72,91.35l-.85-3.94-.05,2.3-.26.7-.39.77-.23,1.13s-4.41-.14-6.59-.08c-3.68.09-7.54-.67-10.97-.53-3.1.13-4.52,1.01-6.23.89-2.68-.2-2.22-1.71-4.6-1.55-4.54.3-3.52,1.53-7.81.68-3.51-.69-4,1.58-5.71,1.36-4.33-.56-6.69-.32-7.8.05-1.91.63-2.95-1.09-4.05-1.08-1.43.01-2.12.16-3.37.16-2,0-2.9-1.03-4.37-1.02-2.88.02-2.63.49-2.75.49-1.17.03-.72-.58-1.74-.54-1.57.06-1.76.62-2.53.62-.08,0-.91.03-.99.04l-3.15.33-.8-.35-1.38.27c-.61.12-1.25,0-1.77-.35-.29-.19-.56-.4-.81-.53-.62-.32-1.64-1.55-1.66-2.25-.03-1.47.82-6.66.82-6.66l2.92-.85-1.57-.42-.34-.98s.31-3.26.2-3.53c-2.06-5.35-2.12-6.64-1.94-9.65.13-2.15.72-4.23,1.06-5.42.99-3.47-.43-5.24-.55-5.85-.73-3.79.51-4.16.74-5.51.46-2.67-.39-4.72-.81-5.86-.45-1.22.43-3.32.27-3.56-.72-1.09.11-4.29.11-4.29.04-.6.38-1.02.78-1.4.88-.85.99-2.22.25-3.18l.48-.37c-.43-.57-.52-1.48-.52-1.48l1.28-1.12,3.55,1.32-1.25-1.93s-3.38-1.17-3.55-1.83c-.11-.43-.03-2.12.1-2.54l-.46-2.91c.08-.53.12-.9.04-1.43-.1-.76-.52-1.63-.65-2.36l-.67-4.57c-.14-.83-.03-1.49.3-2.27.74-1.74,2.12-2.64,3.71-2.44l1.41.12c.14.01.29.02.43,0,.7-.06,1.38-.24,2.02-.52.3-.13.92-.32,1.44-.44.33-.07.67-.08,1-.01l1.43.29c1.63.23,2.19,1.21,2.35.6l.26.28.15,2.58.43-.72.31-.23.3-.86.44-.17s.24-.68.25-.68c.41.07,1.97.49,1.97.49l.11,1.25.77-1.07s1.87.19,2.4.17c1.85-.04,2.7-1.51,4-1.14,7.51,2.09,8.31.63,12.67-.92,1.26-.45,1.55,1.19,2.02,1.09,4.83-.95,8.25-.56,11,.02,8.19,1.73,16.49.3,19.1-.12,2.75-.44,11.96.59,11.96.59.81,0,1.06.65,1.06.65l.56-.09.52-.08.47.23s.14,1.57.33,1.68c0,0,.41,4.46.24,7.36-.07,1.29-.79,2.86-1.66,4.04-.61.83-.1,1.88-.1,1.88l.42.68-.95.78h1.33s-1.02.87-1.02.87c0,0,2.01,1.89,2.11,4.82s-.13,4.96.15,6.08c.67,2.75-.97,5.45-.83,6.73.1.9.63,1.37.77,2.02.18.88-.61,3.89-1.49,5.65-.49.99-1.39,1.77-1.39,1.77l.44.58-1.4,1.01,2.28-.59.54,1.12s1.7,4.05,1.67,6.12c-.05,3.63-.46,4.8-.69,5.46-.69,1.93.52,2.06.49,2.97-.06,2.07-1,3.18-1.09,4.72-.07,1.12-.52,4.37-.52,4.37,0,.4.09.8.28,1.15v.83c.28.52.22.9.06,1.47-.05.18.1.71.1.71l-.13.7c-.04.23-.05.47-.03.7l.41,3.78c0,.34-1.59,2.77-1.59,2.77l-.86.34-.86-.71s-.49.39-1.31.31Z"/>
  </g>
  <g id="_图层_4" data-name="图层_4">
    <path class="st1" d="M26.98,52.97c0-.16.12-.65.36-1.45.24-.8.56-1.37.96-1.71.4-.34,1.04-.59,1.91-.77.88-.17,1.47-.34,1.78-.51.31-.16.54-.37.7-.62.15-.25.31-.67.46-1.27.15-.6.22-1.31.21-2.13l-.25-2.46c-.07-.69-.21-1.12-.42-1.27-.21-.15-.46-.21-.75-.15l-.93.46c-.53.26-.97.31-1.31.16-.35-.15-.54-.23-.57-.25l-.63.27c-.13.02-.25-.03-.36-.14-.07-.04-.16-.12-.27-.25-.11-.13-.17-.25-.19-.38l.63-1.7-.05-.33c-.02-.13,0-.29.08-.49.04-.13.15-.39.33-.78.18-.39.38-.66.6-.81l.52-.27c.29-.16.71-.62,1.24-1.38.54-.76,1.15-1.48,1.85-2.17s1.12-1.23,1.29-1.63c.16-.39.3-.64.4-.74s.38-.18.83-.23c.46-.05.73-.05.82,0,.07.07.13.18.18.33.05.15.09.37.14.67.05.3.16.54.36.72.19.18.96.27,2.31.27.69.02,1.29-.03,1.8-.14l5.63-.08h.66l1.7.63.66.16c.53.24.75.52.66.85l-.05.19s0,.07.03.15.05.33.03.75v.41c-.04.26-.26.52-.67.81-.41.28-.75.44-1.03.48-.09.02-.37.02-.85,0-.47-.02-1.69.03-3.65.14-1.96.11-3.23.22-3.81.33l-1.12.22c-1.17.2-1.93.36-2.3.49-.36.13-.8.62-1.3,1.49-.5.87-.26,1.34.72,1.44.31.04,1.39-.25,3.24-.88,1.85-.62,3.13-.84,3.84-.67.71.17,1.11.26,1.2.26.09.02.46-.04,1.12-.16.66-.13,1.46,0,2.41.37.95.37,1.4.72,1.37,1.03l-.22.44-.19,1.04-.3.41-.16,1.18-.44,1.15-.19,1.45c-.15.4-.21.63-.19.68,0,.18.05.3.16.36l.33.11.3.36.77.49c.11.15.17.32.19.52l-.08.68c-.09.75-.19,1.2-.3,1.35-.11.16-.3.23-.57.23l-.52-.05c-.29.04-.5.16-.63.38-.13.22-.29.71-.48,1.48-.19.77-.24,1.22-.15,1.37.02.05.29.29.82.71l.88.82c.47.35.73.55.78.62.05.06.09.24.14.53.05.29-.21.67-.78,1.12-.24.2-.7.46-1.39.79-.69.33-1.24.69-1.63,1.09-.39.4-.77,1.37-1.12,2.91-.36,1.54-.69,2.52-1,2.94l-.41.49-1.26,1.83c-.49.53-1.1.87-1.83,1.01-.78.18-1.88.07-3.28-.34-1.4-.41-2.22-.69-2.45-.83-.23-.15-.4-.31-.51-.48-.11-.17.02-.51.38-1,.31-.44.86-.84,1.65-1.22.79-.37,1.28-.59,1.46-.64l.9-.11c1.75-.25,2.9-.89,3.45-1.9s.74-1.67.59-1.97c-.16-.3-.61-.42-1.35-.37-.15.02-.3.05-.46.08l-1.09.3-7.16,1.39c-.16.22-.27.34-.33.36l-.66.05-.46.25c-.07.04-.35.07-.83.1-.48.03-.74-.09-.78-.36-.04-.26-.04-.47,0-.62l.55-1.45.38-1.37.82-2.11.19-.79c.31-1.13.4-1.78.27-1.94-.31-.35-.83-.39-1.56-.14l-1.15.41c-.24,0-.56-.08-.96-.25-.4-.16-.6-.45-.6-.85ZM33.84,54.42c-.05.78.06,1.31.34,1.59.28.27,1.11.14,2.47-.41.29-.11.64-.19,1.05-.23.41-.04.64-.11.7-.21,0-.02-.1-.24-.31-.67-.21-.43-.25-.85-.12-1.27.05-.24.31-.62.75-1.13.45-.52.61-.78.48-.78-.04.02-.14.05-.3.08l-1.31.33c-1.17.35-1.95.55-2.34.62-.39.06-.72.25-.97.56-.26.31-.4.82-.44,1.53ZM35.62,47.42c.09.27.3.42.63.44.13.02.85-.15,2.17-.49,1.32-.35,2.05-.61,2.17-.79l-1.09-1.07c-.2-.22-.24-.5-.11-.85l.22-.66s-.35.11-.98.38c-.2.09-.59.18-1.16.26s-.95.18-1.13.3c-.18.12-.41.39-.68.82-.27.43-.28.98-.03,1.65ZM40.21,54.91c.22.58.74.79,1.56.62.82-.17,1.41-.39,1.76-.66.36-.26.73-.88,1.13-1.86.4-.97.51-1.55.34-1.74-.17-.18-.34-.29-.51-.31s-.84-.02-2.04.01c-1.19.04-1.79.05-1.79.03.31.27.47.41.49.41l.19.88.19.52c-.02.09-.1.27-.25.55-.15.27-.39.55-.72.82-.34.27-.46.52-.37.74ZM46.61,43.54s-.15-.15-.4-.44c-.25-.29-1.18-.31-2.79-.04-1.61.26-2.38.41-2.31.42l.88.22c.36.22.5.58.41,1.09l-.27,1.01c0,.66.54.91,1.61.77,1.04-.13,1.67-.27,1.9-.44.23-.16.48-.51.77-1.05.28-.54.35-1.05.21-1.54ZM46.42,63.83c-.02-.07.01-.29.1-.64s.35-.68.81-.97c.46-.29.85-.58,1.18-.86.33-.28,1.14-.78,2.45-1.49,1.3-.71,2.4-1.54,3.3-2.49.89-.95,1.34-1.53,1.34-1.75-.02-.09-.05-.22-.08-.38l-2.68-4.43-.52-1.04c-.44-.75-.67-1.19-.68-1.33-.02-.14-.03-.28-.04-.42,0-.15.02-.32.1-.52.07-.25.16-.46.27-.62.11-.15.17-.26.19-.31l.08-.3c.13-.38.47-.54,1.04-.46.24.05.39.15.46.27l.08.41c.02.11.23.43.63.96l3.53,3.12c.25.29.53.33.82.11.14-.11.31-.36.49-.74.18-.38.31-.69.38-.93l.25-1.01.85-1.59.03-.71c.04-.18.19-.42.45-.71.26-.29.49-.5.67-.63.18-.13.51-.29.97-.49.46-.2.8-.26,1-.19.35.16.5.53.46,1.09-.04.31-.15.76-.34,1.34-.19.58-.42,1.14-.67,1.67l-1.94,3.88c-.2.55-.42,1.06-.64,1.53-.23.47-.33.77-.31.88.02.24.23.56.63.96l4.7,4.62c.44.53.98.99,1.63,1.38.65.39,1.03.62,1.16.67.13.05.44.14.93.25l1.5.41,2.6.44c.09.04.29.12.6.25.31.13.53.28.66.45.13.17-.24.68-1.09,1.52l-2.35,2.79c-1.02,1.2-2.31,1.76-3.86,1.67-1.39-.05-2.69-.82-3.92-2.3s-2.23-3.17-2.99-5.09-1.46-2.72-2.08-2.41c-.26.13-.77.98-1.53,2.56-.77,1.58-1.68,2.56-2.73,2.95-1.06.39-1.61.6-1.67.62l-.88.55c-.47.24-1.09.3-1.86.19-1.02-.13-1.84-.52-2.45-1.19-.61-.67-.94-1.17-1-1.52ZM51.64,42.99c-.05-.2-.05-.46,0-.79l.14-.79.03-.71c.02-.31.12-.67.3-1.07l.46-1.01.6-2.02c.33-1.09.48-1.81.46-2.16l-.19-1.2c-.02-.24.04-.52.16-.85.27-.82.6-1.4.98-1.74.38-.34.73-.58,1.04-.74.31-.15.54-.21.68-.15.07.04.24.24.49.62.25.37.41.62.46.72.13.4.02,1.12-.31,2.16-.34,1.04-.42,1.8-.23,2.27.04.16.1.3.19.41l7.08.3.41.16,2.57.16.36.11,1.15.08c.16.04.63.21,1.39.52.77.31,1.25.56,1.46.74.21.18.32.36.34.55.02.18-.06.44-.25.77-.33.57-.5,1.02-.52,1.37-.02.35-.05.59-.11.72s-.27.28-.66.42l-1.23.36-1.07.44c-.6.16-2.01.27-4.21.33-1.15.04-2.09,0-2.82-.11l-1.72-.33c-1.35-.22-2.51-.17-3.47.14-.97.31-1.68.66-2.13,1.05-.46.39-.73.58-.82.56-.07,0-.14-.03-.21-.1-.06-.06-.09-.13-.07-.21l.08-.16c.04-.13-.08-.26-.36-.41-.26-.11-.4-.19-.44-.23-.04-.05-.05-.1-.05-.18Z"/>
  </g>
</svg>