<?xml version="1.0" encoding="UTF-8"?>
<svg xmlns="http://www.w3.org/2000/svg" version="1.1" viewBox="0 0 100 100">
  <!-- Generator: Adobe Illustrator 30.0.0, SVG Export Plug-In . SVG Version: 2.1.1 Build 123)  -->
  <defs>
    <style>
      .st0 {
        fill: #94271e;
      }

      .st1 {
        fill: #ffeaaa;
      }
    </style>
  </defs>
  <g id="_图层_2" data-name="图层_2">
    <path class="st0" d="M87.72,91.35l-.85-3.94-.05,2.3-.26.7-.39.77-.23,1.13s-4.41-.14-6.59-.08c-3.68.09-7.54-.67-10.97-.53-3.1.13-4.52,1.01-6.23.89-2.68-.2-2.22-1.71-4.6-1.55-4.54.3-3.52,1.53-7.81.68-3.51-.69-4,1.58-5.71,1.36-4.33-.56-6.69-.32-7.8.05-1.91.63-2.95-1.09-4.05-1.08-1.43.01-2.12.16-3.37.16-2,0-2.9-1.03-4.37-1.02-2.88.02-2.63.49-2.75.49-1.17.03-.72-.58-1.74-.54-1.57.06-1.76.62-2.53.62-.08,0-.91.03-.99.04l-3.15.33-.8-.35-1.38.27c-.61.12-1.25,0-1.77-.35-.29-.19-.56-.4-.81-.53-.62-.32-1.64-1.55-1.66-2.25-.03-1.47.82-6.66.82-6.66l2.92-.85-1.57-.42-.34-.98s.31-3.26.2-3.53c-2.06-5.35-2.12-6.64-1.94-9.65.13-2.15.72-4.23,1.06-5.42.99-3.47-.43-5.24-.55-5.85-.73-3.79.51-4.16.74-5.51.46-2.67-.39-4.72-.81-5.86-.45-1.22.43-3.32.27-3.56-.72-1.09.11-4.29.11-4.29.04-.6.38-1.02.78-1.4.88-.85.99-2.22.25-3.18l.48-.37c-.43-.57-.52-1.48-.52-1.48l1.28-1.12,3.55,1.32-1.25-1.93s-3.38-1.17-3.55-1.83c-.11-.43-.03-2.12.1-2.54l-.46-2.91c.08-.53.12-.9.04-1.43-.1-.76-.52-1.63-.65-2.36l-.67-4.57c-.14-.83-.03-1.49.3-2.27.74-1.74,2.12-2.64,3.71-2.44l1.41.12c.14.01.29.02.43,0,.7-.06,1.38-.24,2.02-.52.3-.13.92-.32,1.44-.44.33-.07.67-.08,1-.01l1.43.29c1.63.23,2.19,1.21,2.35.6l.26.28.15,2.58.43-.72.31-.23.3-.86.44-.17s.24-.68.25-.68c.41.07,1.97.49,1.97.49l.11,1.25.77-1.07s1.87.19,2.4.17c1.85-.04,2.7-1.51,4-1.14,7.51,2.09,8.31.63,12.67-.92,1.26-.45,1.55,1.19,2.02,1.09,4.83-.95,8.25-.56,11,.02,8.19,1.73,16.49.3,19.1-.12,2.75-.44,11.96.59,11.96.59.81,0,1.06.65,1.06.65l.56-.09.52-.08.47.23s.14,1.57.33,1.68c0,0,.41,4.46.24,7.36-.07,1.29-.79,2.86-1.66,4.04-.61.83-.1,1.88-.1,1.88l.42.68-.95.78h1.33s-1.02.87-1.02.87c0,0,2.01,1.89,2.11,4.82s-.13,4.96.15,6.08c.67,2.75-.97,5.45-.83,6.73.1.9.63,1.37.77,2.02.18.88-.61,3.89-1.49,5.65-.49.99-1.39,1.77-1.39,1.77l.44.58-1.4,1.01,2.28-.59.54,1.12s1.7,4.05,1.67,6.12c-.05,3.63-.46,4.8-.69,5.46-.69,1.93.52,2.06.49,2.97-.06,2.07-1,3.18-1.09,4.72-.07,1.12-.52,4.37-.52,4.37,0,.4.09.8.28,1.15v.83c.28.52.22.9.06,1.47-.05.18.1.71.1.71l-.13.7c-.04.23-.05.47-.03.7l.41,3.78c0,.34-1.59,2.77-1.59,2.77l-.86.34-.86-.71s-.49.39-1.31.31Z"/>
  </g>
  <g id="_图层_4" data-name="图层_4">
    <path class="st1" d="M35.06,53.56c.04-.22-.09-.54-.37-.97-.28-.43-.73-.64-1.35-.64l-1.23.19c-.29,0-.73-.2-1.31-.6-.58-.4-.97-.71-1.15-.94-.18-.23-.23-.55-.14-.97.07-.42.3-.77.68-1.04s.92-.56,1.61-.85c.69-.29,1.16-.58,1.39-.88l.41-.63c.18-.27.33-.54.44-.81.11-.26-.06-.59-.52-.97-.13-.09-.4-.2-.81-.33-.41-.13-.74-.28-1-.46l-1.01-.74c-.36-.24-.59-.41-.68-.52-.09-.11-.23-.41-.41-.92-.18-.5,0-1,.56-1.49.56-.49,1.2-.72,1.93-.68l.96.11c1.95.18,3.32.39,4.12.63.79.24,1.09,1.1.89,2.6-.02.15-.31.88-.89,2.2-.57,1.32-.82,2.17-.72,2.53.04.2.29.59.75,1.18.46.58.81,1.22,1.04,1.9.23.68.34,1.28.34,1.79-.02.31-.09.82-.22,1.53-.13.71-.29,1.26-.49,1.64-.2.38-.61.96-1.23,1.74-.62.78-.87,1.25-.74,1.42.13.17.45.28.96.31.42.04,1.2,0,2.35-.11s2.19-.1,3.12.03l1.42.22c.49.05.83,0,1.01-.14.15-.13.21-.5.19-1.11-.02-.61.02-1.18.11-1.71l.3-1.8c.11-.86.15-1.6.11-2.24-.05-.51-.17-1.13-.36-1.85-.18-.72-.26-1.21-.25-1.46.04-.77.33-1.25.89-1.46.56-.21,1.01-.33,1.35-.37l1.15-.05,1.18-.22,1.59-.22,1.15-.41,1.26-.22c.27-.11.46-.25.56-.44.1-.18.15-.57.15-1.18-.02-.51-.08-.88-.18-1.11-.1-.23-.25-.38-.44-.45-.19-.07-.72.04-1.6.33-.13.05-.46.13-1,.22-.54.09-1.46.42-2.77.98-1.31.57-2.25.81-2.82.74-.71-.05-1.33-.31-1.85-.75-.52-.45-.82-.82-.89-1.13-.07-.31-.1-.59-.08-.85.04-.73.23-1.21.57-1.44.35-.23.67-.41.96-.53.29-.13.72-.25,1.29-.36l1.94-.16,3.06-.74c1.71-.2,2.74-.39,3.08-.56.34-.17.52-.38.56-.63s.04-.57.01-.97c-.03-.4-.11-.65-.23-.74-.13-.09-.34-.14-.63-.14-.4.02-.88.06-1.45.14-.56.07-1.2.21-1.9.4s-1.75.29-3.16.3c-1.4,0-2.55-.45-3.45-1.38-.89-.93-.72-1.94.52-3.04.46-.4,1.54-.66,3.24-.77s3.44-.32,5.22-.64c1.78-.32,3.04-.51,3.79-.56.6-.02,1.91.02,3.92.11,2.01.09,3.5.19,4.46.29.96.1,1.81.38,2.56.85s1.2,1.01,1.35,1.64-.27,1.25-1.27,1.87c-.55.33-1.43.43-2.64.31-1.21-.12-2.08-.12-2.61-.01-.29.07-.46.11-.52.11l-2,.08c-.22.2-.33.51-.33.93v.6c-.05.53-.04.85.03.97.07.12.34.2.79.23.05.02.51,0,1.37-.03l2.43.16c.35.04.57.05.68.05l.82.16,2,.11c1.66.42,2.46,1.02,2.42,1.8-.04.78-.43,1.34-1.16,1.67s-1.7.46-2.9.41c-2.3-.07-3.8-.16-4.53-.27s-1.26-.12-1.63-.03c-.2.05-.36.14-.48.26-.12.12-.17.43-.15.94.02.97.08,1.51.18,1.63.1.12.64.19,1.63.21.27.02,1.19.11,2.73.27s2.75.27,3.61.31c.86.05,1.42.19,1.7.44s.31.68.11,1.3l-1.18,2.21c-.11.29-.26,1.1-.44,2.43-.18,1.33-.27,2.38-.26,3.13,0,.76-.07,1.31-.25,1.65-.17.35-.49.63-.94.85-.44.22-1.05.29-1.85.21s-2.91-.08-6.36.01l-4.98.03c-.2.02-1.31.13-3.34.33-2.02.2-3.03.31-3.01.33.07.11.72.33,1.96.67,1.23.34,2.57.55,4.01.64,1.44.09,2.41.18,2.91.27.5.09,2.25.47,5.25,1.15,3,.67,5.88.91,8.63.71.44-.02,1.4-.13,2.88-.33,1.49-.2,2.6-.41,3.34-.62.74-.21,1.2-.22,1.38-.03s.17.59-.03,1.19l-.82,1.39-1.18,2.43-.68.57-.85,1.01-1.07.79c-.38.38-.74.66-1.08.82s-1.07.16-2.2,0l-3.72-.85c-.27-.04-.45-.06-.52-.08-.07-.02-.33-.13-.78-.34-.45-.21-1.15-.61-2.11-1.19-.96-.58-2.12-1.15-3.5-1.71-1.38-.56-4.54-1.22-9.47-1.98-4.94-.77-8.58-1.09-10.91-.98-1,.05-2.35.23-4.03.52-1.69.29-2.91.4-3.68.33-1.29-.11-2.04-.5-2.24-1.18-.2-.67-.21-1.21-.03-1.61.13-.25.41-.54.86-.86.45-.32.92-.69,1.42-1.11.5-.42.92-.72,1.24-.9l1.18-.6c.35-.2.9-.7,1.65-1.49.76-.79,1.19-1.45,1.3-1.98ZM31.29,31.82c.31.04.63.07.96.11l2.84.49c1.62.18,2.63.34,3.02.46.39.13.68.31.88.53.19.23.2.51.01.83-.02.02-.33.21-.93.57l-.85.79c-.15.13-.81.45-1.98.97s-2.05.75-2.61.7c-1.09-.07-1.87-.41-2.34-1.03-.46-.61-.8-1.16-1-1.65-.2-.49-.33-.8-.4-.92-.06-.12-.13-.28-.21-.49-.07-.21,0-.52.23-.93.23-.41,1.02-.56,2.37-.45ZM49.2,54.27c.11.2.45.35,1.03.44.57.09,1.75,0,3.54-.25l3.94-.19c2.99-.25,4.59-.46,4.81-.63s.37-.59.44-1.29l-.03-1.31c-.02-.49-.07-.84-.16-1.05-.09-.21-.81-.33-2.16-.37l-1.2-.03c-.11.02-.29.04-.55.05l-3.5.38c-3.03.46-4.67.72-4.92.81s-.44.21-.56.4c-.12.18-.24.62-.37,1.31l-.25,1.01c-.07.44-.09.67-.05.71Z"/>
  </g>
</svg>