<?xml version="1.0" encoding="UTF-8"?>
<svg xmlns="http://www.w3.org/2000/svg" version="1.1" viewBox="0 0 100 100">
  <!-- Generator: Adobe Illustrator 30.0.0, SVG Export Plug-In . SVG Version: 2.1.1 Build 123)  -->
  <defs>
    <style>
      .st0 {
        fill: #94271e;
      }

      .st1 {
        fill: #ffeaaa;
      }
    </style>
  </defs>
  <g id="_图层_2" data-name="图层_2">
    <path class="st0" d="M87.72,91.35l-.85-3.94-.05,2.3-.26.7-.39.77-.23,1.13s-4.41-.14-6.59-.08c-3.68.09-7.54-.67-10.97-.53-3.1.13-4.52,1.01-6.23.89-2.68-.2-2.22-1.71-4.6-1.55-4.54.3-3.52,1.53-7.81.68-3.51-.69-4,1.58-5.71,1.36-4.33-.56-6.69-.32-7.8.05-1.91.63-2.95-1.09-4.05-1.08-1.43.01-2.12.16-3.37.16-2,0-2.9-1.03-4.37-1.02-2.88.02-2.63.49-2.75.49-1.17.03-.72-.58-1.74-.54-1.57.06-1.76.62-2.53.62-.08,0-.91.03-.99.04l-3.15.33-.8-.35-1.38.27c-.61.12-1.25,0-1.77-.35-.29-.19-.56-.4-.81-.53-.62-.32-1.64-1.55-1.66-2.25-.03-1.47.82-6.66.82-6.66l2.92-.85-1.57-.42-.34-.98s.31-3.26.2-3.53c-2.06-5.35-2.12-6.64-1.94-9.65.13-2.15.72-4.23,1.06-5.42.99-3.47-.43-5.24-.55-5.85-.73-3.79.51-4.16.74-5.51.46-2.67-.39-4.72-.81-5.86-.45-1.22.43-3.32.27-3.56-.72-1.09.11-4.29.11-4.29.04-.6.38-1.02.78-1.4.88-.85.99-2.22.25-3.18l.48-.37c-.43-.57-.52-1.48-.52-1.48l1.28-1.12,3.55,1.32-1.25-1.93s-3.38-1.17-3.55-1.83c-.11-.43-.03-2.12.1-2.54l-.46-2.91c.08-.53.12-.9.04-1.43-.1-.76-.52-1.63-.65-2.36l-.67-4.57c-.14-.83-.03-1.49.3-2.27.74-1.74,2.12-2.64,3.71-2.44l1.41.12c.14.01.29.02.43,0,.7-.06,1.38-.24,2.02-.52.3-.13.92-.32,1.44-.44.33-.07.67-.08,1-.01l1.43.29c1.63.23,2.19,1.21,2.35.6l.26.28.15,2.58.43-.72.31-.23.3-.86.44-.17s.24-.68.25-.68c.41.07,1.97.49,1.97.49l.11,1.25.77-1.07s1.87.19,2.4.17c1.85-.04,2.7-1.51,4-1.14,7.51,2.09,8.31.63,12.67-.92,1.26-.45,1.55,1.19,2.02,1.09,4.83-.95,8.25-.56,11,.02,8.19,1.73,16.49.3,19.1-.12,2.75-.44,11.96.59,11.96.59.81,0,1.06.65,1.06.65l.56-.09.52-.08.47.23s.14,1.57.33,1.68c0,0,.41,4.46.24,7.36-.07,1.29-.79,2.86-1.66,4.04-.61.83-.1,1.88-.1,1.88l.42.68-.95.78h1.33s-1.02.87-1.02.87c0,0,2.01,1.89,2.11,4.82s-.13,4.96.15,6.08c.67,2.75-.97,5.45-.83,6.73.1.9.63,1.37.77,2.02.18.88-.61,3.89-1.49,5.65-.49.99-1.39,1.77-1.39,1.77l.44.58-1.4,1.01,2.28-.59.54,1.12s1.7,4.05,1.67,6.12c-.05,3.63-.46,4.8-.69,5.46-.69,1.93.52,2.06.49,2.97-.06,2.07-1,3.18-1.09,4.72-.07,1.12-.52,4.37-.52,4.37,0,.4.09.8.28,1.15v.83c.28.52.22.9.06,1.47-.05.18.1.71.1.71l-.13.7c-.04.23-.05.47-.03.7l.41,3.78c0,.34-1.59,2.77-1.59,2.77l-.86.34-.86-.71s-.49.39-1.31.31Z"/>
  </g>
  <g id="_图层_4" data-name="图层_4">
    <path class="st1" d="M42.76,37.15l-.49.6-.16.38s-.1.12-.19.25l-.27.36c-.13.16-.26.26-.41.27l-.9.03-1.12.3-.46.03c-.24.07-.43.33-.59.78-.16.45-.19.93-.1,1.44,0,.05.07.36.22.9.15.55.25.86.33.93.07.07.53.15,1.37.22l.9.22c.27.07.5.1.68.08l.52-.14c.13,0,.26.06.4.18.14.12.22.26.25.44.03.17,0,.34-.1.51-.04.05-.17.22-.41.49l-.74,1.04-1.39,1.37c-.31.33-.49.51-.55.55l-2,1.2c-.05.13-.09.26-.11.41-.02.11.02.49.12,1.15.1.66.11,1.54.03,2.64-.08,1.1-.1,2.16-.05,3.16.05,1,.07,1.63.07,1.89l-.08.93c-.02.07-.02.44-.01,1.11,0,.67-.19,1.33-.59,2-.4.67-1.43,1.15-3.09,1.46-1.93.38-3.71.31-5.35-.21-1.63-.52-2.52-.93-2.65-1.23s-.21-.46-.21-.48l-.11-.11c-.04-.07-.02-.18.05-.33.05-.09.25-.22.6-.38l1.37-.82c.78-.35,1.3-.56,1.56-.63l.63-.14c.05-.02.25-.12.6-.3l2.38-.9c.91-.46,1.48-1.03,1.7-1.74.22-.7.31-1.6.29-2.71-.03-1.1-.04-2.01-.03-2.73,0-.72-.02-1.11-.1-1.16-.07-.05-.17-.1-.3-.14l-1.97.46-.66.08-1.12.27c-1,.13-1.52.16-1.56.11l-.25-.22s-.34,0-.92-.01c-.57,0-.88-.3-.93-.86-.05-.56-.06-.97-.04-1.2v-.49l.3-1.5.08-.46c.05-.27.23-.59.53-.94s.51-.55.62-.57.54.01,1.29.12l4.18-1.37c.31.02.54,0,.68-.03.15-.04.25-.13.33-.27.07-.15.08-.59.03-1.34l.08-1.94c-.05-.22-.15-.38-.27-.49-.13-.11-.46-.09-.98.05-.66.18-1.3.3-1.94.36-.64.05-1.08.12-1.33.19-.25.07-.42.1-.53.08-.58-.02-1.1-.18-1.54-.48-.45-.3-.72-.55-.82-.75-.1-.2-.21-.71-.31-1.53l-.14-.77c-.2-1.29.04-2.16.71-2.6.2-.13.45-.21.74-.25l.82-.05,1.31-.52c.29-.11.64-.17,1.05-.18.41,0,.94-.07,1.59-.18.65-.11,1.08-.23,1.3-.37s.46-.76.74-1.87c.27-1.11.81-1.95,1.6-2.5.79-.56,1.45-.11,1.98,1.33.04.15.05.49.04,1.03,0,.54.08.95.26,1.24.24.44.65.73,1.23.88l1.48.25c1.59.58,1.87,1.97.85,4.16ZM44.61,33.29l.68.11c.18.04.37.05.57.03.46,0,1.21-.15,2.26-.44,1.05-.29,2.15-.52,3.31-.7,1.16-.17,1.88-.32,2.17-.44.29-.12.54-.26.74-.42l.88-1.23c.8-1.11,1.61-1.42,2.43-.93.22.16.47.51.77,1.03.29.52.63.88,1.01,1.08.38.2,1.24.28,2.57.25,1.33-.04,2.04-.05,2.13-.05.25.04.96.16,2.12.36,1.16.2,1.79.32,1.9.36l.82.38.49.11c.13.07.29.33.49.78.2.45.33.84.4,1.18.06.34-.47.67-1.6,1-.44.13-1.2.12-2.27-.03l-1.37-.16-.79-.14-3.94-.14c-.27-.04-.45-.05-.52-.05-.05.02-.42.11-1.09.27-.68.16-.73.51-.16,1.04.27.27,1.2.38,2.79.33l4.48.38c1.06,0,1.79.06,2.2.18.41.12.75.35,1.01.68.26.34.38.6.34.78-.04.09-.18.31-.42.64-.25.34-.42.66-.51.96-.09.3-.16.69-.21,1.18-.05.48-.01.79.1.92.04.07.54.23,1.5.48.96.25,1.52.51,1.65.79.14.28.11.62-.07,1.03-.26.53-.58.84-.97.94-.39.1-.98.17-1.75.22-.78.05-1.31.27-1.6.67l-.46,1.64-.16.46c-.51,1.42-.86,2.2-1.04,2.34-.18.14-.46.26-.82.38-.37.12-.65.17-.85.15l-1.45-.14c-.69-.05-1.46-.17-2.28-.34-.83-.17-1.29-.12-1.39.16-.1.28-.12.54-.04.78.11.55.46,1.02,1.05,1.41.59.39,1.82.62,3.68.7,1.86.07,2.94.37,3.24.9.3.53.44,1.06.42,1.59-.02.53-.72.94-2.12,1.24s-2.47.26-3.21-.12c-1.42-.69-2.42-.85-2.99-.46s-.94.84-1.09,1.37c-.16.53-.22.88-.21,1.07,0,.33.14.62.44.86.29.25,1.29.57,3.01.98,1.71.41,2.8.64,3.25.7.46.05,1.48.04,3.09-.05,1.7-.07,3.64-.35,5.82-.83,2.19-.48,3.33-.49,3.42-.03.09.46-.03,1.15-.36,2.06-.31.84-.59,1.49-.83,1.94s-.7,1.04-1.35,1.76c-.66.72-1.33,1.28-2.02,1.68-.69.4-1.56.61-2.6.63-.02.02-.42,0-1.19-.05-.78-.05-1.25-.18-1.44-.38l-.08-.08s-.31-.11-.82-.27c-.51-.16-1.07-.43-1.67-.79l-2.93-1.34c-.09-.04-.73-.42-1.93-1.15-1.2-.73-2.47-1.29-3.83-1.67-1.36-.38-2.35-.69-2.98-.92-.63-.23-1.72-.31-3.27-.26-1.73.07-3.11.21-4.13.41-1.02.2-1.7.27-2.02.22-.51-.05-.96-.2-1.34-.44-.38-.24-.78-.51-1.2-.82-.42-.31.07-.92,1.48-1.83.31-.16.8-.51,1.48-1.04.67-.53,1.34-.96,2-1.3.66-.34,1.08-.58,1.26-.72l.9-.82.82-.44.44-.33c.91-.64,1.59-.74,2.02-.3.11.13.23.51.36,1.15.13.64.21,1.19.23,1.64.03.46.2.83.51,1.11.31.28.72.39,1.23.31.46-.05.79-.27,1-.64.21-.37.39-1.22.53-2.53l.22-1.53v-1.42c.02-.95-.05-1.43-.22-1.45l-.6.19-1.2.14s-.07.08-.16.19c-.09.11-.98.24-2.68.38l-1.75.41c-1.62.29-2.54.38-2.76.27-.36-.15-.72-.53-1.05-1.16-.34-.63-.37-1.35-.1-2.17.04-.15.14-.34.31-.59.17-.25.82-.45,1.94-.6,1.12-.15,1.79-.3,2.01-.42l.44-.25c.8-.04,1.69-.18,2.68-.44.98-.25,1.5-.39,1.56-.41l.66-.05c.14-.02.32-.11.53-.27.21-.16.34-.3.4-.41s.04-.27-.04-.49-.35-.39-.81-.52c-.4-.09-1.38.03-2.93.37-1.55.34-2.52.53-2.9.59l-.85.05-.82.14-.55.03-.71.16c-.16.02-.38-.03-.64-.14-.26-.11-.45-.29-.55-.55-.1-.25.01-.81.34-1.67.22-.64.41-.99.59-1.07.17-.07.67-.11,1.49-.12.82,0,1.74-.15,2.75-.44,1.01-.28,2.15-.49,3.43-.63,1.28-.14,1.98-.29,2.12-.46.14-.17.22-.4.26-.68.04-.28-.13-.54-.49-.77-.37-.23-.88-.21-1.56.07-.79.33-1.22.49-1.31.49l-1.81.11c-.09.04-.5.21-1.23.53-.73.32-1.42.42-2.08.29-.07,0-.34-.05-.81-.14-.46-.09-.9-.39-1.3-.9-.4-.51.1-1.28,1.5-2.3l4.32-.79,1.26-.36c.18-.04.76-.11,1.72-.23.96-.12,1.47-.35,1.5-.7.04-.35.06-.54.08-.57l.08-.11c.18-.25-.3-.23-1.45.08-.31.09-.5.14-.57.14l-.6.03c-.09.02-.32.09-.68.21-.37.12-.73.23-1.11.33-.37.1-.98.2-1.82.3-.84.1-1.34.16-1.5.18l-1.59.41c-.07.02-.13.03-.16.03-2.95.11-3.87-.56-2.76-2.01,1.11-1.45,1.72-2.19,1.83-2.23ZM59.54,41.8c3.54.46,5.53.46,5.99.01.46-.45.52-.9.19-1.35-.15-.18-.54-.28-1.18-.3l-2.82-.11c-1.9-.05-2.89.02-2.98.23-.09.21-.11.42-.05.64l.03.11.05.36c.02.15.05.24.1.29.04.05.27.09.67.12ZM59.24,47.43l1.7-.11c1.97.33,3.05.42,3.25.27.2-.15.29-.51.27-1.09-.02-.42-.11-.67-.26-.75-.16-.08-1.07-.17-2.73-.27-1.67-.1-2.54-.09-2.62.03-.08.12-.13.27-.14.46,0,.19.05.47.19.85.14.37.25.58.34.62Z"/>
  </g>
</svg>