<?xml version="1.0" encoding="UTF-8"?>
<svg xmlns="http://www.w3.org/2000/svg" version="1.1" viewBox="0 0 100 100">
  <!-- Generator: Adobe Illustrator 30.0.0, SVG Export Plug-In . SVG Version: 2.1.1 Build 123)  -->
  <defs>
    <style>
      .st0 {
        fill: #94271e;
      }

      .st1 {
        fill: #ffeaaa;
      }
    </style>
  </defs>
  <g id="_图层_2" data-name="图层_2">
    <path class="st0" d="M87.72,91.35l-.85-3.94-.05,2.3-.26.7-.39.77-.23,1.13s-4.41-.14-6.59-.08c-3.68.09-7.54-.67-10.97-.53-3.1.13-4.52,1.01-6.23.89-2.68-.2-2.22-1.71-4.6-1.55-4.54.3-3.52,1.53-7.81.68-3.51-.69-4,1.58-5.71,1.36-4.33-.56-6.69-.32-7.8.05-1.91.63-2.95-1.09-4.05-1.08-1.43.01-2.12.16-3.37.16-2,0-2.9-1.03-4.37-1.02-2.88.02-2.63.49-2.75.49-1.17.03-.72-.58-1.74-.54-1.57.06-1.76.62-2.53.62-.08,0-.91.03-.99.04l-3.15.33-.8-.35-1.38.27c-.61.12-1.25,0-1.77-.35-.29-.19-.56-.4-.81-.53-.62-.32-1.64-1.55-1.66-2.25-.03-1.47.82-6.66.82-6.66l2.92-.85-1.57-.42-.34-.98s.31-3.26.2-3.53c-2.06-5.35-2.12-6.64-1.94-9.65.13-2.15.72-4.23,1.06-5.42.99-3.47-.43-5.24-.55-5.85-.73-3.79.51-4.16.74-5.51.46-2.67-.39-4.72-.81-5.86-.45-1.22.43-3.32.27-3.56-.72-1.09.11-4.29.11-4.29.04-.6.38-1.02.78-1.4.88-.85.99-2.22.25-3.18l.48-.37c-.43-.57-.52-1.48-.52-1.48l1.28-1.12,3.55,1.32-1.25-1.93s-3.38-1.17-3.55-1.83c-.11-.43-.03-2.12.1-2.54l-.46-2.91c.08-.53.12-.9.04-1.43-.1-.76-.52-1.63-.65-2.36l-.67-4.57c-.14-.83-.03-1.49.3-2.27.74-1.74,2.12-2.64,3.71-2.44l1.41.12c.14.01.29.02.43,0,.7-.06,1.38-.24,2.02-.52.3-.13.92-.32,1.44-.44.33-.07.67-.08,1-.01l1.43.29c1.63.23,2.19,1.21,2.35.6l.26.28.15,2.58.43-.72.31-.23.3-.86.44-.17s.24-.68.25-.68c.41.07,1.97.49,1.97.49l.11,1.25.77-1.07s1.87.19,2.4.17c1.85-.04,2.7-1.51,4-1.14,7.51,2.09,8.31.63,12.67-.92,1.26-.45,1.55,1.19,2.02,1.09,4.83-.95,8.25-.56,11,.02,8.19,1.73,16.49.3,19.1-.12,2.75-.44,11.96.59,11.96.59.81,0,1.06.65,1.06.65l.56-.09.52-.08.47.23s.14,1.57.33,1.68c0,0,.41,4.46.24,7.36-.07,1.29-.79,2.86-1.66,4.04-.61.83-.1,1.88-.1,1.88l.42.68-.95.78h1.33s-1.02.87-1.02.87c0,0,2.01,1.89,2.11,4.82s-.13,4.96.15,6.08c.67,2.75-.97,5.45-.83,6.73.1.9.63,1.37.77,2.02.18.88-.61,3.89-1.49,5.65-.49.99-1.39,1.77-1.39,1.77l.44.58-1.4,1.01,2.28-.59.54,1.12s1.7,4.05,1.67,6.12c-.05,3.63-.46,4.8-.69,5.46-.69,1.93.52,2.06.49,2.97-.06,2.07-1,3.18-1.09,4.72-.07,1.12-.52,4.37-.52,4.37,0,.4.09.8.28,1.15v.83c.28.52.22.9.06,1.47-.05.18.1.71.1.71l-.13.7c-.04.23-.05.47-.03.7l.41,3.78c0,.34-1.59,2.77-1.59,2.77l-.86.34-.86-.71s-.49.39-1.31.31Z"/>
  </g>
  <g id="_图层_4" data-name="图层_4">
    <path class="st1" d="M26.86,61.58l.11-1.12.63-1.72.27-1.12c.07-.29.21-.66.4-1.09s.31-.73.34-.88l.19-1.91.14-.55c.07-.35.12-.74.14-1.18v-.63c0-.11.02-.79.05-2.05.04-1.26-.09-2.62-.38-4.07-.15-.6-.23-1.08-.26-1.44s-.05-.57-.07-.64l-.3-.88-.03-.63-.33-1.01c-.05-.13-.12-.52-.19-1.18l-.25-1.53c-.04-.18-.05-.36-.03-.55,0-.35.09-.82.26-1.41.17-.59.61-.89,1.3-.89.4.02.82.13,1.24.33.43.2.72,1.3.86,3.31l.44,3.69c.16,1.55.24,3.45.22,5.7-.02,2.25-.02,3.7-.01,4.35,0,.65,0,1.11-.01,1.38l-.11.93v1.04l-.03.44c-.02.47.12.83.41,1.07.13.13.2.2.22.22l.08.22c.02.07.27.16.77.27.22.07.65,0,1.29-.22.64-.22,1.16-.36,1.56-.41.4-.05.7-.1.9-.15.2-.04.75-.36,1.64-.93.89-.57,1.39-.97,1.49-1.18.1-.21.19-.53.26-.96.07-.43.2-.99.37-1.68.17-.69.26-1.58.27-2.65,0-1.08,0-2.21-.04-3.39-.04-1.18-.09-1.8-.16-1.86-.04-.02-.21-.02-.52,0l-.66-.05s-.36.08-.97.23c-.61.16-1.46.23-2.54.22-1.08,0-1.75-.06-2-.16-.25-.1-.44-.25-.59-.44-.15-.19-.25-.39-.3-.59-.05-.2-.09-.54-.1-1.03,0-.48.14-1,.45-1.54l.6-.93c.24-.44.43-.71.59-.82.15-.11.4-.15.72-.11l1.15.3c.22.04.62-.05,1.22-.27.59-.22,1.18-.41,1.76-.56.58-.15.99-.37,1.22-.66.23-.28.37-.72.42-1.33l.05-1.7.16-2.3-.16-1.09c-.02-.11-.03-.25-.04-.42,0-.17.08-.4.26-.67.29-.46.69-.69,1.19-.71.5-.02.82.06.94.25.02.05.05.21.11.46l1.01,2.11c.02.15.03.31.03.49l-.25,3.69c.07.27.27.52.59.74.32.22.74.34,1.27.36.16.02.48.01.96-.01.47-.03.83-.05,1.07-.07,1,0,1.65.16,1.96.49s.46.51.48.55c.02.04-.03.48-.14,1.34l-.03.85c-.04.18-.17.49-.41.92-.24.43-.56.76-.96.98-.4.23-1.21.37-2.43.42-1.22.05-1.98.2-2.27.44-.29.24-.57.6-.83,1.08-.26.48-.42.82-.45,1-.04.18-.03.5.03.96l.08,5.93v.49l-.03.44c0,.42.12.77.36,1.04.24.27.43.44.57.49.2.11.59.09,1.16-.05.57-.15.98-.22,1.22-.22.36.04.64.15.82.33l.3.49.44.49c.25.33.37.69.36,1.09-.02.27-.15.63-.4,1.07s-.73.76-1.46.96l-1.45.36c-.42.11-1.24.42-2.46.93-1.22.51-2.28.83-3.19.96-.9.13-1.72.29-2.45.49l-4.51,1.48c-.69.22-1.43.42-2.21.62-.78.19-1.42.44-1.91.75-.49.31-.77.46-.82.44-.26-.02-.47-.16-.66-.44-.18-.27-.28-.5-.29-.67,0-.17-.01-.39-.01-.64v-1.2l.3-1.07ZM33.23,53.08l.41-.79.27-.74.16-.3.52-1.23.93-1.2.38-.63c.13-.2.34-.43.64-.68.3-.25.54-.38.72-.38.36.02.6.53.71,1.54s.21,1.66.31,1.96c.1.29.14.46.12.52-.02.02-.08.08-.18.19-.1.11-.16.42-.18.93-.02.51-.11.91-.27,1.2-.16.29-.26.52-.29.67-.03.16-.05.25-.08.29-.03.04-.19.09-.48.16l-1.45.68c-.91.33-1.63.22-2.16-.33-.22-.2-.35-.37-.38-.51-.04-.14-.05-.29-.03-.45,0-.11,0-.2.03-.27l.22-.33.05-.3ZM33.2,32.57c0-.27.04-.51.11-.71.07-.2.37-.39.9-.56.53-.17.91-.26,1.15-.26.53.02,1.2.26,2.01.71.81.46,1.35.65,1.61.57.26-.07.41-.1.44-.07s.04.1.04.21c-.02.04-.15.36-.38.96l-.63,2.54c-.26.27-.89.44-1.91.49-1.09.07-1.77,0-2.04-.23-.26-.23-.55-.7-.85-1.42-.3-.72-.46-1.13-.48-1.24-.02-.11,0-.44.03-.98ZM45.46,44.92c.23-.06.66.06,1.3.37.22.13.5.38.85.77l1.67,1.8c.24.53.32,1.3.25,2.32-.05.44-.13.76-.23.97-.1.21-.31.47-.63.78-.32.31-.84.5-1.57.57-.73.07-1.24-.12-1.53-.57-.05-.07-.13-.21-.22-.42-.09-.21-.23-1.09-.42-2.65s-.28-2.43-.26-2.61c0-.09,0-.17.03-.25l.3-.52.11-.44s.14-.06.37-.12ZM46.27,61.83l.93-.19c.24-.13.65-.46,1.23-1.01.58-.55,1.08-1.12,1.48-1.72.4-.6.65-1.01.74-1.23l.25-.74.52-1.12.38-1.12.25-.63.17-.63c.02-.07.21-.66.59-1.75.37-1.09.54-2.24.51-3.45-.04-1.2-.06-1.81-.07-1.83,0-.02,0-.05.01-.11,0-.33.02-.61.05-.85l.22-1.15v-2.11c-.02-.2-.04-.39-.05-.57l-.44-1.67c-.15-.71-.26-1.13-.33-1.26l-.57-.57c-.09-.09-.15-.17-.17-.23-.02-.06-.05-.2-.08-.4-.04-.2-.08-.42-.14-.66l-.25-.88c-.05-.2-.07-.42-.05-.66,0-.64.1-1.04.31-1.2s.66-.34,1.35-.52l.77-.22,1.26-.11c.09-.02.39-.15.9-.38.51-.24,3.51-.46,9-.66,1.29-.04,2.53.03,3.72.21,1.18.17,1.96.22,2.31.15.36-.07.57-.11.64-.11.25.02.61.19,1.05.51.45.32.67.71.67,1.16-.02.15-.13.44-.33.89-.2.45-.55.86-1.04,1.24s-1.28.63-2.35.74l-6.86.08c-.24.04-.44.06-.6.08l-.96.19c-.4.07-1.06.1-1.97.1-.91,0-1.64.26-2.19.81s-.84,1.34-.89,2.37c-.05,1.03.13,1.67.52,1.93.39.26.9.36,1.52.3.55-.04,1.22-.17,2.02-.4.8-.23,1.4-.37,1.8-.42,1.13-.09,2.49,0,4.09.25,1.59.26,2.79.46,3.58.63s2.3.25,4.53.25c.4.02.66-.05.77-.19l.14-.22c.05-.07.25-.1.57-.08.31.04.49.1.55.19,0,.04,0,.08-.01.14,0,.05,0,.16,0,.31,0,.16-.16.69-.51,1.6l-.44,1.45c-.46,1.22-1.12,2.05-2,2.49s-1.53.67-1.97.71c-.55.05-1.38-.11-2.49-.49-1.11-.38-1.83-.56-2.16-.52-.33.05-.56.16-.68.33-.13.16-.2.29-.22.37-.02.08-.04.19-.05.31-.02.13.02.43.11.9l.22,8.42c0,.05.03.34.08.85.05.51.09,1.01.11,1.5v1.2l.11,1.23c0,.15-.02.7-.05,1.67l-.03.68c-.05.8-.09,1.25-.11,1.34-.02.09-.14.36-.36.81-.22.45-.44.71-.66.78-.26.09-.64.11-1.15.05-.05,0-.29-.08-.71-.25l-.68-.25c-.75-.38-1.16-1.19-1.23-2.43-.07-1.24-.1-2.21-.08-2.93l.03-1.23v-2.49c0-.33.05-1,.15-2.02.1-1.02.15-1.88.15-2.57-.02-.55-.06-1.25-.12-2.11-.06-.86-.11-1.53-.12-2.01-.02-.48-.06-.94-.12-1.37-.06-.43-.2-.71-.41-.85-.21-.14-.68-.2-1.41-.18-.04.02-.09.02-.16.01-.07,0-.27-.01-.6-.01-.31.02-.53.04-.66.05l-1.12.3c-.13-.02-.2-.03-.22-.03-.09.02-.18.1-.26.25-.08.15-.17.44-.26.88-.09.44-.16,1.06-.19,1.86l-.16,2.98c-.05.35-.24,1.26-.56,2.75-.32,1.49-.51,2.35-.57,2.6-.06.25-.32,1.08-.78,2.49-.46,1.41-.99,2.4-1.61,2.97l-.88.68-.38.33-1.31.49c-.42.2-.67.31-.74.33-.07.02-.23,0-.46-.03-1.04-.09-1.7-.25-2-.46-.29-.22-.47-.4-.55-.53-.07-.14-.12-.34-.15-.6-.03-.26-.05-.56-.05-.89,0-.33.06-.75.21-1.26.15-.51.23-.83.25-.96,0-.04,0-.15-.01-.36,0-.2,0-.31.01-.33ZM46.22,34.73l.05-.85c-.02-.56,0-.9.03-1.01.02-.05.1-.25.26-.59.15-.34.33-.54.53-.62l.41-.05.98-.36c.55-.09.99.12,1.34.63l.16.3c.38.73.59,1.19.63,1.37.04.18-.08.44-.36.77l-.6.55-.57.66c-.24.2-.59.31-1.05.31-.46,0-.88-.17-1.26-.53-.37-.36-.56-.56-.56-.57Z"/>
  </g>
</svg>