<?xml version="1.0" encoding="UTF-8"?>
<svg xmlns="http://www.w3.org/2000/svg" version="1.1" viewBox="0 0 100 100">
  <!-- Generator: Adobe Illustrator 30.0.0, SVG Export Plug-In . SVG Version: 2.1.1 Build 123)  -->
  <defs>
    <style>
      .st0 {
        fill: #94271e;
      }

      .st1 {
        fill: #ffeaaa;
      }
    </style>
  </defs>
  <g id="_图层_2" data-name="图层_2">
    <path class="st0" d="M87.72,91.35l-.85-3.94-.05,2.3-.26.7-.39.77-.23,1.13s-4.41-.14-6.59-.08c-3.68.09-7.54-.67-10.97-.53-3.1.13-4.52,1.01-6.23.89-2.68-.2-2.22-1.71-4.6-1.55-4.54.3-3.52,1.53-7.81.68-3.51-.69-4,1.58-5.71,1.36-4.33-.56-6.69-.32-7.8.05-1.91.63-2.95-1.09-4.05-1.08-1.43.01-2.12.16-3.37.16-2,0-2.9-1.03-4.37-1.02-2.88.02-2.63.49-2.75.49-1.17.03-.72-.58-1.74-.54-1.57.06-1.76.62-2.53.62-.08,0-.91.03-.99.04l-3.15.33-.8-.35-1.38.27c-.61.12-1.25,0-1.77-.35-.29-.19-.56-.4-.81-.53-.62-.32-1.64-1.55-1.66-2.25-.03-1.47.82-6.66.82-6.66l2.92-.85-1.57-.42-.34-.98s.31-3.26.2-3.53c-2.06-5.35-2.12-6.64-1.94-9.65.13-2.15.72-4.23,1.06-5.42.99-3.47-.43-5.24-.55-5.85-.73-3.79.51-4.16.74-5.51.46-2.67-.39-4.72-.81-5.86-.45-1.22.43-3.32.27-3.56-.72-1.09.11-4.29.11-4.29.04-.6.38-1.02.78-1.4.88-.85.99-2.22.25-3.18l.48-.37c-.43-.57-.52-1.48-.52-1.48l1.28-1.12,3.55,1.32-1.25-1.93s-3.38-1.17-3.55-1.83c-.11-.43-.03-2.12.1-2.54l-.46-2.91c.08-.53.12-.9.04-1.43-.1-.76-.52-1.63-.65-2.36l-.67-4.57c-.14-.83-.03-1.49.3-2.27.74-1.74,2.12-2.64,3.71-2.44l1.41.12c.14.01.29.02.43,0,.7-.06,1.38-.24,2.02-.52.3-.13.92-.32,1.44-.44.33-.07.67-.08,1-.01l1.43.29c1.63.23,2.19,1.21,2.35.6l.26.28.15,2.58.43-.72.31-.23.3-.86.44-.17s.24-.68.25-.68c.41.07,1.97.49,1.97.49l.11,1.25.77-1.07s1.87.19,2.4.17c1.85-.04,2.7-1.51,4-1.14,7.51,2.09,8.31.63,12.67-.92,1.26-.45,1.55,1.19,2.02,1.09,4.83-.95,8.25-.56,11,.02,8.19,1.73,16.49.3,19.1-.12,2.75-.44,11.96.59,11.96.59.81,0,1.06.65,1.06.65l.56-.09.52-.08.47.23s.14,1.57.33,1.68c0,0,.41,4.46.24,7.36-.07,1.29-.79,2.86-1.66,4.04-.61.83-.1,1.88-.1,1.88l.42.68-.95.78h1.33s-1.02.87-1.02.87c0,0,2.01,1.89,2.11,4.82s-.13,4.96.15,6.08c.67,2.75-.97,5.45-.83,6.73.1.9.63,1.37.77,2.02.18.88-.61,3.89-1.49,5.65-.49.99-1.39,1.77-1.39,1.77l.44.58-1.4,1.01,2.28-.59.54,1.12s1.7,4.05,1.67,6.12c-.05,3.63-.46,4.8-.69,5.46-.69,1.93.52,2.06.49,2.97-.06,2.07-1,3.18-1.09,4.72-.07,1.12-.52,4.37-.52,4.37,0,.4.09.8.28,1.15v.83c.28.52.22.9.06,1.47-.05.18.1.71.1.71l-.13.7c-.04.23-.05.47-.03.7l.41,3.78c0,.34-1.59,2.77-1.59,2.77l-.86.34-.86-.71s-.49.39-1.31.31Z"/>
  </g>
  <g id="_图层_4" data-name="图层_4">
    <path class="st1" d="M36.92,54.65c.13.04.25.12.36.26s-.05,1-.46,2.58c-.09.27-.14.43-.14.46l-.25.46c-.05.2-.09.31-.1.33,0,.02-.08.07-.21.15-.13.08-.37.47-.72,1.18-.36.7-1.12,1.54-2.28,2.5-1.17.97-2.31,1.79-3.42,2.46-1.11.67-2.04.67-2.79-.03-.38-.35-.65-.93-.79-1.75-.15-.82-.23-1.43-.26-1.83-.03-.4-.07-.78-.14-1.15-.06-.36-.08-.61-.04-.74.02-.04.15-.24.38-.62.24-.37.42-.62.56-.74.14-.12.66-.22,1.56-.31.9-.09,1.78-.32,2.64-.7.86-.37,1.32-.57,1.39-.59l1.72-.38,1.97-1.29c.4-.24.74-.33,1.01-.27ZM37.77,45.57l-.27.38-.66.98c-.16.2-.48.49-.96.88-.47.38-.77.66-.9.82l-.82,1.12c-.53.57-1.67,1.17-3.43,1.81-1.76.64-2.84.85-3.24.63-.16-.07-.42-.36-.78-.85-.36-.49-.55-.76-.57-.81-.03-.04-.11-.27-.25-.68s-.2-.77-.18-1.08l.16-1.15v-1.23c.02-.2.13-.57.34-1.12.21-.55.58-.86,1.11-.93.02,0,.24,0,.66.01.42,0,1.21-.18,2.37-.57,1.16-.39,2.67-.67,4.53-.83s2.93,0,3.21.46c.28.47.18,1.19-.31,2.16ZM28.99,31.05c.67-.18,2.58.14,5.71.96,3.14.82,4.72,1.43,4.76,1.83.04.4-.39,1.12-1.29,2.16-.8.93-1.31,1.49-1.52,1.67-.21.18-.97.6-2.27,1.24-1.3.65-2.66.83-4.07.55-1.41-.28-2.43-.8-3.06-1.54-.63-.75-.91-1.91-.83-3.5.07-1.77.93-2.89,2.57-3.36ZM36.76,51.15c0-.15.24-.54.71-1.18l10.58-3.69c.36-.15.97-.47,1.82-.98.85-.51,1.27-.91,1.27-1.2-.02-.15-.32-.52-.9-1.12l-.9-1.01c-.51-.51-1.38-1.08-2.61-1.7-1.23-.62-2.1-.99-2.61-1.12l-1.5-.33c-.75-.25-1.2-.71-1.37-1.37s.1-1.23.79-1.72l2.46-.41,1.59-.46,1.78-.11c.38-.02,1.21-.18,2.49-.49,1.28-.31,2.05-.64,2.31-.98.26-.35.42-.65.48-.9l.03-.66c0-.25.12-.68.36-1.27.24-.59.85-.88,1.83-.86.47.02.95.2,1.42.55l2.24,2.41c.6.46,1.33.7,2.19.74.05.02.69-.04,1.9-.18,1.21-.14,2.93-.06,5.17.23,2.23.29,3.41.52,3.53.7.12.17.18.52.19,1.04,0,.52-.05.83-.18.92l-.33.25s-.06.13-.14.34c-.07.21-.72.49-1.96.83-1.23.35-2.16.45-2.79.31s-1.29.08-1.98.64c-.69.57-1.52,1.46-2.47,2.69s-1.42,2.04-1.38,2.42c.02.44.47.93,1.37,1.49.89.56,1.6.95,2.13,1.18.53.23.96.39,1.31.48l2.76.63,2.27.6c.6.13,1.6.2,2.99.21,1.39,0,2.35.21,2.86.6.51.39-.06,1.5-1.72,3.31-1.66,1.81-3.18,2.84-4.55,3.09-1.38.25-3.21-.43-5.48-2.04-.26-.16-.62-.3-1.09-.4-.47-.1-.81-.11-1-.04-.19.07-.27.52-.23,1.34,0,.11.03.57.1,1.39.06.82.11,2.21.14,4.16.03,1.95.12,3.45.27,4.48.15,1.04.2,1.74.12,2.11-.09.44-.29.89-.59,1.35s-.59.82-.88,1.05c-.28.24-.94.37-1.96.41-.57.04-.98-.03-1.24-.21-.27-.17-.42-.41-.46-.71-.05-.3-.07-.61-.07-.92l-.05-1.56s-.02-.07,0-.11c0-.24.03-.59.1-1.05.06-.46.1-.77.12-.92v-1.18l.3-1.56c0-.09.03-.48.08-1.18l.14-1.5c.07-.97.05-2.37-.05-4.21-.02-.07-.05-.4-.08-.97-.04-.57-.05-1.03-.03-1.38l.03-.85c0-.47.01-.84.04-1.09.03-.25.04-.43.04-.52-.02-.04-.45-.43-1.29-1.18l-.96-.88c-.29-.11-.61-.12-.96-.03-.24.07-.65.32-1.23.74l-.88.44c-.05.04-.09.06-.11.08l-.11.14-.79.3v.19l-.36.38c-.15.16-.1.64.15,1.42.25.78.42,1.99.51,3.61.09,1.62.08,3.18-.03,4.68-.18,2.08-.61,3.7-1.27,4.87-.67,1.17-1.44,2.04-2.34,2.61-.89.57-1.85,1-2.86,1.29-1.01.28-1.85.39-2.5.31l-1.94-.44c-.84-.16-1.34-.38-1.5-.64-.16-.26-.18-.56-.05-.89l1.07-1.34,5.5-4.32s.22-.34.62-.9c.39-.56.61-.91.64-1.03.04-.12.06-.23.08-.34l.11-.63.22-.88c.02-.15.07-.58.16-1.31.09-.73.15-1.48.16-2.26.02-.77-.12-1.28-.42-1.5-.3-.23-1.11-.05-2.42.53-.31.15-.75.34-1.33.57-.57.24-.94.4-1.11.48s-.34.18-.52.3c-.18.12-.31.19-.38.21l-.79.22-1.42.52c-.53.05-1.24-.35-2.13-1.2-.84-.77-1.24-1.41-1.2-1.94ZM51.3,38.65l.41.25,1.07,1.12c.78.77,1.84,1.18,3.17,1.23.88.05,1.54-.06,2-.34.46-.28.88-.71,1.29-1.29.4-.57.63-.94.68-1.11s.05-.42,0-.78-.79-.55-2.19-.59h-.41l-3.77.38-.57-.03c-.8,0-1.32.14-1.56.41s-.27.52-.11.74Z"/>
  </g>
</svg>