<?xml version="1.0" encoding="UTF-8"?>
<svg xmlns="http://www.w3.org/2000/svg" version="1.1" viewBox="0 0 100 100">
  <!-- Generator: Adobe Illustrator 30.0.0, SVG Export Plug-In . SVG Version: 2.1.1 Build 123)  -->
  <defs>
    <style>
      .st0 {
        fill: #94271e;
      }

      .st1 {
        fill: #ffeaaa;
      }
    </style>
  </defs>
  <g id="_图层_2" data-name="图层_2">
    <path class="st0" d="M87.72,91.35l-.85-3.94-.05,2.3-.26.7-.39.77-.23,1.13s-4.41-.14-6.59-.08c-3.68.09-7.54-.67-10.97-.53-3.1.13-4.52,1.01-6.23.89-2.68-.2-2.22-1.71-4.6-1.55-4.54.3-3.52,1.53-7.81.68-3.51-.69-4,1.58-5.71,1.36-4.33-.56-6.69-.32-7.8.05-1.91.63-2.95-1.09-4.05-1.08-1.43.01-2.12.16-3.37.16-2,0-2.9-1.03-4.37-1.02-2.88.02-2.63.49-2.75.49-1.17.03-.72-.58-1.74-.54-1.57.06-1.76.62-2.53.62-.08,0-.91.03-.99.04l-3.15.33-.8-.35-1.38.27c-.61.12-1.25,0-1.77-.35-.29-.19-.56-.4-.81-.53-.62-.32-1.64-1.55-1.66-2.25-.03-1.47.82-6.66.82-6.66l2.92-.85-1.57-.42-.34-.98s.31-3.26.2-3.53c-2.06-5.35-2.12-6.64-1.94-9.65.13-2.15.72-4.23,1.06-5.42.99-3.47-.43-5.24-.55-5.85-.73-3.79.51-4.16.74-5.51.46-2.67-.39-4.72-.81-5.86-.45-1.22.43-3.32.27-3.56-.72-1.09.11-4.29.11-4.29.04-.6.38-1.02.78-1.4.88-.85.99-2.22.25-3.18l.48-.37c-.43-.57-.52-1.48-.52-1.48l1.28-1.12,3.55,1.32-1.25-1.93s-3.38-1.17-3.55-1.83c-.11-.43-.03-2.12.1-2.54l-.46-2.91c.08-.53.12-.9.04-1.43-.1-.76-.52-1.63-.65-2.36l-.67-4.57c-.14-.83-.03-1.49.3-2.27.74-1.74,2.12-2.64,3.71-2.44l1.41.12c.14.01.29.02.43,0,.7-.06,1.38-.24,2.02-.52.3-.13.92-.32,1.44-.44.33-.07.67-.08,1-.01l1.43.29c1.63.23,2.19,1.21,2.35.6l.26.28.15,2.58.43-.72.31-.23.3-.86.44-.17s.24-.68.25-.68c.41.07,1.97.49,1.97.49l.11,1.25.77-1.07s1.87.19,2.4.17c1.85-.04,2.7-1.51,4-1.14,7.51,2.09,8.31.63,12.67-.92,1.26-.45,1.55,1.19,2.02,1.09,4.83-.95,8.25-.56,11,.02,8.19,1.73,16.49.3,19.1-.12,2.75-.44,11.96.59,11.96.59.81,0,1.06.65,1.06.65l.56-.09.52-.08.47.23s.14,1.57.33,1.68c0,0,.41,4.46.24,7.36-.07,1.29-.79,2.86-1.66,4.04-.61.83-.1,1.88-.1,1.88l.42.68-.95.78h1.33s-1.02.87-1.02.87c0,0,2.01,1.89,2.11,4.82s-.13,4.96.15,6.08c.67,2.75-.97,5.45-.83,6.73.1.9.63,1.37.77,2.02.18.88-.61,3.89-1.49,5.65-.49.99-1.39,1.77-1.39,1.77l.44.58-1.4,1.01,2.28-.59.54,1.12s1.7,4.05,1.67,6.12c-.05,3.63-.46,4.8-.69,5.46-.69,1.93.52,2.06.49,2.97-.06,2.07-1,3.18-1.09,4.72-.07,1.12-.52,4.37-.52,4.37,0,.4.09.8.28,1.15v.83c.28.52.22.9.06,1.47-.05.18.1.71.1.71l-.13.7c-.04.23-.05.47-.03.7l.41,3.78c0,.34-1.59,2.77-1.59,2.77l-.86.34-.86-.71s-.49.39-1.31.31Z"/>
  </g>
  <g id="_图层_4" data-name="图层_4">
    <path class="st1" d="M32.35,59.54l2.08-.05c.31-.02,1.1-.16,2.38-.44,1.28-.27,2.34-.4,3.2-.38.86.02,1.33-.16,1.44-.53.1-.37-.31-.71-1.22-1l-1.91.55c-.13.04-.46.06-.98.08l-1.8.25c-.36.05-1.26.11-2.68.16-.49-.56-.74-.88-.74-.96l-.3-1.01c.69-.78,1.17-1.2,1.42-1.24.25-.04.44-.08.55-.1h3.58l1.2-.38,3.04-.46c.25-.18.45-.41.59-.68s.2-.42.18-.44l-.68-.25c-.46.15-.79.23-1.01.25l-1.09-.03-2.02.19c-.24-.09-.41-.15-.52-.19l-1.91.25-1.34-.22c.07-.15.12-.25.14-.33l-.85-.96c-.04-.09.04-.31.22-.66.05-.11.2-.58.44-1.41.24-.83.36-1.31.37-1.44,0-.13-.02-.46-.1-1.01-.11-.69-.18-1.1-.22-1.23l-.57-1.26c-.02-.07,0-.16.03-.27.15-.67.89-1.02,2.23-1.03,1.34,0,2.39-.1,3.14-.29.76-.18,1.17-.27,1.24-.27l.68.08c.38.05.77.02,1.18-.11l.71-.25c.77-.24,1.65-.38,2.65-.42,1-.05,1.79-.18,2.35-.4.56-.22,1.44-.31,2.62-.27.97.04,1.72.13,2.27.27.71,0,1.42.03,2.12.1.7.06,1.17.07,1.41.01l.71-.19c.24-.04.69,0,1.37.11.67.11,1.22.18,1.64.21.42.03.97.13,1.65.3.68.17,1.33.18,1.96.01l1.37-.41c.95-.13,1.38-.05,1.29.22l-.14,2.98c-.62.95-.93,1.45-.93,1.5l-.22.71-.55,1.72c-.11.42-.26.84-.44,1.26l-.08.66-.49.85c-1.68.24-2.81.34-3.39.3-.58-.04-1.15.14-1.71.52-.56.38-.34.74.64,1.07.89.16,1.57.26,2.02.27l3.8-.16c1.02-.02,1.52.3,1.49.94-.03.65-.33,1.1-.92,1.35-.58.26-1.68.29-3.28.11-2.52-.25-3.98-.27-4.4-.05-.42.22-.5.53-.25.94.25.41.99.75,2.2,1.03,1.21.27,3.53.36,6.96.25,4.1-.13,6.69-.26,7.78-.41,1.08-.15,1.7-.07,1.85.22.14.29-.05.98-.6,2.08-.93,1.86-2.1,2.98-3.5,3.36-.77.22-1.71.19-2.82-.08l-2.11-.57-2.16-.46c-.53-.11-1.03-.25-1.5-.41l-2.02-.66c-.33-.07-1.4-.15-3.23-.23-1.82-.08-3.2-.17-4.13-.26-3.21-.25-5.85-.22-7.93.11l-1.48.25-6.34.68-1.94.68-3.09.52c-.57.07-.98.15-1.23.22l-1.61.66-1.42.14-1.15.22c-.97.13-1.56,0-1.79-.36-.23-.36-.39-.72-.48-1.08-.09-.36,0-.78.27-1.27.16-.31.35-.51.55-.62.2-.1.6-.22,1.2-.37l1.89-.46.3.03c.88-.33,1.84-.54,2.9-.63ZM31.07,34.63c.02-.15.04-.25.05-.33l.25-.85.11-.46.74-1.67.44.03c.71-.13,1.55-.14,2.52-.04.97.1,1.64.05,2.02-.15.38-.2.62-.31.71-.34.09-.03,1.06-.1,2.9-.23.77-.04,1.64-.15,2.62-.33.98-.18,1.69-.24,2.11-.18.42.06.85.16,1.29.29.44.13,1.03.21,1.76.23s1.14.1,1.22.21l.68.98.05.11c-.47,1.02-.83,1.77-1.07,2.24-.24.47-.4.84-.48,1.11-.08.26-.14,1.02-.18,2.26l-.25,1.29-.22,1.15-.25.14c-.58.6-.96.88-1.12.85l-1.2-.05c-.13-.58-.17-1.03-.14-1.34l.25-1.23c.02-.09.04-.29.07-.59s.06-.53.1-.7l.36-1.26c.02-.13.05-.38.08-.77.04-.38.02-.62-.05-.71l-.38-.49c-.88.16-1.59.28-2.15.36-.56.07-1.24.1-2.06.08-.82-.02-1.28-.03-1.37-.03-.42.04-1.51.33-3.28.88-1.77.55-3.04.74-3.8.57l-1.18-.3c-.33-.04-.5-.07-.52-.11l-.55-.44-.08-.16ZM32.65,41.82c.04-.44.11-.72.22-.86s.62-.38,1.54-.72c.92-.35,1.57-.56,1.96-.66l3.28-.14c.31-.02.58-.05.82-.11l1.56-.52c.35-.09.7-.13,1.07-.11.36.02.73.31,1.09.88l-.63,1.12c-.2.05-.46.13-.78.22-.32.09-.52.14-.62.14l-1.23-.03-.55.25-1.31.14-1.09.25-1.15.03-.57.19-.44.05-1.61.41c-.24-.02-.44-.12-.6-.3-.35.05-.67-.02-.96-.22ZM34.62,64.3l.55-.05c1.31.04,2.28-.05,2.9-.27l1.15-.46c.8-.29,1.7-.46,2.71-.49l3.55.14c1.22-.02,1.85.18,1.87.59s-.33.85-1.07,1.31-1.51.87-2.31,1.22c-.8.35-1.32.55-1.56.6l-1.42.3c-.4.09-.86.22-1.37.38l-2.35.82c-.8.27-1.29.38-1.45.33l-2.13-.3c-.33-.35-.51-.58-.55-.71-.04-.13-.07-.26-.1-.41-.03-.15-.05-.39-.05-.74,0-.35.53-1.09,1.63-2.24ZM43.85,36.15c0,.1-.13.36-.37.78-.24.42-.65.58-1.23.49-2.01.47-3.19.69-3.55.66l-.9-.03c-1.08.6-2.14.86-3.2.77-.47-.04-.77-.17-.88-.41l-.08-.55c-.04-.09-.05-.15-.03-.16,0-.05.22-.29.67-.71.45-.42,1.65-.72,3.6-.9,1.04-.07,1.85-.11,2.43-.11l1.7.05,1.83-.25c.02.15.02.27.01.37ZM37.36,49.59c.16.26.26.38.3.38l1.45.57c2.75-.35,4.57-.63,5.44-.85s1.36-.35,1.45-.38l.41-.22.74-.27-.14-1.23c-.13,0-.22,0-.27-.03l-1.01.19-1.78.38c-1.19.62-2.09.73-2.72.33-.63-.4-.88-.81-.75-1.23.13-.42.92-.79,2.38-1.12l.63-.16c1.82-.46,2.83-.67,3.01-.66l.68.08.38-.96c-4.9-.22-8.03.52-9.38,2.21-.29,1.17-.57,2.15-.82,2.95ZM47.17,58.3c.29.08.72.1,1.29.04.62-.05,1.38-.1,2.27-.12.89-.03,1.41-.18,1.56-.45l.68-1.01c-.07-.33-.14-.5-.19-.52l-.68-.22c-1.08.02-2.36-.04-3.86-.19-1.5-.15-2.23.17-2.21.96l-.05.55c.51.57.91.89,1.2.97ZM46.22,52.9c.27.37.47.56.6.59.13.03.25.04.36.04l2.08-.05c3.26.29,4.62-.17,4.07-1.39-.05-.07-.83-.15-2.34-.25-1.5-.09-2.6-.04-3.29.15-.69.19-1.08.29-1.18.29l-.33.22.03.41ZM51.22,49.04c.67.53,1.68.77,3.01.71l1.31-.14h2.84l1.61-.22c.86-.09,1.34-.24,1.46-.45.12-.21.21-.43.26-.67l.33-1.86c.14-.51.22-.85.23-1.03,0-.17-.04-.34-.15-.51-.09-.09-.18-.16-.27-.22-.09-.05-.31-.1-.66-.14-.35-.04-.94-.19-1.76-.46-.83-.27-1.55-.37-2.17-.29-.62.08-1.09.11-1.42.1l-3.86.25h-.33l-.22.19-.11.52c.16.31.31.5.44.57l2.02-.41,1.89.22,1.18-.14,2.27.77c.2.31.29.47.27.49l-1.2,1.34-.52-.03c-1.42-.13-2.59-.18-3.5-.15-.91.03-1.88.27-2.9.72l-.05.82ZM52.12,39.64c.14-.35.29-.58.42-.71.14-.13.55-.31,1.26-.55.7-.24,1.33-.34,1.87-.3l1.07.16,1.26.03c.67-.35,1.59-.25,2.73.3l-.03.33c-.57.18-1.11.37-1.63.57-.52.2-.97.32-1.35.37-.38.05-.66.1-.82.18l-.85.46c-.09.04-.27.05-.52.05l-1.37.14-1.7.03-.36-1.07ZM52.31,63.48c.47-.27.87-.46,1.18-.56.31-.1.72-.17,1.23-.21h3.47c.25.04,1.22.27,2.91.71,1.69.44,2.72.78,3.1,1.01.38.24.66.47.85.71.18.24.27.42.26.53,0,.12-.28.55-.81,1.3-1.2.93-2.12,1.54-2.75,1.82-.63.28-1.32.32-2.06.11-.75-.21-1.58-.65-2.5-1.31-.92-.67-1.77-1.24-2.54-1.74-.78-.49-1.29-.88-1.54-1.15l-.57-.66-.3-.33.08-.25ZM63.5,39.77c0-.35,0-.61.01-.79,0-.18.03-.35.07-.49l.93-2.43.25-1.42-.68-.96c-.82-.07-1.43-.14-1.83-.19-.4-.05-.68-.08-.82-.08-.24.02-.46.05-.68.08l-.79.22-4.51-.08c-1.08.36-1.86.52-2.34.45-.48-.06-.73-.32-.74-.77,0-.45,0-.71.04-.78,0-.04.13-.23.38-.57l.74-1.12.74-.16c.91.18,1.49.27,1.74.26.25,0,.92-.11,2.01-.3s2.48-.25,4.16-.19c1.68.06,3.17.26,4.48.57,1.31.32,2.13.62,2.46.9.33.28.55.74.68,1.38l.16.82-1.61,2.05c-.22.15-.41.29-.56.42-.16.14-.38.47-.67,1.01-.29.54-.56,1.06-.79,1.57l-.46,1.09c-.13.22-.43.49-.92.82-.48.33-.96-.11-1.44-1.31ZM52.86,36.88l.08-.93c.33-.24.64-.42.93-.56.29-.14.84-.26,1.64-.37.8-.11,1.4-.15,1.8-.14l2.62.25,1.01-.03c.58.05.88.21.88.46l.03.27c-.15.13-.33.19-.55.19-.6.31-1.84.59-3.71.83-1.87.25-2.97.41-3.29.49s-.57.11-.71.08c-.15-.03-.38-.13-.68-.31l-.05-.25Z"/>
  </g>
</svg>