<?xml version="1.0" encoding="UTF-8"?>
<svg xmlns="http://www.w3.org/2000/svg" version="1.1" viewBox="0 0 100 100">
  <!-- Generator: Adobe Illustrator 30.0.0, SVG Export Plug-In . SVG Version: 2.1.1 Build 123)  -->
  <defs>
    <style>
      .st0 {
        fill: #94271e;
      }

      .st1 {
        fill: #ffeaaa;
      }
    </style>
  </defs>
  <g id="_图层_2" data-name="图层_2">
    <path class="st0" d="M87.72,91.35l-.85-3.94-.05,2.3-.26.7-.39.77-.23,1.13s-4.41-.14-6.59-.08c-3.68.09-7.54-.67-10.97-.53-3.1.13-4.52,1.01-6.23.89-2.68-.2-2.22-1.71-4.6-1.55-4.54.3-3.52,1.53-7.81.68-3.51-.69-4,1.58-5.71,1.36-4.33-.56-6.69-.32-7.8.05-1.91.63-2.95-1.09-4.05-1.08-1.43.01-2.12.16-3.37.16-2,0-2.9-1.03-4.37-1.02-2.88.02-2.63.49-2.75.49-1.17.03-.72-.58-1.74-.54-1.57.06-1.76.62-2.53.62-.08,0-.91.03-.99.04l-3.15.33-.8-.35-1.38.27c-.61.12-1.25,0-1.77-.35-.29-.19-.56-.4-.81-.53-.62-.32-1.64-1.55-1.66-2.25-.03-1.47.82-6.66.82-6.66l2.92-.85-1.57-.42-.34-.98s.31-3.26.2-3.53c-2.06-5.35-2.12-6.64-1.94-9.65.13-2.15.72-4.23,1.06-5.42.99-3.47-.43-5.24-.55-5.85-.73-3.79.51-4.16.74-5.51.46-2.67-.39-4.72-.81-5.86-.45-1.22.43-3.32.27-3.56-.72-1.09.11-4.29.11-4.29.04-.6.38-1.02.78-1.4.88-.85.99-2.22.25-3.18l.48-.37c-.43-.57-.52-1.48-.52-1.48l1.28-1.12,3.55,1.32-1.25-1.93s-3.38-1.17-3.55-1.83c-.11-.43-.03-2.12.1-2.54l-.46-2.91c.08-.53.12-.9.04-1.43-.1-.76-.52-1.63-.65-2.36l-.67-4.57c-.14-.83-.03-1.49.3-2.27.74-1.74,2.12-2.64,3.71-2.44l1.41.12c.14.01.29.02.43,0,.7-.06,1.38-.24,2.02-.52.3-.13.92-.32,1.44-.44.33-.07.67-.08,1-.01l1.43.29c1.63.23,2.19,1.21,2.35.6l.26.28.15,2.58.43-.72.31-.23.3-.86.44-.17s.24-.68.25-.68c.41.07,1.97.49,1.97.49l.11,1.25.77-1.07s1.87.19,2.4.17c1.85-.04,2.7-1.51,4-1.14,7.51,2.09,8.31.63,12.67-.92,1.26-.45,1.55,1.19,2.02,1.09,4.83-.95,8.25-.56,11,.02,8.19,1.73,16.49.3,19.1-.12,2.75-.44,11.96.59,11.96.59.81,0,1.06.65,1.06.65l.56-.09.52-.08.47.23s.14,1.57.33,1.68c0,0,.41,4.46.24,7.36-.07,1.29-.79,2.86-1.66,4.04-.61.83-.1,1.88-.1,1.88l.42.68-.95.78h1.33s-1.02.87-1.02.87c0,0,2.01,1.89,2.11,4.82s-.13,4.96.15,6.08c.67,2.75-.97,5.45-.83,6.73.1.9.63,1.37.77,2.02.18.88-.61,3.89-1.49,5.65-.49.99-1.39,1.77-1.39,1.77l.44.58-1.4,1.01,2.28-.59.54,1.12s1.7,4.05,1.67,6.12c-.05,3.63-.46,4.8-.69,5.46-.69,1.93.52,2.06.49,2.97-.06,2.07-1,3.18-1.09,4.72-.07,1.12-.52,4.37-.52,4.37,0,.4.09.8.28,1.15v.83c.28.52.22.9.06,1.47-.05.18.1.71.1.71l-.13.7c-.04.23-.05.47-.03.7l.41,3.78c0,.34-1.59,2.77-1.59,2.77l-.86.34-.86-.71s-.49.39-1.31.31Z"/>
  </g>
  <g id="_图层_4" data-name="图层_4">
    <path class="st1" d="M25.22,54.67l.52-1.01c.29-.44,1.21-.77,2.75-1,1.54-.23,2.84-.6,3.91-1.11,1.07-.51,1.78-.84,2.15-.98.36-.15.61-.29.74-.42.13-.14-.05-.88-.52-2.23l-.71-2.65-.77-1.75c-.05-.27-.04-.55.05-.82.09-.33.33-.63.72-.92.39-.28.72-.47.97-.56.25-.09.7-.09,1.34,0,1.31.22,2.23.3,2.76.25.22-.02.61-.11,1.18-.27.56-.16.9-.34,1.01-.53s.17-.42.19-.68c.02-.26-.09-.72-.31-1.38-.23-.66-.44-1.05-.63-1.18-.19-.13-.57-.12-1.13.03-.84.22-1.29.33-1.34.33l-.79.08c-.31.05-.88.22-1.72.49-.84.27-2.11.57-3.81.89-1.7.32-2.65.45-2.83.4-.47-.11-.92-.47-1.34-1.08-.42-.61-.66-1.05-.71-1.31-.05-.26-.09-.49-.1-.68,0-.19.06-.51.21-.97.38-1.22.81-1.89,1.29-2,.13-.02.44.04.94.18.5.14,1.06.19,1.68.15.55-.02,1.45-.15,2.71-.41,1.26-.25,2.26-.42,2.99-.51s1.27-.18,1.59-.3c.32-.12.6-.31.83-.56l.9-2.13c.36-.86.94-1.26,1.72-1.2.44.05.87.28,1.29.68l1.56,2.11c.29.31.62.53.98.66.36.13,1.08.16,2.16.08,2.22-.11,3.91-.16,5.04-.15,1.14,0,1.93-.1,2.37-.34.44-.24.79-.56,1.07-.98l.6-1.26c.33-.58.97-.99,1.94-1.23.97-.24,1.56.17,1.78,1.23l-.03.98c0,.29.14.58.41.88.27.29,1.34.42,3.21.38,1.87-.04,3.04-.05,3.51-.03.82.07,1.63.23,2.42.46.79.24,1.31.45,1.54.63.24.18.36.53.37,1.04,0,.51-.17.96-.53,1.34l-1.48.9c-.6.44-.96.66-1.07.66-.05.02-.2,0-.42-.03-.23-.04-.6-.04-1.11-.01s-1.82-.03-3.92-.18c-2.11-.15-3.52-.05-4.25.27s-1.32.9-1.78,1.71c-.46.81-.59,1.33-.41,1.54.13.18.64.26,1.53.23s2.15-.03,3.76,0,2.77.01,3.46-.04c.78-.05,1.32.08,1.6.4.28.32.42.66.42,1.03-.02.24-.09.48-.22.74l-2,2.41c-.13.18-.47.94-1.03,2.28s-.62,2.08-.21,2.23c.4.16,1.4.34,3.01.52,1.6.18,2.7.28,3.28.3.49.04,1.67.02,3.53-.05,1.86-.07,2.84.09,2.94.48.1.39-.07.87-.51,1.44-1.9,2.44-3.4,3.92-4.53,4.42-1.12.5-2.1.74-2.94.72-.6,0-1.39-.14-2.38-.41l-6.1-1.86c-1.6-.47-3.04-.81-4.31-1s-2.58-.18-3.95.04c-.58.11-1.05.27-1.39.48-.35.21-.92,1.02-1.72,2.43-.8,1.41-1.91,3.09-3.34,5.02-1.42,1.93-2.41,3.14-2.97,3.62-.56.48-1.3,1.01-2.23,1.57-.93.56-2.05.97-3.36,1.22s-2.74-.58-4.29-2.47c-.67-.78-1.09-1.27-1.26-1.45-.16-.18-.26-.41-.27-.67-.02-.26.1-.49.36-.67.11-.07.43-.13.96-.16l2.27-.52,2.52-.25c.78-.15,1.84-.67,3.16-1.56,1.32-.89,2.36-1.79,3.12-2.71.76-.91,1.27-1.59,1.53-2.05.26-.46.37-.81.31-1.05s-1.13-.1-3.23.42l-2.57.38-3.31,1.07c-.24.05-1.16.19-2.78.4-1.61.21-3.07.64-4.36,1.29-1.29.65-2.14.92-2.54.81-.6-.13-1.06-.53-1.37-1.2l-.38-1.2c-.18-.51-.27-.77-.27-.79v-.9c.16-.15.28-.27.36-.38ZM39.76,47.42c.13,1.28.34,1.99.63,2.15.29.16.81.17,1.56.04.95-.15,2.11-.35,3.47-.62,1.37-.26,2.08-.43,2.15-.51.06-.07.07-.54.01-1.39v-.9c-.09-.55-.2-.92-.33-1.13-.13-.21-.66-.28-1.59-.21-1.19.11-2.45.35-3.79.71-1.34.36-2.04.67-2.11.92-.06.25-.07.56-.01.94ZM45.48,40.04c.11.18.37.28.79.3.42.02.72-.05.9-.19l.52-1.12c.11-.16.52-.41,1.23-.74s1.31-.43,1.8-.3c.27.09.46.2.57.33.11.13.23.41.37.85s.41.67.81.7.73-.1.98-.4c.07-.07.21-.34.4-.79.19-.46.34-.88.44-1.27.1-.39.01-.68-.26-.86-.11-.05-.41-.05-.9,0l-2.98-.22-2.79.19c-.84-.02-1.33.05-1.48.19-.26.26-.39.87-.41,1.85-.02.98-.02,1.47,0,1.49ZM51.9,48.63l1.61.05,2.84.33.77-.05c.13,0,.62.05,1.49.16s1.47.03,1.82-.25c.2-.16.43-.62.7-1.38.26-.76.42-1.32.48-1.68.05-.36.09-.65.1-.86,0-.21,0-.45-.03-.71-.03-.26-1.91-.47-5.65-.62-1.99-.07-3.1-.03-3.35.12-.25.16-.43.33-.55.53-.12.2-.26.94-.41,2.23s-.1,1.99.18,2.12ZM53.82,58.74c-.02-.13.08-.39.29-.78.21-.39.64-.57,1.3-.53,1.31.09,3.46.7,6.45,1.83,2.99,1.13,4.8,1.96,5.44,2.47s.96.99.96,1.41c-.02.22-.19.6-.52,1.13-.33.54-.98,1.24-1.97,2.12s-2.06,1.38-3.23,1.5c-.75.09-1.43,0-2.05-.25-.62-.26-1.62-1.21-2.99-2.87s-2.33-2.9-2.86-3.73c-.53-.83-.8-1.6-.82-2.31Z"/>
  </g>
</svg>