<?xml version="1.0" encoding="UTF-8"?>
<svg xmlns="http://www.w3.org/2000/svg" version="1.1" viewBox="0 0 100 100">
  <!-- Generator: Adobe Illustrator 30.0.0, SVG Export Plug-In . SVG Version: 2.1.1 Build 123)  -->
  <defs>
    <style>
      .st0 {
        fill: #94271e;
      }

      .st1 {
        fill: #ffeaaa;
      }
    </style>
  </defs>
  <g id="_图层_2" data-name="图层_2">
    <path class="st0" d="M87.72,91.35l-.85-3.94-.05,2.3-.26.7-.39.77-.23,1.13s-4.41-.14-6.59-.08c-3.68.09-7.54-.67-10.97-.53-3.1.13-4.52,1.01-6.23.89-2.68-.2-2.22-1.71-4.6-1.55-4.54.3-3.52,1.53-7.81.68-3.51-.69-4,1.58-5.71,1.36-4.33-.56-6.69-.32-7.8.05-1.91.63-2.95-1.09-4.05-1.08-1.43.01-2.12.16-3.37.16-2,0-2.9-1.03-4.37-1.02-2.88.02-2.63.49-2.75.49-1.17.03-.72-.58-1.74-.54-1.57.06-1.76.62-2.53.62-.08,0-.91.03-.99.04l-3.15.33-.8-.35-1.38.27c-.61.12-1.25,0-1.77-.35-.29-.19-.56-.4-.81-.53-.62-.32-1.64-1.55-1.66-2.25-.03-1.47.82-6.66.82-6.66l2.92-.85-1.57-.42-.34-.98s.31-3.26.2-3.53c-2.06-5.35-2.12-6.64-1.94-9.65.13-2.15.72-4.23,1.06-5.42.99-3.47-.43-5.24-.55-5.85-.73-3.79.51-4.16.74-5.51.46-2.67-.39-4.72-.81-5.86-.45-1.22.43-3.32.27-3.56-.72-1.09.11-4.29.11-4.29.04-.6.38-1.02.78-1.4.88-.85.99-2.22.25-3.18l.48-.37c-.43-.57-.52-1.48-.52-1.48l1.28-1.12,3.55,1.32-1.25-1.93s-3.38-1.17-3.55-1.83c-.11-.43-.03-2.12.1-2.54l-.46-2.91c.08-.53.12-.9.04-1.43-.1-.76-.52-1.63-.65-2.36l-.67-4.57c-.14-.83-.03-1.49.3-2.27.74-1.74,2.12-2.64,3.71-2.44l1.41.12c.14.01.29.02.43,0,.7-.06,1.38-.24,2.02-.52.3-.13.92-.32,1.44-.44.33-.07.67-.08,1-.01l1.43.29c1.63.23,2.19,1.21,2.35.6l.26.28.15,2.58.43-.72.31-.23.3-.86.44-.17s.24-.68.25-.68c.41.07,1.97.49,1.97.49l.11,1.25.77-1.07s1.87.19,2.4.17c1.85-.04,2.7-1.51,4-1.14,7.51,2.09,8.31.63,12.67-.92,1.26-.45,1.55,1.19,2.02,1.09,4.83-.95,8.25-.56,11,.02,8.19,1.73,16.49.3,19.1-.12,2.75-.44,11.96.59,11.96.59.81,0,1.06.65,1.06.65l.56-.09.52-.08.47.23s.14,1.57.33,1.68c0,0,.41,4.46.24,7.36-.07,1.29-.79,2.86-1.66,4.04-.61.83-.1,1.88-.1,1.88l.42.68-.95.78h1.33s-1.02.87-1.02.87c0,0,2.01,1.89,2.11,4.82s-.13,4.96.15,6.08c.67,2.75-.97,5.45-.83,6.73.1.9.63,1.37.77,2.02.18.88-.61,3.89-1.49,5.65-.49.99-1.39,1.77-1.39,1.77l.44.58-1.4,1.01,2.28-.59.54,1.12s1.7,4.05,1.67,6.12c-.05,3.63-.46,4.8-.69,5.46-.69,1.93.52,2.06.49,2.97-.06,2.07-1,3.18-1.09,4.72-.07,1.12-.52,4.37-.52,4.37,0,.4.09.8.28,1.15v.83c.28.52.22.9.06,1.47-.05.18.1.71.1.71l-.13.7c-.04.23-.05.47-.03.7l.41,3.78c0,.34-1.59,2.77-1.59,2.77l-.86.34-.86-.71s-.49.39-1.31.31Z"/>
  </g>
  <g id="_图层_4" data-name="图层_4">
    <path class="st1" d="M26.17,43.58c-.16-.77,0-1.76.51-2.98.5-1.22.77-1.88.81-1.98.04-.1.05-.23.05-.4-.02-.07-.03-.15-.03-.25l-.44-.88c-.11-.22-.16-.47-.14-.77,0-.18.04-.39.12-.62.08-.23.18-.37.29-.42.04-.02.14-.03.3-.03l1.29-.14.63.11c.15.02,1.34-.23,3.6-.74,2.25-.51,3.53-.79,3.84-.85l1.8-.16,2.9-.38,2.35-.16c.86-.15,1.55-.46,2.08-.93l1.94-2.13c.64-.4,1.12-.61,1.45-.63.15,0,.26,0,.33.03l.3.16.96.08,1.34.74.63.3c.2.15.38.38.55.7.16.32.3.55.4.7.1.15.42.27.97.37.55.1.88.15.98.15h.63l1.56.22,2.3.05.96.22,3.2-.03c.29.02.69.05,1.19.11s.86.07,1.07.05c.21-.02.33-.03.37-.03l1.04.27s.15.03.45.04c.3,0,.73.1,1.29.29.56.18,1.24.23,2.06.14.26-.02.66-.17,1.22-.46.56-.29.92-.36,1.08-.22l.25.3.57.27c.02.05.04.16.08.3.04.15-.02.56-.16,1.23-.24.95-.42,1.5-.55,1.67l-.14.16-.27.68-.57.9-.14.55-.66,1.09-.36.68c-.07.11-.43.44-1.08.98s-1.01.84-1.08.88c-.07.04-.39.15-.94.34s-.98.31-1.27.34c-.29.04-.48-.02-.57-.18-.09-.15-.15-.28-.18-.38-.03-.1.02-.32.15-.67.18-.56.37-1.28.57-2.13.2-.86.3-1.35.31-1.48,0-.13-.01-.28-.07-.46-.04-.09-.09-.18-.15-.27-.06-.09-.4-.25-1-.46l-.98-.38c-.13-.02-.48-.03-1.07-.04-.58,0-1.77-.2-3.57-.57-1.79-.37-3.3-.54-4.53-.51l-2.21.22c-.26.02-.74,0-1.45-.07-.71-.06-1.31-.1-1.8-.12-.4,0-1.55.07-3.44.22l-1.45.22c-.66.09-1.43.17-2.31.25-.88.07-1.38.11-1.49.11l-2.05.52-2.73.46-1.31.41-1.45.33c-.71.24-1.21.49-1.49.75-.28.26-.64.77-1.08,1.5s-.93,1.32-1.49,1.74c-.56.42-1.19.95-1.91,1.6-.72.65-1.17.93-1.35.83l-1.07-.82c-.44-.13-.67-.31-.71-.55ZM26.56,57.83c-.05-.13-.06-.76-.01-1.9.05-1.14.26-1.79.66-1.94.39-.15.67-.19.83-.1l.3.25c.05.04.11.05.16.05.25.02.76-.03,1.52-.14.76-.11,1.97-.49,3.65-1.15l1.39-.46,1.5-.68.68-.25c.44-.16,1.06-.55,1.87-1.15.81-.6,1.44-1.01,1.9-1.23l1.12-.49.96-.57c1.37-.8,2.09-1.24,2.16-1.31l.77-.79,1.53-1.26,1.8-1.89c.37-.31.67-.45.9-.41.05.02.22.09.49.22l1.12.46,1.15,1.04.85.57c.07.05.33.26.77.6.44.35.71.57.82.66l.52.49c.15.15.84.56,2.09,1.24s1.88,1.03,1.9,1.03l1.07.33,1.8.98c.16.07.55.19,1.15.36s1.12.31,1.57.42c.45.12.75.2.92.23.16.04.37.07.63.11l2.3.33c.37.07,1.15.2,2.35.38l.82.14c1.29.22,2.46.16,3.51-.16,1.05-.33,1.65-.41,1.8-.23.15.17.14.62-.04,1.33-.24.88-.87,2.03-1.89,3.47-1.02,1.44-1.99,2.45-2.91,3.02s-1.92.83-2.99.75c-.75-.04-1.65-.31-2.72-.82-1.07-.51-1.74-.91-2.02-1.19-.28-.28-.43-.44-.45-.48l-.88-.49-.55-.49c-.33-.27-.53-.37-.62-.3-.08.07-.13.19-.14.34,0,.16.07.47.23.94l.66,6.97c.07.09.11.15.12.18s.03.18.07.45l.08.6c-.02.15-.14.37-.36.66s-.51.5-.88.63c-.37.13-1.43.11-3.2-.04-1.77-.16-4.15-.27-7.14-.34-.29,0-1.56.03-3.8.08l-.82.03h-1.09c-.11.02-.36.07-.74.16l-3.53.71c-.78.25-1.29.39-1.53.4-.24,0-.38.02-.44.04l-.36.22c-.27.16-.82.25-1.64.27-.22.02-.69-.08-1.41-.29-.72-.21-1.07-.78-1.05-1.71,0-.53.12-.88.37-1.05.25-.17.38-.28.41-.31.03-.04.07-.19.12-.46s.19-.61.41-1.01c.22-.4.34-.64.36-.71.02-.07.04-.29.07-.66.03-.36.25-1.11.68-2.23.43-1.12.55-1.94.37-2.45-.31-.78-.6-1.17-.88-1.15l-.6.3-.57.14-.9.63-.82.25-1.31.74c-.33.15-.71.29-1.15.44l-1.23.27c-.11.04-.31.1-.59.19-.28.09-.51.14-.67.14-.29.02-.83-.15-1.61-.49-.78-.35-1.28-.66-1.48-.94-.2-.28-.3-.45-.3-.51ZM34.68,41.34l.22-.08c.84-.33,1.36-.48,1.56-.46l.41.08,2.11-.27.66-.05.71-.22c.55-.13,1.2-.21,1.96-.25.76-.04,1.33-.1,1.74-.18.4-.08.77.03,1.12.33.35.3.44.68.27,1.13-.05.15-.21.34-.45.57-.25.24-.42.41-.51.52l-.63.79c-.09.09-.35.26-.77.51-.42.25-.8.52-1.15.81l-1.67,1.45c-2.44,1.75-3.96,2.61-4.54,2.57-.36,0-.77-.17-1.2-.51-.44-.34-.7-.57-.79-.7-.09-.13-.21-.39-.36-.79-.15-.4-.21-.8-.19-1.2,0-.29.07-.69.21-1.19.14-.5.36-1.08.68-1.75.32-.67.52-1.03.62-1.11ZM48.84,53.24c1.17-.04,1.99-.11,2.46-.22s.77-.17.88-.19l1.5.19c.07,0,.23-.02.48-.05.25-.04.41-.05.51-.05.09.02.8.16,2.13.44s1.93.36,1.8.25c-.07-.04-.55-.32-1.44-.86-.88-.54-1.92-1.34-3.1-2.41s-1.93-1.69-2.23-1.86c-.3-.17-.61-.38-.92-.63s-.46-.38-.46-.4h-.11l-.38-.08c-.18-.02-.66.42-1.42,1.31l-2.24,1.48-.49.41-1.2.68-1.12.77c-.29.15-.47.26-.53.34-.06.08-.12.22-.18.41s-.09.43-.1.71c0,.28.35.42,1.08.4.36,0,.75-.03,1.15-.08l2.46-.41c.58-.07,1.08-.12,1.48-.14ZM45.29,62.42c1.53-.2,2.33-.32,2.41-.36l3.55-.11c.78-.11,1.57-.25,2.37-.41s1.6-.25,2.42-.27c.16,0,.39.02.67.07.28.05.45.06.51.04.46,0,.8-.17,1.03-.51.23-.34.36-.56.4-.66.04-.1.09-.46.15-1.07.06-.61.06-.97-.01-1.08-.13-.15-.42-.25-.88-.3l-1.59-.08-1.45-.36c-.27-.04-.56-.06-.85-.08-.16,0-.34.02-.52.07-.18.05-.52.06-1.03.05-.5,0-.9.01-1.19.07s-.57.12-.83.21-.43.12-.51.12l-1.64.11-1.89.33-1.23.03c-.24.07-.57.26-.98.57-.42.31-.63.54-.63.68l.03.38c-.02.05-.06.21-.14.48-.07.26-.09.52-.05.75.09.73.3,1.15.62,1.26.32.11.74.13,1.27.05ZM54.34,40.03c.04-.35.11-.53.23-.56s.3-.01.53.04.68-.01,1.34-.21,1.38-.3,2.16-.33,1.24-.04,1.37-.04l1.8.49.55.05c.33.05.85.31,1.57.78s1.08.8,1.09,1.01c0,.21-.01.38-.07.51l-.77.88-.52.96c-.15.24-.56.61-1.23,1.12-.67.51-1.17.77-1.48.79-.18.02-.63-.12-1.34-.41l-.74-.27c-.2-.07-.5-.26-.9-.57-.4-.31-.91-.65-1.52-1.03-.61-.37-1.01-.73-1.19-1.08l-.6-1.29c-.22-.42-.32-.7-.3-.85Z"/>
  </g>
</svg>